<mxfile host="app.diagrams.net" modified="2023-08-29T10:22:43.785Z" agent="Mozilla/5.0 (Windows NT 10.0; Win64; x64) AppleWebKit/537.36 (KHTML, like Gecko) Chrome/116.0.0.0 Safari/537.36" etag="XaIwh7Sw8I1Wa85MVTvD" version="21.6.9" type="device">
  <diagram id="C5RBs43oDa-KdzZeNtuy" name="Page-1">
    <mxGraphModel dx="1750" dy="890" grid="1" gridSize="10" guides="1" tooltips="1" connect="1" arrows="1" fold="1" page="1" pageScale="1" pageWidth="827" pageHeight="1169" math="0" shadow="0">
      <root>
        <mxCell id="WIyWlLk6GJQsqaUBKTNV-0" />
        <mxCell id="WIyWlLk6GJQsqaUBKTNV-1" parent="WIyWlLk6GJQsqaUBKTNV-0" />
        <mxCell id="YDyKrme9RF64aUGpRZzH-53" value="" style="rounded=0;whiteSpace=wrap;html=1;fillColor=#f5f5f5;fontColor=#333333;strokeColor=#666666;" vertex="1" parent="WIyWlLk6GJQsqaUBKTNV-1">
          <mxGeometry x="215" y="465" width="655" height="400" as="geometry" />
        </mxCell>
        <mxCell id="YDyKrme9RF64aUGpRZzH-33" style="edgeStyle=orthogonalEdgeStyle;rounded=0;orthogonalLoop=1;jettySize=auto;html=1;entryX=0;entryY=0.5;entryDx=0;entryDy=0;shape=flexArrow;" edge="1" parent="WIyWlLk6GJQsqaUBKTNV-1" source="YDyKrme9RF64aUGpRZzH-5" target="YDyKrme9RF64aUGpRZzH-11">
          <mxGeometry relative="1" as="geometry">
            <Array as="points">
              <mxPoint x="320" y="780" />
            </Array>
          </mxGeometry>
        </mxCell>
        <mxCell id="YDyKrme9RF64aUGpRZzH-5" value="PRODUCT DATABASE" style="shape=trapezoid;perimeter=trapezoidPerimeter;whiteSpace=wrap;html=1;fixedSize=1;rounded=1;glass=0;strokeWidth=1;shadow=0;fillColor=#dae8fc;strokeColor=#6c8ebf;fontStyle=1" vertex="1" parent="WIyWlLk6GJQsqaUBKTNV-1">
          <mxGeometry x="260" y="630" width="120" height="70" as="geometry" />
        </mxCell>
        <mxCell id="YDyKrme9RF64aUGpRZzH-10" value="" style="edgeStyle=orthogonalEdgeStyle;rounded=0;orthogonalLoop=1;jettySize=auto;html=1;shape=flexArrow;" edge="1" parent="WIyWlLk6GJQsqaUBKTNV-1" source="YDyKrme9RF64aUGpRZzH-7" target="YDyKrme9RF64aUGpRZzH-9">
          <mxGeometry relative="1" as="geometry" />
        </mxCell>
        <mxCell id="YDyKrme9RF64aUGpRZzH-7" value="USER LEARNER" style="rounded=1;whiteSpace=wrap;html=1;glass=0;strokeWidth=1;shadow=0;fillColor=#d5e8d4;strokeColor=#82b366;fontStyle=1" vertex="1" parent="WIyWlLk6GJQsqaUBKTNV-1">
          <mxGeometry x="455" y="495" width="120" height="60" as="geometry" />
        </mxCell>
        <mxCell id="YDyKrme9RF64aUGpRZzH-12" value="" style="edgeStyle=orthogonalEdgeStyle;rounded=0;orthogonalLoop=1;jettySize=auto;html=1;shape=flexArrow;" edge="1" parent="WIyWlLk6GJQsqaUBKTNV-1" source="YDyKrme9RF64aUGpRZzH-9" target="YDyKrme9RF64aUGpRZzH-11">
          <mxGeometry relative="1" as="geometry" />
        </mxCell>
        <mxCell id="YDyKrme9RF64aUGpRZzH-9" value="USER DATABASE" style="shape=trapezoid;perimeter=trapezoidPerimeter;whiteSpace=wrap;html=1;fixedSize=1;rounded=1;glass=0;strokeWidth=1;shadow=0;fillColor=#d5e8d4;strokeColor=#82b366;fontStyle=1" vertex="1" parent="WIyWlLk6GJQsqaUBKTNV-1">
          <mxGeometry x="450" y="630" width="130" height="60" as="geometry" />
        </mxCell>
        <mxCell id="YDyKrme9RF64aUGpRZzH-15" value="" style="edgeStyle=orthogonalEdgeStyle;rounded=0;orthogonalLoop=1;jettySize=auto;html=1;shape=flexArrow;" edge="1" parent="WIyWlLk6GJQsqaUBKTNV-1" source="YDyKrme9RF64aUGpRZzH-11" target="YDyKrme9RF64aUGpRZzH-14">
          <mxGeometry relative="1" as="geometry" />
        </mxCell>
        <mxCell id="YDyKrme9RF64aUGpRZzH-11" value="RECOMMENDER" style="whiteSpace=wrap;html=1;fillColor=#f8cecc;strokeColor=#b85450;rounded=1;glass=0;strokeWidth=1;shadow=0;fontStyle=1" vertex="1" parent="WIyWlLk6GJQsqaUBKTNV-1">
          <mxGeometry x="455" y="750" width="120" height="60" as="geometry" />
        </mxCell>
        <mxCell id="YDyKrme9RF64aUGpRZzH-17" value="" style="edgeStyle=orthogonalEdgeStyle;rounded=0;orthogonalLoop=1;jettySize=auto;html=1;shape=flexArrow;" edge="1" parent="WIyWlLk6GJQsqaUBKTNV-1" source="YDyKrme9RF64aUGpRZzH-14" target="YDyKrme9RF64aUGpRZzH-16">
          <mxGeometry relative="1" as="geometry" />
        </mxCell>
        <mxCell id="YDyKrme9RF64aUGpRZzH-14" value="RECOMMEND LIST DATABASE" style="shape=trapezoid;perimeter=trapezoidPerimeter;whiteSpace=wrap;html=1;fixedSize=1;fillColor=#f8cecc;strokeColor=#b85450;rounded=1;glass=0;strokeWidth=1;shadow=0;fontStyle=1" vertex="1" parent="WIyWlLk6GJQsqaUBKTNV-1">
          <mxGeometry x="643.44" y="745" width="145" height="70" as="geometry" />
        </mxCell>
        <mxCell id="YDyKrme9RF64aUGpRZzH-19" value="" style="edgeStyle=orthogonalEdgeStyle;rounded=0;orthogonalLoop=1;jettySize=auto;html=1;strokeWidth=1;shape=flexArrow;" edge="1" parent="WIyWlLk6GJQsqaUBKTNV-1" source="YDyKrme9RF64aUGpRZzH-16" target="YDyKrme9RF64aUGpRZzH-18">
          <mxGeometry relative="1" as="geometry" />
        </mxCell>
        <mxCell id="YDyKrme9RF64aUGpRZzH-16" value="ACTIVE USER" style="ellipse;whiteSpace=wrap;html=1;fillColor=#d5e8d4;strokeColor=#82b366;rounded=1;glass=0;strokeWidth=1;shadow=0;fontStyle=1" vertex="1" parent="WIyWlLk6GJQsqaUBKTNV-1">
          <mxGeometry x="657.19" y="620" width="117.5" height="70" as="geometry" />
        </mxCell>
        <mxCell id="YDyKrme9RF64aUGpRZzH-27" style="edgeStyle=orthogonalEdgeStyle;rounded=0;orthogonalLoop=1;jettySize=auto;html=1;entryX=1;entryY=0.5;entryDx=0;entryDy=0;shape=flexArrow;" edge="1" parent="WIyWlLk6GJQsqaUBKTNV-1" source="YDyKrme9RF64aUGpRZzH-18" target="YDyKrme9RF64aUGpRZzH-24">
          <mxGeometry relative="1" as="geometry" />
        </mxCell>
        <mxCell id="YDyKrme9RF64aUGpRZzH-18" value="USER FEEDBACKS, INTERACTIONS DATABASE" style="shape=trapezoid;perimeter=trapezoidPerimeter;whiteSpace=wrap;html=1;fixedSize=1;fillColor=#d5e8d4;strokeColor=#82b366;rounded=1;glass=0;strokeWidth=1;shadow=0;fontStyle=1" vertex="1" parent="WIyWlLk6GJQsqaUBKTNV-1">
          <mxGeometry x="640" y="485" width="151.88" height="80" as="geometry" />
        </mxCell>
        <mxCell id="YDyKrme9RF64aUGpRZzH-29" style="edgeStyle=orthogonalEdgeStyle;rounded=0;orthogonalLoop=1;jettySize=auto;html=1;entryX=0.5;entryY=0;entryDx=0;entryDy=0;shape=flexArrow;" edge="1" parent="WIyWlLk6GJQsqaUBKTNV-1" source="YDyKrme9RF64aUGpRZzH-24" target="YDyKrme9RF64aUGpRZzH-7">
          <mxGeometry relative="1" as="geometry" />
        </mxCell>
        <mxCell id="YDyKrme9RF64aUGpRZzH-30" value="" style="group;fontStyle=1" vertex="1" connectable="0" parent="WIyWlLk6GJQsqaUBKTNV-1">
          <mxGeometry x="390.02" y="140" width="249.98000000000002" height="220" as="geometry" />
        </mxCell>
        <mxCell id="YDyKrme9RF64aUGpRZzH-23" value="FEEDING DATA" style="rounded=0;whiteSpace=wrap;html=1;fontStyle=1" vertex="1" parent="YDyKrme9RF64aUGpRZzH-30">
          <mxGeometry width="249.98" height="50" as="geometry" />
        </mxCell>
        <mxCell id="YDyKrme9RF64aUGpRZzH-24" value="" style="shape=image;verticalLabelPosition=bottom;labelBackgroundColor=default;verticalAlign=top;aspect=fixed;imageAspect=0;image=data:image/png,iVBORw0KGgoAAAANSUhEUgAAA8YAAAKRCAYAAACWbbA6AAAAAXNSR0IArs4c6QAAAARnQU1BAACxjwv8YQUAAAAJcEhZcwAAEnQAABJ0Ad5mH3gAAP+lSURBVHhe7J0NfBTVvfd/vZYVurnIImUVs1I2IoviIrKgrEiwFVSSKMHy4tXQS4iaUJ/El6SUpD6E2gQ1sY/J9ZLUJuHeBAqJJYuGWCWoBHFRWBW22CxqFmFTYaOylGZrmJTuc2Z2Nju72be8EZL8v3yG7MycmTlzzn/OOb85Z87/ey4GCIIgCIIgCIIgCGKY4iOMjx//Et///vfFtYHnn//85yUVn6EIpTHhD9lE/0FpSwx1yMYHP5SHwycNKK8HHsqDvicqKgoKxRhxrXv4CGObrQVjrxwrrg08Z749c0nFZyhCaUz4QzbRf1DaEkMdsvHBD+Xh8EkDyuuBh/Kg7+HOcz0Wxv8m/iUIgiAIgiAIgiCIYQkJY4IgCIIgCIIgCGJYQ8KYIAiCIAiCIAiCGNaQMCYIgiAIgiAIgiCGNSSMCYIgCIIgCIIgiGENCeMBx4njnxxn/xMEEZQLHJxOTly5iPz9OD7+IvTTyTmd4C6IK0TvCZvmA2QLBHEJM1Dl0KVS/g22cpj7+iiO/pXKsZ4QNu0Gqr1A9C8RtMf6AhLGfcHfW3D0i7OsuRYB/mFPvoeyvN/jvZPiOhEAJ1qOHsfZiBK4O2GJQYO1Dv/5uw9xVlztFd14Xlve+z02lr+HFnG9K2dx8Hc/wy6ruHrJMHifg7Bp/u2HKPlZHT4TV4nhCpX1XgaqHLpUyr9LtRwOhhNH615C0VtH2S+ie0SQdn3ZXiAuGcK3x/oGEsZ9wekPseH1P+Mf4mpI/MNeew/y/piPe64V14kA/BUHc3fg6N/F1ZB0JywxLOnG8xq9KB+vbrwH0eL64GHwPgeDN82JiwuV9cRgRY5bksvw++Rb2C+ie1DaDVcuVtvgslyG+Bvnzp3DqB+MEtcGnu+++6578XG24MM9O1G37X00OS/gygnRGC0DuJMfoP7QPxCtvhJsVaQFH79mxLdXXYfxI9lqkGOBVhbuQ/z9mvH41rgdNVVs/78uw9VXXw3599lhn7+DN/cegfnEtxjxXSs6xkzB1VH8cV0JGPZ7n+GdPx1Bh2oSrpSJ17pKgVPvbEFl3cf45t/GY1L0SHz7SSN21O7AoVP/hvEqT9zcnD36Dgyv7cBbH59A++UqTBJuKDK6m8YBr8WxtNtlwj+uYfdwuRiQ0WJ6HcYzSlzHh7lwFkcbDXjd8BY+PtkOWfQkd7ozhHQ5Lsck159RX70ddR9/g39dEY1rx7KbdPLpsw+HzSfwjawdrecVmDIhSHEYKOw4R+i4yU+yY05A/qMLOFpfg+1vfIwT7TKorh2PkZLXRk5mQ++8/jq27m9Cu+tKXB09WmJLQ4vu2EQrS8cPndEY//V+bK/+XxiPteNfiqsRfYU7ddz7FRjxxduoqfkQmDodV4d83kTOfob9bxlQw/JDeAZG/RW1n8lx35yJuMDbi7kD0ZO8z7MnHpOuFLcEsbfuPK88QnifaznR+sl+9izy9/ovXMHKFOfH9XBOWYapVwoBQtLd5y2k3Z09infeehNv1vBp2I7RV02EgrfxEM9MaDt2ouXDd7DztS3ivfFl3ps4McqbRqGO75rXE/Ft42608MePFgMxhDQ9NgKTVKNxmbhNSpc0d7Jy8f0d2CmUvVfguh86Yap3YsqyGxBBkhMXmb6qtwWE53g33nxjm1C2nJdfHb5eCFO2eOuwb3DZVZMg+6zet+wIcXxf2ThPuDoldL0evhzqTZ0VeR624+SB19l1F+Pfv6hnaVLXpX4PVgcI8XvzTezczde5gFJsU7EjQra53PSuHI6EyNMgQHzD2s10XHb0dbz9lcRuQ7SReHqTn6GI+D6FZ87TVhW3nf4Yrx/6e2dZ7WTr+w0GVL59BKfao6CW1NE8wWxaeF6Oj0D0OZPQjjg1dj6uGyvsCgifnj5pF6K9IH1qLlW6U2Z2bZN47Mtbhp39/D3srn0V2z/4QrCVa5mtdJZDIews2LMajJ5ehyfUscH2dbn3ENe4cOECRo3qWe4PnR7jbz9AydpN+POoabhjyTxM6diPjWu34SgrcGXMWFpL9/i8WeaOvoeSozKMH8NWQhzLsghfVu3Dnyr/F0d/cAvbfwuiPtyEnKqPhWEcI8ZOgvpadpJ/Hw91jBrjg2g2noBh2+34mJ2rVXKt17e+jparb8M9d0bj+O9zUfLf2/Hm2TG4JfbHUH/7Op783XviEBEOx1/LRc4uB9Rz7sE9OiVa/piNwndbhb19S4hrydiD1LoJb/9FMrCFO4r3So9CNo7dL3ccrz+bjdcdk3Dbwntwy/gW7PhVId457Q7aYf8YVfu2YXvDPxDNzv3j61rxp1/m4fXjbOcIVsjFREMBOcb/SA311aESOEDYcHET0v8dbCvfjr9exdJ84S1QHv8Dsv77PVbduTnL8vsXJSz8tHl4IPZ6cO/n4xd/OBrZ0PkhztnjlXjvT2UoMQLTYn+KO6534u1f56H2c3fqCPtrKrG9WYFbFt4B9Q/YRr/nbdqooyjJKMKH3wqHAF+/h6LM/4Fl9C0sP26D8q/bUf4n3hjcCPbyiR0d4joPf52P7eIW0d52nFCya96D266xd9pbd55XHt9rcfjs1TzkvOXAFP5epwH7fr8NH7UJO/scwe5e2A/uet7u2MVMErs7/jpyUv4A6+hpuCfpXkzDx8jP34Hj/M4gz0xoO3bf24Z3meDsvLcy/Om9Snwplpu+x0+D7NNNeKL4g87hal3zegzkHe9hm8mbd3wj8sOaP8A5enzQRp1Pmrd/htrfZONNx/VuW8E+lGxzl73EEEAoC/LxXocnfz+W1L3sOf5VCrYdj8K0RT/DPcwmP3qOlS1fMIsNVi+ErMuZ9e0vQtZWK5Q6VofNGY+/Vpdh2z5J2RGmbOorGw/5bLP/feraOZNwdlcmcmqP+zyrocqhi11nWVkdsP2v48X63YptmUXY/7V7X6A6wGkqwxO/fgf/+BGLX+I8qE79ETmveMqS0G2ui10Oh0eM7+YSVjqJdtf+Djb8Zgc+E+0uUBrw26qOi6VniDqL52LnZ0B82qoifz/uLatZnZT/qzdx9vp7kZY0j7Wj/gf5r37WabOh2qpCmf9WJRPUnJCn05TC5qD4pF2Y9sJQI1z7h3+2siqOIWrOCqQtnoZ/vJuPkv1iazZMWzyQnQajN9cJdWyofT737neN237kwOuZ2e76oZcMGWF8fP8OOBY/gZQ7b8G0adNw6/2ZyFzwMV4/wBJUPg23LfkY7x3xNOFYwWp+G5P00zCerYU8VuAo5PoULLl1Gtt/G5Y88jNMeetjHGOltOzKSZimZk9xVDSmsGOj/108JACRhT2K8XeswD0z2LVm3IMHV2qwXzYNDwhxuwU/XnIf5hqPo4XP+79/jDfr1Eh74gHcys43bcaPsfLplZBvfRtH+7rEDHktOabNeQAfv/9xZyOZ++zPeGfSbZh2FTP0T/6Eupg1yFzC1tmxt9y5EplJP8C2dyQFe9sU/Pg/f4xbhP0p+NnyVrz3KSvcZGMwaZoaSkRBNYVd95oQSiZgWBa3W+/DO0Hi5sYCxR3pYv6yNE5+Ag/+/X/xtpCIx7Hvj2fxQEYKfsznCcv/+57Kwt2fvI794kM+3Dn695uwMtmdd9NufQCZ6Rr8qWZ/54uFo1f/GOn/cQfbPwljWEvxs3fKYF3wSOfzxud3xgonyt7i7YHD0Yb/hXOF5Hlcko47FBbxbOHh7a3qh8zGRHuaNvdBZKROQ9up1m49r104vR9/fEuDDMkzkPIfN8FpFvf3KbzdHcfdT2fiPtEu73kkCw/KHfgr3zC55idIezlHSKNJkybhlkUP4sFRf8In/FwFAZ+DMHYc9t4+wzu/Z/F51HO85zlh4llS2Pjn9STdvYiq+9j7PfDpo/jg+E9w0/XBJIMvrQf+iD/d8ISk7EjByhucrJQkhgJ83WtdkIXM+8X8XZSCzBVynBUquGvwk8c3IZsvW5iNT+LrwxUy/Mn816D1Qsi6nDuKt//HiQclz8CSx+dh/F+EQwVCl01uem/jYZ7tbz/EjqrxWPlz8Vnk4/nEE5jyxrYIn9WLX2cdU8xDuuQZ5dPsfxuCp5l82n1YvzGT1bnXs/Lresz96X/gjn0f4pinkg7R5rq45XCkHIXzhpWSOisTGTf8CX/sbEN2TQMpoeqsgcjPnnD2r5/hswU/ZXk2CeN/eD1+/HAOsu75kfvlUCRt1Qu3IOHn9wj7I6+Xe99eGGr89fibmHLvffjxtGiMv+YWLPl5Ph7U8UonsrZ4KDuV0pvrhDo21D4pZw/uEJ6ZDPEanW3Pam/bs6cMEWHciuNHOhB9WSuOHj3aubS2y/FJSyvLCBmu1/4Exw7+2S2OuM/w53duwU+ExA53rJuxURILuVIJNTvTP6RvzvqQqFHea8n4HBoTxeSdyJixULE4n/07u43jrLF6wxhwX3jjffQEu8Ozx9B6RgzfR4S7luz6m/Djv3yIo8KbdfeLh1vuuhXj2e/jn72DKaPZNs9xbOFf9p39gt2HcHZGlJw1cbyMv1qDL7+TvhPrOTINe7gCxs3DTZhyrbQEGM8esmh8/CVrgJ0+jk+4aOAbyX0ftcP57x+jpdVjHcObMVNZRSj+5uHT+45PrGjxdOv9e5Sk56QVLU3AnBsnietuxsdMwxh2zF+ZRbR+ocC0GJ8z4vrp88Tf4XDb29233uR9Zhhjpt2D+2Z0LVy7A9fagk9YQ22SdHTOVdNwm1b83Zfwdoc7cJM0mWSTMPf+O9zXl8kR/cMRQmPk6Cfv4c3X3sQHJ9nT5HIH7UIYOw57b6db8Gfc5hsfluuTpivcz4kHn7xmsHPcMelPOPq5e7W16QM4ElhF5hMoGBxaWz7Grcy+pMHHs4bhNPE3MZjh617gDq2PkWPS3Psw9zo+x2WQXzMeI862sLrjY+x/43W8aWrB2QvB6oUwdfmZVnymYDbe+UKUIbseN8WKv8OWTSK9tfEwzzb31+P4cN4tmCIVByMnsTrpY1hZoRr+Wb34dVaXZzRcmo0cj+grOtB6nMXtw3fwumEfjqEDHZJZpYO1uS5qORwxY6D5Udc665MvWryjW/zToJMwddYgaYOMueZ6XP/qSyh89T18fLyV3bccY/7dfccRtVX92oCR0dv2wtDjmkn34FjlJpS88QE+++tZcD8YIw4vjrAtHtROfenNdYIfG3qfFw4txz/A3Bkan2dGxsqdW6Vtzx4yRISxE2dPjoDjlBXWZu9iH3kLkqJlQre7bNpM3PsX9sCeZknK9xjOuAXThIon/LGXKv9ocwDfscpcEm9rM4drkm5hxXTfEvZasmmYebcF+8z8m3n3i4dbbuBN9h9wskP5ysx7HFvao5E0va9jGYSgcfOggNxvyIhsZJRbmLP7bpE5YJfGvbkV8ukrET3qUraOi0f0aGlaMmQyVsEFe3HEP28ajL9CXPUQpYDyOGsYCftZBen3uY1MNkL8FQ63vUUePnKEZ2CkDP5nlkX2aVD34O2OVVB+KdsJ9/kObHjsCWx64yNYT7GG6A3MpqeIOwMRxo7D3ht//JTxXeIjH60M8wJrPG6J1eBPh/g3xUywGB1+QigUQfLyshFB04UYTAR+1jvhh9HnpuDJ/34THzFbxdUa3KLViDsDEaYuD/hMyfjiSiRc2RSMbtp4mGdbeBaVY/3qcJZOo1nDsj3CZ/Ui11lyJmp8CJNmrcZN+PmaHGzbz+L2jx9APfumiF92XdRyOGKi+f4LH2SjWJr83RlBGzJMnTUA+dkjJt2HvLIs3DGuBR8bXsIv/mMNSozuvjshz/qlrdrb9sLQQ65LwUu/+Sluwmd4+/e5+PljueKnbX3bFu/NdYIfG3qfF/c1xo/1i7ecL1d732k5RISxAtdoj0PBv2G7/z7f5c7rxQroesxIcOCDphZ89skO3Nr5di6SYy9NxoxnhfEFNW7zjzdbbpG+Fe8DIrnW9br74DAeRYvlY9Teepv44mEMxkePQcek27ocd9/9t/j0NPYnPnGLnYcZPkN1rH497OLbqGtY7MZdg2nHFbjpXv+434cfT76UrePicfSUd2SFAN+7OGYSrgk4Ccp4/OjWD2A54ftKjzvF95Jcw/byz+NRoWdESmvLMfEX8IPRAazmX+Jf3t7Uk/Dn45JeTB7OCWcvC0vhGTBLekF4uFZYPxR/9yVXT8KtZguO+824K/jqZI2Bo3u3YfwjBch+5EHct+gO3DJ5PGTfiYECEcaOx7Dr/cj/3v5uxZ8998bH58Njfm9imQw4IT4nIRgzfS5ueefP+Oz4Ubx34V7cFqkuFsuOP5/0zUvBVsTfxGCGLwuO4phfWYB29qyyAsV5dB+2/TAFL+Sk4MH778HcGddjvCzUh6Rh6vKAz9RxWEziz7BlU3C6ZeMhn212Lv5ZNLH97s0iTFQcGwP1VWPCl0MDUGd91uI7eDF0mh3HB4bjuDvnJWQk8XnD2grXKCLuhLio5XDEsLaFX+9t64k/Y8yPWFzF9eCEqbMulTbIvyu65ucFP8HC6v1b73wQKU/l47+L7kPrb1/Hx+xx6r+2avj2wlAjdPvHjfyqaZi7aCXScl/Cf/88GtteeZM9dX3fFu/NdQIfG36fG/cz8/EXvlv5tudnQduekTNEhPEYzJh/H97bVofPPM/HhVbsL16Dov2dAwQwSXsHHLs3YVvjA7hN6ylQIjs2LG1OtEXqXL47YUNx3R148LI/YNs+b6XktOxAzlM78FlfO7qP5FqTbsIdZ/egZNs+LJkzrfOlwiT9f2DE9m2dk3Hwb/k+ezUbT9R2xxNpG59sERIgrDRurIHlO1TkKLbVvIdW8T6cljpmI/fgjptYlTbmFvzkftZAe+0zFmsRfrKHx4uw3zNZ1HDntT9gl0VMHf7ZqfkDuMW3IHDb0P3N94c73vQ+b87PsIvly936m9jTOAbT9Pf47mfpvWOn13OdjFWyM4wf4oOTfAAOZz/Zhm0N7n08/Dd/irrXvfbW3oI3X/4ZKo905mDPnsHrbkHC91/H653PALPj1/6I97r/sjU8/LwI93+M19/02p3zk0rk5L7NGoRyRI0ZA8dZh7iH7TO/jbe7fGMneQ7C2fGkefip6nWU/eEDtJxlDbKzx/FO5Zto8WSiEJ8PsOMNSXykz0ko/v0m3Hrr26xy+xNG3OGe1yFSJs24D7KdkrzkbaV2H7MSYvDjLgs+3il51v/+MSqfycXbTCPIr1BgzNmzcHie078fxdtv+39dLi3rw9TlzIZ/8h8tKNvMrvc1s3F+tvM/7MCHnTMdhyubQtAdGw/5bDNYg/LeMdJyhjX097Ey7rv7MOM6thKuHBqAOqtl5x99n9GQaabA2KsdOMvKGTccWva9jffEtbBczHK4G9RJ7Y6l97btHBJmRPYWMGSddam0QWTjET3jA3xgcg8P5779mN3j2+59jM9eXYOcVyU27XCgbYyCHyHdj23V8O2FoUbo9s9Z7P9tCook6XyWlaG4WsGeOmZnfdIW5+nNdUIdG/q8UoRnRto2CNv2jJwhIoyZsWhXYH2cE9syfoqfP/UEHlmei32KFDw4V1Ja8hVO1Gdo/fFNkM6LEdGxoZh8BzKvfB1PLv8pykydRVdguhM2LOPx4/RfYJIpF0tTnsATj/8UT7zSgjv+TwKuD+YjosdEcq1JuG1RFGt0+E08ctWPkZE5CR9s+CkeYen7859mYNNf5yFj0fVigHBcj7lPjUfdUz/F0t+Hm5E2WFgWt7tlLG73YmaXj79uwwO3tKLksTV44qkU/OfLx3FHzkrcIvQqyzBtaS7udf4BT/zUvX/phveg+M8HMbeP3EIMepbei2veznLn7fJsvD16DTLigxdNPs/b42uwNGMT7AtzsVLnfpUi161E9h3HUfSzFJbea/DIf7fiJ6vvFfYJXDUXDyazhshTP8NSlidFx2ci4W5xHw9vb+nR2MfbGzv/Iw/n42MVO/+t4quaHj+Dk3Afi4/inWwsfZw9AylZePua/8DPbhB39yluu/vJt5sEu/s5/7xVteHeJ+4RCv3r569B9AH2LD6ejZzHU1D4RTTu0LuPdOP/HISz4zG49ef5eGDExygvLkBhxXuQLU7BvVcLJ2P4Hi/E5xU7frLB85yEghcc8/DZ50rM03bzvfSk+5CRqsDb68Syee0eXLPiZwg1apwYPAhlwUI7NnnKgicr4VyUgXt4I2fPado1H2DDctbgXsee4xePQTX/NveBAl3L+tB1uQyTluQg+6YWvF7CbPzFP6LlljT87BbhZALhyqbgdMfGQz/bvnUt25/yU2x4LxoZ2feJ+8OVQxe/zrp39V1o/e8Ud5r/7CVY78gJkWZjMDvxp2gt/xmrM1hjmbUn6n5wC34s7g3PxSyHI2fJvdfg7bXuOmvpurehSH0C9wWvBn0JWWdd/PwMzHjM/Y8UVvE+gf/8KXs+/us4Zt7vrZevT8jCHbaX8J+sTtrAt6NK/4qf5LD2obC3/9qqYdsLQ42Q7Z8xmJvkfjYeeSqXtQ1+ipzG8ViXdIf7JVWv2+IeenOdUMeGOa8U6TX4Z4Yv669+Atkh2p6R8j0XQ/wNm60FY68M4TzsInPm2zM9iA8Hp7MDI0bKIev2A9ebY0W+fQ+FjxUFGOp3GzJ+l9l/BRk//OzCCMjl/qIvND1K4x5ei4cfLtYxQo4eHNrJZ6+yh6VaXJGyPB+vLg3+gLe+m4+Ccw+i4H7JgyPk14e4TcgbPv9ZQRsscvzQpo6e3fdgojs2IeQFxHTn7eLfupO34vMmZ8+buMWHC2x/e4j8iADe3hDqee7h89pTO+7R8xbC7noUj4jtuBXv/DobZ/+jDEv4nioPPXgOuKPb8PPGSXjp57dB3qM0D2MrxCVDr+rtQPnbo3JXPF/YupzD0ar/wNsxZcjQS5te3bc3HxvHZ6j9aTa2ifukPLjxj1gyWVwJd298mcrOJu8y+YybsM9/j9Kup3nojk/I8taP7ob3p6flcCREngbuvIaYr8I99aKcCpkmPczPUPQ0r4MSrn0YQfvx7P5CPPLSB+KaBH0Gfv9UAJHE0wfthYGiz/OAITwbl/Wi7GBE0tbuzXVCHRvuvFL4sP7PDHeeg0IR0FLCMgSFMdEdhkMaCw/YP45hxwtvIvrpbPxY+k2LjzAWtw1zumMTPsKYCMsl+7zxPgHzfw/n/b/AAzPGQMYaGS0fVqKoQo6fbXowwlmkA8AaQWfbW/FBRR4cCzfhwR6fiBgsXLp1ihMflmbhg+uykHLnJMgvYw3pz99E0bqjuO1lv3qhOwxBG7908/DiEXka+ArjwQbl9cBDedD39EYYD5mh1AQRjNaDZSgs+QBRSSldGz+XyTFeOx4/6OEb6+HOCPk0TJMP3xkghwyySbjnkftweWMufv7Tn2Lp8idQ8okCD27shShmcJ+9jqLiHWiZkYMHSBQTA4octz70BKYc34ZfLGc2/tM1yNnRituey+i5KGaQjQ93RuAH2mn4wffEVYIgBjXUYzzMoTQm/CGb6D8obYmhDtn44IfycPikAeX1wEN50PdQjzFBEARBEARBEARB9BASxgRBEARBEARBEMSwhoQxQRAEQRAEQRAEMawhYUwQBEEQBEEQBEEMa3wm3zp+/Et8//vfF9cGnn/+85+QyWiWx/6ko6MDI0bQrMKEF7KJ/oPSlhjqkI0PfigPh08aUF4PPJQHfc8PfvCDoevHWKWKFteI/uCMw4GxCoW4RhBkE/0JpS0x1CEbH/xQHg6fNKC8HngoD/oeh+MszUpNEARBEARBEARBED2BhDFBEARBEARBEAQxrCFhTBAEQRAEQRAEQQxrSBgTBEEQBEEQBEEQwxoSxgRBEARBEARBEMSwZugJ4wsc7FYzrK1OcOKmLrQ7YDtmhd0ZNISbdiec7eJvf9h1HC2W0NcJA+dkx14QV/zpg/MTBEEQBEEQBDGU4OBkGsHS4giuI/gwrVaYrfYQYSTwmieU4GC6xBkogKCpLLCd67Ea6l48+5kh5a6JO1aDDXm7wU1UQvadHbbL9UjPSIZuvBiAJb5tTyk2VFqgnKgAZ7dBtiAb65dq4Ost2QnbvioUF9TD8lAB6lZoxO1uOKsBG3MNsKtUUJy3w3xOi3W/SYe+8zphcNrQuLUYhXUWJBXWYdkUcbsI19KA0l9XwfJD9/ltly9E9jPLoBkpBuhDaJp4wh+yif6D0pYY6pCND34oD4dPGlBeDzzdzoNWI4p/VerWCGCi9GsVlv/yacSpJUrmnBlVzxei8bwKystZGJsC8Tnrmd7wVTtSLNsTYJhQiXXzgsSFaayEnUpUro1l1+Xx11RmOG5ch7wMPZTC/gjoQTwjgdw18XBmVOc1QZ9fhoJn85BXyP7eaUfxThOTuSLWehRXRiG1ZBPyWJiC4mxM/zAfFQc7QzDsaHg2A6WfTcXyR/XiNgn8dXKNmPrLEmzKc19n+2NRqH7BAKsYJCSnGrDhyVI0a5YjdY64zQcr6l+qQtRjnvNvQvZNh5C/WXIfBEEQBEEQBEEMI5hG2VTq1Qh5m1DyeDR2b2qATQzBd+6ZthbDflcBygrdYcp+qcH7edUw9+UQVF5TvXkVMj2a6pUyJLVvROkeuxggHBcpnt1k6AhjphrHLo6DTtLBrNTqMdVkY2bkxnLQANlDLIxc3DBSg7gHdKjffwQOcRP/BkS5qAB5KbGIuULcJOWLI6jRxCP2Bs9JAPnMOMSP2osjkShjTom45/OQPC8GUZeJ26QcM8EwKglxMz3nl0GzKBG6N9j5vZEkCIIgCIIgCGK4wHGQa5Og10g0iHYWdMeaYTsnbjhlRP1Xy5F0p7ffVnbDEmRmzoKyQ9zAcBxrhKFkIzaWGGBsCaBEHRY01pZi4/OlMBywMXUkhYN5vwFTH14Mb1SUmLO6CInSnusLDpj3VKH0eSaYtzbALNUxEcbTeYKF21yMnKIK1LN49Hcn4dARxgot4pbofLrvnc1HYJyhErfZYfvUgek/8u3gl8dMh/7dlk7xDKignRlmSAMTtP6d/LJRVmGsf1gmaqELcXr7l0yk3+iJs8joGEyf04iWVnGdIAiCIAiCIIjhg0wF/ZIFEjHKsDbBpFbhqtHuVaetGSZeR/DCts4AQ209Go9xUGk1UIrH2fcVIuP3TYiaHYe425Vo2VqKXSfc+wRaG1GYUY6m0TrE3auHsmULSuubxZ08LWj+aCpiJnTA/lEDuwa7zh4THKPU0KpFkcNZYfi/WTA4YqC/Nw46pQ3Vazei4ZR7dyTxdBwoRsZ/mSHTzsfyOzXg9m1ARqXZT6T3LUN3VmqWqSUlNiTfrYM7fR1wHGaZe6Ww4kVIgZM4E2lvbHQMFuzfC2OLuM7gjjVi1wFxhWE/yGewZNljifgNh8Nhhn6Cr3gXZDgT4ye/5iNph0l6brY0HKNB1gRBEARBEAQxbGi3oGaTAVMfWgi1uIlrd0BzzojCZwywX6GCapwTxhczsGGPONiaM2N3mRNJT6diwUwttFo9lmXMx9hP3buF3uA3y+F8KBOpd+nYfi30S5/GfEWTuJ+HQ4dVjub6fBQf4KC8TgmZxYCs9RUwiz3Xzo92wXBdOtYt1Qvn0N2VjOxVclQ1uIVt2HjCir3bHVguiWfi2mzEfWRAoyiu+4OhKYx5Q3mhHEjJRKLHUjz8S/zrQxRkkX7nPVqP5WsVMGSvQeFmA6pKNuCJSmBWgrifETUhBjHXSZaJSowQ90XEhcDvQqKESEYxA/Q7/5XdOjtBEARBEARBEIMWOxo35eOQLhvJs71dyA7HaVj2n8Gs/7sOy+bpoJu3DOt+sxqyIgOMvGj91g6LQouYq93hBUZqoLtT/A0H7J8roJ0s7aSTQTNjvvib4WzDGTSgaVQS1j8eBz0TrXGPr0f2jCMo38N/V8qh2dKAqVdwsJjNMItLs4Od/XO78Plq2HieaoaJUwFfe483m0+jbbQJNjuvk5jWS0hAgmTZuC/SXs7gDD1h3G6FoaAQJ+MKkDlPmqkKKOcYcfIbcdVDB4c2jEWUdFhCGJRz01H28jrEz4zB9LvT8VLeYmiYNo1RuocPyKP5NxuSZbKiy9DrYCiUehi/8s9YDlwbMPYKPpJyqKTnZot6XKRnJwiCIAiCIAhi8GKH6ZVC7JqQjdwVvp51FIqrgBtnQSv1lDNeC/3cBrTwPa1tDthGR4mjaT3IJB2ETjhORCFqlLgqIpNJOuHkUUw5AbNmSK/NxLPudlg/tzHh6+QvI3j/af6i2bu0q5A8w62VIoqn7AxOS4//wo6oGclQjeI/QtZg8fbt2C5Z0m8L8ylsBAwxYcy/PcmFcXIm0iUfc7tRQqVRw2TxnSHL+WUTzIvUUInrYWk1wVBnhmO0ChpemKqZ6OUsOPJuHNSRe5YKinKiBuqDTb4zXJ9rRtPhvjk/QRAEQRAEQRCDEQ6W7YUobotHJhPF/v16CmUMFG2cMFzZiwNnvlJjBK9tx0VDe7gZNp+vMO2wWcSfUCD6ZjOafQPA7g3AUEI5l2nX73yv4jxzGhgtZxJZgatUCnBqPRKXJPot7vmgIoqndSymx/sfn4gFU9x3LZPLIZcufdBPOISEsRPmSvfbkzy/tyce1HPiMXZnLRpOiJktfoecdJe2i2EFZUwUOvYUovxdcbquCw6YtlfBnLAQ2ohPEgJmRPEKA2rfEmdeu8DEflkpbCv76PwEQRAEQRAEQQwyONjeKkbhV/EoeCrWd6JeD1NikXRZFao8OoL9b62tQoUiHnr+81LFdMxfZER1nXf+I/u71ajunHxLgelz42CsqYfFE4DppeodXodQfJg5dydi75ZqmDyDXFuNqNpuQuIct6ZSz02CbGsVGjsnDnYyQZ+FNa+KAjtsPHVYuGQvqmol8zTxk4I9WohG/9G/fcj3XAzxN2y2Foy9ku8cvzQ48+0ZqFQRdpPyjqczq8QVKXpkbl6H2HHuNefhGhRuqoKJ76ZXaJGYlo7kOQFNC459G7Hyq0TUMaHtA8v8iqJSGIR5xxXQ3p+O9BTfGbHD40Dj8ythX1yHZVPETR7OmVHz22JUfcSLb/78qUhfpYcykHunXkLO3Ql/yCb6D0pbYqhDNj74oTwcPmlAeT3wdCsPvmnExlWFMIqrUpIKJXrinAWGkkJU7Hd34innJiMzLREaceZq/rPT+qJ8lH4qg2pkGxQLspF4IQsNEyqxbh4fFw7WuheR/0oTZBNlaLtiIbKXAFl7lKhcG8uUCQ8T6fu2oLTM4HbDxGuqlFQ8PE/V2Tnp/IsBxS9VoEnGtp1og2zecmT+nzioR4oBwsbThsYtpSh/zY6oiex6XIxwjeTZoRWXw3EWCsUYca17DB1h3E04pxOQ8939vaDdCW4EO0c/CFYBdn7nv/XN0IBgUKFI+EM20X9Q2hJDHbLxwQ/l4fBJA8rrgadf84BjOuJfTEd4hKg/vM5AiP0XODjbebkUWoiE01T8/g6ml4KeJlw8+f0dI8LGw0NvhPHQnJU6Avhx6b3WmyP7URTzsPP3pygmCIIgCIIgCGIIIgshNnl4nRFq/2WyiMRoOE0lfAscOkDoePD7L5IgGrbCmCAIgiAIgiAIgiB4SBgTBEEQBEEQBEEQwxoSxgRBEARBEARBEMSwZugJ4wscHC0WWFudfr6x/OA/5HaGDEEQBEEQBEEQBHHpwU+O5WR654K4Hgwh3MXVPPyEW/7XdG8LsLSLAcT7CbR0uUcW1m41h9d73WRIzUrNtTSg9NdVsPxQBcV5O2yXL0T2M8ug8fug22GuQXFhFUw3ZkqmHR+e0IyEhD9kE/0HpS0x1CEbH/xQHg6fNKC8Hnh6ngccrK/mIKPS4uuqKRC8S9udUldL/cw3RhQ+tRGNPjrLgpqELARyrIuHCtyucYO63vV1R8WxcBvydoObqITsOzvM0GH9L1KhG+/eT7NSC1hR/1IVoh4rwaa8POQVbkL2TYeQv9nkdQzNfpkrs5D1pxFITFkmbiMIgiAIgiAIghgkWOtR8qESsTeL65cMTpherQBu1ovrHjRYVleHOp+lCMlT1EiaoXYHmbLMbz9bipKhUSdBO8kdBJwZ1XnvQ/PLTSh4ltd7ZSiLc2DDNqNE7/WcoSOMj5lgGJWEuJlycYMMmkWJ0L2xF0d4x9MCHKK06Shamwit8nJxG0EQBEEQBEEQxGDAjoZKI2Y9loRZUeImKQ4LGmtLsfH5UhgO2LoONXaY0VBbgeJnilFR1wjrOXG7B6cNxjrPfiNs3VCc3OFqlH6XjNVxMeKW4DgP7obhh0uwYEowV0xMZL9lwNgHFkDjCXLOgRbH7Zh1g/cY5Y166Pe0wCau94YhI4ztXx6B40YVlOK6wOgYTJ/TiJZWcR0KqG9WwSOdCYIgCIIgCIIgBgv2dyuwa/JqLJ4cQFC2NqIwoxxNo3WIu1cPZcsWlNY3izsZVgOyVlahebQW8aviocUh5P66BlaPev7GiOInN6CxQ4P5S+ez/SZseLIKZs93wKFot6B6sx1JD+sjGLJtxe6aJsQvnhM8rHU3qi3xSLxNEmKcCpop7+PQX7xy3242ommpBmK/c68YMsLY4TBDP8FHFjOYwVwGnPy6s8uYIAiCIAiCIAhi8MGEb8VmJVY/oOFVjh8czG+Ww/lQJlLv0kGr1UK/9GnMVzSJ+xnRC5H+Sq6wX61WQ5eQhKRRu2A64d5t3VeN5nuysW6JXjhel5CK7Iej4LCFm+KKg2VHCayLkhErfusbCueBXagI01vM91r79BYLqJGYk4SOihSsyclBTmYKCi065C7TiulhF/7vKUNrVuoLgTMtShYs0QmCIAiCIAiCIC51HDBuqYLi8eXQ+k0s7MYB++cKaCdLOwpl0MyYL/5myORQjR8hePAxf9SI+tp6GE84gH/xO+1o/gSYf7O071UG9bxExPK90980YmNCAhIkS80xdyju850o/2Q+ku7276QMhBW7tzcjKVxvsTXJt7dYwIaGl0vRrElCalom0tckY5ajCiU7LeKQ8UBjyyNnyAhjhVIP41f+PcMcuDZg7BU0eJogCIIgCIIgiMGJ82A1Si8sR9yN7LfgxqhNcGN0vo39FoY6O+E4EYWoUULwTmSyEeIvpoyO1SBn1RoU1x1C81f897k66DTiziDHdzJuDtK3b8d2ybL4On6HFfW/2wvtwwuh9LhYajsvdFi28a6WhIO9CL3FE8L3Fl/VpbeY7TlYj+LRychOWQBttAJKtR7L1mZC+0YVGk/xIXqn+XotjDlnK45/3oKzkYw970eUEzVQH2xiWSPhXDOaDsdBHbnHJ4Iguku7WAhKF0l50Nd+6/i3nJaWEH7r2u2wmq2wh/DZxzlZmGM2OIKWWyxOrVaYrfbw/gEvBhH6XRfSOuA9sfsR0s3R9X6EcwdepFcMlI+B0oY7Z4MlgrQNGBcPYj6H9E/Y7oDtWLB8DmxTwc7F31u4uIS0ORF3GgUOFWm6hLQ5FpdQfhvD51Gk6RJBXPqCUHbN7wuaVr4I9x30NCHylhh0cK1mmFvEzI6wXLxoRFD3+MM53OVC0EPCPPMDifDcBXlGI7mvvqjLPQSPSx/VNzyR2BvfHoqw3OoJNms9HPuKsWbFCqwQFiZwDwA1uez3TgsLoUD0zWY0+82WZbfx+3icML9TBWVaEdanJSExIRa6KbzLI3E3lFDPMaPpS7/Ztvj7Em5dBrlc7rPILmObv3Hnd80znnixJbcGOMDHtRgHvuGP9dCb3mKWDazux7ixvvJXpsS1GjMc/pOI9YBe+DF24mh1AYre4xA9XgbHyVZMSc5Fmj6CgeUR0j0/xnY05GbhyJw8pN2tgvyCHY1FWdilykXeUnXXcfgX26fXJcrA+rBzwma2I0qjhoJGu18ydNcmLNsTkLVVXPHg8UnXh37r7AcrUPyy0eu37pwW636TDm+Rw8Hy6gbkN3BQKWXg7DbIZqcjPUUnmZSPVQpb81HY6A7jOGGH5tE8pM/1huBYxfPic9Ww8f7QwcSXTYH4nPUsHr030p48b5H6Xec+r0HOU1WwdKa9SKsRxb8qdft3F+5HicTcdUhUu+/HsW8jVhYYhd++6JG5eR1ix/G/A+ejr+9EO4xFOSj9XAkVi6TjhA3KB3Kx7n5J+XvOjKrnC9F4XgXl5SwuX2uQ6pOH7D7C+qPnYNtTig2VFignKtz5vCAb65dKvrfih3utKoTvXUnvR8RpQ+PWYhTWBfYDGd7mJAT028jjny52qJZm4+kEb7pEYnPh/DZGlEcRpEtv7b87Nu62PQ7pr6zHgqvFjSLCvq8SfW05IA40Pr8Shd+loyx3ge8EnOI+++KueUsEZ2DbBaFwwvRKGoqRjpJHdeB4Gzmg75d2XPfSIJK6x492Gxp+twFVQrnAxO9hB7Rr/eoiv2fedrke6RnJkme+9/Q0r4PWNxHcV9/U5V6CxqVP6hs34eth1p7dV4Xigvqu8QhD7563rmWc82Ap0mrGInsDuw9ePbY2sjZAORpiVgtxt29fierReVi/SOUOf7gKuc/UYJZYV3CHK5CyJcp7/DkTKp6pgiKjiLUbhEMiI4jOcjKxvGLf9BDPrZPVmSvQOKMS6+YFCMFPHpbbjIXPpmHBRD6CHBwfVSO/iNV3ZUnQsqqqN36MwQtjDydP2lxtTmdEi72xyPVg9g6X5Zy47cs3XXkPZrj+cNQ3XG8WPj7d4m9HXNXrV7vi4+PZkuTK/v37rtP/FPf5Y6l2xT+313VGXB2ufHtmIFOgyVUdn+/a+7W4SlwSdM8mzrjefzHeVf7JeXE9EppdtU+nu6otIY5prnVlple7mjxBvt7ryme2stsurjNOv5Pvit90yNUmrp8/UulKWr/LddLzzP/ztGv3c0muEpMnhMvV9mGJbxj7XldBUqartllc520yKd1VecR7zPlPK13p6bUs1r2ne2nb5jryv5mu1c/Vuo40VoYpr/g0zXQVvJjtit/WJG7jYWmwPt6V/85pcT2y+xHSSXq9M++7CuLLXUdCZNnphlwhjp1X+q7JVZmeLknbNtehTUmu3PqT4jo7prHAlfS0NC78fSS5yjvz7LyraVumK0mSz4JtJJW7Dnk2sOtUs2NKPvTmmeuzalfSr3Z74xKIr3a7ch/JdpU3HnLtyotn9ihu9xCBzXnh7201S3+23y+f+HRJqpAc03aEpUuma9eX4nokNneeHcOH+dSbAUJcXnrfe94I8ih8uvTe/rtj42ca2T3w9bWPDbgR9vnYcjDOuPY+x9f58a7MnV3OIuzrkrdESAa2XRA5go30UzuuO2kQSd3jT/POTFcms+/OEKwuyo/Pde3+SlwXnvlc1y5JM/h0Q74r6XeByp+e07O8DlbfRHBffVSXewkWlz6qb9iv8PUwi9+vVzPNsdd16PVIyy0vvXveApVx513NLB6rmQ5K+/lqV1I2a0uZJJrHfshVnp3kin+E5dUjTCvV7HXt8jnHedfJhiJXWlK8a/UjTFMlpbmKGk6yrd0koM5iac7aBeHaf+nS9l8A2j6tdeU/4i73+WX1+nLXXpv3gDNnHOKv7tPDodRn8cm+N3FHwo8RzXeh8/zwDtyX0IG6T46LGwaA0Vosyy1D3avbsX1HJfJS9FB64ucP70S6H94yDnUc5gZUlWzExpIqNJh9v+l2njCifqvbb1rVHhPsnuEkTgsaak2wnWN/Nxcjp84qbtuLJpzGoTcMMBzs3SxyxEDBwelQIEoeWW8ST4/81snUiPttqs9Mh/znE6o3rJ1+65wYi8RFOqg8z/xlSmhnT4XphMe2HDC9W4/5ixd4w4yPxZLFHAwfiR9hcEroMjOxROsdpCOLjkGM1QKbz1Cgi0Hkftftb1XBeGsaknT+k0444PhID/1N3vfsshtmQRfyfgK4UGh3wqGIQlSIbHZ8Y4J+jtb7Rn+kBrNmu4ewCbD9DW/MR+Jd7rfUPMp5S5DYYYDpc3FDBP7oLQcNkD0UB50nCLtO3AM61O8/wu7WDedsY/GVdx0pJIXlddzzeUieF4OoQPVEBDbnIbjfRg7cSC2S9FO9w77kWpYuFjR/JQ5Vi8TmIvHbGEEehU2XgbD/uclIjjGg5FUrS63gBK1fRPSrkhGzowQ1n4cfdkn0FXaYahtgabXByPtMLTOxZ5Dfxp5p4Vs/EbENIJTEnt/t4jG8n9V9VlZ+S7jggHmPARVFOSjeXI/Gz7177ez5v9TaC+HrHj84M97fMRVJSzTecmH8HKT+NhExnk9B2S2PXczKOcmgSaVWj6kmmzsdB5Cg9U0k99UndbmXoHHpo/qG3VQE9TAH5aICpjliEXOFuOmioUDsWv8RMTKoE9ahbGcZCp7fhMq8ZdDMlGie8Tok51Vix//LRe7LTCstjUWczzlkUN2Vjk2VO1D0/4qwo3IT0lk6hqxPAxFQZ6mRWFTErhXibOpEFBWxOIcIIr8hEeteqcMO/jvnHXUoy01GbHS3YxiQngljrgVW421QX+MbiUlTbsHZL1uYbB5gRsrRjXY6EREcrLU5yKq24arZcYi7/Vqcrs7Cxj3ugkoYuvFMA5zq+Vi+dD6u/aoaWZuM7obqd6yiZJVbxebd4DRs/wzWdB6hRMx1/FC9KCjVrOE1oXezyBEDBRNeh1mj38kqIdYYMrBGkumU37cpPvTQb91oFbSTFZKCmdnjn81ok/itU2jjkDhbOtDKiWazkTUsxG2cDc379YjxKzzVGh0cVpvbVmUKqLW+vs6dn5phmqmDRjoE96IQod913nXDG2qslgzN9aKCelETjH/2Niic5kMh7yfgiwsmzMwaOdo+amB5zPKZFyZ+2axSx6HpgNnbaHOaceigDjqWbzxcSzOMc2Og8omkGlNnO9B8yt0KCe+P3g7bpw5M/5FPCMhjpkP/bkvntZ3n2K9xHbDvqxfiW7/PAof/92UTtdAFNUJGBDYnENJvI2tgzE1kaSnNRSuaDqqhUorbIrG5SPw2RpBHYdNlQOx/LOavysTUuhLsPBZY1IasXzyMm4/kp6Zi1+92wtKP3/gRUhywbt6L6rItaB6nQ1xsDLMdflsFrNJv/YQ2gNWdX8LvBlRtYfk5UY+4u2Jgfz0Dua95ZoixwrB2JaqsUdAmrEa8Fjj0bG7nCw+HtQIVVp+cH3DC1j3+sLLQdGMMlB0sLfbw9aYBDR85IJushdrznCm0iFviO3TY2XwExhl+5ePFJlR9E8l99UVd7iFEXPqmvuGJpB5m9zQzVGUyQFzGfw/cJZc6kfHfCAffzXB/TxwyyAAT/h66T8+E8d8daMUkjL9SXPfAMgF/afWtrIihwTkTdm1WInltMhbM1EKrjUXSk+nQOt1vL+XaROQVrsOyOaxwU2sQuyIJ899lDbdOY+CgeyAdcXPYsdGsiBEaYDG4ignjazXiNmLw4WjD6atZZXjABtlEFWviNrFGTS4qzIHFcc/91ok4+G9dcpDzeApK7AtQ8JDHb11X7PtKUGpLxsLZom0x4WAHq7T9G/iXXQ58avcrt6yo56+TmYKsd1XIzvL/dvFSwY7GzeVQrloO/2+i3MihW5ULrWkDUjLZ/eSsQXYtkJQR7H6s2L2164sLx99OQ/mlCcYTTOhNHAtYDMhaXwGzpPErn52M3JsOYcOjWchhabcm2wCsTO/8dlQQZROVXcXjZUCT3Z364f3R8y9i9FD61z1CTXYSZ8RMdDhsUB48BCOnQMzVUbAfKERGfkOXnt6ICGlz3fPbKITfXgKDJgkLu3yrFcrmwvltjCyPIk+Xi2z/I7V4+JdavP/7wKI2fP3iRnbzw8ie8T7KO912EP2PGcq7n0bSPJ2f4AlFG6beI7YlZi5A6iNJsL9zhFkdTzQWPlGG3EcXQKdWQz0zDkkPybDrcIuwdzDQpe7xp6MD1pHNqM8vhvE7JXsWZWiqzULuZjOrAYPARGBJiQ3Jd+vCiLT+JEx905376k1dLhA6Ln1T3xDDkV7MSh2k2lF4pwQnhg6c1YKGRXpMHy1u4BmnRdz94hvNkUqoxnQIsyeaDzTA8Co/TLoDHZ29EVGICthwJwY1Ch3SXynD+rRExM7UIXZJOtazBu6R8t1iI0dK72YiFJDHYP7S5Vi+ajW09goU1wZuAPOTlhSWAat/kejbu4fz4l8/upRbSmj566xMRpx8LzuXUXgBdKnh2F+FqtHpWH5zsCaFE+ZtTIj9awGS16QjMy0V8RPMKN7cGPB+grlQUMxOR9kr65G6JBa6mbFIfHw9EyBHUL7Hm8tO8xaU7OzAglVpSH8qFakJSpiLytHY+eadEWRWUJ/J9y4Erlt8/NEL/hb9iYIniPr+TSh7ORPJd+mhncPufW0eVsuKYTgQtNkZnBA21z2/jXwDrxj5plnIXhWocRvK5sL5bYwsjyJPl4tv/7IbliNNdwglOwI802HrFw8yaB5IwyxTCaolvetE/zI21Pj9gPi1B65UYqq1Q8x3GeTRSozgZzU2m9BYZ0D9QRscQcqFS43gdY8X59/OAHuaELVyPdIT+GcxDunPZEN7uBy7u1acwqiUmhfKgZTM7k1+1MeEq2+6dV+9rMvD132MvqpviGFFz4QxK8SuwV/R+rW4LsJ9xyrXqxXBG73EoMXZxgq8kTIEe+1h31+MlJQsVDU2o9kpR8yc6dCK+4jhRbBvWHvjt64TYaQB38sQi6SsdMTUefzWeeGsBmx88STiCzN9e/HGKRGNFtilQo3BfdcGTBjrV27JoeKvo9UjLiMTyx0bUX/4EmuYnTOh+hVgecJUlnS8Gwkn2niXC1yb16WEdTfKD+uRvTYRerUSimgtFjyaiaRzhQHuJ4IXF50wATJDB+vn4hB0/tjyI9D/ch0S56ihVKigvSsVmSudKKw3Cw0exbho4ITdT2BxLP2Bq8QZOcP7o1dAOceIk/7fu3ZwaMNYRAXtSlFCM1uPhhM96DMOanPd89toP1iKwtevdc/0GaR3P5jNhffbGAj/PApEsHQZCPtn8V28Grd/ko8tftfqVv0yUoPFj9wO83NbYKYh1YMPXgTmrMSaonoc+oKVFhOmQnczK+MGAUHrHj/kV/DeX2ZBK60L+TkZ5kjmZPDQboWhoBAn4wqQOa9fx22EJoL6plv31Zu6PIK49E19QwxHethjfA3Ud36AP1t93zL/9fif8aPro9HDCbL7hkj8kYX0fxmIPvSDJiFSX6ohr3uRUEyIgfpwM5MVUlj8hDS0wvhqM+JyNyFzVSIS+d4I1njrcAcihjKnTDC8ZfEdJnXuDGuIKyD3cRDfu95i57EGGA76Nd75XqSJfn7reLcEuUZMfTo9QMNEhZi7jDjS7FtutViPQK3hv3dnBLofXoxNZI3zc75bB5xTTJg52P2mef0GrnnZCLy6gf3eCcFrIT+0Tenn74+JIdXkrvcT6sUFP+FNwzG/8H9jDYrRnu+POHRYr8JYv6kClBPULE8c7vSMjsGCA0fQ7ONnsAXNh9XQsPKCJ7w/ehZ3jRomi2/3g/PLJpgXqVkOC2uw7DHA5Dfy0uk4DfWoYG9cuhLW5rrht1Ho9Xi5DfG/EN1fSInA5iLx2xg+jyJIl4G2f17UPhaPpt9WYG9ni7b79YtsymKkJTShcPNe2Ae47hx+KKC4WfzpIeAIj8A4zXtRNT4VRbmpSFoSh9iZGihlTKlc6oSse/y4Ugk92sD5NBadOMNsXjFSWkbZ0bgpF8bJmUi/cwBFMU8k9U0E99UndXkkcemT+uZShrW/meaIWB8wjdLVB3M3zzFM6KEwlmNG7AP4eOfr+Ficactp2YGyumj8dM4k94YBgPdHVpyWgpySKpS/kIGUnBq/75V4/5fFSHk0B6VbylH4JAv7auDhG53wftByUpDxQjmqSnKQklYMo3+PU9jr+sP7UmXnerIQ5VtKkfNoCor3+77XiuS6FxW1HvEKA2rf9cSTpeUbL2JFmYndjQJjJzjgcHgaTmzfu7uxV1wLTRvaLkJ7i+gnRrOqe2s5aj8S37pecMC0kzW+l7DGq6QV39veYvmINhhfrkZD58s4DvZ3q1B1LglaT5HDPzMv7MK1OXlBZjyUQ3fnMph21MIkRtf5lxqU7FRh+e3iIC0WZ8/9eMoFp3knqmr10N8QVNIPDPyMj3V1Pktllt7tH7qOCTA+zNVqxFl2YbcnfxhOawN2veWdFMtN6BcXUZfZUfV7b7rx34fV7jAhcY5WFGvuSb52vWnyTuZ0zoqGNxugYw1b4ZyjdZi/lAmvnZ4wTKjx39tOXI75njFynnLmLRvby+D90ZeVwrZyYac9qefEY+zOWjScEG1B/PYu6S5PXOSQf2dEcU0DbGIQ54kG1O4ci/jZkY9DDGtz42Kxzi/96wqTgLmZqKyT+AXm64dQvUgR2JwiWgPNW7u898xCOj7ajV0Wls+i/YfPowjSJYK49DeyycuQ9kAzKio93pZ7Ur/IoF6ahsTmClQdEDcRFwkFlKxsed8oPud8ObCtCk3unWHhex0VDgfOdJYjZuxuMIsrlyhh6x47zLVVrCwRn6pxcxC3ZC+qtnvLS/v+KlR/lAh9Z8XJ2omVhdg1IRt5KyQ+2geKSOqbCO6rT+rySOLSR/XNJUkrK8eZbshimkPQB6s2wOCxrWB8sRMrXj7gHT3kf460jagPd45hwvd4n03ib9hsLRh7JT8UIhI4tLxbhsKt7+CvvDi+6jasfiIN91zXd9Z05tszUKkifW1jhSEzF44HS5AsTL3OT3KSg3zHcpSkid9zCU6hHVhekux29cEP2flVPs4sK0Gq56P+die4EXLIhGninTCVpKF+otcRtn1fIbJej0Fuoed7hwiuyznZmbwzpwkzbL6hQt4zce7p6FnDrjBzF2JyC8TvRyK5bt/QLcfirLCq+W0xqqx8vw0TyOokpD+1DFomjjhrPV58rhRNMg2izjmgeTQJiueNuHYzayCiERtXGaHnf/tNfMQPkct5vgH2Reux3ZNexIDSXWfzgoP851ilf4IvchXQ3r8aqQ/HQtU5XJQ9IxlF6FhTEHyKfvZsZhR1IK2AVWpBgjj/YkDxSxUwisOtlDMTkbqGPcui2LBsT0DWVvdvH3ih0ukygH85VoqNlUwc8NG9Wo/UrHTETfZaHtfSiC0l5TCI7sgUE2Ox/CkWRt37pkmPHfkHcZTvj2PfRqz8KhF1rCHlIdD9JK5houEG7z2Hd7jvl24KLRJTUvHwPIkLh3YbGreUovw1s7vyVagQuzgdaVLXHSxMQ9lGVLGGCB9GOTcV2Y/HQS198D3lzEf8SzjenlKRvsrX9Z7zcA0KN1W5XcLwcUlLR/IcaY8Ka1RuL0TxVtFFDMvn5CfSfe7ZiwONz6+EfbG/y4vwNteFLvnkPnfhfmHFF74RJ+ZTJDYXKC5JKQ9LXFREkEcRpEtv7b87Ni7Y6wF9ALuzoyE3BcUadxqFrF/GudPYOKcS6+b5XfdUAzY8WoyphV3zlghO5HnI2lAJWYB/+raaUFFU7Lahqxdg3RPT0bjWjkRetHwToD0gbBP3s7w3lRWj+DU7lOyc9ssXYvXtzSg85y7XhHIebrsIbj+9pzt2HLbu4ZjQS8mBeekmFCSI7oP8ykuFNhGr0yTPM1+WZFa5f/ugR2aAtlRP6XGdxAhU34S9L0bf1OW+BItLX9Q3nURQDweMRxi6lwfustEUW4Z14igC7i9VyPpdFGtDhdAHPnHnz5EFW4JHt7A8MVchu3IsMguZLhG2DG4cjrNQKHo4flnwZixy8qTN1eZ0dnNxuOytjgDbe7/w8YkYS7Ur6Ve7XafFVYG/ve8qii9wvS96l27aluTKftMnhKvNWOSKf/F9twPqtkOukvh4V1KN6P5bcERe7jri42Sad06d5Kr+TFwNe10+fLz3GqIz7vJPfD1XN+9I7951+4geORb/rs3V9p3424/zbW2u8x6n7MSgpKfO5i9W3vPXaQvh+D0yzrvawp0khJ33lN458u8lfXI/EaTbPyMIcz6CuPDxDXsaZnPi74BEEpcI6Bubi4AI8ih8XPooj3poL/1p4xerjBnuDGg55YEvIy7KQxeYi5YGfVRG9ZR+u88I7uuilat9VN/0F93LgyZXdXy+a+/X4qpAk6vSf9uZJtfeHSWu/OdKXLXGk67zTKvEP7fXrUPOn3S9v2O3q6lNCCnCn6PI9f7fxFWeNhbu9XJX0a+KXOWvv+866RP+0ubMGYf4q/v0YlZqD6H9ZF0s+sT/pVyLuOxMZN/tfufSN37Q1Fj4WCbWLdO53zBF4Es1kusOKLyf6CAzTPM+xdy97cRw42Llfd/4rYug3Aph54OSPrmfCNItjO9EAVkEcYnAH71gc+LvgEQSlwjoD1+JAYkgj8LHpY/y6BK0/4tVxhCXAHwZcVEeugGmj8qoS44I7uuilat9VN9cGrg/WzL+WVAtAk7zIV9f8/wo1IxyNI3WIe5ePZQtW1Ba3yzuZMhU0C9Z4DvfhbUJJrUKV3k8z3xjRPGTG9DYocH8pfOhhQkbnqwaFhMa9oEwvjToG/+XMqjmxEIjGkZf+UGT3xALvUcIR+BLNZLrEgRBEARBEAQxXJBDtyoXWtMGpGTmICdnDbJrgaQMj695DuY3y+F8KBOpd+mg1WqhX/o05itCfOXPf1a6yYCpDy3sHIpt3VeN5nuysY6fL4adQ5eQiuyHo+CwDf3vkIeMMBaIxB9ZGP+XXfBMAOFH7/ygReBLNZLrEgRBEARBEAQxDHDCvK0Ehn8tQPKadGSmpSJ+ghnFmxvdI1/hgP1zBbSTpR12vOu++eJvf/iZz/NxSJeNZM9cS2xb8yfA/JulXyzLoJ6XiNjJvAjh5xZIQIJk2bhv6HTaDRlh3B/+L/vFD1oEvlQjuS5BEARBEARBEMME626UH9Yje20i9GolFNFaLHg0E0nnCkVf8044TkQhysddJpO1MknHWyd2mF5xz3yeu0I683ngc3jRYPH27dguWdIDuNkcrAwZYdwn/i+dJpSuTEBWnehjrU/8oNlQn5mAla/wbo14IvClGsF1CYIgCIIgCIIYJnR0wKr082nP65vJTOYKvuYViL7ZjGaPTz4Ru03w7iyB96BTiOK2eGQyUex/PvUcM5q+9D0H77XH4wpZ+D5cugyh0axDZyh1X/i/lKugX7wMC28UhyD0iR80JabeswyJs1Wi4UXgSzWS6xIEQRAEQRAEMTy4Wo04yy7s/sg7UtVpbcCut3TQTeY7zhSYPjcOxpp6WDy6lmmd6h1ih58AB9tbxSj8Kh4FT8WK3yZLkUM7J5HpFMk5zplQsTYbu1vE9SFML/wY9z/d82PM6BP/l370tR80gfC+VCO6bh/QGx92xNCEbKL/oLQlhjpk44MfysPhkwaU1wNPd/MgkK/5xDVpEn/0HKx1LyL/lSbIJsrQdsVCZC8BsvaIfowFv+GFMIqhpSR1+iT36hRupBL2dhkWrFyH1LukfvEvXXrjx3hoCWMPfHf/v4Xu2uecTkAextWHFI6d81/snKGmfI/gur5wcEcjZETDX7cXUKFI+EM20X9Q2hJDHbLxwQ/l4fBJA8rrgafHecBrDoTQBxeYxmgPozHCwuuUDozojl66BOiNMB5as1J76Av/l/70ix+0CPzXRXJdgiAIgiAIgiCGB+F8zfeJj2z+HINLFPeWoSmMCYIgCIIgCIIgCCJCSBgTBEEQBEEQBEEQwxoSxgRBEARBEARBEMSwZugIY36SKo+DLX8kvrf4SbecwZZ2d5hO2HF2qxnWVic4wW0SQRAEQRAEQRDEAHGBg6PF4tYn4qYusDCdGkbc1CN4DeWvj/zhJ/piOiqgVmL6zG61wOaIMBYSzRYOXtP1tT4bMrNSO/ZtxMoDevdU5OI2D5btCTBMqMS6eXbUJGShStzehYcKULdCw37YYSorRvFrNkRpVVD8zQbzORUSH09H8uwQrp0GITQjIeEP2UT/QWlLDHXIxgc/lIfDJw0orwee7uYBZzVgY64BdhXTJ+ftTJ9ose436dCPFwMwuGM12JC3G9xEJWTf2WG7XI/0jGToJGHC44RtXxWKC+ph6dRHgeBgfTUHGZUWibsnN/aDpSh81gTczOLhsMF2RTyyn1kGTYhJw7yaLVyaOND4/ErYF/tek4dmpY4YDZbV1aFOWCqRORfQZ1WK62wRMp1jmVKI4nPzkbe9Epvy8pD3ciW2PzsfZ14uRM3nvXrvQhAEQRAEQRAE0T04M6pzjZj6yxK3Piksw/bHolD9ggFWMYgQJq8J+vwyFDzrDlNwpx3FO01M6kaKHQ3PZqD0s6lY/qhe3BYEaz1KPlQi9mZx3cOpBpS+3Ib4cjEeL5ch7/Zm5G/uTjwuPvSNsT8nGlD+xlRkrlkAlcdXNkM+cQHS0lSoeuPSzlCCIAiCIAiCIIYYXxxBjSYesTd4BYp8ZhziR+3FEY8yZiJl7OI46CQDbpVaPaaabEzuenGeMKJ+czFyiipQf8Dmp204KBcVIC8lFjFXiJsCwgR0pRGzHkvCrChxk4jdYoLpbhbXzl5qGVR3xWE+01FNkos5jjXCULIRG0sMMLYE6Hx0mNFQW4HiZ4pRUdcI6zlxeyccbAcMKH1+I0q3NsDsEDf3EBLGfvDj8S1366EN0M0vn5OOugw9JHqZIAiCIAiCIAii/7mMl5i+yEZZYWkRFaFCi7glOkg//HQ2H4Fxhqpzm+NAMTL+ywyZdj6W36kBt28DMirNkm+RVdDODD+82/5uBXZNXo3Fk4N4OmZx9UEmwwjUw9riXrXvK0TG75sQNTsOcbcr0bK1FLtOuPcJWA3IWlmF5tFaxK+KhxaHkPvrGlgl+rm5vhRbWpTQ3xsHnbIZVRmF4p6eQcLYD4fdCL1qaH1HTBAEQRAEQRDEICY6Bgv274VRFJY83LFG7DogrgSitRElJTYk360TO/as2LvdgeVPp2LBTC20Wj0S12Yj7iMDGk8JASKDnbdisxKrH9B0Eeo8yokaqN8wwiTpHbbv24UG8Tc/5Ht3mRNJkngsy5iPsZ+K+3miFyL9lVyk3qWDWq2GLiEJSaN2wSQRz02K+Xh6qZ4dr4XurlRkPtS7cb0kjANxgb4jJgiCIAiCIAjiEmG0HsvXKmDIXoPCzQZUlWzAE5XArARxvz/tFtS8UA6kZCJRLW471QwTpwK+NsNs9iyn0TbaBJs9Uv3jgHFLFRSPLw84wlZAHYe0hGYUP7kBpVsNqChYgw2fXIsFc8T939phUWgRc7W4zjNSA92d4m8emRyq8SOEGbjNHzWivrYexhMO4F/ifob+xhgfYa6crBV/9YxhIIw5cN+JPyNAGR0L45d2yXACCcJ05CSaCYIgCIIgCIK4uCjnpqPs5XWInxmD6Xen46W8xdCMAGKUfkOf260wFBTiZFwBMudJRsK2OWCTncHpL5rR3LnYETUjGapRHWKg0DgPVqP0wnLE3ch+Cy5v2wS3SefbpK6dZNAszUNZfhL0N8VA/2ABNmXE4qrv9FBeyXbz8Rgd5fd5qowfbd0JP7t2zqo1KK47hOav2L3fqIPOb3JseZTfB65RvfOuNGSEseLqGCg+PQlbF93agubDiq4GEwSFZhb0tfU40CpukGDfsxFpOyyBRTNBEARBEARBEER/0GqCoc4Mx2gVNFottGoFZJwFR96Ng9rHu60djZtyYZycifQ7/T4PHRcNrXUspscnInGJ77JgSmSzKNms9XDsK8aaFSuwQliYeD0A1OSy3zstQhju80YY9lnZ9dTCMGdNNDv3KTOM5zRQjWMB+HgcbobNZ+SzHTb34QwnzO9UQZlWhPVpSUhMiIVuCu9+StwtYrFJpxRj1/2qWfzVM4ZOj/HkWCSpa1D1P0Z0jgTgHDBVlqBiRCJLTHFbOMbFIjlrBMpfKEWjVcytC05Y95WicKscq+/RBhxLTxAEQRAEQRAE0S+MiULHnkKUvyuKwQtM52yvgjlhIbSdmpYJyspC7JqQjbwVAb7/VeiwcMleVNVavDNRtzai8NFCNH4jrodBs8Lj+tazuF3g8n6MPf6OZQomWgtKsPMv4lWcNjRsq4Z86XwIo7oV0zF/kRHVdd542N+tRnXn98NyRCkUcDjOiOvsFId3Y/dhcUXEtqMajZ7OTKcFO7fsFVd6xvdcDPE3bLYWjL2yd13QfcmZb89ApfJ5BRKadhsat5Si/DUz3HOzKaCatxyZa+Kg7vISxO0Y2jgnkBNpDrZ9W1CxxQCT+CG6cmYiklIeRmz00JLF5Nyd8Idsov+gtCWGOmTjgx/Kw+GTBpTXA0+386DViIqiUhgEv0QKaO9PR3qKZBbqYzVIyKwSV6Tokbl5HWL53tpOvWRH1ESmebgYJKakInl218mHHfs2YuVXiZ2CNzBuTWVfXIdlko5I5+f1KC4ohVHQUkroH83G0wlqr1hvt6K+KB+ln8qgGtkGxYJsJF7IQsMEUZu1mti9FsPwtRIa2CFbsBp6ayGcwnXEa95VANTmY/ffosCd4DCVXSN17lgoFGPEi3SPoSWMPfDfArd3YMRIOWT+U4V3E87pRMcIOeRDtJuYCkXCH7KJ/oPSlhjqkI0PfigPh08aUF4PPD3Og3YnOKZPeqVzOCecHSMg72eRw2spdpHgI27ZvTjBtFaQibwi0WLCNUTd53Cc7bEwHpqTb10mY+nfe1HMI2PnGaqimCAIgiAIgiCIQUYfdP7xsz73tyjm4bVUyKuwewkminki0WLCNfpA95G7JoIgCIIgCIIgCGJYQ8KYIAiCIAiCIAiCGNaQMCYIgiAIgiAIgiCGNSSMCYIgCIIgCIIgiGENCWOCIAiCIAiCIAhiWEPCmCAIgiAIgiAIghjW+PgxPn78S3z/+98X1waef/7zn7hizBXiGtEffNfejlEjQ8yRTgw7yCb6D0pbYqhDNj74oTwcPmlAeT3wUB70Pd9j/3rqx9hHGNtsLRh75VhxbeA58+0ZqFTR4hrRH5Bzd8Ifson+g9KWGOqQjQ9+KA+HTxpQXg88lAd9j8NxtsfCmIZSEwRBEARBEARBEMMaEsYEQRAEQRAEQRDEsIaEMUEQBEEQBEEQBDGsIWFMEARBEARBEARBDGtIGBMEQRAEQRAEQRDDmqEnjC9wsFvNsLY6wYmbutDugO2YFXZn0BBu2p1wtou//WHXcbRYQl8nDJyTHXtBXPGnD85PEARBEARBEMRQgoOTaQRLiyO4juDDtFphttpDhJHAa55QgoPpEmegAIKmssB2rsdqqHvx7GeGlLsm7lgNNuTtBjdRCdl3dtgu1yM9Ixm68WIAlvi2PaXYUGmBcqICnN0G2YJsrF+qgUwM4cYJ274qFBfUw/JQAepWaMTtbjirARtzDbCrVFCct8N8Tot1v0mHvvM6YXDa0Li1GIV1FiQV1mHZFHG7CNfSgNJfV8HyQ/f5bZcvRPYzy6DpBzdnNE084Q/ZRP9BaUsMdcjGBz+Uh8MnDSivB55u50GrEcW/KnVrBDBR+rUKy3/5NOLUEiVzzoyq5wvReF4F5eUsjE2B+Jz1TG/4qh0plu0JMEyoxLp5QeLCNFbCTiUq18ay6/L4ayozHDeuQ16GHkphfwT0IJ6RQO6aeDgzqvOaoM8vQ8GzecgrZH/vtKN4p4nJXBFrPYoro5Basgl5LExBcTamf5iPioOdIRh2NDybgdLPpmL5o3pxmwT+OrlGTP1lCTblua+z/bEoVL9ggFUMEpJTDdjwZCmaNcuROkfc5oMV9S9VIeoxz/k3IfumQ8jfLLkPgiAIgiAIgiCGEUyjbCr1aoS8TSh5PBq7NzXAJobgO/dMW4thv6sAZYXuMGW/1OD9vGqY+3IIKq+p3rwKmR5N9UoZkto3onSPXQwQjosUz24ydIQxU41jF8dBJ+lgVmr1mGqyMTNyYzlogOwhFkYubhipQdwDOtTvPwKHuIl/A6JcVIC8lFjEXCFukvLFEdRo4hF7g+ckgHxmHOJH7cWRSJQxp0Tc83lInheDqMvEbVKOmWAYlYS4mZ7zy6BZlAjdG+z83kgSBEEQBEEQBDFc4DjItUnQayQaRDsLumPNsJ0TN5wyov6r5Ui609tvK7thCTIzZ0HZIW5gOI41wlCyERtLDDC2BFCiDgsaa0ux8flSGA7YmDqSwsG834CpDy+GNypKzFldhERpz/UFB8x7qlD6PBPMWxtgluqYCOPpPMHCbS5GTlEF6lk8+ruTcOgIY4UWcUt0Pt33zuYjMM5QidvssH3qwPQf+Xbwy2OmQ/9uS6d4BlTQzgwzpIEJWv9OftkoqzDWPywTtdCFOL39SybSb/TEWWR0DKbPaURLq7hOEARBEARBEMTwQaaCfskCiRhlWJtgUqtw1Wj3qtPWDBOvI3hhW2eAobYejcc4qLQaKMXj7PsKkfH7JkTNjkPc7Uq0bC3FrhPufQKtjSjMKEfTaB3i7tVD2bIFpfXN4k6eFjR/NBUxEzpg/6iBXYNdZ48JjlFqaNWiyOGsMPzfLBgcMdDfGwed0obqtRvRcMq9O5J4Og4UI+O/zJBp52P5nRpw+zYgo9LsJ9L7lqE7KzXL1JISG5Lv1sGdvg44DrPMvVJY8SKkwEmcibQ3NjoGC/bvhbFFXGdwxxqx64C4wrAf5DNYsuyxRPyGw+EwQz/BV7wLMpyJ8ZNf85G0wyQ9N1sajtEga4IgCIIgCIIYNrRbULPJgKkPLYRa3MS1O6A5Z0ThMwbYr1BBNc4J44sZ2LBHHGzNmbG7zImkp1OxYKYWWq0eyzLmY+yn7t1Cb/Cb5XA+lInUu3Rsvxb6pU9jvqJJ3M/DocMqR3N9PooPcFBep4TMYkDW+gqYxZ5r50e7YLguHeuW6oVz6O5KRvYqOaoa3MI2bDxhxd7tDiyXxDNxbTbiPjKgURTX/cHQFMa8obxQDqRkItFjKR7+Jf71IQqySL/zHq3H8rUKGLLXoHCzAVUlG/BEJTArQdzPiJoQg5jrJMtEJUaI+yLiQuB3IVFCJKOYAfqd/8punZ0gCIIgCIIgiEGLHY2b8nFIl43k2d4uZIfjNCz7z2DW/12HZfN00M1bhnW/WQ1ZkQFGXrR+a4dFoUXM1e7wAiM10N0p/oYD9s8V0E6WdtLJoJkxX/zNcLbhDBrQNCoJ6x+Pg56J1rjH1yN7xhGU7+G/K+XQbGnA1Cs4WMxmmMWl2cHO/rld+Hw1bDxPNcPEqYCvvcebzafRNtoEm53XSUzrJSQgQbJs3BdpL2dwhp4wbrfCUFCIk3EFyJwnzVQFlHOMOPmNuOqhg0MbxiJKOiwhDMq56Sh7eR3iZ8Zg+t3peClvMTRMm8Yo3cMH5NH8mw3JMlnRZeh1MBRKPYxf+WcsB64NGHsFH0k5VNJzs0U9LtKzEwRBEARBEAQxeLHD9Eohdk3IRu4KX886CsVVwI2zoJV6yhmvhX5uA1r4ntY2B2yjo8TRtB5kkg5CJxwnohA1SlwVkckknXDyKKacgFkzpNdm4ll3O6yf25jwdfKXEbz/NH/R7F3aVUie4dZKEcVTdganpcd/YUfUjGSoRvEfIWuwePt2bJcs6beF+RQ2AoaYMObfnuTCODkT6ZKPud0oodKoYbL4zpDl/LIJ5kVqqMT1sLSaYKgzwzFaBQ0vTNVM9HIWHHk3DurIPUsFRTlRA/XBJt8Zrs81o+lw35yfIAiCIAiCIIjBCAfL9kIUt8Ujk4li/349hTIGijZOGK7sxYEzX6kxgte246KhPdwMm89XmHbYLOJPKBB9sxnNvgFg9wZgKKGcy7Trd75XcZ45DYyWM4mswFUqBTi1HolLEv0W93xQEcXTOhbT4/2PT8SCKe67lsnlkEuXPugnHELC2AlzpfvtSZ7f2xMP6jnxGLuzFg0nxMwWv0NOukvbxbCCMiYKHXsKUf6uOF3XBQdM26tgTlgIbcQnCQEzoniFAbVviTOvXWBiv6wUtpV9dH6CIAiCIAiCIAYZHGxvFaPwq3gUPBXrO1GvhymxSLqsClUeHcH+t9ZWoUIRDz3/ealiOuYvMqK6zjv/kf3dalR3Tr6lwPS5cTDW1MPiCcD0UvUOr0MoPsycuxOxd0s1TJ5Brq1GVG03IXGOW1Op5yZBtrUKjZ0TBzuZoM/CmldFgR02njosXLIXVbWSeZr4ScEeLUSj/+jfPuR7Lob4GzZbC8ZeyXeOXxqc+fYMVKoIu0l5x9OZVeKKFD0yN69D7Dj3mvNwDQo3VcHEd9MrtEhMS0fynICmBce+jVj5VSLqmND2gWV+RVEpDMK84wpo709HeorvjNjhcaDx+ZWwL67DsiniJg/nzKj5bTGqPuLFN3/+VKSv0kMZyL1TLyHn7oQ/ZBP9B6UtMdQhGx/8UB4OnzSgvB54upUH3zRi46pCGMVVKUmFEj1xzgJDSSEq9rs78ZRzk5GZlgiNOHM1/9lpfVE+Sj+VQTWyDYoF2Ui8kIWGCZVYN4+PCwdr3YvIf6UJsokytF2xENlLgKw9SlSujWXKhIeJ9H1bUFpmcLth4jVVSioenqfq7Jx0/sWA4pcq0CRj2060QTZvOTL/TxzUI8UAYeNpQ+OWUpS/ZkfURHY9Lka4RvLs0IrL4TgLhWKMuNY9ho4w7iac0wnI+e7+XtDuBDeCnaMfBKsAO7/z3/pmaEAwqFAk/CGb6D8obYmhDtn44IfycPikAeX1wNOvecAxHfEvpiM8QtQfXmcgxP4LHJztvFwKLUTCaSp+fwfTS0FPEy6e/P6OEWHj4aE3wnhozkodAfy49F7rzZH9KIp52Pn7UxQTBEEQBEEQBDEEkYUQmzy8zgi1/zJZRGI0nKYSvgUOHSB0PPj9F0kQDVthTBAEQRAEQRAEQRA8JIwJgiAIgiAIgiCIYQ0JY4IgCIIgCIIgCGJYM/SE8QUOjhYLrK1OP99YfvAfcjtDhiAIgiAIgiAIgrj04CfHcjK9c0FcD4YQ7uJqHn7CLf9rurcFWNrFAOL9BFq63CMLa7eaw+u9bjKkZqXmWhpQ+usqWH6oguK8HbbLFyL7mWXQ+H3Q7TDXoLiwCqYbMyXTjg9PaEZCwh+yif6D0pYY6pCND34oD4dPGlBeDzw9zwMO1ldzkFFp8XXVFAjepe1OqaulfuYbIwqf2ohGH51lQU1CFgI51sVDBW7XuEFd7/q6o+JYuA15u8FNVEL2nR1m6LD+F6nQjXfvp1mpBayof6kKUY+VYFNeHvIKNyH7pkPI32zyOoZmv8yVWcj60wgkpiwTtxEEQRAEQRAEQQwSrPUo+VCJ2JvF9UsGJ0yvVgA368V1Dxosq6tDnc9ShOQpaiTNULuDTFnmt58tRcnQqJOgneQOAs6M6rz3ofnlJhQ8y+u9MpTFObBhm1Gi93rO0BHGx0wwjEpC3Ey5uEEGzaJE6N7YiyO842kBDlHadBStTYRWebm4jSAIgiAIgiAIYjBgR0OlEbMeS8KsKHGTFIcFjbWl2Ph8KQwHbF2HGjvMaKitQPEzxaioa4T1nLjdg9MGY51nvxG2bihO7nA1Sr9Lxuq4GHFLcJwHd8PwwyVYMCWYKyYmst8yYOwDC6DxBDnnQIvjdsy6wXuM8kY99HtaYBPXe8OQEcb2L4/AcaMKSnFdYHQMps9pREuruA4F1Der4JHOBEEQBEEQBEEQgwX7uxXYNXk1Fk8OIChbG1GYUY6m0TrE3auHsmULSuubxZ0MqwFZK6vQPFqL+FXx0OIQcn9dA6tHPX9jRPGTG9DYocH8pfPZfhM2PFkFs+c74FC0W1C92Y6kh/URDNm2YndNE+IXzwke1rob1ZZ4JN4mCTFOBc2U93HoL165bzcb0bRUA7HfuVcMGWHscJihn+AjixnMYC4DTn7d2WVMEARBEARBEAQx+GDCt2KzEqsf0PAqxw8O5jfL4XwoE6l36aDVaqFf+jTmK5rE/YzohUh/JVfYr1aroUtIQtKoXTCdcO+27qtG8z3ZWLdELxyvS0hF9sNRcNjCTXHFwbKjBNZFyYgVv/UNhfPALlSE6S3me619eosF1EjMSUJHRQrW5OQgJzMFhRYdcpdpxfSwC//3lKE1K/WFwJkWJQuW6ARBEARBEARBEJc6Dhi3VEHx+HJo/SYWduOA/XMFtJOlHYUyaGbMF38zZHKoxo8QPPiYP2pEfW09jCccwL/4nXY0fwLMv1na9yqDel4iYvne6W8asTEhAQmSpeaYOxT3+U6UfzIfSXf7d1IGword25uRFK632Jrk21ssYEPDy6Vo1iQhNS0T6WuSMctRhZKdFnHIeKCx5ZEzZISxQqmH8Sv/nmEOXBsw9goaPE0QBEEQBEEQxODEebAapReWI+5G9ltwY9QmuDE638Z+C0OdnXCciELUKCF4JzLZCPEXU0bHapCzag2K6w6h+Sv++1wddBpxZ5DjOxk3B+nbt2O7ZFl8Hb/Divrf7YX24YVQelwstZ0XOizbeFdLwsFehN7iCeF7i6/q0lvM9hysR/HoZGSnLIA2WgGlWo9lazOhfaMKjaf4EL3TfH0jjNs9GTJwKCdqoD7YxLJGwrlmNB2Ogzpyj08EQXQX/vn3FISeRVIe9LXfOv4tp6UlhN+6dgdsxyywnQsUIvC1uoZk4VqtMFvt4f0DXgwi9LsupHXAspjdj5Bujq73I5w78CK9YqB8DJQ23DkbLMdscAStE9xpGzAuHsR8DumfUMhnK+wB0yXSfHbD31u4uIS0ORF3GgUOFWm6hLQ5FpdQfhvD51Gk6RJBXPqCUHbN7wuaVr4I9x30NCHylhh0cK1mmFvEzI6wXLxotNthNQcrkwLDOdzlQtBDwjzzA4nw3AV5RiO5r/B1eeTpGTwufVTf8ERib/2sh2zWejj2FWPNihVYISxM4B4AanLZ750WFkKB6JvNaPabLctu4/fxOGF+pwrKtCKsT0tCYkIsdFN4l0fibiihnmNG05d+s23x9yXcugxyudxnkV3GNn/jzu+aZzzxYktuDXCAj2sxDnzDH+uhN73FLBtY3Y9xY33lr0yJazVmOPwnEesBvfRj7ETL/m0oeelNfLY8H68uvV7c3jd0z4+xHQ25WTgyJw9pd6sgv2BHY1EWdqlykbdU3XUc/sX26XWJMrA+7Jywme2I0qihoNHulwzdtQnL9gRkbRVXPHh80vWh3zr7wQoUv2z0+q07p8W636RD3/ktix2msmIUH+SgUsrA2VkheeM65GXovZPy8cOAVhXCKK660SNz8zrEjnOvcaziefG5ath4f+hg4sumQHzOehaP3htpT563SP2uc5/XIOepKlg6016k1YjiX5W6/bsL96NEYu46JKrd9+PYtxErC3xTxI00XQLno6/vRDuMRTko/VwJFYuk44QNygdyse5+Sfl7zoyq5wvReF4F5eUsLl9rkOqTh+w+wvqj52DbU4oNlRYoJypYPtsgW5CN9Usl31tFkM8CThsatxajsC6wH8jwNichoN9GHv90sUO1NBtPJ3jTJRKbC+e3MaI8ugj23x0bd9seh/RX1mPB1eJGEWHfV4m+thwQBxqfX4nC79JRlrvAdwJOcZ99cde8JYIzsO2CUDhheiUNxUhHyaM6cLyNHND3Szuue2nAwfLqBuQ3eOoeVibNTkd6is7PHiW029Dwuw2oEsoFJn4PO6Bdm4f0ud4j/J952+V6pGckS5753tPTvA5a30RwX+HL1e6lZ9C49El94yZ8Pczas/uqUFxQ3zUeYejd89a1jHMeLEVazVhkb2D3wavH1kbWBihHQ8xqIe727StRPToP6xep3OEPVyH3mRrMEusK7nAFUrZEeY8/Z0LFM1VQZBSxdoNwSGQE0VlOJpZX7Jse4rl1sjpzBRpnVGLdvAAh+MnDcpux8Nk0LJjIR5CD46Nq5Bex+q4sCVpWVfXGjzF4Yezh5Embq83pjHA57nr9mZ+5sv77Tde+Vze47v2fTwKE6d3Cx6db/O2Iq3r9ald8fDxbklzZv3/fdfqf4j5/LNWu+Of2us6Iq8OVb88MZAo0uarj8117vxZXiUuC7tnEGdf7L8a7yj85L65HQrOr9ul0V7UlxDHNta7M9GpXkyfI13td+cxWdtvFdcbpd/Jd8ZsOudrE9TONbP253ZJn/rRr73PxrpIPPSEYn1W7kn7FwoirXWE2mZTuqjziPeb8p5Wu9PRaFuve0720bXMd+d9M1+rnal1HGivDlFd8mma6Cl7MdsVvaxK38Zx27V4f78p/x3vHkdxP24clriTp9c687yqIL3cdCZFlpxtyhTh2Xum7JldlerqrtvNCba5Dm5JcufUnxXV2TGOBK+lpaVz4+0hylZs86X/e1bQt05UkyWfBNpLKXYc8G9h1qtkx3ctnxle7XbmPZLvKGw+5duXFM3sUt3uIwOa88Pe2mqU/b4O++cSnS1KF5Ji2IyxdMl27vhTXI7G58+wYPsyn3gwQ4vLS+97zRpBHF8P+u2PjwjPL19c+NuBG2Odjy8E4Izzn/Hkyd3Y5i7CvS94SIRnYdkHkuMv8/mnHdScNzh+pdCWt3+U66al7/snK3edYmdRZjnWleWemK5PZd2cIO1/e5Lp2fyWuC898rmuXpBl8uiHflfS7QOVPz+lZXgerbyK4rwjK1e6lZ7C49FF9w36Fr4dZ/H69mmmOva5Dr0dabnnp3fMWqIw772pm8VjNdFDaz1e7krJZW8ok0Tz2Q67y7CRX/CMsrx5hWqlmr2uXzznOu042FLnSkuJdqx9hmiopzVXUcJJt7SYBdRZLc9YuCNf+S5e2/wLQ9mmtK/8Rd7nPL6vXl7v22rwHnDnjEH91n14MpeYw/u58rP/PO6AeLW4aaEZrsSy3DHWvbsf2HZXIS9FDyXfxB4J3It0PbxmHOg5zA6pKNmJjSRUazL7fdDtPGFG/1e03rWqPCXbPcBKnBQ21JtjOsb+bi5FTZxW37UUTTuPQGwYYDvZuFjlioODgdCgQJY+sN4mnR37rZGrE/TbVZ6ZD/vMJ1RvWTr91MnUcilbHSp55JVQaFeqtXs92nLMNDoW86wgSD5wSusxMLNF6B+nIomMQY7XA5jMU6GIQud91+1tVMN6ahiSd/6QTDjg+0kN/k/c9u+yGWdCFvJ8ALhTanSzdohAVIpsd35ign6P1vtEfqcGs2e4hbAJsf8Mb85F4l/stNY9y3hIkdhhg+lzcEIE/estBA2QPxUHnCcKuE/eADvX7j7C7dRM2n3lYXsc9n4fkeTGIClRPRGBzHoL7beTAjdQiST/VO+xLrmXpYkHzV+JQtUhsLhK/jRHk0SVp/3OTkRxjQMmrVpZawQlav4joVyUjZkcJaj4PP+yS6CvsMNU2wNJqg5H3mVpmYs8gv40908K3fiJiG0Co5T2/28VjeD+r+6ys1JdwwQHzHgMqinJQvLkejZ9799rZ83+ptRecGIvERTqoPOXIZUpoZ0+F6USQeHJmvL9jKpKWaLzlwvg5SP1tImI8n4KyWx67mJVzkkGTSq0eU002dzoOIEHrm0juK4JytTvpGTQufVTfsJuKoB7moFxUwDRHLGKuEDddNBSIXes/IkYGdcI6lO0sQ8Hzm1CZtwyamRLNM16H5LxK7Ph/uch9mWmlpbGI8zmHDKq70rGpcgeK/l8RdlRuQjpLx5D1aSAC6iw1EouK2LVCnE2diKIiFucQQeQ3JGLdK3XYwX/nvKMOZbnJiI3udgwD0gthHI1pM3rYTd3fjJSjG+10IiI4WGtzkFVtw1Wz4xB3+7U4XZ2FjXvcBZUwdOOZBjjV87F86Xxc+1U1sjYZ3Q3V71hFySq3is27wWnY/hms6TxCiZjr+KF6UVCqWcNrQu9mkSMGCia8DrNGv5NVQqwxZGCNJNMpv29TfOih37rRKmgnKyQFM7PHP5vRJvFbJ4/WQj1O8uC3W3HkkzYsu8E79sd5jtnruA7Y99WzuBpQv88Ch/S7I5kCaq2vr3Pnp2aYZuqgkQ7BvShE6Hedd93whhqrJUNzvaigXtQE45+9DQqn+VDI+wn44oIJM7NGjraPGoR0M/DCxC+bVeo4NB0wexttTjMOHdRBx/KNh2tphnFuDFQ+kVRj6mwHmk+5WyHh/dHbYfvUgek/8h1QJ4+ZDv27LZ3XDpvPPBO10AU1QkYENicQ0m8ja2DMTWRpKc1FK5oOqqFSitsisblI/DZGkEeXpv2PxfxVmZhaV4KdxwKL2pD1i4dx85H81FTs+t1OWPrxGz9CigPWzXtRXbYFzeN0iIuNYbbDb6uAVfqtn9AGsEraAw2o2sLyc6IecXfFwP56BnJf88wQY4Vh7UpUWaOgTViNeC1w6NnczhceDmsFKqw+OT/gKLRxSJwtLZOcaGbPpy7at5zqhJWFphtjoOxgabGHrzcNaPjIAdlkvg4Twyi0iFviO3TY2XwExhl+5ePFJlR9E8l9RVCuRpyeIeLSN/UNTyT1MLunmaEqkwHiMv574C651ImM/0Y4+G6G+3vikEEGmPD30H2Glrsmov84Z8KuzUokr03GgplaaLWxSHoyHVqn++2lXJuIvMJ1WDaHFW5qDWJXJGH+u6zh1ll/cdA9kI64OezYaFbECA2wGFzFhPG1GnEbMfhwtOH01awyPGCDbKKKNXGbWKMmFxXmwOK4537rRBz8ty45yHk8BSX2BSh4yOO3zovjYAVyWJg1j5bAfncBkvgPTkQcDhuUBw/ByCkQc3UU7AcKkZHf0KUHkG+c1fPXyUxB1rsqZGf5f7t4qWBH4+ZyKFcth/83UW7k0K3Khda0ASmZ7H5y1iC7FkjKCHY/Vuze2vXFheNvp6H80gTjCSb0Jo4FLAZkra+AWdL4lc9ORu5Nh7Dh0Sx3+mcbgJXpnd+OCqJsorKreLwMaLK7C4rw/uj5FzF6KK907+lEqMlO4oxY3kSezxEQ0ua657dRCL+9BAZNEhb6qGueUDYXzm9jZHl0ydr/SC0e/qUW7/8+sKgNX7+4kd38MLJnvI/yTrcdRP9jhvLup5E0T+cneELRhqn3iG2JmQuQ+kgS7O8cYVbHE42FT5Qh99EF0KnVUM+MQ9JDMuw63CLsHQzY95Wg1JaMhbODtGs6OmAd2Yz6/GIYv1OyZ1GGptos5G428x3FgWEisKTEhuS7dWFEWn8Spr7pzn1FUJd7CJyeoePSN/UNMRwhYUxEBGe1oGGRHtOlw+bHaRF3v/hGc6QSqjEdwuyJ5gMNMLzKD5PuQEdnb0QUogI23IlBjUKH9FfKsD4tEbEzdYhdko71rIF7pHy32MiR0ruZCAXkMZi/dDmWr1oNrb0CxbVdG8ByoVdpOZJTtLBvLkaNpBdKff8mlL2cieS79NDOWYDktXlYLSuG4YB/ta2Elr/OymTEyfeisMzY2Rt5KeHYX4Wq0elYfnOwJoUT5m1MiP2L3euadGSmpSJ+ghnFmxsD3k8wFwqK2ekoe2U9UpfEQjczFomPr2cC5AjK93hz2WnegpKdHViwKg3pT6UiNUEJc1E5GjvfvDOCzArqM/nehcCSxscfveBv0Z8oeIJEns8REMLmuue3kW/gFSPfNAvZqwI1bkPZXDi/jZHl0aVs/7IbliNNdwglOwKI2rD1iwcZNA+kYZapBNWS3nWifxkbavx+QPzaA1cqMdXaIea7DPJoJUbwsxqbTWisM6D+oA2OIOXCpQY/YVZhGbD6F4m+I0skOP92BtjThKiV65GewD+LcUh/Jhvaw+XY3bXiFEal1LxQDqRkdm/yoz4mXH3TrfuKoC7nCZae4es+Rl/VN8SwgoQxERHONlbgjZTB6wnNF/v+YqSkZKGqsRnNTjli5kyHVtxHDC+CfcPaG791nQgjDfhehlgkZaUjps7jt86LbJwaWhZGNy8J69bEYNeWwCLQjRKa2Xo0nPDvM5NDxV9Hq0dcRiaWOzai/vAl1jA7Z0L1K8DyhKks6Xg3Ek608S4XuDavSwnrbpQf1iN7bSL0aiUU0VoseDQTSecKA9xPBC8uOmECZIYO1s9Zg1VYZ8eWH4H+l+uQOEcNpUIF7V2pyFzpRGG9WWjwKMZFAyfsfnnBgWNxvkqckTO8P3oFlHOMOOn/vWsHhzaMRVTQrpRg+RwBQW2ue34b7QdLUfj6te6ZPoP07gezufB+GwPhn0eBuJTsn8V38Wrc/kk+tvhdq1v1y0gNFj9yO8zPbYGZhlQPPngRmLMSa4rqcegLVlpMmArdzayMGwRwVgM2vngS8YWZIUeQyK/gvb/MglZaF/JzMsyRzMngod0KQ0EhTsYVIHNev47bCE0E9U237iuCujxoekYQl76pb4jhyNATxpH4Iwvp/zIQfegHTQLntMN6rJd+LS8SigkxUB9uhu9gJhY/IQ2tML7ajLjcTchclYhEvjeCNd463IGIocwpEwxvWXyHSZ07wxriCsh9HMT3rrfYeawBhoN+jXe+F2mix2+dE5Y9Bpj8RtvJlCqoDjtEYRA4jNNxGupRYkUe6H54MTaRNc7P9aC3sT85xYSZoxHFaV6/gWteNgKvbmC/d0LwWsgPbVP6+ftjYkg1uev9hHpxwU9403DML/zfWKqO9nx/xKHDehXG+k0VoJygBlod7vSMjsGCA0fQ7ONnsAXNh9XQsPKCJ7w/en5CNTVMFt/uB+eXTTAvUkN0PhE+nyMgrM11w2+j0OvxchvifyG6v5ASgc1F4rcxfB4NAvvnRe1j8Wj6bQX2drZou1+/yKYsRlpCEwo374V9gOvO4YcCipvFnx4CjvAIjNO8F1XjU1GUm4qkJXGInamBUsaUyqUO7xIn14ipT6eH/6ziSiX0aAPn01h04gyzecVIaRllR+OmXBgnZyL9zgEUxTyR1DcR3Ff4ulwkVHpGEpc+qW8uZVj7m2mOkLpECtMoXX0wd/Mcw4QhJYx5f2TFaSnIKalC+QsZSMmp8fteifd/WYyUR3NQuqUchU+ysK8GHr7RCe8HLScFGS+Uo6okBylpxTBKhwYywl/XHyfMW9m5nixE+ZZS5DyaguL9fu+1rPXYyLZnFZWjunwDUlbl+AwJveio9YhXGFD7rieeLC3feBErykzsbhQYO4GJD4en4cT2vbsbe8W10LSh7SK0t4h+YjSrureWo/Yj8a3rBQdMO1njewlrvEpa8b3tLZaPaIPx5Wo0WL02Zn+3ClXnkqCdxK+zxr/TiOKaBu+kLxxrVGyrQttDWnEIlhzy79xhPL7vnScaULtzLOJni4O0WJw99+N52pzmnaiq1UN/Q1BJPzDwMz7W1fkslVl6t3/oOibA+DBXqxFn2YXdnvxhOK0N2PWWd1IsN6FfXERdZkfV72th8pzGYULtDhMS52hFseae5GvXmybvZE7nrGh4swE61rAVzjlah/lLmfDa6QnDhBr/ve3E5ZjvGSPnKWfesrG9DN4ffVkpbCsXdtqTek48xu6sRcMJMRPFb++S7vLEJYJ8joCwNjcuFuv80r+uMAmYm4nKOolfYL5+CNWLFIHNKaI10Ly1y3vPLKTjo93YZWH5LNh/JHk0OOxfNnkZ0h5oRkWlx9tyT+oXGdRL05DYXIGqA+Im4iKhgJKVLe8bxeecLwdYOdzk3hkWvtdR4XDgTGc5YsbuBrO4conCtxNf2IVrc/KCzLZrh7m2ipUl4lM1bg7iluxF1XZveWnfX4XqjxKh76w4WTuxshC7JmQjb4XER/tAEUl9E8F9ha/LGeHSM5K49FF9c0nSyspxXh8wzSHoklUbYPDYVjC+2IkVLx/wjh7yP0faRtSHO8cw4Xu8zybxN2y2Foy9kh8K0T3O7i/EI6fuw6tLrxe39A1nvj0DlSrS1zZWGDJz4XiwBMnC1Ov8JCc5yHcsR0ma+D2X4BTageUlyW5XH/yQnV/l48yyEqR6Pupvd4IbwRrZwjTxTphK0lA/0esI276vEFmvxyC30PO9QwTX5ZzsTN6Z04QZNt9QIe+ZOPd09KxhV5i5CzG5BeL3IyxeK0twPjMfSeLTyf2lClm/i0JGUfDvVnpCtxyLs8Kq5rfFqLLy/TZMIKuTkP7UMmiZOOKF/IvPlaJJpkHUOQc0jyZB8bwR125mDUQ0YuMqI/T8b7+ZTfkhcjnPN8C+aD22e9KLGFC662xecJD/HKv0T/BFrgLa+1cj9eFYqDqHi7JnJKMIHWsKgk/Rz57NjKIOpBWwSi1IEOdfDCh+qQJGcbiVcmYiUtewZ7lTbLCKr7YYhZs930MqoVuSitRV0pk9WWNjeyGKt4quQ67WI/mJdCTe4LU8rqURW0rKYRDdkSkmxmL5U+mIU/e+adJjR/5BHOX749i3ESu/SkQda0h5CHQ/iWuYaJDcc3iH+/xLxVJsrGSiSshmLRJTUvHwPIkLh3YbGreUovw1s7vyVagQuzgdaVLXHSxMQ9lGVLGGCB9GOTcV2Y/HQS198D3lzEd8DvH2lIr0Vb6u95yHa1C4qcrtEoaPS1o6kudIe1TC57MXBxqfXwn7Yn+XF+wsYW3Ojy755D534X5hxRe+ESfmUyQ2FyguSSkPS1xURJBHF8H+u2Pjgr0e0AewOzsaclNQrHGnUcj6ZZw7jY1zKrFunt91TzVgw6PFmFrYNW+J4ESeh6ytkpAF+KdvqwkVRcVuG7p6AdY9MR2Na+1I5EXLNwHaA8I2cT/Le1NZMYpfs0PJzmm/fCFW396MwnPucs2yPQFZcNtFcPvpPd2xYyFOW8UVKfxLMj5uHBN6KTkwL92EggTRfZBfeanQJmJ1muR55suSzCr3bx/0yAzQluopPa6TGIHqm7D3xQhXroZNT3FVSrC49EV900kE9XDAeIShe3ngLhtNsWVYJ44iiEgf+MSdP0cWbAke3cLyxFyF7MqxyCxkukTYMrhxOM5CoeiZ56Q+Ecb9RbeEMcv0lVsUKHhWMnvmOSOKHzJCV5kJPbM5y/aVqFIUIE8yUYrQIDygQ+VTeiicJpSu2ADjyiJULmXmJRTWzYjbkQzvxLZ8Iz8XHY9XYtlkthr2unz4DFRMXOe+hthQar57B5IlkwZYazOQeyHDfV3OAaulDUqp2wzhnI2Y3ocFIk+PCsV2UegH+E6OczrBu8tyv1ggBiM9rSgvVt7z1+kY4X3R1BV+yFAHRoRyM8APK2pHSFcGoey8p/SmEdJr+uR++LQNk26RpC3/svBfYeLCx/ffQuWzaHO9zecICG9zfUQEeRSZ/fdBHvXQXvrTxi9WGTPcGdByygNfRnSM6PWz21MuWhr0URnVU/rtPiO4r4tWrvZRfdNfdC8P+JdRBih9tIAFVWyb+0WhuMlhQeO7e2H8HNDMi0Pc2AN4wCOMORuMuywYe/cCyac9/Dl2I2ZrOvSeSXadLNw7DTAdbEPUbB0W/FgPlfSlwiVMb4TxkBlK3Sf+L+VaxGVnIvtu9zuXvvGDpsbCxzKxbpnO/YaJGWTzfj1i/BxRqzU6OKziJCkD4kuyG/B+ooMUMLxPMWq0DE8uVt73ie+9MP79BELY+aCkT+4ngnSLJG1lEcSFj2/Y0/RBPkdAf/hKDEgEeRSZ/YeJ7CC1/4tVxhCXAHwZcVEeugGmj8qoS44I7uuilat9VN9cGrg/WzL+WVAtAk7zIV99wI9CzShH02gd4u7VQ9myBaX1zeJOhkwF/RKpKGZYm2BSq3CVRxR/Y0TxkxvQ2KHB/KXzoYUJG56sGhYTGg4ZYdw3/i9lUM2JhUY0jL7ygya/IRZ6jxA+52AiPAZKf4F72eXAp3a3MO7kIvuSJAiCIAiCIAjiEkQO3apcaE0bkJLJ9EHOGmTXAkkZHn3AwfxmOZwPZSL1Lp3goUO/9GnMV4T4yp//rHSTAVMfWtg5FNu6rxrN92RjHT9fDDuHLiEV2Q9HwWEb+t8hD61ZqS8EzrDu+L/sgmcCCD965wftvPjXD4W/MyTloPClShAEQRAEQRBEf+KEeVsJDP9agOQ16chMS0X8BDOKN3vcUjpg/1wB7WRpNxrvum+++NsffubzfBzSZSPZM9cS29b8CTD/ZukXyzKo5yUidjKva/jh3AlIkCwb9/l26w1mhoww7g//l/3iB22cEtFogd1/Zuvv2AETxvr1Tg8CX6oEQRAEQRAEQfQv1t0oP6xH9tpE6NVKKKK1WPBoJpLOFYr6wAnHiShE+bjLZLJW5t/xxmOH6RX3zOe5K6Qznwc+hxcNFm/fju2SJT2Am83BypARxn3i/5KffGtlArLqRB9rfeIHzYb6zASsfIV3a8SjQsxdRhxpdq95aLEegVqjcgvjweRLlSAIgiAIgiCI/qWjA1aln097Xt9M9ugDBaJvNqPZ45NPxG4TvDtL4D3oFKK4LR6ZTBT7n089x4ymL/30Bj9Bmdg3J3wfLl2CDZAdhAydodR94f9SroJ+8TIsvFEcgtAnftCUmHrPMiTO9kymJYfuzmUw7fD6m3T+pQYlO1VYfrt4UhZw0PhSJQiCIAiCIAiif7lajTjLLuxm+sCD09qAXW/poJvM6wMFps+Ng7GmHhaPrmVap3qH2OEnwMH2VjEKv4pHwVOxTKX4I4d2TiLTKZJznDOhYm02dreI60OYoeOuiadP/F/60dd+0AT8/E1erUdqVjriJntP2p++VKVcEm4ZiEsKson+g9KWGOqQjQ9+KA+HTxpQXg883c2DQPogcU2axB89B2vdi8h/pQmyiTK0XbEQ2UuArD2iuybBFW0hjGJoKUmdPsm9OoUbqYS9XYYFK9ch9S6pX/xLF/Jj7E9f+L/0p1/8oEXgb7KHviQjhQpFwh+yif6D0pYY6pCND34oD4dPGlBeDzw9zoNw+qBPfGTzOqUDI7qjly4ByI+xP33h/9KffvGDNjh9SRIEQRAEQRAEMUCE0wd94iObP8fgEsW9ZWgKY4IgCIIgCIIgCIKIEBLGBEEQBEEQBEEQxLCGhDFBEARBEARBEAQxrBk6wpifHMvjYMsfie8tftItZ7Cl3R2mE3ac3WqGtdUJTnDXRBAEQRAEQRAEMUBc4OBosbj1ibipCyxMp4YRN/UIXkP56yN/+Im+mI4KqJWYPrNbLbA5IoyFRLOFg9d0fa3Phsys1I59G7HygN49Fbm4zYNlewIMEyqxbp4dNQlZqBK3d+GhAtSt0LAfdpjKilH8mg1RWhUUf7PBfE6FxMfTkTw7hGunQQjNSEj4QzbRf1DaEkMdsvHBD+Xh8EkDyuuBp7t5wFkN2JhrgF3F9Ml5O9MnWqz7TTr048UADO5YDTbk7QY3UQnZd3bYLtcjPSMZOkmY8Dhh21eF4oJ6WDr1USA4WF/NQUalReLuyY39YCkKnzUBN7N4OGywXRGP7GeWQRNi0jCvZguXJg40Pr8S9sW+1+ShWakjRoNldXWoE5ZKZM4F9FmV4jpbhEznWKYUovjcfORtr8SmvDzkvVyJ7c/Ox5mXC1Hzea/euxAEQRAEQRAEQXQPzozqXCOm/rLErU8Ky7D9sShUv2CAVQwihMlrgj6/DAXPusMU3GlH8U4Tk7qRYkfDsxko/Wwqlj+qF7cFwVqPkg+ViL1ZXPdwqgGlL7chvlyMx8tlyLu9GfmbuxOPiw99Y+zPiQaUvzEVmWsWQOXxlc2QT1yAtDQVqt64tDOUIAiCIAiCIIghxhdHUKOJR+wNXoEinxmH+FF7ccSjjJlIGbs4DjrJgFulVo+pJhuTu16cJ4yo31yMnKIK1B+w+WkbDspFBchLiUXMFeKmgDABXWnErMeSMCtK3CRit5hgupvFtbOXWgbVXXGYz3RUk+RijmONMJRsxMYSA4wtATofHWY01Fag+JliVNQ1wnpO3N4JB9sBA0qf34jSrQ0wO8TNPYSEsR/8eHzL3XpoA3Tzy+ekoy5DD4leJgiCIAiCIAiC6H8u4yWmL7JRVlhaREWo0CJuiQ7SDz+dzUdgnKHq3OY4UIyM/zJDpp2P5XdqwO3bgIxKs+RbZBW0M8MP77a/W4Fdk1dj8eQgno5ZXH2QyTAC9bC2uFft+wqR8fsmRM2OQ9ztSrRsLcWuE+59AlYDslZWoXm0FvGr4qHFIeT+ugZWiX5uri/FlhYl9PfGQadsRlVGobinZ5Aw9sNhN0KvGlrfERMEQRAEQRAEMYiJjsGC/XthFIUlD3esEbsOiCuBaG1ESYkNyXfrxI49K/Zud2D506lYMFMLrVaPxLXZiPvIgMZTQoDIYOet2KzE6gc0XYQ6j3KiBuo3jDBJeoft+3ahQfzND/neXeZEkiQeyzLmY+yn4n6e6IVIfyUXqXfpoFaroUtIQtKoXTBJxHOTYj6eXqpnx2uhuysVmQ/1blwvCeNAXKDviAmCIAiCIAiCuEQYrcfytQoYstegcLMBVSUb8EQlMCtB3O9PuwU1L5QDKZlIVIvbTjXDxKmAr80wmz3LabSNNsFmj1T/OGDcUgXF48sDjrAVUMchLaEZxU9uQOlWAyoK1mDDJ9diwRxx/7d2WBRaxFwtrvOM1EB3p/ibRyaHavwIYQZu80eNqK+th/GEA/iXuJ+hvzHGR5grJ2vFXz1jGAhjDtx34s8IUEbHwvilXTKcQIIwHTmJZoIgCIIgCIIgLi7Kuekoe3kd4mfGYPrd6XgpbzE0I4AYpd/Q53YrDAWFOBlXgMx5kpGwbQ7YZGdw+otmNHcudkTNSIZqVIcYKDTOg9UovbAccTey34LL2zbBbdL5NqlrJxk0S/NQlp8E/U0x0D9YgE0ZsbjqOz2UV7LdfDxGR/l9nirjR1t3ws+unbNqDYrrDqH5K3bvN+qg85scWx7l94FrVO+8Kw0ZYay4OgaKT0/C1kW3tqD5sKKrwQRBoZkFfW09DrSKGyTY92xE2g5LYNFMEARBEARBEATRH7SaYKgzwzFaBY1WC61aARlnwZF346D28W5rR+OmXBgnZyL9Tr/PQ8dFQ2sdi+nxiUhc4rssmBLZLEo2az0c+4qxZsUKrBAWJl4PADW57PdOixCG+7wRhn1Wdj21MMxZE83OfcoM4zkNVONYAD4eh5th8xn5bIfNfTjDCfM7VVCmFWF9WhISE2Khm8K7nxJ3i1hs0inF2HW/ahZ/9Yyh02M8ORZJ6hpU/Y8RnSMBOAdMlSWoGJHIElPcFo5xsUjOGoHyF0rRaBVz64IT1n2lKNwqx+p7tAHH0hMEQRAEQRAEQfQLY6LQsacQ5e+KYvAC0znbq2BOWAhtp6ZlgrKyELsmZCNvRYDvfxU6LFyyF1W1Fu9M1K2NKHy0EI3fiOth0KzwuL71LG4XuLwfY4+/Y5mCidaCEuz8i3gVpw0N26ohXzofwqhuxXTMX2REdZ03HvZ3q1Hd+f2wHFEKBRyOM+I6O8Xh3dh9WFwRse2oRqOnM9Npwc4te8WVnvE9F0P8DZutBWOv7F0XdF9y5tszUKl8XoGEpt2Gxi2lKH/NDPfcbAqo5i1H5po4qLu8BHE7hjbOCeREmoNt3xZUbDHAJH6IrpyZiKSUhxEbPbRkMTl3J/whm+g/KG2JoQ7Z+OCH8nD4pAHl9cDT7TxoNaKiqBQGwS+RAtr705GeIpmF+lgNEjKrxBUpemRuXodYvre2Uy/ZETWRaR4uBokpqUie3XXyYce+jVj5VWKn4A2MW1PZF9dhmaQj0vl5PYoLSmEUtJQS+kez8XSC2ivW262oL8pH6acyqEa2QbEgG4kXstAwQdRmrSZ2r8UwfK2EBnbIFqyG3loIp3Ad8Zp3FQC1+dj9tyhwJzhMZddInTsWCsUY8SLdY2gJYw/8t8DtHRgxUg6Z/1Th3YRzOtExQg75EO0mpkKR8Idsov+gtCWGOmTjgx/Kw+GTBpTXA0+P86DdCY7pk17pHM4JZ8cIyPtZ5PBail0k+Ihbdi9OMK0VZCKvSLSYcA1R9zkcZ3ssjIfm5FuXyVj6914U88jYeYaqKCYIgiAIgiAIYpDRB51//KzP/S2KeXgtFfIq7F6CiWKeSLSYcI0+0H3krokgCIIgCIIgCIIY1pAwJgiCIAiCIAiCIIY1JIwJgiAIgiAIgiCIYQ0JY4IgCIIgCIIgCGJYQ8KYIAiCIAiCIAiCGNaQMCYIgiAIgiAIgiCGNT5+jI8f/xLf//73xbWB55///CeuGHOFuEb0B9+1t2PUyBBzpBPDDrKJ/oPSlhjqkI0PfigPh08aUF4PPJQHfc/32L+e+jH2EcY2WwvGXjlWXBt4znx7BipVtLhG9Afk3J3wh2yi/6C0JYY6ZOODH8rD4ZMGlNcDD+VB3+NwnO2xMKah1ARBEARBEARBEMSwhoQxQRAEQRAEQRAEMawhYUwQBEEQBEEQBEEMa0gYEwRBEARBEARBEMMaEsYEQRAEQRAEQRDEsGboCeMLHOxWM6ytTnDipi60O2A7ZoXdGTSEm3YnnO3ib3/YdRwtltDXCQPnZMdeEFf86YPzEwRBEARBEAQxBGFawRlMS3BOpocssDl6riK4czZYjtngCKaFfODjEuBa7XZYzRFoLgaviwLrLnbuVivMVntw3dRHDCl3TdyxGmzI2w1uohKy7+ywXa5HekYydOPFACxhbXtKsaHSAuVEBTi7DbIF2Vi/VAOZGMKNE7Z9VSguqIfloQLUrdCI291wVgM25hpgV6mgOG+H+ZwW636TDn3ndcLgtKFxazEK6yxIKqzDsinidhGupQGlv66C5Yfu89suX4jsZ5ZB0w9uzmiaeMIfson+g9KWGOqQjQ9+KA+HTxpQXg88Pc8DDtZXc5DBNI2/lrAfLEXhsybgZqaHHDbYrojvpo6ww1iUg9LPlVCxqDlO2KB8IBfr7lf76SUJ3zRi4yo7EuvYdYQNHCyvbkB+AweVUsY0lxnQrUfmozoohf2+cJ/XIOcppn38dBdnrceLz1XDxmsiOJhWVSA+Zz2736AxIXdNApwZ1XlN0OeXoeDZPOQVsr932lG808RkrghL3OLKKKSWbEIeC1NQnI3pH+aj4mBnCIYdDc9moPSzqVj+qF7cJoG/Tq4RU39Zgk157utsfywK1S8YYBWDhORUAzY8WYpmzXKkzhG3+WBF/UtViHrMc/5NyL7pEPI3S+6DIAiCIAiCIIjhCdM0JR8qEXuzuO6B6YzSl9sQXy7qoZfLkHd7c7d0hH1PKTa2J6HgZXY8O8emV7KhfqcI9REJHTecuRr5+zXILi5wa65XyhDv2IDqA4FiwbTP7w5BeadWXPdgwc7c3Yh+XNREeZtQ9ksN3t9UH5nm6gFDRxizdB67OA46SQezUqvHVJONSV03loMGyB5iYeTihpEaxD2gQ/3+I3CIm1hWQrmIZWJKLGKuEDdJ+eIIajTxiL3BcxJAPjMO8aP24kgkucQpEfd8HpLnxSDqMnGblGMmGEYlIW6m5/wyaBYlQvcGO783kgRBEARBEARBDDvsaKg0YtZjSZgVJW4SsVtMMN3NdErnKFYZVHfFYf4bJjRJNKnzhBH1m4uRU1SB+gM2H9Hs+MYE/Rytt2eX6aVZs62wtEiEiNMO054KFD9TjIo9Fjj/JW4XcZ5tgWPOLEkvtRKa2Xo0nLCJ617sb1XBeGsaknR+N8M0ky4zE0u0Xs0li45BDD9E/BtxQx8zdISxQou4Jb7d887mIzDOUInb7LB96sD0H/l24MtjpkP/bkuneAZU0M4MM6SBCVr/DnzZKD+DCcZELXQhTm//kon0Gz1xFhkdg+lzGtHSKq4TBEEQBEEQBDHssL9bgV2TV2Px5CDDif073mQyjEA9rC3uVceBYmT8lxky7Xwsv1MDbt8GZFSa4fkKWKWOQ9MBs1cbOc04dFAH3WRRwLRbULM+C/UODeYvnQ8t9qJ4yyG0ufcKKKI10Bw4BIvnm+ELdpgPNmHZDWpxg0hrIyreUGN1QoBh2jIF1FoVvLKYReVTM0wzddCMEzf0MUN3VmqW0CUlNiTfrRMT1AHHYT2UVworXoQUOIkzkfbGRsdgwf69MIrGxcMda8SuA+IKw37QAEOtZOHfpIj7wuFwmKGf4CveBRnOjPzk13wk7TBJz82WhmORnp0gCIIgCIIgiEEJLyQ3K7H6Af/5kdwoJ2qgfsMIk0Qa2PftQoP4mx+2vHe7A8ufTsWCmVpotXokrs1G3EcGNJ5yh5DPTkbuTYew4dEs5DyTgzXZBmBlOhZc7d5v31+NXTdmYt1SPTteC91dqUi+0Qmze7cbdSKyV3ag/NE1wjmy0grRNDMXy7XSWNvRuLkcylXLw3z/bEU9O0dOZgqy3lUhO2uBbwdiHzI0hTH/JuOFciAlE4l+Lybg19XvJop/mRIZo/VYvlYBQ/YaFG42oKpkA56oBGYliPsZURNiEHOdZJmoxAhxX0RcCDxzW5QQySgopefmlyu7dXaCIAiCIAiCIAYVDhi3VEHx+HJogwlJdRzSEppR/OQGlG41oKJgDTZ8ci0WeOY1OtUME6cCvjbDbPYsp9E22gSb3a0/nOYtKNnZgQWr0pD+VCpSE5QwF5WjURi5ysFuM0F/Y4yPMOc/X/X5QrilAcW/a8bUlez4p9KRtmoWHJUl2HnMq3Ec+6tQNTody28OJ8KU0C5djuUrkxEn34vCMmNnb7ZlewISEiTL843inp4x9IRxuxWGgkKcjCtA5jzp+wQFlHOMOOk/Jr2DQxvGIkraTx8G5dx0lL28DvEzYzD97nS8lLcYGqZNY5TuIQbyaP4NjGSZrAj4VicQCqUexq/8u685cG3A2Cv4SMqhkp6bLepxkZ6dIAiCIAiCIIjBhvNgNUovLEfcjew379rI2Sa4LzrfJnVzJINmaR7K8pOgvykG+gcLsCkjFld9J46abXPAJjuD0180o7lzsSNqRjJUozpYACt2lx+B/pfrkDhHDaVCBe1dqchc6URhPT/c2smfAjKZX6fcZTJ4vxB2wlRXDMWqbCTfpYVKoYR6zjKsy9Ri15ZGt6g9Z0L1K8DyhKn8zQj30/Yd284ET1e3Tx7to0dcRiaWOzai/rA7jGbxdmzfLlkeDzizccQMMWFsR+OmXBgnZyL9Tv9OdiVUGjVMFt8ZspxfNsG8SA2VuB6WVhMMdWY4Rqug4TNJzUQvZ8GRd+OgjtyzVFCEIRAHm3xnWzvXjKbDfXN+giAIgiAIgiAGFzZrPRz7irFmxQqsEJY1KD4A1OSy3zstQhju80YY9jEVMU4tdJ5pouXAKTOM5zRQ8d/ljouG1joW0+MTkbjEd1kwhe+A49BhvQpj/ebBUk5QMw3kYJJXgatUChw5IfmmlMF91Qyj+Js/h/McoBA69LzIrroWUw873BMen7Ki3tGI4jTPvazAmpfZGV7dwH7vhHA3p5jmesv/c1QF00pM8Z0Tt46UQy6XLr3rLBxCwtgJc2Uhdk3IRt6KwOPu1XPiMXZnLRpOiIkpfoecdJfW58PukIyJQseeQpS/K3biX3DAtL0K5oSFkEya1nPUesQrDKh9S5wh7gIT+2WlsK3so/MTBEEQBEEQBDGo0KyoQ12ddKlE5lwIfow9vn9lCsBSUIKdfxG1jtOGhm3VkC+dD+HrUoUOC5fsRVWtRHAyPVT4aCEahVG1KqgXNWHXmyY4Lgh7gXNWNLzZAN1MDZOlTKrMTIRsR604tJrhtGDnq3uFfW4UUGk0wjE2z0U4ppfe3IWmpRp3PKYs87uXOlRm6QHej7HHFzLTPfat5aj9yMGkthuneSeLux76G7xX60u+52KIv2GztWDslWPFtYHnzLdnoFJF2E16rAYJmVXiihQ9MjevQ6w4e5nzcA0KN1XBxH9grtAiMS0dyXMCf8Lt2LcRK79K9HE0LdBqREVRKQxm/p2HAtr705GeEthhdXAcaHx+JeyLfZ1yC5wzo+a3xaj6iBff/PlTkb5KD2Ug9069hJy7E/6QTfQflLbEUIdsfPBDeTh80oDyeuDpXR4E1hLOz+tRXFAKozCZlhL6R7PxtHTW53YbGreUovw1O6ImcrBxMUhMSUXybFHJdO43u3t3FSrELk5H2hJNZ0ei/WAFil82wD5aBY7TIPWJ6Whca0eiR9Qy2W2pLUbhZs/3wEroliQh+cFYqIJ8Hx1Id3EtjdhSUi5qLhaVibFY/lQ64tTBe4YdjrNQKMaIa91j6AjjbsI5nYBcHvG3vwFpd4Ibwc7RD4JVgJ3f+W9y9HJUQEioUCT8IZvoPyhtiaEO2fjgh/Jw+KQB5fXA0595EFbrcExndIwIPvz4Aid8uxx8eDLb7+zAiJB6KpIwEcBrIibL5SFnr3bTG2E8NGeljgBZbzOIZyQ7R3+JYh5+3HyvI0kQBEEQBEEQxHAirNaRhfkm9zJZ6P3s7Px3vaGlSiRhIoDXRBGI4t4ybIUxQRAEQRAEQRAEQfCQMCYIgiAIgiAIgiCGNSSMCYIgCIIgCIIgiGHN0BPGFzg4Wiywtjo7p/YOCP/BeRcH0gRBEARBEARBEEMAftIqqdy54IB5jwGG2nqIEz27EfWTpSWMfgqFoK2CHN9uh9VshT2E9uLO2WA5ZoOjXdzggZ8E7CJptiEljLmWBhSnpSCnpArlL2QgJacGFv/EZTjMNdiQsgIrXj7gnoacIAiCIAiCIAhiCGHZuQLFH3jUjhOm8gxUWaOgmhgDpeh7iXe9lLNqDfJ/V4WqlzLwwKPFMHp8FEeMA8aX07BiRTEOCP6QPXCwvJqDlemFKH+1HIVPMp1WZhJdOHmww1iUgpTsUlRtKUXOoyux4TWrV2B/sfOiabYhJIytqH+pClGPlWBTXh7yCjch+6ZDyN9s8jqwZr/MlVnI+tMIJKYsE7cRBEEQBEEQBEEMZTg4HQ7Mil0A3UwNlPxU0d80ouJZO+YXlqHgWV4/laHsQSc27pDqp/A4D1ajAlroxXUPnLka+Z/qkVdSgDx2/gL2d/63xTB85D27fU8pNrYnoeBldn0WZtMr2VC/U4R6qxjgIjJ0hPExEwyjkhA30+N6WgbNokTo3tiLI52vGDhEadNRtDYRWuXl4jaCIAiCIAiCIIhLHIcZDbUVKH6mGBV1jbCeE7eLOI41wlCyERtLDDC2SIYfOy3suF049BXQ9A4/lFrstZWpEffbVMSOF0IJKCdqoHrDCpu4HpZ2M6rL2pC8Mh4x4iYPToxF4iIdVB73tpcpoZ09FaYT3j5jxzcm6OdooRTXMVKDWbOtsLT49hFz59g9bC5GTlEF6g/YuiXcI2XICGP7l0fguFHlTVSe0TGYPqcRLZ3DARRQ36yCRzoTBEEQBEEQBEFc8lgNyFpZhebRWsSviocWh5D76xpYRf1r31eIjN83IWp2HOJuV6Jlayl2nXDvwwglYq6LgXI0U0MTY9hvJaL47aNV0E5WSPwMc7D+2Yy2pRqoxS2h4WDZUQ77/2fvb+Cbuu58b/Q3J4NCrv2QijJRwkHhjFwmIpmI5CCYsZJPTObBpIPtU0wumN5EnItxqc2TK08SeSj25GDaMSS10ymaXOymtjljwQk2B4uO7ZwG8yk2k4hTEKdYndRiUqsl8pMgkrJbH+tC5FLdtba2rC1ZL9tvGNv/bz47eO+9tPfaa639X+u318v/62aYlkiHZKgNeShcK1dnAQy4nTAuix7T6vLQf94dHV4dcOPiBSOMLF6jDF+Evb4HMKxD0bN6BM5Uofq4JzrceoqYM8JYENwwLY2RxQyWzfcAH39GM4kJgiAIgiAIgpilLNsAy9vVKF1vhE6ng7HADPN9nXBx8Rt043RjAOZXS5G72gCDwYSt5euw+MPwT6FSQ2dYiYeZGn4wi5+P6ygUXGh+rQpVL5Wg3p+L2hcMklj2w9XOe5ijW/eVaF9t8BetqP8oH8XPxmuwxPjP1aPBV4wNa6N3z1hbjOrHL2L/rgpUsTjsrnQA2y3IfUgKwLkcwKrtsmersGLlu63o/VQ6P0XMqcW3+KplichURb+DEARBEARBEARBzCpUGdA+sEBcPdp9qRdd7V1wXhWAP7Bzv/HDozYgSy4mF+phfFb6Ox0ZWVi3pQhFO3bC4G+GrT3SG5sJzVd4D7Ns+/IC8QyCXpxqdmPd9tzYEbtJCF5pQ10jsPNvC2N6owPuo6g/NYLcHWWwvFKK0gIN3Iea0CtfAEwX/2xZMGS7MODjIt2DtoICFEjbZJgzwlitMcH5SXzPcBDBYWDx/TR4miAIgiAIgiCI2QkXlnz1aFvHRQx8AmgeM8Kol04OC/AtyoybLqqC4r5BsUfZAMPqHJgrLMjqsEu9sUyM8+OyTbckfFHv/6hHz5NmbNCE3TQFAsP4gh0P8r/j+iqDXgcOvvkx8uusMfOZ+eLJp5v6YPrWXhRm66BRa2FYXwrr9gDqutzRodKaxXHPloHMRYBwi4fQY9Px4zgubZNh0sI4+L8H8W8fDeK3Cdwi3Un4RHHdhX6WvDKGBtB/OQ+6ZdI+QRBTD/eRJxpE2ZbAHiT1TzdKEAHRh56A4G3pUEK4P7vEfvJEYxy3JbpW2rgo9Yd+J1Dg+0+E50Oi55H8CsZuya6VPG1HSeMDPiiwtPX6x1SK8fC8SprPKdI/UR6HtyQ3TJYuIux5r4cX+EgYF4VlWyRduqQt/2FSpgu7h9/rgU9IkbiTKS+ir0jZs8q21O/kBEmVZvxcmrSKkKgRFiFlehKT5k6l76zJx3R2ICC9nwrL9ijidVkaSLsxKH3npxjxvUv4HArqciW2TAzjZvVAivScCrvK7F74PknSl3OLic4rLL5DKeLC81ZBXCZOAO6f2KEpO4R9ZWYUFuTA+IgGqpvS6SXLYLg8ALEDdRQ/fB7pzyQErnTDcSFuma2FGmiXuyHELewVC0sTD0uT41XYtm2btO1HG5ywvSR3EcW43gtbtRMrX7XEiWJOECPeB7FYnPAcRbNUx34nRBfYOj8Af0zy82dTI+uh8DxkVUYGMqRtMvxRiCH9DZ9vEIu/vFjaS8d1/PT/W43GgQew7EsseT6+jmWbK2DZ+KeyCdyT48ZvbkCrVapq/eiurkBfdg3KntMi47YfvYcq0KmtRs0W3dg4XWlDwSkNWvbkQDa1e95xQxCwWD1TKRCAz+1Hpl4HNY12v2sYb5nwHC9AxTFpJ8ILtejYFvmMyf3TVaHhI2Zo2WWFqz5onq/G3q/J3svrzJD+XQM8f6Jl7yMztj4NCqv3olAXVzAEN9reqoP9wkpYj+xFTsxCD3woTQXs0l4Ec10Htj4i7SiIi/hVs9oBv5bF5Qs/3EMG7P17C0xjjPn4GV/act9/+3GgOwitRoWg3wfVWgssJca4IUvsPTpnh622C56YdA8jnDuI7bVOaU/iaetY25cybcNwH/C2OjtcjyX4/S0vHLXVcPi1LG1ZQ+OyAMOeGliejhtgFfCh95gNdR2euLwJw/3RN3zbHi4LLP19925A5WtboV/IzwrofWM76t4Xg8Yy5plSpwuG3LC/UYfeL7TQ3MvK3Gd6lMblc/qyHSZluowpc35ot1Ti1YK4eilNuvgvNKDuOy7gCdYQEnzw3Z8vSxdOfHlxA8Z9sO4aR3nh9aI1/g0KkyhOiRhPGQ+XzSAsb++LnUvGEM99Ujg238YglYmbFjRWxw/nC5/zb1IWdyKM8jwM21xWaKc5fe/UfaJMpG2Uzj52HTqAVla3ReoedUEl9m3RK2gzC3B+rxwHz8bbZqXvfHIm8pyc4EdtqHqF2el4GxJfl3+mRdG3XkWerC5Pb8uYlbpsx4Hv9SK4PFkYBe0KTrr6htm8/TWnw/e5yep7GLHvb0thHK0H/HA12mC7EE1j4bG9qCk3ydKYCdZjB1DXGw7Dbbx+V4K6LwnjyQPP8e1oXVSDfRu14j5Pp+rX2rBGfLYAXPVlaFVXoprlCZeH/rM2VB3pRlZJC/Y+w++RwCbyBb2qB7Chugy5Ov4rVn+z31WcehiVtSzN0xdQGfxddUAjL6e8rmV1+r3fqGH3THQxKd4ZFlS+YISar1495EV3YzWchlrsW8/SkddNNZ0wbKxE5eiz1aGiKwvVdbHDsjmC8Fuo1UycTgQujCN8/LEvNBwIKNq8nVWhrzf8S8gfOXb9p6Ef7i4P/ff+2HCT2Xh8xsXv+kKt+3aG8vPz2WYOVf7wg9C130vn4vG0hvJf7wndkHbnK7+5MZMp0B9qzT8Q6vlM2iXuCsZXJm6EPngzP9T0sy+k/bFc664W37Vr0n7oZn+oxWIJtQ9I++zM6X35oQM/GQ0R+uLDlpDF0h4aDcIY7msJWb9xINTe1xNqSVRubnwQqs1vCvUlj0r6uHzRF2oxW0OtHw5LB9h9XU0hy6uxcZko40nbL9jzmvd1hj6O2LDfs3R63Ryqd0XjJqbdt3cyW9cTuvjPB0L57/RLx6MMtDFb+ONo2iYibdqGhkN9/2QN7Xy9PdTX25LAdn7BzptDVnb/0dj97mKoyWKV5TPjk9Oh6m9Uhpp6L4Y6a/JDrR7p+CgDofZXzaGm0Wf8ItT/jjVkPnwxet0xDIcuHjaHDvTKY5QuXcK/qe76WNpnv+itDZlj8jl92U6fLuEyZ26WxX+YlTGWLp2/lvY56dKFnzfXhnr80j5Ll4+7DsSki1heLC2h/pvSAZYGPa/nhw455SmXvryMYaA9ZLW0hvpTJYOM8ZTxG70sDry+TvB+ieeUxI+lOH9Ofh3rqTFXEc+NLWdEKpTnIa/D70T63qn7RBlfPZjeDvS/Yw5ZjvZF7cCYejA5wz+tD+18szZ0IM42K3vnUzO+54zA7bQ1VPtmZdw7yutyuf3m5o7V5a+yekzaV2LLeN1R/43YMP1HLSHzP/Wxv8Kkb1cw0tlVsb63hFo+jBq3az9hduf7H4zGRbRDr5+WaYlwGtf/VPaMLH9i6mp/T6iWtSOU5C1nXHngZ/VqpTmU/w0rq7NZ3d7WE+qU27ibA2yf6SBzWahMPN8fuvgOa1+N1o+JbeLwh+2hA98I21G+7dzXFLo4mv7jYWy7vp/dP3LdmE3+ntz8ONTzw8qQOXKOxb/2pKw9IWm2/n85FNopPlt+yFyZPI43bgjSX+NngkOpgwje++f4+l8+Eh3vnfHnWG38N/zq0+nwKqWQRQZsrW5Ex4njOH6yBTUlJmgifrPieWQrOsZ82SfSIbi7YRf9o9nR7Y6d0x246kTXsQYcfKMB9jOu6FAh0XeaC76I/7EOr3SsB/24hovvOuC4EPVnRswmgggIamRmJP+kmN4/nQDhkgmmx6NfV1WProGRD7P6XDrACN63CpZ/2ItCgwYJvZDfCkBQZyIzxdfNtHH5ZR/a9PnIeTQ6FCdjdR7y7+tB3x12NK/E9x9Pf83GWmbrcpB1v3QohiCGhwWoU+QPJ23asuuk9gHvRd+Jlcj/q/CXXJFFRuRtVKHn57KEC2qQ90YNip/JQmYi26zIH30c3tNo9eSj8C/l1jxNurBy0P3uOhSuD39152ie2YzCEQdcH0kHFJTt9OnC6sqFBphNK2V1pYGVOQ8GPpHVlWnSxe9xwfUcK5ejvRgqaNfnYd27LvRLlwn8dhBC9hpEe1Q00K81ofuqfIhcuvISTwCu9xxY/HzuOHsNxsHTxSjOcqD+hJfFLjlJ6xcJ045iZJ2sR9tHqa5CTDsBH5wdER+rztFhnUGWf473PKxEyfHB1d6F0aZEkt/GEGRh2rvhiRvi6bvgQFdcm+TOkd4OaFZbYS0wRO3AQi2yVoz10zqGVP5hFb3zU4//PTucf1EGszFu7GswyMybGSa9rP40sLr8ygBr/4X3ldgy/4Uu+J43x4TRF7D0M2owIh1R5Pc2XX0zJGBQeAprHo0aN81jrC1yZnDUf69Kl4dDO3NkWkIDrV6LLm8khADX2S6s25QbrasfyMHmTUE4Lk1Do+EBI4prWnDyH6pR/RbTOVtykLdH1vu7UMf2mQ56uxa1Nn5eD+O2Dqm3mKNGjjy8RMajhdj7dgdO8jm6JzvQWF0s6zUfD3ps7YgdcaZn9+/oSLDJNRh7H3JKatBy6iSOHz+JjpbDsG6WtSckzaZ/2oLGI99H7T+cREvNROOYmgkKYxWWmf4T/mpFtPADv4LH9af49w/Ij80QCzOQph1IjJsgvO1VqGj14UHRP9rDuNZagYNnwo30wIUGlL3WjYBuHYq2rMPDn7Si4rCTmQzGTT9cR7rQfOQ0gnp2/klmykR/anyoTSY0uixkLY0zsMQsgYnay6zRH2BCQ1zGvxuuuI9j6f3TaaHb2A/nz6OCL+C+CNdqI/Qy46peYYA2lXlhlZybVcjDl7rDLgV44zmuYaXIVx6r3OLNh+o+BQ2YKUaJ7z+edobVckEYTwDCdVaV/8GP3g6eP13ovTL2OdKmLXtTFfmAj69RVJnwenxhO8BZboAxRXSV+aOXk0y4pU6X4OAAnE9nQRvzGx1WrhUw8GkktunLdvp0YY2+pwuR+4g8hBf9F3TQamTH0qSLSHzDTqXCAnTBOxjeVS/TQ3/+IjwRwXjbD/eFfmx9VD7ILF15iSPhR4epZjHW7bBiZUc9Tl1JLGpT1i8RlqxD8Ssr0fmDU9E0IO4snzthe9kG930GrGP5ZLjPDVtZHZyfs+K6RAX/W6fRJxO0QXcPbG4VNLx4xf1WP9KL/S/b4Y7PS9ViqPw2nP5Q9i4G3eh5yw3Vn0xnOU1Fejsg2thF0i5nqI+9n3F1zxjS+IdV9M5PMdd70fyuDjvjp4JwVFqYNjNbHGPu+uHSafGg/NlT2rIAfB+5sOo/aCBc4asuM9vb0QvPbWa7HtWMprGiujydXV2ihf6RD3DxF1G742d1bL/Mf2/GsuhCUyK3vOj72XA0jYM+DLxvQtay2NTQ6Y0QmHierlaDOJ92TAbI4DpINjRdKWmvO93co0JGuggoCTMJpmhV6iD+7cQP0fFnX8f/+afSIWJuMeRC5xENivcUSz7EcmB+2QJDwCcapgxDIWrq9mJrNjMoOj1ytpmx7iwzMKNWIQjj8xbkZbPfLmOmTVz9LgsPMmH8sF46Rsw+hGFce2gArvM+qJZrWRO3H4491Wh2Rxst6f3TZcC4oxoG136UWKtQVbUble2AuVzZ8v8RhN9dg+bXLjivMjGyfDHgcaBiXzPcsoZY2rgsy0Lu+z1wSmKDE2SVc+d5aWcGSeT7Lz0Cbvg0OP9TJ4JLuGN/P5xvlmP/manuUdAia70TPfIFPG550NsVN7c5DeP2R8+Em30Cwi0wxKzWck30a3UEdp9+v3QfBWV7/LCG7vF6OPRmbBhH21VcXPJdJ1yyW/vPdaJb+ltEV4jK7SNo2rVbLNsVTJD0r65GkWGiDYiA2Hs3rb3FERYa8OK3DPjgh4lFbfr6JYzqiRdR+eQHaDoVcTNC3Ek8Zxow8NUy0ccqX7nWyFeWfSGAhnfdCGYYYNriQu/lSKaxd+FyN7KeDvf6ec+1QnjeOvpb0+a9qPyqC473ox9Mw2TAkF2I7nOuUdER9PShW2eCIW6e+t2It4PVca9VoGRPL7RV1jFz6+Wk9Q875e98OvzoPdIEzY4iWS91Clgd0HbYgZUvbBgVmultWZDZZz1uOOtQdcqPTG57A07Ule9Ht6xeVuT3Ni06FFaZMdJcgt1VLF+sJajzGFG9NeK/N4pwoTl8n1318D9XC3MkjYcEliqsbo3/cHHPvcCH/mkTxsT0MSXC+Pr79aj9X6tRYf6PKb6YEbOZoNeD7o0mrJJ/9VtiQN7XpEUe+Ap2XxoRV/Zzn++G4wQfJj2CkdFVADOROYGvV8RdjtoIy9uN2FdWiJzVRuRstmAfa+D2NZ0eXSE+vX+6ANzvMLHwh1wU77bAWlaK/KVu2I70Rr8GK0C91oLGt/ehdHMOjKtzUPjSPtZI7kPTmehwprRxWWRC0R41HJW7UXfEAXv9fvxNC7Bmcm7xJk0y33/pYRX/W404XFGM3GzW2FxfjL1/vxOqQw44U642OV4yYPr6XqhPsYZDbTMcxxqwny/iZMyTzo8Dxf7ow8LtwYkKtyQrlI4uBKigbI8X/zkbDrjWoHKHcXx1pS4PZQUDsL28Hw3HHGiu3Y39P3uY5al0njPYDdsPBrByOyvXr1hQtmMNhJbkvbBp4b3FXvM09xZHUT1ahDLjRdSfTCBq09YvEVTQP1+GNa56tMp6gYg7gR++D4GnHo+1UJoVBqgvDWCQ580TuWIvnygWgh70nTEiVxwV48fAz0agvccPt5vlsbRdu5kJl88/pjyoHjVi64dOuMWpNmGBbXxOvhjS3YvmySIUbTGjeGMGet5sgjPhSBiGEv+wU/3Op0F43w77IguKnlBicJmIPnwAF42VKJZ/zE1rywTc+MQDp7AG+/ZsDdvebXtRs0MF20kns/phFPm9TYsP3W81YEBvRmmZFZbdxVgj2Nl1x9qgDHG0ShGKSwzwH7GhLSaNuYOiBKglX7/ErGLSwvi6qxGHupah4u+ex5+R8JmzBIZvsMYJH+6SGP/7NpSUVMDeO4CBQAayslfBIJ0j5hex84MV+KdjDfCmyyZU7imESaeBepkBubusMA/VoevyZCp41hB70gjvR5HhTMp85Wn4HJa39iJ/dRZWPWfB92s2Qc8KfpY43u/Ok9z33wR5QA9TdjcGRf+EU8gDJljq67H3PxmR9fgGWL5Xg01csSbqmU3CuPzRT0K4qZcsA6764z68sPvcBB5MsTpobNkeH+JKrP/8MCr3x66+qgxWlrfUoPGAGabHs2D6ei0Ol+fgwZtMDHyZnw/A1WGDegdrhK43QKvWQJe9FXutBnQeHd8HpjCT/OgwIdgzbtqJp352AEfj3vtx1S8L9dj0jafgfv3o2GG4xDQSgHB1JTTxc9czF+NB74hoX1WGNcj/sAcuZnvEXl4mesIf2/lvFzBBxPL3l9HNf58RxVrV6LzSUVQGrNnYj57LrGRLAtv42OzoluFDc8Ue8QILrM8LOCj30yojvX/YqX7n0zDkQuvbQFHBSnbrcJyGuZsgZpzHuqfyw/V2HTqXhldHjjUh6WyZGouXAiuNsvnDDM3j8rm/Cv3epiFwoQu2RcWoLMmFYZkaGp0JW/dYYXg34r83imqJLjwK4hkz9u7OiqbxEg2WYRD+OEEevMkqraWLFdd9xN3DpIRx8KOTONQQwF+/wkTx3WKTlPgfFf2RjcfnWzC1r0uOkvvGkdTn2Z32JakA9dIs6C7zr75yeDz503rhPDGAvOrDsO4oROF6k2hkxlRmxNzjU9fYBVWGbjAhqkbGfXxHgX+6kRF4xzhu10C7glWvQzFXTon/ggPdV2LDB37HRNaiDKliVhCX6+x5OtwQFmmhZ5WgQaeGije8zs6QP/SUvv8UEFn4TtoNE8ANvw4LpvRjNmsI/YgvopMB7SO84cddsAXhcfcgTxdd4Codyv3RT1K48SHz5/swENNrPoiByzrome0SSVu2lSP2+L81jPy/ZaJ4AnVl8KNeOM6xVJEaZ3o+9eRTN5xDemjFIXx8+CGz03EfD1QPPoyVlwXpw9A4uMO9xaNwUfvNfPR/rxk9oy378dcvqkc2oaygH3VHeuCfoTpz/sGFmRP9v461wUEmdp3PLpNEjh7GTTfg/NAHz6U2mLJXSXZfjWVPeLGYr6uwmeWxfFsvW4BHhn5tIW6874bvFy60PbsORvlotrsOZh8TLBim1jDbKPfTOgpro6b1DzvF73w6PvWiS2D1UVkkPtuw+y0ncGI/+/sUoq5y+XSROtiG82GV3OrISW/LmEBdrmaiO64lzWzvNd0C5XW5AoJMC2BJXNtDpcHD+oj/3gA8ZxxwxTZ8WRAttKNpHJ5G1DcQe9dBbx90er6Ozgwxad/WYd3j9vpnh//wKWTCwjj4f/8E9YcG8dcHy/H0n0gHZxju/9JWVoKqejuavluOkqq2uPlKQfjO2FCyqwoNR5tQ9zILeyLNXCTuf6uqBOXfbYK9vgolZbYxQ1/S3zce7vOMXevlOjQdbUDVrhLY5PNofnlq1PDEb6d+KYW50+hMyFc70H42Ek+Wlu++iW2NLvY0/AsfMxJCxDCwc2dPo0faS80whpVaMeLugzVG/Mea0H5JqoZvC3CdYhXJZtZ4FWub8MJanT92QYgYV+6f7sfdMK7WhyuNh3TI83TidOQajIC3G53vpVuYJJbMe/yw/7AdrshlBBfaT7pQmB1ZCVRBXL6UiZEz7L2MlHP+PMftcBdskJ7nDsJtz3c78XBVMt9/CsjIQNBpQ+t7PqmxEIDvvXY41PkwjW9MdhrUyLx5GnUtvaNCRLjUCrs7HxueGEfCRexMJL7cH31jA3zb49J/ssJtkRHrtjDheypSFlgDiM/9XV6EdZF0SVu2lSHWD5Ps8Vexx/TU1uPULyRjGfCh+51WZGxZJw2tV0Or14tleXQl3yCL7487YxaSUcZM9BZHUa3YirLnB9DcEpmfPpH6RQXdljIUDjTDfhesDzA/CM/9dbZ1wRPJqoAHp472IO/pVWH7ytA9sQ43fmyD/exWmEZtgxrGvypEz1EmsCK/5e/+90pQdy5aL8SgW4V1wmnY2PW3Mvs9A0V1HDAF52ftQ25vIg1OZt9PHXWIKyuLaXPdDcexbnjFtmN45eDYVXxrYYYJ1iORFYan8p1XAF8VOCY+HWipMIX9undsRdiTMXs337Oh7pN81L6SE9PjGyG9LQP0OWaojtnRfTUSxgtHSzMWbzRJYRTU5QoQFy97rzN6HxZ/4dJpdHrY84jrJWVAFXDC1sbyJfJRI8jK5Tt2DL9gkOKSAeOzW+E6GW17BH7RhvpTWhQ9NeW5oIAgPCeqsN3C2jEnJJ3D2ukyhZGWoLcLB5kuqTjUhNam/SjZURU3dHxu80fcZ5P0N3y+QSz+8mJpLxW/xfvMYB1KtK5K0QGc2PJn0s7kuPGbG9BqlXbTsBfHWg3h6/UoFl198K9WVTggFKG+TJrPJTqxFlBUXwwjP8AXBvi7A7ixtR6lkTkQtwIILmAvg7hqXtjpdNfyqDNt/7k6VPyz3KG0gvsGA+xK0ZXexBU239Wi5rW88PLu13tRZ+1EVnUtCpO9Rzzuh0awc9zOtlMzLufuzJC3fY9VaF7+bZi9ZjozLK9shYE1IPmL9ObrDehX6ZE5JEC/ywz1G048zJ18oxcHdzhhinFMH4YPkat6oxv+jftwPJJexIwyXof/vOHf8DqvxHitoIbhaztR+mIOtJHhord86D3agKYfSXPL1FrkbLKgTLYUf3CwF0frm+CQ3G2ol+egcDdr2MrcJkVh7228A3kR/uGrAQdbWENBjIoBhSWlePEZbbTRpCAuuO5E86EGKS78eSywlEhz6SfJ+Bz5F6DimLQj52krWhK4mhPOHcT2TwrRsS3cRBkl8t5eCleNmqeLYS0rhD5hD0uytJXBHe2f0oyNA2vIOo/Y0CClrdpQCEt5MncKAnrf2A7/prFuI2Ljy9O/FJYdctd7TLgd2obeJ1tkLiiSkzRdWFnobjwIOxPhPL6ap0tR+VIedLIil7Zsy0mYLuHnrHtf2pXDG5TxcUqRLoGPumCrbYBTHOKngWlXJV6NWRmWift21ig94pQaQRoYN5tR/PXE8U2aLqyuKWd1TdkE65rxlHExDudNCcqzH93VJbDpw2mUsn5ZEk4zZ3aC8vBpN/bvsmFlXYJyRiRFeR5ye1EBjKYvs8HnjqKh0QH/QtZKuKVC7va9KF0vs8FS3tp1NWjcLl/kSPbbRVoErwaRtbkUpTu47Y2/Txj/e1UoObYKtS0RYTZ1jLceHCWZfUxU92yxwiK9w0G3HSVVbhS9VYu85TxAPIls8/je+URM+DkZY2zI57ytV4dE0sAsy7v0toyF+YUDtu83R8PsYGklr6eV1OWjpLCrMfdhd1pdCHPJi8gZXWU6URpHymWEuLbHQyaUVliQF+O5JzmTyYN4xHLUvjiqL1i93F1XgYH1TOeMukFMBStn2+vxhfUAzNIX4OAv7Kj4QSarF8a7xsnMIQi/hVr9JWlvfExQGN8ZxiWMmTHaflSN2u/IFioYcsL2ghPGFitMrMx5jm+HXV2LmueixTlw3oZt541oecUEdcCFhm374dx+CC1bWPaLL/kA8k4WI7rIHxPC5dUYeakFW1ew3bT35eHL0bx8b/ge0gs68NxJFMsWMPC2l6P6dnn4vmMIC/Tuxw4pagiOhwm9kLckoZ/A8PL5L3yZ+PCHBWI2MlEjnTbv+RSBW7wTU179xZGibCmHD/FPcx+FcYl+JJsaprICHDc8bf/dHXDFwNN2RDXJPGTcqfjyD5d/SF3m7ia7JsYlg8VF2h8LL/8jWJAyzPQxnWWc6pc7w+TzcDJlUPqtgnz2n9mPA0NmHNo89c31aSvHSuqecTPx9J7JOim9LVPwzk9RevL7jLD6PvlllKQxDzP+uIw7DwQ3us+60P+zYWSuXYV1OTnQSR+6BXcXem4ZY1w9+s8eRJVQhEbZeyK4u9H5gQuDWAbjU/nINUj3DwrweoahMcjcj4mapherUn0wv8uYjDCeIndNM096/5d8xURB9I0mJyNrFUxnB8NfgjIMyKu0ovK5cOFR4usy/X112PBNK/ZuNYa/Hk7E5xkfNjjtviTHATNSyRqR3AcaNVrmJ2nzXonvuRRlSzlT5AdvrjXAedqmeeQpgaftpPOQcafiq0pf5u4muybGRfo7MbxspwszO6H6ZbYwmTIo/TZFPnMRE7juQlcHkJ899aJ4WpkWH6yz851Pb8sUvPNTlJ78PqkvoySNpyNv4+CjR7fbMbDIgPwd+TDgIqq/3QavNNJZzefpy0Qx71gbcDthXBY5FoS3vQoVrT48uDYPeU89jGutFTh4JtwfHnalGuuTO/ChG67VRuhniSieLHNGGKf3fylAuBxZ9U6GmAIf44aoSFXQZueMDjFU4utSid/NjEdzYIoI4XH7PAvP97ojviQJgiAIgiDuYvzn63HgH53I3FE6Tr+1BDHLWbYBlrerRX/fOp0OxgIzzPd1wnVVOh+H/1w9GnzF2BCZLjrkQucRDYr3FCN3NV8oMwfmly0wBHzSUPEIXnS9FvbtXHFWi8qKFG7D5hhzRhiL3E48OTzG/+UfpH9jyMQYF5kRIhP74xj1dclRct8YxuHzbKZWByUIgiAIgrjL0K63ouY7Fmx9Yr401QlCQpUB7QMLRC847ku96GrvgpOvgZFA24jeEBqBnX8bnRsc9HrQvdEkuUmTWGJA3tfi11HRwLClCEXbi5GX0cOuE5ljzee6F6BAth1MtkDeLGXOCOP0/i/V0GQ78XG8/8mRIIaxGJnycQMSSnxdjsvvJmdcPs9mdnVQgiAIgiAIgiBmHi52q3bshq3jIgY+YfL1MSOMCVaeC3odOJjAG0Jg+AawUIX03hqZAOcuKw0m5JVbUSQcRJfoX16PTceP47hss8yxjrs5I4zT+7/UQKvXweWJCYHAr/vh3qiDuOY0X3xrewEqOiSvnwp8Xaa/rw9d1gJsf5u7NeKMw+cZ9RYTBEEQBEEQxDwnAPdP7NCUHcK+MqYNCnJgfEQD1U3pdITrvbBVO7HyVcsYF4HqpVnQXR5gSkYOXzRMGvmayH8/71hcDviHwkfF+djybY513M2dodQK/F/qsvOx+FR71GcZKzz19T6Y10t+TjO0MG3aig2PSQMKlPi6THtfDVZ+dSsK10Ymsyv1eUa9xQRBEARBEARBZCBTrYYg3JD2mVK4fBqnL0s7nCE37N/txMNVNdj6SALxENEsZyNjYYPwvfsmtjVKnXdMqET890cmiQbcp2BvN8H06PzopJs77po4af1f8kLUhrrDdri4zzLu57TMguLsFPNUFPi6VHLfWBT4PJukL0mlzORS/cTdCZWJ6YPSlpjrUBmf/VAezp80oLyeecaVB9ddaD5kg+MzDfTwQ5W7EyZvHQKSj2bP8QJUHJPCynnaGvWtHdEsXt51x3SLzgzLK1thkOYdBwd7cbS+CQ53uPdOvTwHRa8wjaKbPb105Mc4HgX+L5X4T4tBga/L8fvdnJjPs6mEjCIRD5WJ6YPSlpjrUBmf/VAezp80oLyeeSaSB+n9LiuAaxak0DXpzt/FkB/jeBT4v1TiPy0GBb4ux+938w74PCMIgiAIgiAIYk6Q3u+yArhmSaVr0p2fo8xNYUwQBEEQBEEQBEEQCiFhTBAEQRAEQRAEQcxrSBgTBEEQBEEQBEEQ85q5I4z54lgRP1zx8Ank0ik+YT2QbLsVDjMK+53f64b3egBB0V0TQRAEQRAEQRDEDHBbgPuMA472LkgLRyvjlh9etxf+BFqJa6MkCmpcBAUfPFd8o5pr3NwS4LvigW8o+QWCAfYc7B5CvGa7zRc0Duu5yTBnVqUWzh3E9vOm6HLkMvjy5Y6lLdj7jB9tBRWwS8fH8EItOrbp2R9+uBptsP3Ih0yDFurf+eAe0qLwJQuK16Zw7TQLoRUJiXioTEwflLbEXIfK+OyH8nD+pAHl9cwzvjwIwPV2GVphRtFqLbSP66FJuwhXEJ4T+3GgOwgtCxz0uwHjPlh3GRFWNB6mjRzQHNmLnCXigfHDXdv+YD/sH2mgVQfhvyzAsKcGlqeVaiZJd12IxlF4bC9qyk1SHDkBuI8dQF1vOIxw1Q/9Ltk9rrShwBpWeC0tdnLXpEwYy88I6H1jO5zZ8cdZATpehQOfbEDNN3OhlVwLB652o/6103j4tRpsXTF3VpImo0jEQ2Vi+qC0JeY6VMZnP5SH8ycNKK9nnvHlQVi7+CW/xUoIuu0oaQIq3zBDL64y7WfXKEHfM8dhyeYiZ/LC2PujCtTf3InqbXqIsul6Lw7u7IHx7X3IfUgMkpKwhjOi0ZoLzT38SDiO/c8eR+nasBALXGhA2bta1LyWBy0Pw+5RZ+1EVnUtCnVikFHIXdNUwgRw07srYd0dFcWcjOW5KCvTwv6uC5PrpCcIgiAIgiAIglBIwIPu9k5c/ATo/wkfSu1i8lE6ddWJriM2VB1qRtd5X4xOCfx2EEL2GkkUczTQrzWh+6pP2pf4QwCeM82wvWZDc4cTvjixk/QeQTc+OLkS5s2SKOY8kI3S7xUia4G0zxB/f6wBB99ogP0Mi7tsKLRKl4dDO3MkUczRQKvXossbiaMA19kurNvEtFkkzAM52LwpCMclr3RgaiBhHAefU+x5zgRDAt9dGdkWdJSbohlPEARBEARBEAQxnSzQIOsrWdAsAtTLs9jfGmSyw8J5G8r/0Q2VYR2KntUjeG4/ylvco3OG1cv00J+/CE9EiN72w32hH1sflXezDuPiURt6YMC6Leugv9WNqn1to78R71HTi6Ce38MAXJDdY3AArsdYvEb8cIlznx3oviRAtcIAndQDLfb2vtaNgI79nl3/4U9aUXHYyeRumIxlPKxsNO4tL/p+NhyNY9CHgfdNyFoWO2JXpzdCYOJ5PFOt00HCOA7B74RJO7fmERMEQRAEQRAEMUtRqaEzrMTDTA0/mGWAwaBFBrzoOS6g6NVS5K7mx0wo3FOJvEsO9H4q/U5XiMrtI2jatRtVr1WhoqwO/aurUWSQi0w3Ao8Vo3S9kV3DANOWvbA+1onW93mfNL/HAPK+tReF2fweRuSVVcKcKWCQC+eREXgXDqDrgA3Om0y8P6RCf3sFqo+wa4rXZsLXUIiaur3Ymq2HTqdHzjYz1p11oj9O0QoXmsU47t5VD/9ztTBH4jgkwA8mvuOHet9zL/Chn4TxtHN7KtZmIwiCIAiCIAiCmAY+HYArqAU+c8PtjmzXMLzIBZ9f0jKD3bD9YAArt5ei9BULynasgdBSj1NX5FpHB8MKeaegClmPmeD6yIcAvwfWYZW8g1mlQ87mHOgWAoHf3QDO9CNz+z5YCkwwZOfB8lolDJebcDoyynmhBtovjYijct3nu+E40YN+jGAkzuNPhtijXITiEgP8R2xoi4njF9K/cahl47WngHkgjIMI3pT+VIBmWQ6cv/aPDkGIQVwKnEQzQRAEQRAEQRAzyLAAn+oGrv1yAAOjmx+ZTxZDe98ICxCAq8MG9Y5KFK83QKvWQJe9FXutBnQe7R2doww8iMV8XLaMjMwMYCiAIL/Hosyk00gz7ueLNq+B4RFZD/RCPdZke+EZDPfl+t+3oaSkAvZeFr9ABrKyV8EgnolFtYQJdIMBxmfM2Ls7KxrHJRoswyD818VgowRvDgNLF8ctujy5laDmjDBWP5QF9YcfwzdGtw5i4LIaWRplK76p9Wtgau/C+bjE5/jPHETZSU9i0UwQBEEQBEEQBHEnWLIMBu9irMovROHm2C33ES5lgwgMMW1zf6ysVT34MFZeFmRDkJ0Y+CRW3fh9Hqh1WqiX6mC63I8Bdh05o76Pv6yBCcMIxvw8gBtM0aoXcrHshfPEAPKqD8O6g8VtvQmGZWpw2R6GL/rlgGtQ2pVQabTQjsZRi6z1TvQNxIreQW8fdHoWR2lfxHta+mNizJ0e4xU5MOvaYP+vTkRGDyAowNVSj+YFhTAqXNYcS3JQXLEATd9tQK9XyoDbAXjPNaDuWAZ2ftWA2KnfBEEQBEEQBEEQdxC1ERs298De7on2k3I3Rrvq0Ps531FDq9ej+8fd0VWmuTb6cSf6t+gRHR2tRs+JU/BEwrBr2I8FUbiahcgwwLTZBce70XsELjWjovI0RC27JBt5PA7HXRCkodH+9+1ovVQIk4ELcjUWL2UCVxiNAHxnT6NH2mM3gCrghK2tG96I+A760fuOHcMvGKQ4ZsD47Fa4TrbDJan5wC/aUH9Ki6Kn5GO8A3B2NEt/T4w548dY5JYPvUcb0PQjt/SFgRWIZ4pg3Z0H3ZgxAMn8GHNYpp07iuajDrikyeua1YUwl7yInLgV0WY75MOOiIfKxPRBaUvMdaiMz34oD+dPGlBezzzjy4MEfoxHtY8fmcuZfglmobCkFMVrI3OGA/C021B3xCkNndbAuNmM4q/nQCt64JH8GL+Rg77vN8CjUsE3pEHhS5boNdg9uhsPwv5eEKqH/AiqcmH+VilyI5ooTn+pDYXYWRbVTEFvF958vQH9Kj0yhwTod5mhfsOJh0d9JyeKYylKdxjZXxHYs51pwMEWJvL5TR4yobTCgrwVMoHndaD80AiqqzdM2I/x3BLGEfhc4FsjWLAwA6pRn1gTgw8VGFmQgYw52k1MRpGIh8rE9EFpS8x1qIzPfigP508aUF7PPFOWB8EAAiMLkJFUsPB1kpg2ymDaSDqSCK572EUSh0l3D1F/8Z8nPi9eO6U2UxJHHib5PTiC8NsJC+O5ufjWPSqWYKkSXjkqdp25KooJgiAIgiAIgpjlqJheSSlYJG0k7SWD656kYdLdQ9Rfyc+L106pzZTEMfU9Jgu5ayIIgiAIgiAIgiDmNSSMCYIgCIIgCIIgiHkNCWOCIAiCIAiCIAhiXkPCmCAIgiAIgiAIgpjXkDAmCIIgCIIgCIIg5jUkjAmCIAiCIAiCIIh5TYwf41/96tf44z/+Y2lv5vn973+P+790v7RHTAc3b93CfQtFD98EIUJlYvqgtCXmOlTGZz+Uh/MnDSivZx7Kg6nnj9h/E/VjHCOMfb5BLP7yYmlv5rnxmxvQapdJe8R0QM7diXioTEwflLbEXIfK+OyH8nD+pAHl9cxDeTD1CMJvJyyMaSg1QRAEQRAEQRAEMa8hYUwQBEEQBEEQBEHMa0gYEwRBEARBEARBEPMaEsYEQRAEQRAEQRDEvIaEMUEQBEEQBEEQBDGvmXvC+HYQfq8b3usBBKVDY7glwHfFC38gaYgwtwII3JL+jofdRxj0pL5PGoIB9tvb0k48U3B9giAIgiAIgiDmEkEEmEbwDArJdQQPc90Lt9efIowMrnlSCQ6mSwKJAoiaygPf0ITV0PjiOc3MKXdNwStt2F9zGsHlGqhu+uG71wRLeTGMD0gBWOL7zjRgf4sHmuVqBP0+qHIrsW+LHiopRJgAfOfssNV2wfNCLTq26aXjYYJeBw5WO+DXaqH+wg/3kAF7/94C0+h90hDwofeYDXUdHpjrOrD1Eem4RHCwGw3ftsPzJ+Hr++7dgMrXtkI/DW7OaJl4Ih4qE9MHpS0x16EyPvuhPJw/aUB5PfOMOw+uO2H7u4awRgATpZ9pUfStV5GnkymZITfsb9Sh9wstNPeyMD418qv2Mb0Rq3bkeI4XwLG0BXufSRIXprEKTmnQsieH3ZcTr6ncEB7bi5pyEzTieQVMIJ5KIHdNnKAbrTX9MB1oRO13alBTx/591g/bKReTuRLeLthaMlFafxg1LEytrRKrfnoAzRdGQzD86P5OORr+bSWKdpmkYzL4faqdWPmtehyuCd/n+Dcz0fpdB7xSkJR82o39LzdgQF+E0mzpWAxedH3fjsxvRq5/GJWPX8SBI7LnIAiCIAiCIAhiHsE0yuGGqEaoOYz6l5bh9OFu+KQQvHPPdcwG//paNNaFwzR+S48PalrhnsohqFxT/fhBWCOa6u1GmG8dRMMZvxQgHXconuNk7ghjphoXb8qDUdbBrDGYsNLlY8UojOeCA6oXWJgM6cBCPfKeN6Lr/T4I0iH+BUSzsRY1JTnIul86JOeXfWjT5yPn0chFgIzVeci/rwd9SpRxUIO8N2pQ/EwWMu+Rjsm54oLjPjPyVkeur4J+YyGM77LrRyNJEARBEARBEMR8IRhEhsEMk16mQQxrYLwyAN+QdOBTJ7o+KYL52Wi/rerRzbBa10AzIh1gCFd64ag/iIP1DjgHEyhRwYPe9gYcfKMBjvM+po7kBOF+34GVL25CNCoaZO88hEJ5z/VtAe4zdjS8wQTzsW645TpGYTwDV1m4IzZUHWpGF4vHdHcSzh1hrDYgb7Mxpvs+MNAH55Na6Zgfvg8FrPoPsR38GVmrYDo7OCqeAS0Mq9MMaWCCNr6TX3WfVxzrn5blBhhTXN7/aybSH4vEWWJRFlZl92LwurRPEARBEARBEMT8QaWFaXOuTIwyvP1w6bR4cFF4N+AbgIvrCC5sOxxwtHeh90oQWoMeGul3/nN1KP9hPzLX5iHvKQ0GjzWg82r4nMj1XtSVN6F/kRF5f22CZvAoGroGpJOcQQxcWomspSPwX+pm92D3OeOCcJ8OBp0kcoJeOP5LBRxCFkx/nQejxofWPQfR/Wn4tJJ4CudtKP9HN1SGdSh6Vo/guf0ob3HHifSpZe6uSs0ytb7eh+LnjAinrwDhMsvcL4s7UcQU+Bg3lPbGLstC7vs9cA5K+4zglV50npd2GP4LPINl2xmP4i8cguCGaWmseBdlOBPjH3/GI+mHS35ttnVfoUHWBEEQBEEQBDFvuOVB22EHVr6wATrpUPCWAP2QE3WvOeC/XwvtkgCcb5Zj/xlpsHXQjdONAZhfLUXuagMMBhO2lq/D4g/Dp8Xe4B83IfCCFaXrjey8AaYtr2Kdul86zwlixJuBga4DsJ0PQvMVDVQeByr2NcMt9VwHLnXC8RUL9m4xidcwri9G5Y4M2LvDwjZtPOFFz3EBRbJ4Fu6pRN4lB3olcT0dzE1hzAvKd5uAEisKIyUlwh+kf2PIhErpPO9FJhTtUcNRuRt1Rxyw1+/H37QAawqk84zMpVnI+opsW67BAumcIm4n/haSKUYykxXAuOt/eVxXJwiCIAiCIAhi1uJH7+EDuGisRPHaaBeyIFyD5/0bWPNf9mLrM0YYn9mKvX+/E6pDDji5aP2NHx61AVkPhcOLLNTD+Kz0NwT4P1LDsELeSaeC/sl10t+MwDBuoBv995mx76U8mJhozXtpHyqf7EPTGT6vNIgBTzdW3h+Ex+2GW9oGBHb1j/zi9NW08fx0AK6gFvgs+nu3+xqGF7ng83OdxLReQQEKZNvBc0p7OZMz94TxLS8ctXX4OK8W1mfkmaqGJtuJjz+XdiOMBDGMxciUD0tIg+ZpCxrf2ov81VlY9ZwF36/ZBD3Tplma8PCBjGX8y4ZsW6EeM/Q6GWqNCc5P4jM2iOAwsPh+HskMaOXXZptuidKrEwRBEARBEAQxe/HD9XYdOpdWonpbrGcdtfpB4LE1MMg95TxggOnpbgzyntZhAb5FmdJo2ggqWQdhAMLVTGTeJ+1KqFSyTriMTKacgDVPyu/NxLPxKXg/8jHhG+C3Eb3/DPxyILrd0qL4ybBWUhRP1Q1ck//+l35kPlkM7X18ErIem44fx3HZZvnLNFNhFTDHhDH/elIN5worLLLJ3GE00Op1cHliV8gK/Lof7o06aKX9tFx3wdHhhrBICz0XpjomeoMe9J3Ng065Z6mkaJbrobvQH7vC9dAA+i9PzfUJgiAIgiAIgpiNBOE5XgfbcD6sTBTH9+upNVlQDwfF4cpRBNz4RIcFXNsuWQbD5QH4YmZh+uHzSH9CjWVPuDEQGwD+aACGBpqnmXa9GXuXwI1rwKIMJpHVeFCrRlBnQuHmwrgtvB6Uonh6F2NVfvzvC5H7SPipVRkZyJBvU9BPOIeEcQDulvDXk5q4rycRdNn5WHyqHd1XpcyW5iGb1xvGFKykfCkTI2fq0HRWWq7rtgDXcTvcBRtgUHyRFLBClK92oP09aeW120zsNzbAt32Krk8QBEEQBEEQxCwjCN97NtR9ko/aV3JiF+qN8EgOzPfYYY/oCPZ/b7sdzep8mPj0UvUqrNvoRGtHdP0j/9lWtI4uvqXGqqfz4GzrgicSgOml1pNRh1A8TPZzheg52gpXZJDrdSfsx10ozA5rKt3TZqiO2dE7unBwgAn6Cuw+IQnstPE0YsPmHtjbZes08UXBdtWhN3707xTyRyGG9Dd8vkEs/jLvHL87uPGbG9BqFXaTcsfTVru0I8cE65G9yFkS3gtcbkPdYTtcvJtebUBhmQXF2QmLFoRzB7H9k0J0MKEdA8v85kMNcIjrjqth+JoFlpLYFbHTI6D3je3wb+rA1kekQxGG3Gj7ng32S1x88+uXwrLDBE0i906ThJy7E/FQmZg+KG2JuQ6V8dkP5eH8SQPK65lnXHnweS8O7qiDU9qVY66T6YkhDxz1dWh+P9yJp3m6GNayQuillav5tNOuQwfQ8KEK2oXDUOdWovB2BbqXtmDvMzwuQXg73sSBt/uhWq7C8P0bULkZqDijQcueHKZMOEyknzuKhkZH2A0T11QlpXjxGe1o52TgFw7Yvt+MfhU7dnUYqmeKYP3/5EG3UAqQNp4+9B5tQNOP/Mhczu4XzBLvUbw2teIShN9Crf6StDc+5o4wHifBQADI4N39k+BWAMEF7BrTIFhF2PUD/25qhgYkg4wiEQ+ViemD0paY61AZn/1QHs6fNKC8nnmmNQ+CTEf8gemIiBCNh+sMpDh/O4jALS6XUguRdJqKnx9heinpZdLFk58fWZA2HhEmI4zn5qrUCuDj0ietNxdOoyjmsOtPpygmCIIgCIIgCGIOokohNjlcZ6Q6f49KkRhNp6nEucCpA6SOBz9/hwTRvBXGBEEQBEEQBEEQBMEhYUwQBEEQBEEQBEHMa0gYEwRBEARBEARBEPOauSeMbwchDHrgvR6I840VB5/IHUgZgiAIgiAIgiAI4u6DL44VYHrntrSfDDHcndU8fMGt+HuGjyXYbkkBpOdJtI15RhbW73Wn13vjZE6tSh0c7EbDt+3w/IkW6i/88N27AZWvbYU+bkK34G6Drc4O12NW2bLj8xNakZCIh8rE9EFpS8x1qIzPfigP508aUF7PPBPPgyC8J6pQ3uKJddWUCO7S9pTc1dI087kTda8cRG+MzvKgraACiRzr4oXasGvcpK53Y91RBVm4/TWnEVyugeqmH24Yse9vS2F8IHyeVqUW8aLr+3ZkfrMeh2tqUFN3GJWPX8SBI66oY2j2l7ulAhX/YwEKS7ZKxwiCIAiCIAiCIGYJ3i7U/1SDnCek/buGAFwnmoEnTNJ+BD22dnSgI2Y7hOJHdDA/qQsHeWRr3Hm2HSqGXmeG4U/DQRB0o7XmA+i/dRi13+F6rxGNeQL2v+OU6b2JM3eE8RUXHPeZkbc6Qzqggn5jIYzv9qCPO54WCSLTYMGhPYUwaO6VjhEEQRAEQRAEQcwG/OhucWLNN81YkykdkiN40NvegINvNMBx3jd2qLHgRnd7M2yv2dDc0QvvkHQ8QsAHZ0fkvBO+cSjO4OVWNNwsxs68LOlIcgIXTsPxJ5uR+0gyV0xMZL/nwOLnc6GPBBkSMCg8hTWPRn+jecwE05lB+KT9yTBnhLH/130QHtNCI+2LLMrCquxeDF6X9qGG7gktItKZIAiCIAiCIAhituA/24zOFTuxaUUCQXm9F3XlTehfZETeX5ugGTyKhq4B6STD60DFdjsGFhmQvyMfBlxE9bfb4I2o58+dsL28H70jeqzbso6dd2H/y3a4I/OAU3HLg9YjfphfNCkYsu3F6bZ+5G/KTh7WexqtnnwU/qUsxBIt9I98gIu/iMp9v9uJ/i16SP3Ok2LOCGNBcMO0NEYWM1iBuQf4+LPRLmOCIAiCIAiCIIjZBxO+zUc02Pm8nqucOIJw/7gJgResKF1vhMFggGnLq1in7pfOM5ZtgOXtavG8TqeDscAM832dcF0Nn/aea8XAVyuxd7NJ/L2xoBSVL2ZC8KVb4ioIz8l6eDcWI0ea65uKwPlONKfpLea91jG9xSI6FFaZMdJcgt1VVaiylqDOY0T1VoOUHn7x/xNlbq1KfTtxpmWqkiU6QRAEQRAEQRDE3Y4A51E71C8VwRC3sHAYAf6P1DCskHcUqqB/cp30N0OVAe0DC0QPPu5Lvehq74LzqgD8gZ/0Y+BnwLon5H2vKuieKUQO753+vBcHCwpQINvaroRDBT86haafrYP5ufhOykR4cfr4AMzpeou95tjeYhEfut9qwIDejNIyKyy7i7FGsKP+lEcaMp5obLly5owwVmtMcH4S3zMcRHAYWHw/DZ4mCIIgCIIgCGJ2ErjQiobbRch7jP0tujEaFt0YfTHM/haHOgcgXM1E5n1i8FFUqgXSX0wZXWlD1Y7dsHVcxMAnfH6uEUa9dDLJ70dZkg3L8eM4Lts2fYWf8KLrBz0wvLgBmoiLpeEvxA7LYe5qSfxxFLG3eGn63uIHx/QWszMXumBbVIzKklwYlqmh0ZmwdY8Vhnft6P2Uh5ic5pu0MA4GruNX//orXFcy9nwa0SzXQ3ehn2WNjKEB9F/Og065xyeCIMbLLckIyjeZPUjrt26UIAKDHngGheQ++ZiR5V85PYPp/dYl8qEXISj44PH6kdytH4vLdW/quNxJFPpdF585oS1OkbbitRNv8jsmysdEaRMcYml7xQchaZ2gIG2lfE7pn/CWAN8VL/wJ0yWxL8Rk1+LPNu1lTmG6uFm5TBWXVH4b0+eR0nRREJepIFW55ueSplUs4nMnvUyKvCVmHcHrbrgHpcxWaBfvGLf88LqT2aTEiHURswtJf5LmnZ9JxPcuyTuq5LnS2tVxpGfyuExRfcNRUt54e0ih3ZoIPm8XhHM27N62DdvEjQnc80BbNfv7lIeFUGPZE24MxK2W5ffxc5wA3D+xQ1N2CPvKzCgsyIHxEe7ySDoNDXTZbvT/Om61Lf5c4qOrkJGREbOp7mGHPw/nd9trkXixrboNOM/jasP5z/lvI0ymt5hlA6v7sWRxrPxVafCw3g0hfhGxCTBxP8a3foUfH67FycEHsOxLgPDxINQb/xZ7N/9ZgjHvE2N8foz96K6uQF92Dcqe0yLjth+9hyrQqa1GzRbd2DjdaZ9edykz68MuAJ/bj0y9DuqpKjTEpBlvmfAcL0DFMWknQsQnnRK/dZzrTtj+riHsgxxM8HymRdG3XkWeLlow/BeaYXvLGfVbN2TA3r+3wJRoLktCH3qMW144aqvh8GuhVbMGx2UBhj01sDwtG/oz5Ib9jTr0fqGF5l4eFz1Kk91nnEzkfVPqdz34URuqXrHDI09XTnza+jQorN6LQilthXMHsb3WKf4diwnWI3uRs4T/nTgfY30n+uE8VIWGjzQsbdl1r/qgeb4ae78ms78K0ja9P/ogfGcasL/FA81yNYJ+H1S5ldi3RTbfig/32lGH2KeSP49EwIfeYzbUdST2AzklZW5Muvih3VKJVwui6RJkjZ03X2+FbzSP1Miv2sfiEy3/6fw2KsojBemiJC6pGE8ZD5e9ICxv70PuQ9JBCfHcJ4WxZTkhAnrf2I66mxY0VufGLsApnfNvSuPjk4hhZtsFqQjA9XYZbLCgfpcRQV5GzpumpR03vjQIwnNiPw50B6HVqMI2aa0FlhJjXHmUccuH7h/sh120C4nrovh33nevCZbyYtk7P3kmmtdJ6xsFz5Xero4vPZPGZUrqmzDp62HWnj1nh622a2w80jC5922sjQtcaEBZ22JU7mfPwdXj9V7WBmhCd9ZOMe7+49vRuqgG+zZqw+Ev21H9WhvWSHVF8HIzSo5mRn8/5ELza3aoyw+xdoP4E2Uk0VkBJpa3nVuV4r0NsDpzG3qfbMHeZxKE4IuHVQ9gw3fKkLucRzAI4VIrDhxi9V2jGQZWVU3GjzG4MI7w8ce+0HAgoGj7X//166Gy5p+G/JFjv/lZ6Ie7d4f+27/GhpvMxuMzLn7XF2rdtzOUn5/PNnOo8ocfhK79XjoXj6c1lP96T+iGtDtf+c2NmUyB/lBr/oFQz2fSLnFXML4ycSP0wZv5oaaffSHtK2Eg1P6qJdTqifzmWuj0PnOoyTUs7YdCw30tIcurnaGPpf3QZz2hA6ysnPZL+4xrPzkQyj98MRT9VYTh0MXDO0O1b7LzMe/4F6G+fzKHrO/0R3/zu4uhJos11D4g7Yu/NYequ0bvHLrWWxsyv9rOYj15xpe2wyy+1tDO19tDfb0taewVT1Mre+bKUD57vig8bfNDB35yTdpnqfAhS1tL6ucZ/ml9yCy/340PQrX5TaG+FNl8rbtajOPonW72h1oslnGmLX8OeVn4ItT/jjVklufzQHvIam4KXYwcYPdpZb+p/6msJPxba8j8d6ejcUnEJ6dD1d+oDDX1Xgx11uSz8igdjzAlZS6cLuZm2W+G+1i6WEOdv5b2uR00W0ItfdGrjsmjL9hveJgPoxkgxuX7H0SvqyCP0qeLgrikYTxl/EYvewZeXyd4v8RzMWU5GTdCPa/zOj8/ZD015iriuTF5S6RkZtsFyhHLSEq7OHHGkwZfsPrKvI/VV5H25u+Z3X2d2SRZnRbPwClrbF3k5/amOnT6E2lffOerQ52yZvC17gMh8w8S2Z+JM7G8TlbfKHguBXZ1fOmZLC5TVN+wv9LXwyx+397JNEdP6OI/K7VbUSb3viWycV+EBlg8djIdVPZ/7QyZK1tD/S6Z5vGzdk+lOZT/DZZX32Baqa0n1BlzjS9CH3cfCpWZ80M7v8E0lbksdKj7Y3Z0nCTUWSzNWbsg2v5LAKvjLRYW5xRBhj9sDx34Rtju823nvqZQjy/6gxs3BOmv8TPBodRBPPDk36B8459Hu7IX/nvosn6Ff/u/fysdmAEWGbC1uhEdJ47j+MkW1JSYoOFd/IngTqSn4SvjXEdwd8NefxAH6+3odsfO6Q5cdaLrWNhvmv2MC/7IcJKAB93tLviG2L9HbKjq8ErHetCPa7j4rgOOC5NbRY6YKYIICGpkZijrTeKM8VsXDCLDYIZJ/DQZJsOwBsYrA6zMSAdUOuR9rzRmpUM+fUL7rneM37rkPvS86DuxEvl/pY/aLe7OYKMKPT+XJmF87kL3u+tQuD78JZWjeWYzCkcccH0kHbhjKPe77n/PDudflMFsjF90QoBwyQTT49Hv7KpHWdp6PfDFDG2Sk8CFwq0ABHUmMlNks8DSzpRtiH7RX6jHmrXhIWwiStJWgT96zwUHVC/kwRgJwu6T97wRXe/3sacNEwwMs/hmjB0pJCeoQd4bNSh+JguZieqJKSlzQQQXGmA2rYyWuQwDSxcPBj6RhqqxeBitVmw2RMu/alkWsuR5pMRvo4I8SpsuSuIy1TxdjOIsB+pPeFlqJSdp/SJh2lGMrJP1aPso/bBLYqrww9XeDc91H5zcZ2qji72D/Bh7p8W5fhJSG0Cs5SN/35J+w/2snvMiZuDmbQHuMw40H6qC7UgXej+KnvWz9/9uay8EsBiFG43QRuzIPRoY1q6E62qSeAbd+ODkSpg3y+qiB7JR+r1CZEWmgrJHXryJ2TnZoEmNwYSVLl84HWeQpPWNkudSYFfHk55J4zJF9Q17KAX1cBCajbVMc+Qg637p0B1DjZw98SNiVNAV7EXjqUbUvnEYLTVboV8t0zwPGFFc04KT/1CN6reYVtqSg7yYa6igXW/B4ZaTOPQPh3Cy5TAsLB1T1qeJSKizdCg8dIjdK8XVdIU4dIjFOUWQjEcLsfftDpzk85xPdqCxuhg5y8Ydw4RMUBir8KWv/DmW/R/SLud//xw/d/1H/MevTLDreipZmIFxtNMJRQThba9CRasPD67NQ95TD+NaawUOngkbKnHoxmvdCOjWoWjLOjz8SSsqDjvDDdWbrKJklVvzkdMI6tn5J1nTeYEGWV/hQ/UyodGxhtfSya0iR8wUTHhdZo3+AKuEWGPIwRpJrk/j5qbEkEB0qbQwbc4ND9mJ4O2HS6fFg4uk/UVaGFaoZYaZlcefuzEc77dOiQ+9eKunyoTX4xPLanBwAM6ns6CNsR86rFwrYODT0ZryDqHQ7zp33fCuDjtlQ3OjaKHb2A/nz6MNioD7IlyrjdDLhxTLSOhwnwkzN8ug4UvdLI9ZPnNhEpfNWl0e+s+7o422gBsXLxhhZPnGUZK26f3R++H7UMCq/xA7oC4jaxVMZwdH7x0YYn8tGYH/XJcY365zHgjx88uWG2BMWkgYU1LmWAPj6UKWljGFG/0XdNBqpGMqls+G2HwOfOiOzSMlfhsV5FHadFESlylnMdbtsGJlRz1OXUksalPWLxGWrEPxKyvR+YNT8EzjHD9CjgDvkR60Nh7FwBIj8nKyWNnhx5rhlc/1E9sA3nB+iX93w36U5edyE/LWZ8H/z+Wo/lFkhRgvHHu2w+7NhKFgJ/INwMXvVI9+8BC8zWj23mlbnBq1IQ+Fa+U2KYAB9n4al8XaqVGYLXQ9lgXNCEuLM7zedKD7kgDVCgN0kfdMbUDe5tihw4GBPjifjLOPd5pU9Y2S51JgVxWnZ4q4TE19w1FSD7NnWp2qMpkh7uHzgcfk0igqPkc4+WlGeD5xyiAzTPpnGD+TXnzrV+9WY/+3K/F//d37WLanHH/1oHSCmFsMudB5RIPiPcXIXW2AwZAD88sWGALhr5cZhkLU1O3F1mxm3HR65GwzY91Z1nAbrb+CMD5vQV42++0yZmLEBlgWHmTC+GG9dIyYfQjDuPYQqwzP+6BarmVN3H7WqKlGszuxOE7vt47BhEbbYQdWvrAhVoBwBD7XpQpVL5Wg3p+L2hcifus46XzoaZG13omeC7L+Pnav3q7ojEtROCzXjBU49wD9/rurMRbGj94jTdDsKEL8nKgwGTDuqIbBtR8lVpZuVbtR2Q6Yy+PnYkbw4vSxsQ73hd9dg+bXLjivMqG3fDHgcaBiXzPcssZvxtpiVD9+Eft3VaCK5dHuSgew3TI6d1RJ2qb3R88/xJig+XL4zChiTfYxbkhZJAg+aC5chDOoRtZDmfCfr0P5ge4xPb2KmFSZi4eFP14Ph96MDWMKtxdd/D7WElSc1aKyQp5H6fw2Kssj5emSKi7TwEIDXvyWAR/8MLGoTV+/hFE98SIqn/wATaNuO4jpxw3Nc6/C/IwxTvCkYhgrvyq1JVbnovQbZvh/0sdKHWcZNvxNI6p35cKo00G3Og/mF1TovDwonp0N+M/Vo8FXjA1rk7RrRkbgXTiArgM2OG9q2LuoQn97BaqPuHlHcWKYCKyv96H4OWMakTadpKlvxvNcKe1qLInTM3Vcpqa+IeYjkxbGD6z6f+L5zf8vbH/u/4F/OfRP+Oln0gliThH0etC90YRVkR48zhID8r4mfdFcqIH2SyPi6onu891wnODDpEcwMtobkYnMhA13YlajNsLydiP2lRUiZ7UROZst2McauH1Np6VGjhwFKxHyyu7wAVw0VqI4UaMiIwvrthShaMdOGPzNsLVHG8DpfehlwPT1vVCfYqKtthmOYw3Yb7UDxjzpvESSlSvvxgXihPftsC+yoOiJZJELwP0OE2J/yEXxbgusZaXIX+qG7Uiv+EErnmQuFNRrLWh8ex9KN+fAuDoHhS/tYwKkD01norkccB9F/akR5O4og+WVUpQWaOA+1ITe0S/vDCVpezuxpInxRy/6W4wnE5Eguq8dRuNbVhSvN8GQzZ59Tw12qmxwnE/a7EzOpMpcLP5zNhxwrUHljkSNWw0M/D7bi5GX0YO6Rqcsj9L5bVSWR8rTJVVcpgfVo0UoM15E/ckEojZt/RJBBf3zZVjjqkerrHedmF4Wpxq/n5C49sCXNVjpHZHyXYWMZRos4Ksau13o7XCg64IPQhK7cLfBF8yqawR2/m3h2A+7EoHf3QDO9CNz+z5YCvi7mAfLa5UwXG7C6bEVZ/hj8XebgBLr+BY/mmLS1Tfjeq4UdlVOsvRMX/cxpqq+IeYVkxbGGf/+z/Hnf/7n+IuNu1G+6beo+/G/JizcxOwmMMwM3kIVop7QYvG/b0NJSQXsvQMYCGQgK3sVDNI5Yn6RbA5rer91frjerkPn0kpUb5OtMCxHHGnAexlyYK6wIKsj4rdOoQ+9B0yw1Ndj738yIuvxDbB8rwab+EQW6cuyesky4Ko/TgQEEbwJPHi3rdI65ELr20BRwUqWuOFnHuYuF4LDUZcS3tNoumxC5Z5CmHTsGZcZkLvLCvNQHboux1tqJR8uIjAB8qQR3o/CQ9DF3zb1wfStvSjM1kGj1sKwvhTW7QHUdbnF9FeStun90auhyXbi4/j5riMsn7EYmUm7UjTQrzWh++oE+ownW+Yk/BcaUPfPD4dX+kzSu6/l9zGYkFduRZFwcDSP0vttTER8HiUiWbokj8v0weK7aSee+tkBHI2717jql4V6bPrGU3C/fhRuGlI9++AisGo7dh/qwsVfMmuxdCWMTzAbNwsIeh04+ObHyK+zphxBknE/9/6yBgZ5XcjXZMiWrckQQfSkUIeP82phfWZax22kRkF9M67nSmpXoyRNTwVxmZr6hpiPTFAYX8f/+tFP8G//W9qV+NIDrCB+JuD/J+3PCKxRMjn/l4mYQj9oMoIBP7xXEvi1ZNcSG1kJtpnyx6hemgXd5QHEDmbi8eRP64XzxADyqg/DuqMQhbw3gjXeRsKBiLnMpy443vPEDpMausEa4mpkxDiITye6+BDTOtiG82Floji+Sgpc6YZDPgSaw3uRlkt+6xT50GPC+0ddcAus0f8Ib/RzN2Hsvu4e5OmkBTqWZSH3fB8G5PPjWKkfuKyDnpXpu4pPmTATemEriz7z7recwIn97O9TEL0W8qFtmjh/f0wMaVew1BiK7SVM9eGCL3jTfSUu/O9Yg2JRZP5RECPeB7E4bqkAzVIdqy6EcPlQkLbp/dGzuOt1cHliux8Cv+6He6MOkvMJeM444IobeRkQrkF339hnS8bUlLkwYq/HW8PI/1vJ/YWcRO8Q/wCwPJpHSvw2ps8jBemiIC7TChe138xH//ea0TPaoh1//aJ6ZBPKCvpRd6QH/hmqM+cvaqifkP6MkHCER2ICzB7bHyjFoepSmDfnIWe1HhoVUyp3O9wlTrUTK1+1pJ9W8WUNTBjm607KCOAGK/PqhXIbxUdQVcO5wgrLszMoijlK6hsFz5XWrkZIlZ5K4jIl9c3dDGt/M82RUpfIEXVFvDoZ5zXmCRMUxqx6vv7f8E8d/wu/jaTz//5XdL7zz/iLtY9jppbf4v7IbGUlqKq3o+m75Sipaoubr8T9X9pQsqsKDUebUPcyC3si8fCNUbgftKoSlH+3Cfb6KpSU2eCUDw1kpL9vPAG4j7FrvVyHpqMNqNpVAtv7su9avzw1+rLHb6d+KYW50+hMyFc70H42Ek+Wlu++iW2NLvY0aixeKkAQIg0ndu7safRIe6kZxvAdaG8R08QiVnUfa0L7Jemr620BrlOs8b2ZNV5lrfjUvcWsvLxnQ90n+ah9JYdJn7FkLBiG861WdHujZcx/1g77kBmGP2W7S3Kwt6MDHfKtzgw8bUVLR8RHqxqZN0+jrqV3tLHMfd/Z3fnY8IQU2UVGrNvCxMEpl7QoERMTfE7o8iKsm8EhbAnhKz7GPXNLhSnsH7qDCTAe5iEd8jydOB3JH0bA243O96KLYoVJ/eEi8x4/7D9shytyGcGF9pMuFGYbJLEWXuSr88eRdGMMedH9424YWcNWvKaStI3Ymfd87CyD+6NvbIBv+4bR8qTLzsfiU+3oviqVBWnunXl9JC4ZyLjphK2tGz4pSOBqN9pPLUb+WuWZODVljv2K1w+pepFYpCPvUKQuCrhPwd5ugunRcG6ol+mhf68z+swspHDpNDo9LJ95XBjp80hBuiiIy3SjWrEVZc8PoLklMvd/IvWLCrotZSgcaIb9vHSIuEOooWG25QOn9J5zO/COHf3hk2nhvY5qQcCNUTvixulut7Rzl8Lbid/txMNVNUlW2/XD3W5ntkR6q5ZkI29zD+zHo/bS/74drZcKYRqtOFk7sSU8gqom2QiqO4mS+kbBc6W1q5x06akkLlNU39yVXGd2nOmGCqY5RF2yYz8ckbKVDK4r3jofHT0Uf42yg+hKd415wh9xn03S3/D5BrH4y3wohAJuDeL94434p85/heig6UvL8PTmcpRt/NMpe4Fv/OYGtFqln228cFirIXy9HsXi0uu8B6oKB4Qi1JdJ87lEp9ACiuqLw64++JCdvzuAG1vrURqZz3grgOCCDKju4TsBuOrL0LU86gjbf64OFf+cheq6yHwHBfcNBtiVoiuniStsvqtFzWt54eXoWcOuztqJrOra5PNHeNwPjWBnLXvpp9BCjsuxODNWbd+zwe7l/TZMIOvMsLyyFQYmjoLeLrz5egP6VXpkDgnQ7zJD/YYTDx9hDUT04uAOJ0z877iVTfkQuao3uuHfuA/HI+lFzCjjdTYvOsh/nVX6V7nJVcPwtZ0ofTEH2tHhouwdKT+Ekd21iSu5z3n5qEN0CawoZsnhPCfwCwds32+GUxpupVldiNLd7F1O9nU+kXN5VvE5j9jQ8CO3WEGoDYWwlMdd45YP3Y0HYWeVJQ+jeboUlS/lQTcFhXPCjvyTOMqPRzh3ENs/KUQHa0hFCA724mh9ExySezX18hwU7mai4dHoA6V3uM8/KjbgYAsTVeGEQ2FJKV58RubCgaVb79EGNElpC7UWOZssKJO77lCSthE7c4l/hOPlqRSWHbGu9wKX21B32B52CcPjUmZBcbb8kwprVPIRCMckFzEPmVD8N5aYZ44ioPeN7fBvind5MRVlLnztuvfFnVh4I07Kp0R5VPSKBXm66PuSKC7mkhdlLioU5JGCdFESl1SMp4yL5fW8KUG586O7ugQ2fTiNUtYvS8Jp7Mxuwd5n4u77aTf277JhpcyOEOlRnoesDVVQAcSn73UXmg/ZwmXooVzs/ZtV6N3jRyEXLaK9j2sPiMek8yzvXY022H7kh4Zd03/vBux8agB1Q2G75jlegAqEy0Xy8jN5xlOOxTgdk3bk8I9kPG5BJvRKquDechi1BdLopDh7yeuinWWy95nbEr4GxhhMsCZoS02UCddJjET1TdrnYqSzq2nTU9qVkywuU1HfjKKgHk4YjzSMLw/CttGV04i90iiC4C/sqPhBJsoPJZ/XHht3fo0K+AoiuoXliduOypbFsNYxXSIemd0Iwm+hVk+sm3biwjgC756/hZRLgk+UcQljlunbj6pR+x3Z6plDTthecMLYYoWJlTnP8e2wq2tRI1soRWwQnjei5RUT1AEXGrbth3P7IbRsYcVLNNYDyDtZDMPo4/FGfjVGXmrB1hVsN+19efhyNC/fG76H1FAaeO4kimWLBnjby1F9uzx83zGEBXr3Y4fGVvyTZEJG8ZYk9BPMkwsGAuDussIfFojZyEQryjuV9/w+IwsmuUQ/t1sjqoRleBT+QesPicv5RJlMI2TSpHhvlcOHY6Wx90rqBCVpy+P771Lns1jmUrmTmKL6aUrKnBIU5FH6uExRHk2wvExnGb9TNma+M6N2KgK3ESMLJv3uTpQ7lgbT2IZWwrQ9p4LnumN2dYrqm+lifHnAP0Y5oIn5OOKBnR0LfyiUDgke9J7tgfMjQP9MHvIWn8fzEWEc9MHZ6cHi5+RuMvk1TiPrmAWmyCK7ARbuJ91wXRhG5lojcv/KBG2ib8t3IZMRxpNefCudn6w7xZT4v8wwIK/SisrnwuJ0avyg6bDhm1bs3WoMf2FiBXLgfROy4hxR6/RGCN4ki6R4T6PVk4/Cv5zhiioC9xOdxMBwn2LUaJmf3Km8nxK/ddxupWvwq9JUpLONFO+tchTYeyV1gpK05fFNe5kUopgzRfXTdPhKTIiCPEoflynKoykpL1PLnbIxxF0AtxF35KWbYe6SNvSUo+C57phdnaL65u4gPG3J+XNRtYgE3Bdjfc3zUajlTehfZETeX5ugGTyKhq4B6SRDpYVps1wUM7z9cOm0eDAiij93wvbyfvSO6LFuyzoY4ML+l+3zYkHDyQvju4Sp8X+pgjY7B3qpYEyVH7SMR3NgigjhIYGJ8Cxo4ofB3HMv8KE/gTAOwNnRjMXPs0I8K15agiAIgiAIgiCmlgwYd1TD4NqPEmsVqqp2o7IdMJdHRq0G4f5xEwIvWFG63giDwQDTllexTp1ilj+fVnrYgZUvbBgdiu0914qBr1ZiL18vhl3DWFCKyhczIfjm/jzkOSOMRW4nzrDx+L8cQ2QBiDgm5wftC+nfONQJnCHx3mKv+e7pLSYIgiAIgiAI4g4TgPudejj+kIvi3RZYy0qRv9QN25He8MhXCPB/pIZhhbzDjrvuWyf9HQ9f+fwALhorURxZa4kdG/gZsO4J+dROFXTPFCJnBdc1fDh3AQpk28FzY7v1ZitzRhhPh//LafGDtkSDZRiEP35l65vsB0sXx/VOh3uLH6TeYoIgCIIgCIKYv3hPo+myCZV7CmHSaaBeZkDuLivMQ3WSr/kAhKuZyIxxl8lkrSpBxxtTN663wyufV2+Tr3ye+BpR9Nh0/DiOyzbLHOq8mzPCeEr8X/LFt7YXoKJD8rE2JX7QfOiyFmD729ytEUeLrPVO9A2E9yIMevug02tjhTH1FhMEQRAEQRAEMTICrybOpz3XNyuYzBV9zaux7Ak3BiI++ST8PtG7swzuQacOtuF8WJkojr+eLtuN/l/HXkNcoEwaICvOD5dvc6jzbu4MpZ4K/5cZWpg2bcWGx6QhCFPiB02DlV/disK1WqngZcD47Fa4Tkb9TQZ+0Yb6U1oUPSUftkC9xQRBEARBEARBMB7SIc/TidOXoiNVA95udL5nhHEF70RTY9XTeXC2dcET0bVM67SelDr8RILwvWdD3Sf5qH0lR5qbLCcDhuxCplNk1xhyoXlPJU4PSvtzmMm7a5pGxufHmDEl/i/jmGo/aCJx/iYfMqG0woK8FbKLeh0oPzSCsin2WxzPXeGWgbiroDIxfVDaEnMdKuOzH8rD+ZMGlNczz3jzIJGv+cLdZTJ/9EF4O97Egbf7oVquwvD9G1C5Gag4I7lrEl3R1sEphZZjHvVJHtUpwYUa+G+pkLt9L0rXy/3i373MrB/jaWTcwjjCVPi/jGda/KAp8Dc5zZBRJOKhMjF9UNoScx0q47MfysP5kwaU1zPPhPMgna/5KfGRzXXKCBaMRy/dBcysH+O7kanwfxnPtPhBm6P+6wiCIAiCIAiCmB7S+ZqfEh/Z/BqzSxRPlrkpjAmCIAiCIAiCIAhCISSMCYIgCIIgCIIgiHkNCWOCIAiCIAiCIAhiXjN3hDFfHCviYCseme8tvuhWINl2KxxmFPY7v9cN7/UAgqK7JoIgCIIgCIIgiBnidhDCoCesT6RDY2BhRjWMdGhCcA0Vr4/i4Qt9MR2VUCsxfeb3euATFMZCptnSwTXdVOuzObMqtXDuILafN4WXIpeORfAcL4BjaQv2PuNHW0EF7NLxMbxQi45tevaHH65GG2w/8iHToIX6dz64h7QofMmC4rUpXDvNQmhFQiIeKhPTB6UtMdehMj77oTycP2lAeT3zjDcPgl4HDlY74NcyffKFn+kTA/b+vQWmB6QAjOCVNuyvOY3gcg1UN/3w3WuCpbwYRlmY9ATgO2eHrbYLnlF9lIggvCeqUN7ikbl7CuO/0IC677iAJ1g8BB989+ej8rWt0KdYNCyq2dKliYDeN7bDvyn2nhxalVoxemzt6ECHuLXA+jRgqmiR9tkmZnqQZUodbEPrUHO8BYdralDzVguOf2cdbrxVh7aPJvXdhSAIgiAIgiAIYnwE3WitdmLlt+rD+qSuEce/mYnW7zrglYKIYWr6YTrQiNrvhMPUPuuH7ZSLSV2l+NH9nXI0/NtKFO0ySceS4O1C/U81yHlC2o/waTca3hpGfpMUj7caUfPUAA4cGU887jw0xzieq91oenclrLtzoY34ymZkLM9FWZkW9nfv7gwlCIIgCIIgCGKO8cs+tOnzkfNoVKBkrM5D/n096IsoYyZSFm/Kg1E24FZjMGGly8fkbpTAVSe6jthQdagZXed9cdomCM3GWtSU5CDrfulQQpiAbnFizTfNWJMpHZLwe1xwPcfiOtpLrYJ2fR7WMR3VL7uZcKUXjvqDOFjvgHMwQeej4EZ3ezNsr9nQ3NEL75B0fJQgfOcdaHjjIBqOdcMtSIcnCAnjOPh4fM9zJhgSdPNnZFvQUW6CTC8TBEEQBEEQBEFMP/dwiRmL6j4vPIOSIlQbkLfZCPnEz8BAH5xPakePCedtKP9HN1SGdSh6Vo/guf0ob3HL5iJrYVidfni3/2wzOlfsxKYVSTwds7jGoFJhAbrgHQzv+s/VofyH/chcm4e8pzQYPNaAzqvhcyJeByq22zGwyID8Hfkw4CKqv90Gr0w/D3Q14OigBqa/zoNRMwB7eZ10ZmKQMI5D8Dth0s6tecQEQRAEQRAEQcxilmUh9/0eOCVhyQle6UXneWknEdd7UV/vQ/FzRqljz4ue4wKKXi1F7moDDAYTCvdUIu+SA72figGUwa7bfESDnc/rxwh1jma5Hrp3nXDJeof95zrRLf3Nh3yfbgzALIvH1vJ1WPyhdJ6zbAMsb1ejdL0ROp0OxgIzzPd1wiUTz/3qdXh1i4n93gDj+lJYX5jcuF4Sxom4TfOICYIgCIIgCIK4S1hkQtEeNRyVu1F3xAF7/X78TQuwpkA6H88tD9q+2wSUWFGok459OgBXUAt85obbHdmuYXiRCz6/Uv0jwHnUDvVLRQlH2Iro8lBWMADby/vRcMyB5trd2P+zh5GbLZ3/jR8etQFZD0n7nIV6GJ+V/uaoMqB9YIG4Arf7Ui+62rvgvCoAf5DOM0yPZcUIc80Kg/TXxJgHwjiI4E3pTwVoluXA+Wu/bDiBDHE5chLNBEEQBEEQBEHcWTRPW9D41l7kr87Cqucs+H7NJugXAFmauKHPt7xw1Nbh47xaWJ+RjYQdFuBT3cC1Xw5gYHTzI/PJYmjvG5ECpSZwoRUNt4uQ9xj7W3R5Oyy6TfpiWO7aSQX9lho0HjDD9HgWTF+vxeHyHDx40wTNl9lpHo9FmXHTU1V8tPUofHXtqh27Yeu4iIFP2LM/ZoQxbnHsjMy4Ca6Zk/OuNGeEsfqhLKg//Bi+Mbp1EHeiFjMAAP/0SURBVAOX1WMLTBLU+jUwtXfh/HXpgAz/mYMoO+lJLJoJgiAIgiAIgiCmg+suODrcEBZpoTcYYNCpoQp60Hc2D7oY77Z+9B6uhnOFFZZn46aHLlkGg3cxVuUXonBz7Jb7iLJVlHzeLgjnbNi9bRu2iRsTr+eBtmr29ymPGCb4US8c57zsfjpxmLN+Gbv2p244h/TQLmEBeDwuD8AXM/LZD1/454wA3D+xQ1N2CPvKzCgsyIHxEe5+Sjot4fHJlxRj9/1kQPprYsydHuMVOTDr2mD/r06MjgQICnC11KN5QSFLTOlYOpbkoLhiAZq+24Ber5RbtwPwnmtA3bEM7PyqIeFYeoIgCIIgCIIgiGnhS5kYOVOHprOSGLzNdM5xO9wFG2AY1bRMULbUoXNpJWq2JZj/qzZiw+Ye2Ns90ZWor/eiblcdej+X9tOg3xZxfRvZwi5wuR/jiL9jlZqJ1tp6nPqFdJeAD93vtCJjyzqIo7rVq7BuoxOtHdF4+M+2onV0/nAGMtVqCMINaZ9d4vJpnL4s7Uj4TraiN9KZGfDg1NEeaWdi/FGIIf0Nn28Qi788uS7oqeTGb25Aq435BJKaWz70Hm1A04/cCK/Npob2mSJYd+dBN+YjSNgxtDM7kRPpIHznjqL5qAMuaSK6ZnUhzCUvImfZ3JLF5NydiIfKxPRBaUvMdaiMz34oD+dPGlBezzzjzoPrTjQfaoBD9EukhuFrFlhKZKtQX2lDgdUu7cgxwXpkL3J4b+2oXvIjcznTPMEsFJaUonjt2MWHhXMHsf2TwlHBm5iwpvJv6sBWWUdk4KMu2Gob4BS1lAamXZV4tUAXFeu3vOg6dAANH6qgXTgMdW4lCm9XoHuppM2uu9iz2uD4TAM9/FDl7oTJW4eAeB/pnutrgfYDOP27TASvBrGS3aP06cVQq78k3WR8zC1hHIHPBb41ggULM6CKXyp8nAQDAYwsyEDGHO0mJqNIxENlYvqgtCXmOlTGZz+Uh/MnDSivZ54J58GtAIJMn0xK5wQDCIwsQMY0ixyupdhNko+4Zc8SANNaSRbyUqLFxHtIuk8QfjthYTw3F9+6R8XSf/KimKNi15mropggCIIgCIIgiFnGFHT+8VWfp1sUc7iWSnkX9izJRDFHiRYT7zEFuo/cNREEQRAEQRAEQRDzGhLGBEEQBEEQBEEQxLyGhDFBEARBEARBEAQxryFhTBAEQRAEQRAEQcxrSBgTBEEQBEEQBEEQ8xoSxgRBEARBEARBEMS8JsaP8a9+9Wv88R//sbQ38/z+97/H/V+6X9ojpoObt27hvoUp1kgn5h1UJqYPSltirkNlfPZDeTh/0oDyeuahPJh6/oj9N1E/xjHC2OcbxOIvL5b2Zp4bv7kBrXaZtEdMB+TcnYiHysT0QWlLzHWojM9+KA/nTxpQXs88lAdTjyD8dsLCmIZSEwRBEARBEARBEPMaEsYEQRAEQRAEQRDEvIaEMUEQBEEQBEEQBDGvIWFMEARBEARBEARBzGtIGBMEQRAEQRAEQRDzmrknjG8H4fe64b0eQFA6NIZbAnxXvPAHkoYIcyuAwC3p73jYfYRBT+r7pCEYYL+9Le3EMwXXJwiCIAiCIAhiDsK0QiCZlggGmB7ywCdMXEUEh3zwXPFBSKaFYuBxSXCvW3543Qo0F4ProsS6i137uhdurz+5bpoi5pS7puCVNuyvOY3gcg1UN/3w3WuCpbwYxgekACxhfWcasL/FA81yNYJ+H1S5ldi3RQ+VFCJMAL5zdthqu+B5oRYd2/TS8TBBrwMHqx3wa7VQf+GHe8iAvX9vgWn0PmkI+NB7zIa6Dg/MdR3Y+oh0XCI42I2Gb9vh+ZPw9X33bkDla1uhnwY3Z7RMPBEPlYnpg9KWmOtQGZ/9UB7OnzSgvJ55Jp4HQXhPVKGcaZp4LeG/0IC677iAJ5geEnzw3Z8/Th3hh/NQFRo+0kDLoiZc9UHzfDX2fk0Xp5dkfN6Lgzv8KOxg9xEPBOE5sR8HuoPQalRMc7kB4z5YdxmhEc/HEvyoDVWvMO0Tp7uC3i68+XorfFwTQWBaVY38qn3seZPGhNw1iQTdaK3ph+lAI2q/U4OaOvbvs37YTrmYzJVgiWtryURp/WHUsDC1tkqs+ukBNF8YDcHwo/s75Wj4t5Uo2mWSjsng96l2YuW36nG4Jnyf49/MROt3HfBKQVLyaTf2v9yAAX0RSrOlYzF40fV9OzK/Gbn+YVQ+fhEHjsiegyAIgiAIgiCI+QnTNPU/1SDnCWk/AtMZDW8NI79J0kNvNaLmqYFx6Qj/mQYcvGVG7Vvs9+wah9+uhO4nh9ClSOiECbpbceB9PSpttWHN9XYj8oX9aD2fKBZM+/zgIjTPGqT9CB6cqj6NZS9JmqjmMBq/pccHh7uUaa4JMHeEMUvnxZvyYJR1MGsMJqx0+ZjUDeO54IDqBRYmQzqwUI+8543oer8PgnSIZSU0G1kmluQg637pkJxf9qFNn4+cRyMXATJW5yH/vh70KcmloAZ5b9Sg+JksZN4jHZNzxQXHfWbkrY5cXwX9xkIY32XXj0aSIAiCIAiCIIh5hx/dLU6s+aYZazKlQxJ+jwuu55hOGR3FqoJ2fR7WvetCv0yTBq460XXEhqpDzeg674sRzcLnLpiyDdGeXaaX1qz1wjMoEyIBP1xnmmF7zYbmMx4E/iAdlwj8dhBC9hpZL7UG+rUmdF/1SftR/O/Z4fyLMpiNcQ/DNJPRasVmQ1RzqZZlIYsPEf9cOjDFzB1hrDYgb3Ns93xgoA/OJ7XSMT98HwpY9R9iO/AzslbBdHZwVDwDWhhWpxnSwARtfAe+6r64ApOM5QYYU1ze/2sm0h+LxFliURZWZfdi8Lq0TxAEQRAEQRDEvMN/thmdK3Zi04okw4njO95UKixAF7yD4V3hvA3l/+iGyrAORc/qETy3H+UtbkRmAWt1eeg/745qo4AbFy8YYVwhCZhbHrTtq0CXoMe6LetgQA9sRy9iOHxWRL1MD/35i/BE5gzf9sN9oR9bH9VJBySu96L5XR12FiQYpq1SQ2fQIiqLWVQ+dMO12gj9EunAFDN3V6VmCV1f70Pxc0YpQQUIl03QfFnciSKmwMe4obQ3dlkWct/vgVMqXJzglV50npd2GP4LDjjaZRv/kiKdS4cguGFaGiveRRnOCvnHn/FI+uGSX5tt3VeUXp0gCIIgCIIgiFkJF5JHNNj5fPz6SGE0y/XQveuESyYN/Oc60S39zYct9xwXUPRqKXJXG2AwmFC4pxJ5lxzo/TQcImNtMaofv4j9uypQ9VoVdlc6gO0W5D4UPu9/vxWdj1mxd4uJ/d4A4/pSFD8WgDt8OoyuEJXbR9C0a7d4jYqyOvSvrkaRQR5rP3qPNEGzoyjN/Gcvutg1qqwlqDirRWVFbmwH4hQyN4Ux/5Lx3SagxIrCuA8TiOvqD5PJP6YoY5EJRXvUcFTuRt0RB+z1+/E3LcCaAuk8I3NpFrK+ItuWa7BAOqeI24lXbssUI5kJjfzafPvyuK5OEARBEARBEMSsQoDzqB3ql4pgSCYkdXkoKxiA7eX9aDjmQHPtbuz/2cPIjaxr9OkAXEEt8Jkbbndku4bhRS74/GH9EXAfRf2pEeTuKIPllVKUFmjgPtSEXnHkahB+nwumx7JihDmfvhozQ3iwG7YfDGDldvb7Vywo27EGQks9Tl2JahzhfTvsiywoeiKdCNPAsKUIRduLkZfRg7pG52hvtud4AQoKZNsbvdKZiTH3hPEtLxy1dfg4rxbWZ+TfE9TQZDvxcfyY9JEghrEYmfJ++jRonrag8a29yF+dhVXPWfD9mk3QM22apQkPMchYxr/AyLYV6oRfdRKh1pjg/CS++zqI4DCw+H4eyQxo5ddmm26J0qsTBEEQBEEQBDHbCFxoRcPtIuQ9xv7mro0Cw6L7oi+G5W6OVNBvqUHjATNMj2fB9PVaHC7PwYM3pVGzwwJ8qhu49ssBDIxufmQ+WQztfSMsgBenm/pg+tZeFGbroFFrYVhfCuv2AOq6+HDrAL8EVKq4Trl7VIjOEA7A1WGDekclitcboFVroMveir1WAzqP9oZF7ZALrW8DRQUr+cOIzzN8kx1ngmes26eI9jEhr9yKIuEgui6Hw+g3Hcfx47LtpYQrGytmjgljP3oPV8O5wgrLs/Gd7Bpo9Tq4PLErZAV+3Q/3Rh200n5arrvg6HBDWKSFnmeSjoneoAd9Z/OgU+5ZKiniEIgL/bGrrQ0NoP/y1FyfIAiCIAiCIIjZhc/bBeGcDbu3bcM2cdsN23mgrZr9fcojhgl+1AvHOaYilujEzjP9sgzgUzecQ3po+bzcJctg8C7GqvxCFG6O3XIf4R1wQYx4H8TiuHWwNEt1TAMJTPKq8aBWjb6rsjmljOAnA3BKf/NrBIYAtdihF0X14MNYeVkIL3j8qRddQi9sZZFn2Ybdb7ErnNjP/j4F8Wk+ZZrrvfjpqGqmlZjiG5KOLsxARoZ8m1xn4RwSxgG4W+rQubQSNdsSj7vXZedj8al2dF+VElOah2xeb4iZ2J2SL2Vi5Ewdms5Knfi3BbiO2+Eu2ADZomkTR2dCvtqB9vekFeJuM7Hf2ADf9im6PkEQBEEQBEEQswr9tg50dMi3FlifhujHOOL7V6UGPLX1OPULSesEfOh+pxUZW9ZBnF2qNmLD5h7Y22WCk+mhul116BVH1Wqh29iPzh+7INwWzwJDXnT/uBvG1XomS5lUWV0I1cl2aWg1I+DBqRM94rkwamj1evE3vshNgkwv/bgT/Vv04Xg8sjXuWTrQUmECuB/jiC9kpnv8x5rQfklgUjtMwH2Kxd0E06PRu00lfxRiSH/D5xvE4i8vlvZmnhu/uQGtVmE36ZU2FFjt0o4cE6xH9iJHWr0scLkNdYftcPEJ5moDCsssKM5OPIVbOHcQ2z8pjHE0LXLdieZDDXC4+TcPNQxfs8BSkthhdXIE9L6xHf5NsU65RYbcaPueDfZLXHzz65fCssMETSL3TpOEnLsT8VCZmD4obYm5DpXx2Q/l4fxJA8rrmWdyeZBYSwQ+6oKttgFOcTEtDUy7KvGqfNXnWz70Hm1A04/8yFwehC+YhcKSUhSvlZTM6Hl3uHdXrUXOJgvKNutHOxL9F5phe8sB/yItgkE9Sv9mFXr3+FEYEbVMdnvabag7EpkPrIFxsxnFX8+BNsn86ES6KzjYi6P1TZLmYlFZnoOiVyzI0yXvGRaE30Kt/pK0Nz7mjjAeJ8FAAMjIUDz3NyG3AgguYNeYBsEqwq4f+HcZmOSogJSQUSTioTIxfVDaEnMdKuOzH8rD+ZMGlNczz3TmQVqtE2Q6Y2RB8uHHt4Pi3OXkw5PZ+cAIFqTUU0rCKIBrIibLM1KuXh1mMsJ4bq5KrQDVZDOIs5BdY7pEMYePm590JAmCIAiCIAiCmE+k1TqqNHNy71GlPs+uzuf1ppYqSsIogGsiBaJ4ssxbYUwQBEEQBEEQBEEQHBLGBEEQBEEQBEEQxLyGhDFBEARBEARBEAQxr5l7wvh2EMKgB97rgdGlvRPCJ5yPcSBNEARBEARBEAQxB+CLVsnlzm0B7jMOONq7IC30HEbST57BNPopFaK2SvL7W3543V74U2iv4JAPnis+CLekAxH4ImB3SLPNKWEcHOyGrawEVfV2NH23HCVVbfDEJy5DcLdhf8k2bHvrfHgZcoIgCIIgCIIgiDmE59Q22P5nRO0E4Goqh92bCe3yLGgk30vc9VLVjt048AM77N8vx/O7bHBGfBQrRoDzrTJs22bDedEfcoQgPCeqsN1Sh6YTTah7mem0RpfkwimCH85DJSipbID9aAOqdm3H/h95owL7l6fumGabQ8LYi67v25H5zXocrqlBTd1hVD5+EQeOuKIOrNlf7pYKVPyPBSgs2SodIwiCIAiCIAiCmMsEERAErMnJhXG1Hhq+VPTnvWj+jh/r6hpR+x2unxrR+PUADp6U66f0BC60ohkGmKT9CEF3Kw58aEJNfS1q2PVr2b/rfmOD41L06v4zDTh4y4zat9j9WZjDb1dC95ND6PJKAe4gc0cYX3HBcZ8ZeasjrqdV0G8shPHdHvSNfmIIItNgwaE9hTBo7pWOEQRBEARBEARB3OUIbnS3N8P2mg3NHb3wDknHJYQrvXDUH8TBegecg7LhxwEP+10nLn4C9P+ED6WWem1VOuR9rxQ5D4ihRDTL9dC+64VP2k/LLTdaG4dRvD0fWdKhCAEsRuFGI7QR97b3aGBYuxKuq9E+Y+FzF0zZBmikfSzUY81aLzyDsX3EwSH2DEdsqDrUjK7zvnEJd6XMGWHs/3UfhMe00UTlLMrCquxeDI4OB1BD94QWEelMEARBEARBEARx1+N1oGK7HQOLDMjfkQ8DLqL6223wSvrXf64O5T/sR+baPOQ9pcHgsQZ0Xg2fwwINsr6SBc0ipoaWZ7G/NcjkxxdpYVihlvkZDsL7czeGt+ihk46kJgjPySb4v26GaYl0SIbakIfCtXJ1FsCA2wnjsugxrS4P/efd0eHVATcuXjDCyOI1yvBF2Ot7AMM6FD2rR+BMFaqPe6LDraeIOSOMBcEN09IYWcxg2XwP8PFnNJOYIAiCIAiCIIhZyrINsLxdjdL1Ruh0OhgLzDDf1wkXF79BN043BmB+tRS5qw0wGEzYWr4Oiz8M/xQqNXSGlXiYqeEHs/j5uI5CwYXm16pQ9VIJ6v25qH3BIIllP1ztvIc5unVfifbVBn/RivqP8lH8bLwGS4z/XD0afMXYsDZ694y1xah+/CL276pAFYvD7koHsN2C3IekAJzLAazaLnu2CitWvtuK3k+l81PEnFp8i69alohMVfQ7CEEQBEEQBEEQxKxClQHtAwvE1aPdl3rR1d4F51UB+AM79xs/PGoDsuRicqEexmelv9ORkYV1W4pQtGMnDP5m2NojvbGZ0HyF9zDLti8vEM8g6MWpZjfWbc+NHbGbhOCVNtQ1Ajv/tjCmNzrgPor6UyPI3VEGyyulKC3QwH2oCb3yBcB08c+WBUO2CwM+LtI9aCsoQIG0TYY5I4zVGhOcn8T3DAcRHAYW30+DpwmCIAiCIAiCmJ1wYclXj7Z1XMTAJ4DmMSOMeunksADfosy46aIqKO4bFHuUDTCszoG5woKsDrvUG8vEOD8u23RLwhf1/o969DxpxgZN2E1TIDCML9jxIP87rq8y6HXg4JsfI7/OGjOfmS+efLqpD6Zv7UVhtg4atRaG9aWwbg+grssdHSqtWRz3bBnIXAQIt3gIPTYdP47j0jYZpkwYi4mQwDXSnYJPFNdd6GfJK2NoAP2X86BbJu0TBDH1cB95okGUbQlsQVL/dKMEERB96AkI3pYOJYT7s0vvZ0+0SWn83iW1W0r9od8pFPpdT26HU6St5Hcw0Sa/Yzg9484nyCdF+Xw9vKhG0nyeIn/0wYDkNzFRXBI+d4Jrsbj4ve7UcZmMf8Z4RH+NCdJW4XumKC4Ci4vXP6bhIqI0XaaCVPnHz6VLKwmxbCa9TOJySkwNdyp9Z0U+3mLC5Erqd28Uxe9Z2F662ft6tz2/+N4lfEdT1DcR2PP7vR74hBRpJYbhtjd5GKV2NWX5UWTjed6y+A6liAuvb5TY+AkTgPsndmjKDmFfmRmFBTkwPqKB6qZ0eskyGC4PQOxAHcUPn0f6MwmBK91wXIhbZmuhBtrlbghxC3vFwtLEw9LkeBW2bdsmbfvRBidsL8ldRDGu98JW7cTKVy1xopgTxIj3QSwWJzxH0SzVsd8J0QW2zg/AH5P8/NnUyHooPA9ZlZGBDGmbDH8UYkh/w+cbxOIvL5b2lBP85Uns/9Y7+LeiAzix5c+ko5Pnxm9uQKtVqmr96K6uQF92Dcqe0yLjth+9hyrQqa1GzRadbFK5xJU2FJzSoGVPDmRTu+cdNwQBi9UzlQIB+Nx+ZOp1UNNo97uG8ZYJz/ECVByTdiK8UIuObZHPmNw/XRUaPmKGll1WuOqD5vlq7P2a7L28zgzp3zXA8yda9j4yY+vToLB6Lwp1cQVDcKPtrTrYL6yE9che5CRY6EHkcyfqXjmI3sesSd/x4EdtqHrFDk9MXNlx/lWz2gG/lsXlCz/cQwbs/XsLTGOM+fiZyPvG/a7b6uxwpXgWTrLnSZe2wrmD2F7rFP+OxSRLYz5MqQJ28XgUc10Htj4i7SjJ5yE37G/UofcLLTT3srh8pkdpXNpyf/QN32bPwePL0t937wZUvrYV+oVSAImU6XLLi65DB9DKnjUSF3VBJfZt0Y/GJeFzPx17Lf51fn/NaQSX88YHj4sJlvJiGEfjy/0z7seB7iC0GhWCfh9Uay2wlBhlw8oUpMsoQXhPVKG8xROXtkres/i4uAHjPlh3yeLC0sVRWw2HX8viwhqDlwUY9tTA8nQ0tkrSJRXjKePhewVheXtf7Fwyhnjuk8LYspwQAb1vbEfdTQsaq+OH84XP+TfFpiWRGuV5GLYLiCurU8+duk+U8dnqIHxnGrCfvbea5eqwHciNtTfxKHrP4u2lT438qn0sDZJddfxMpE7iKK5vPtOi6FuvIk9Wl/svNKDuOy7gCWZXBR989+ePsfGBy3Yc+F5v2PYmDKPQrgZ86D1mY0VnrE3lxNt4N4zY97elMhvvh6vRBtuFqF0VHtuLmnKTzNYwwXrsAOp6w2GEq37od8Xa1VSMJw88x7ejdVEN9m3Uivs8napfa8Ma8dkCcNWXoVVdiWqWJ1we+s/aUHWkG1klLdj7DL9HApvIF/SqHsCG6jLk6vivWN3Afldx6mFU1rI0H1dx4++qAxp5+4yXY1an3/uNmiRlV4p3hgWVLxih5qtXD3nR3VgNp6EW+9azdOSaraYTho2VqBx9tjpUdGWhui52WDZHEH4LtfpL0t444cI4wscf+0LDgcA4t38N/TdLeajmYEXor//rzxKcn/jG4zMuftcXat23M5Sfn882c6jyhx+Erv1eOhePpzWU/3pP6Ia0O1/5zY2ZTIH+UGv+gVDPZ9IucVcwvjJxI/TBm/mhpp99Ie2P5Vp3tfiuXZP2Qzf7Qy0WS6h9QNpnZ07vyw8d+MloiNAXH7aELJb20GgQxnBfS8j6jQOh9r6eUEvKcjMcunh4Z6j2zQMp3vGBUPurVhamMpT/Tr90jPFFX6jFbA21fjgsHWBXczWFLK/GxmWijC9th0N9/2QN7Xy9PdTX25LGXiV5HoVpG8/wT+tDZvn9bnwQqs1vCvUlz2YF+czzxRyq7vpY2me/6a0NmWPSlj+HOdTkiqT/F6H+d6wh8+GL7NcR0qdL/zvmkOVoX/Q3Y+LC7tTG6ogfR9NlDGJZqA51yqqha90HQuYfROPyBSuT5n2doY8j9czvWXq/bg7Vj8ZfSbrIGGgPWV+tDdX+XX6o1SMdE0n/nolxsbSE+m9KB9gde17PDx1yRtOy75/MISsrH6Ox+93FUJPFOr50ScN4yviNXvaO8vo6wfslnospy8m4IT4nv4711JiriOdi05JIh/I85HX4nUjfO3WfKOOy1fy9NTeFLkZeLPaOtzI7Vv/TqB2IJ/17JtVj8bbb3JLSDo+X8dVJEVLVN3L7zZ6C2SXLq8xGSvuhT06Hqs21oR6/tM/s0sddzK7KbTyzS/XfiA3Tf9QSMv9TH/srjCK7yu/1jcpQU+/FUGdNgvIj2nhLqOXDaIJe+wmzO9//YDQuoh16/bRMS4TtqjxvxfpSXg/4e0K1rB2R0MYnYFx54Gc2u9Icyv+GlbWHWBlq6wl1ym3czQG2z3SQuSxUJp7vD118h7UBeiP3SGwThz9sDx34RtiO8m3nPlaeR9N/PIxt1/ez+0euG7PJ6+6bH4d6flgZMkfOsfjXnpTVVZJm6/+XQ6Gd4rPlh8yVyeN444Yg/TV+Jj2U+vqZd/DTNd/A1/9jXB/4TLDIgK3Vjeg4cRzHT7agpsQETcRvVjyPbEWHwi/gRBTB3Q276B/Njm537JzuwFUnuo414OAbDbCfcUWHL4q+01zwRfyPdXilYz3oxzVcfNcBx4WoPzNiNhFEQFAjMyP5J8X0/ukECJdMMD0e/bqqenQNjHyY1efSAUbwvlWw/MNeFBo0SOWFPHi5FQ03i7EzL96bXhT/e3Y4/6IMZmOc3fplH9r0+ch5NDoUJ2N1HvLv60HfHXc0r9zvetLnUZi2sXhxuq0f+Zuyo/bxVgCCOhOZKb4cp81ndr773XUoXB/+0s3RPLMZhSMOuD6SDkyJP/ogNKutsBYYovORFmqRtUJe5oIYHhagTlFu+fitxZvyYJQNWtIYTFjp8iFirabSPyPvmehucWLNN81YM6Y6Tf+eBX47CCF7DaI9Khro15rQfTUyRM6LvhMrkf9X4a/tIouMyNuoQs/PI4VbQbpMNU8XozjLgfoTXnb35CStXyRMO4qRdbIebR+lugox7QR8cHZEfKw6R4d1Bln+Od7z8NdKhg+u9i6MNiWS/DaGIAvT3g1P3BBP3wUHuuLaJHcKD7u36gVmKyIvFnvH8543ouv9PmaBE6HgPfuUlfdPimCWrfSrenQzrNY10IxIB2aIpPVNMIgMgxkmvaz+NLD65soAa/+F9/0eF1zPsTp2tEdWBe36PKx714V+Kb/9F7rge94cE0ZfwGy6UYPIoyuyq0EN8t6oQfEzWchMpAWGBAwKT2HNo9F80DzG6sszg6P+e1W6PBzamSPTEhpo9Vp0eSMhBLjOdmHdptxoPfBADjZvCsJxaRoaDQ8YUVzTgpP/UI3qt5jO2ZKDvD2y3t+FOrbPdNDbtai18fN6GLd1SL3FHDVy5OElMh4txN63O3CSz9E92YHGavnIqPGgx9aO2NF8enb/jo4Em1yDsTo6p6QGLadO4vjxk+hoOQzrZlldJWk2/dMWNB75Pmr/4SRaaiYax9RMThh/9i9oee9P8Z83/mnS4SIzwsIM3Ml6fX4QhLe9ChWtPjwo+kd7GNdaK3DwTLgBGLjQgLLXuhHQrUPRlnV4+JNWVBx2hiuFm364jnSh+chpBPXs/JPMlIn+1PhQm0xodFnIWnoXfFghJgATXpdXIiPARI+4jH83XJ/GtmbS+6fTQrexH86fR8VEwH0RrtVG6GXGVb3CAG20vk3MLQ9aj/hhftGU/KPX9V40v6vDzoJEQ1kZrHKLP666L5GQmW4U+l1P+TzK0lZO4MJpOP5kM3LlQ55YA8LNGjvDl7rD7hq4MIlrtKbL5+DgAJxPZ0EbE0kdVq4VMPBpOG2nxh+9KlxWFkm7nKE+uGPKHBP67HqaP/jR28HLbRd6r8Tlr9qAvM3yIdHsVwN9cD4Zjd+U+Wdk+M82o3PFTmxakahUpn/P1Mv00J+/CE9EMN72s2fux9ZH4waZxdf6qkx4PT6pAa8gXaacxVi3w4qVHfU4dSWxqE1Zv0RYsg7Fr6xE5w9ORdOAuLN87oTtZRvc9xmwjuWT4T43bGV1cH7OitkSFfxvnUafTNAG3T2wuVXQ8Fch7rf6kV7sf9kOd3xeqhZD5bfh9Iey8h90o+ctN1R/ktTqTyN++D4UsOo/xFgtZGStgunsYPS9jyH9exbwDcDFbaHgkYUJQmvQQ5O2UphGUtU3Ki1Mm3Mh08WAtx8unRYPyu1xvEhVqbAAXfAO8p0AfB+5xPQUrvBVl9mzd/TCc1sLw6OaUbuvyK4uN8CYqkgs0UL/yAe4+Iuo3fEz+90v89+bsSy60JTILS/6fjYctatBHwbeNyFrWWxq6PRGCEw8T5f1FOfTJqoqInAdFDf9SAlprzvd3KNCRroIKAkzCSYhjK/jffs/4QHz8/izCSQ+McsYcqHziAbFe4olH2I5ML9sgSEQ7j3JMBSipm4vtmYzg6LTI2ebGevOMgMzahWCMD5vQV42++0yZtrE1e+y8CATxg/rpWPE7EMYxrWHWAV+3gfVci1r4vbDsacaze5ooyW9f7oMGHdUw+DajxJrFaqqdqOyHTCXK1v+Pwp3Ml8P78biBIs7RGANkSNN0OwokvWsyViWhdz3e+AUK+gwQVY5d56Xdu460jzPuNPWi9PH4nqLGcLvrkHzaxecV1XQLl8MeByo2NcMt6yRmy6fA0PMUizXjP1gwRpJ/f6woZhqf/TeDvbMr1WgZE8vtFVWWZkTcMOnwfmfOhFckgXNIj+cb5Zj/5m4BUjksAZhfb0Pxc8Zk4ryCftn5I1NZl93Pp9kTqKC9wy6QlRuH0HTrt3ifSqYIOlfXY0iQ+SKWmStd6JHvsjKLdbo7pLPc5xAukwFCw148VsGfPDDxKI2ff0SRvXEi6h88gM0nYq4GSHuJJ4zDRj4apnoY5WvXGvkK8u+EEDDu24EMwwwbXGh93Ik05i9vtyNrKfDvX7ec60QnreO/ta0eS8qv+qC4/14aZkBQ3Yhus+5RkVH0NOHbp0Jhrh56ncG/tHKBM2Xpd0IYuv6Y9xIaLbSv2fBWwL0Q07UveaA/34ttEsCd+ZdTEm6+iYOZl/aDjuw8oUNo0JTXCj3XSdcMtPlP9eJbulvXi4CQ3rccNah6pQfmdzeBVg6lO9Ht6xeVmRX06JDYZUZI80l2F3F6gprCeo8RlRvjfjvjSJcaA7fZ1c9/M/Vwhyxq0MCSxWWh/Efmu+5F/jQP1pGidnDhIXxb53v4J3/YzeeH610iblM0OtB90YTVsm/+i0xIO9rUo8KX8HuSyPiyn7u891wnODDpEcwMroKYCYy6QPK3ENthOXtRuwrK0TOaiNyNluwjzVw+5pOj64Qn94/XQDud+rh+EMuindbYC0rRf5SN2xHesWPLkoJfnQKTT9bB/NzyeW08L4d9kUWFD2RxG4tMqFojxqOyt2oO+KAvX4//qYFWDM5t3jTRtrnGWfaBs53onlpXG8xQ73Wgsa396F0cw6Mq3NQ+NI+JkD60HQmOlRMkR/CJKuCxiy+dzuxpJmIP3rNk0Uo2mJG8cYM9LzZBOdoXFiD6K1GHK4oRm42a4SvL8bev98J1SEHnIlW4eQNvO82ASVWFMav8iExcf+MApxH7VC/VARDMhup4D3DYDdsPxjAyu3sHq9YULZjDYQWeS9sBkxf3wv1Kda4q22G41gD9lvtgDFPOs8ZZ7pMIapHi1BmvIj6kwlEbdr6JYIK+ufLsMZVj1ZZLxBxJ+A9p8BTj8e+IJoVBqgvDWCQ580TuWIvnygWgh70nTEiVxxx4cfAz0agvccPt5vlsbRdu5kJl88/pjyoHjVi64dOuMXpIGGBbXxOvhjSDMD9yI4hM4mrnPTvmSBcg+f9G1jzX/Zi6zNGGJ/ZesfexWSkr2/kMBF9+AAuGitRLPtQCF0eygoGYHt5PxqOOdBcuxv7f/YwSwfpPP9o8IkHTmEN9u3ZGrZ32/aiZocKtpNOVqOFUVTfpMWH7rcaMKA3o7TMCsvuYqwR7Oy6Y21QhjhapQjFJQb4j9jQFjO6hTsoSoBa8vVLzComJoz/9//Cf28Gnt/4CCud4WXmh/lX3pHhJMvNE7OdwPAN1jjhw10S43/fhpKSCth7BzAQyEBW9ioYpHPE/EIVM4dVgX8672k0XTahck8hTDoN1MsMyN1lhXmoDl2XldoTL7p+0APDixugkWxSYJhVVkxkDXM3DTzIkAutbwNFBSujdou7OQjG2i0Nn8Py1l7kr87Cqucs+H7NJuhZwc8Sx/vdRSh5nnGlLcur4wMwx/UWJ4Y1cp80wvtRZKhY+nxWL1kGXPXHCfIggizOD0orck61P3o+DE7sfSqwwPq8gINyn4jxPKCHKbsbg6LfRhniSs51+DivFtZnEje9J+OfMXChFQ23i5D3GM9Gno/DoluRL4bZ3ymGBMe+ZwG4OmxQ72CN0PUGaNUa6LJZQ9pqQOdR2UeQB0yw1Ndj738yIuvxDbB8rwab+JKjiXryIyRLlymHlalNO/HUzw7gaFzZHFf9slCPTd94Cu7Xj44dhktMIwEIV1dCc7+0GyFzMR70johlXWVYg/wPe+BiZUns5WWiJ/yxnf92ARNELH9/Gd389xlRrFWNzisdRWXAmo396LnMSrYksI2PzdSoMzU02U58LL6HMkZY3YPFyFQarbj3TK1+EHhsDQxye/IAs2VP34l3MQEK688wfrjerkPn0vDqyLEymr3nW2rQeMAM0+NZMH29FofLc/DgzUivuxqLlwIrjbL5wwzN4/K5vwraFQoIXOiCbVExKktyYVjG8lFnwtY9VhjejfjvjaJaoguPgnjGjL27s6J2dYkGyzAIf5wgD95kldbSxQrqUuJuY2LC+Nqv8N5v/wX15f8Z/+//HN5ebvifQPsB9ncH/k0KNiOwhnBa/5fj8TUnEvYjx+cYpvKDNiG/p9w3ZaLKW7GPuzuDemkWdJf5V185LF3EOHnhPDGAvOrDsO4oROF6k2hkZnh9COJO8Klr7IIqQzeYWFIj4z6+o8A/3cgIvGMct2ugXcGq16GYKyfn87Avw7bXIr702FbdBpy3Yfc2G87zRsunTDwLvbCVRcPsfssJnNjP/j4F0dXfdfY8HW4Ii7TQs0rQoFNDxRteZ+9Cf+hKnmccaZust5jjv+BA95W48L9jAnZRhtToUZDPfJj6+T4MxPR2DGLgsg56Zi84U+OPnjXKEizOo9Zoo3GJLAgonokQwA2/Dgtivv7xXo9qOFdYYZEtghPD9cn5Z/R5uyCc4+U0ko+7YTsPtFWzv09JDigVvGcB9rzquI8HqgcfxsrLgvTxgqXLj/hCRxnQPsI/GHA3eUF43D3I00kLoilOl2mCi9pv5qP/e83oGVXz469fVI9sQllBP+qO9MCfrM4mphj+McaJ/l/H2okgE7vOZ5dJIkcP46YbcH7I7PWlNiYEV0m2SY1lT3ixmM/Z38zyWL6tly3AI0O/thA33nfD9wsX2p5dB6N8NNsdhS/GpIPLE7vQUuDX/XBv1CG61KAMBe+ZWpMF9XCQvdlyeG/qHXoX41FS34gwm3K8DrbhfFgltzpygh/1wnGOpZUkNPV8Gt2nbjiH9NCKw5GZQF2uZqI7rr3L7N013QLl9Y0C+HB1LImrH1UaPKyP+O8NwHPGAVdsw5cF0UI7alfDU1T6BmLvOujtg07P19GZIRT4s09NWPfcjf6zp5uJCeMVz+PEf//vMdsP/+YvAe7H+L8/j6nzZDw+uP9LW1kJqurtaPpuOUqq2uLmK3FfczaU7KpCw9Em1L3Mwp5IMxeJ+9+qKkH5d5tgr69CSZlNNhwvTPr7JiIA37kGVGyRNX5kCP/TNmp8Rre3zksv4gygMyFf7UD72UhrhaXlu29iW6OLPQn/wseMhBAxDOzc2dPokfZSM4xhpVaMuPtgjRH/sSa0X5JK5m0BrlOsItnMGq9ibRNe/Knzxy4IEePK/dP9uBvG1fpwpfGQDnmeTpyOXIMR8Haj872xCxQlZUkO9saveFhnDvuFjKyQyFc1jAvTUmEK+4Lt2MqabIwvZWLkTB2aIuWcP89xO9wFG6TnuYtQ8jyK0zZ1b3HmPX7Yf9gOV+QyggvtJ10ozI6s/KwgnxcZsW4LE3inImFYo+N4PRzLi7AuMvoyYmfe84UbN9wffWMDfNvHk/6steRntpjfJ2LcmR0/ddTBGuKGcFwyMhB02tAauQ+3x++1w6HOhykSF3bM3RLu9agZ0+shweuH73bi4apk/hnTp8vYFTtbYH067CN61D9o2vdMzRrnevG6oyv5BlmYH3fKFpJRI/PmadS19I6KReFSK+zufGx4QkpcRekyvahWbEXZ8wNobonMfZ5I/aKCbksZCgeaYb9r1weYa4Tn/jrbuuCJZBUTgKeO9iDv6VXh946he2IdbvzYBvvZrTBFyh07a/yrQvQcZQIr8lv+7n+vBHXnorYrBt0qrBNOw8auv5W9SwnfzzuELjsfi0+1o/uqFHlpPQLz+oh99MPdbke3VzJISt6zR3JgvscOuyyMl12j+Q6+izEoqW/4u/meDXWf5KP2lRzpY0gsKlYQPLX1OPULKa0CPnS/04qMLetGp6Doc8xQHWPpFUnPgBeOlmYs3miSwiiobxQgLlj4Xmf0Piz+wqXT6PSw5/lTvp8BVcAJW1s3vJEPrUFWLt+xY/gFgxSXDBif3QrXyWj9GPhFG+pPaVH01ExkVBCeE1XYbmHtmBOSzmHt9NHvjAoIertwcFcJKg41obVpP0p2VMUNHZ/b/BH32ST9DZ9vEIu/vFjaGx+/fb8O3/j0P+HElqmTxTd+cwNardJuAvbiWKshfL0exaKrD/7VqgoHhCLUl0mLpYhOrAUU1ReHl9Xn88b+7gBubK1HaWQOxK0AggvYyyCumhd2Ot21POpM23+uDhX/LHcoreC+vPeX/RVdRM2P7u9UoechMwo1TuwPFMY6SGd4T2xH06Ja1KSYLzkVjMu5O2sEtn2PVWhe/o2UvWY6MyyvbIWBNdr4i/Tm6w3oV+mROSRAv8sM9RtOPMydfKMXB3c4YZI7/JbgQ+Sq3uiGf+M+HI+kFzGjjNfhP/8w1PA6r8R4raCG4Ws7UfpiDrSR+ZK3fOg92oCmH0lzy9Ra5GyyoEy2FH9wsBdH65vgkNxtqJfnoHA3a9jK3CZFSeBAPhHcIfwpDVpSuGUTzh3E9k/i3r/rTjQfapDiwp/HAktJ7OrEE2W8aTuKgmfhJHoeJWkbOG/DtnOrUlyff1RswMEWJrzEZDGgsKQULz6jjTZIFeQzD9PdeFBs7PEwmqdLUflSHnTybI7YmUu8KufpXwrLjiSu95KlS6K4bLHCIl9JNeY+PC7FsJYVQh/peeLX5nNwx2CCVSp7nuMFqDgmHZbDP8hE4qQkXWIQ0PvGdvg3xbrUSPuesVrG084apUecUiNIA+NmM4q/LgvDxIbziA0NUlzUhkJYyuNcXqRLlzSMp4yL5fW8KUG5Y3VkdQlsetboZmU5Zf2yJJxezuwWmUsSiU+7sX+XDSvrxronIZKjPA+5La4ARtOX2YlzR9HQ6IB/IWsl3FIhd/telK6X2Qkpb+26GjRuly9yJPvtIi2CV4PI2lyK0h3c9sbfJ4z/vSqUHFuF2paIMJs6xmurA5fbUHfYLg4TF+1jmQXF2VKtEXTDXlIF95bDqC2Q+pCVvGdDHjjq69AsLUA23ndRCROukxhj6pvPeVuvDvLl/CLwD32RvAt81AVbbQOc4nBlDUy7KvFq3CrXgV84YPt+czTMDma/4+oS5XY1sU3lxN6H3Wl1IcwlLyJndJXpRHY1Ui4jxNWPD5lQWmFB3orEFj6eyeRBPEG3HSXti1HzWl7YfRSz+d11FRhYz3TOqBvEVLB3bXs9vrAegFn6Gh38hR0VP8hE+aHY9TPuZgTht1CrvyTtjY8pE8bTwbiEMWvEbD+qRu13ZKutDjlhe8EJY4sVJlbmPMe3w66OFZtig/C8ES2vmKAOuNCwbT+c2w+hZQvLfvElH0DeyWJE1xhjQri8GiMvtWDrCrab9r48fDmal+8N30MM4IP7UiYMq9WJG+bsJXMfeR6nV/Ceg6l5WZIxoReSD/9mpifRUvDBQAB8mfjwhwViNjJRI502728HxWkDKZfZT1G27jgxH8mmhqmsAMfNlKQtnz6RJg+V5DP/WPiHNHHh8f138g+KE0BpmZvsfZSgJC4KSG9jeR6NYEEGCyMdGQOPy4hqWtJ/Oss41S93hsnnoYIymBTptwry2X9mPw4MmXFo89Q31ydVD47nuZW8Z0rs5QSZyTpJSVpNSbtCAfw+I6y+T34ZJWWahxl/XMadB4Ib3Wdd6P/ZMDLXrsK6nBzopI8lgrsLPbeMMW4E/WcPokooQqPsPRHc3ej8wIVBLIPxqXzkGqT7BwV4PcPQGGQuEUVN04tV6Toj7iImI4wnvCr13UZ6/5cKfM1lGJBXaUXlc+HCMzV+N3XY8E0r9m41yr6Ia0VRnJyZ8CU5DpiRSmaguQ80arTMT9LmvRLfcynK1h1nrjXApyRtp8jHoEpBXHh8x9e+GIvSMjfZ+yhhinwvprex/D6pGm8MHpc7kf5TDNUvswUFZTAp0m9T5DMXMYHrLnR1APnZd1cfllhGpb8VoeQ9U2IvZyFK0mpK2hUK4PdJfRklZXpq4pISPvJ1ux0DiwzI35EPAy6i+tttiIzST+9bPwhvexUqWn14cG0e8p56GNdaK3DwTLg/POxKVSaKGYEP3XCtNkI/S0TxZJkzwji9/0slvuZU0GbnjA5TmSq/mxmP5sAU5/w7NTPkS5IgCIIgCOIuxn++Hgf+0YnMHaXj9FtLELOcZRtgebta9Pet0+lgLDDDfF8nXFel83GM8a0/5ELnEQ2K9xQjdzVfhDEH5pctMAR80lDxCF50vRb27VxxVovKCtmo2DnOnBHGIrcTTw6P8X85Ll9zjMjE/jimy+9mmJnzJUkQBEEQBHG3ol1vRc13LNj6xHxpqhOEhCoD2gcWiF5w3Jd60dXeBSdfdyKBtknkWz/o9aB7o0lykyaxxIC8r8Wvo6KBYUsRirYXIy+jh10nMseaz/cvQIFsO5hsgbxZypwRxun9X47f19xM+N1Myh3zJUkQBEEQBEEQxN0EF7tVO3bD1nERA58w+fqYEcYEK88l860fGL4BLFQhvccvJsC5y0qDCXnlVhQJB9El+pfXY9Px4zgu2yx/mWpq6Oxjzgjj9P4vFfia44tvbS9ARYc0ZHlK/G760GUtwPa3uVsjhcy0L0mCIAiCIAiCIO4SAnD/xA5N2SHsKzOjsCAHxkc0UN2UTkdI4VtfvTQLussDTMnI4YuGSSNfE/nM5x2LywH/UPioOB9bvk10cOxdytwZSq3A/2VaX3MZWpg2bcWGx6QBBVPid1ODlV/disK1sZPZU8IK2kz7kiQIgiAIgiAI4m4gA5lqNQThhrTP1MHl0zh9WdrhDKXxrR/RLGcjY2GD8L37JrY1Sp13TKhEfOZHJokG3KdgbzfB9Ojc6hlOxtxx18RR4P8ypa+5REy13804ErtrYkzSl6RSZnKpfuLuhMrE9EFpS8x1qIzPfigP508aUF7PPOPKg+suNB+ywfGZBnr4ocrdCZP3/8/e34A3cd37/uh3n2wUcuRLIkIjwoPC3nJzIsKpSC6CXSt5YrqfONk7tk8Rubz0JuJejJvanFzRJvKm2OVg2hqS2skpPvljN8XmbAtusHNj0drOaSz+xeYQsQtiF6s7tWhqNSAfgkjqafz3HIxcqrtmNLJerJeRXwDLvw/PYM3MmjVr1lqz1vrOevnVgZdsNMuyrR/WF16h645pDK0Zllc2Qi/pi8BgL440NMHuDk0TVS3Lx6ZXLCjUzp6uYbJjHI8Mu3AZ25q7VXY345lhG5tUKBLxUJ6YOShuiWyH8vjsh9Jw7sQBpfXtZzJpkN7usgwEfYEUuibd+TsYsmMcjwy7cBnbmrtVdjfjuQNtSRIEQRAEQRAEcetJb3dZBoK+SKVr0p3PUrJTGBMEQRAEQRAEQRCETEgYEwRBEARBEARBEHMaEsYEQRAEQRAEQRDEnCZ7hLGwOFbYDlc8wgRy6ZQwYZ1Pto2G3IzDrvN73fBe4xEQzTURBEEQBEEQBEHcBm5ycJ+ww97eBWnhaHmM+uF1e+FPoJUEbZREQWVEgPPBc9E3rrkyZpSD76IHvuHkHgR49hzsHly8Zrsp2GMO6bmpkDWrUotmj84YI8uRRyEsX25f0oJdT/nRVlwBm3R8Ai/USmaT/HAdqkf9z3zI0Wug+sIH97AGppctKFmTwrTTLIRWJCTioTwxc1DcEtkO5fHZD6Xh3IkDSuvbT2ZpwMP1djlaYcamVRpovqKDOu0iXAF43t2LfY4ANMxxwO8GDHtgfcmAkKLxMG1kh/rwLuQvEg9kjmDa9id7YftYDY0qAP8FDvqdNbA8KVczSbrrbCSM3IpdqNlhlMIowMN9dB/qekNuuEt+6F6KusfFNhRbQwqvpcVG5prkCePoMxx6X98CZ178cZaBjlVh35VnUPOtAmgke8X8JQcadnfjod012Phw9iwTTYUiEQ/liZmD4pbIdiiPz34oDedOHFBa334yS4OQdvFLdovlEHDbUNoEVL5uhk5cZdrP/ChF31PHYMkTRM7UhbH3ZxVouL4N1Zt1EGXTtV7s39YDw9t7UPCg6CQlIQ1nwCFrAdR3CUdCYez/2jGUrQkJMf5sI8rf16BmdyE0ght2jzprJ3Kra2HSik7GIXNN0wkTwE3vL4d1e0QUCyiXFaC8XAPb+y5MrZOeIAiCIAiCIAhCJrwHjvZOnLsC9P9SGErtYvJROnXJia7D9ag60IyuM74YncL/aRBc3mpJFAuooVtjhOOST9qX+AsPz4lm1O+uR3OHE744sZP0HgE3PnxvOczrJVEs8EAeyt40IXeetM8Qrz/aiP2vN8J2goU9aii0QluIA9vyJVEsoIZGp0GXNxxGDq6TXVi7jmmzsJsH8rF+XQD2817pwPRAwjgOYU6x51kj9AlsdynzLOjYYYwkPEEQBEEQBEEQxEwyT43cL+dCvQBQLctlv9XIYYe5M/XY8d/cUOjXYtPXdAic2osdLe7xOcOqpTrozpyDJyxEb/rhPtuPjY9Gd7OO4NyRevRAj7Ub1kI36kDVnrbxa8R71PQioBPuoQfORt1jcACuFSxcY364xLnPdjjOc1A8rIdW6oEWe3t3O8Br2fXM/4eutKLioJPJ3RDKpYLbqNG4o170/XokEsaADwOnjchdGjtiV6szgGPiOZOp1ukgYRwH53fCqMmuecQEQRAEQRAEQcxSFCpo9cvxEFPDi3P10Os1UMKLnmMcNr1ahoJVwjEjTDsrUXjejt5Ppeu0JlRuGUPTS9tRtbsKFeV16F9VjU36aJHpBr+iBGVPG5gfehg37IJ1RSdaTwt90sI9BlD43V0w5Qn3MKCwvBLmHA6DgnAeG4N3/gC69tXDeZ2J9wcV6G+vQPVh5qfoNxO+ehNq6nZhY54OWq0O+ZvNWHvSif44RcudbRbDuP2lBvifrYU5HMZhDn4w8R0/1Puuu4GP/CSMZ5yb07E2G0EQBEEQBEEQxAzw6QBcAQ3wmRtud3i7ipEFLvj8kpYZdKD+JwNYvqUMZa9YUL51NbiWBhy/GK11tNA/HN0pqEDuCiNcH/vAC/fAWqyM7mBWaJG/Ph/a+QD/xRBwoh85W/bAUmyEPq8Qlt2V0F9oQnd4lPN8NTT3jYmjct1nHLC/24N+jGEszuKPUuxR3oSSUj38h+vRFhPGG9LfOFRR47WngTkgjAMIXJd+ykC9NB/OT/zjQxBiEJcCJ9FMEARBEARBEMRtZISDTzGEq78fwMD45kfO4yXQ3DPGHPBwddRDtbUSJU/roVGpoc3biF1WPTqP9I7PUQYWY6EwLjsKZY4SGOYREO6xICfpNFLlvcKizauhfySqB3q+DqvzvPAMhvpy/afrUVpaAVsvCx+vRG7eSujFM7EoFjGBrtfD8JQZu7bnRsK4SI2lGIT/muhsnMD1EWDJwrhFl6e2ElTWCGPVg7lQfXQZvgm6dRADF1TIVctb8U2lWw1jexfOxEW+gP/EfpS/50ksmgmCIAiCIAiCIG4Fi5ZC712IlUUmmNbHbgWPCFI2AH6YaZt7Y2WtYvFDWH6BixqC7MTAlVh14/d5oNJqoFqihfFCPwaYP9GM2z6+Xw0jRhCIuZzHEFO0qvmCWPbC+e4ACqsPwrqVhe1pI/RLVRBkewhh0S87XIPSroRCrYFmPIwa5D7tRN9ArOgd9PZBq2NhlPZFvN3Sj8mRPT3GD+fDrG2D7b87ER49gAAHV0sDmueZYJC5rDkW5aOkYh6aftSIXq+UADd5eE81ou6oEtv+QY/Yqd8EQRAEQRAEQRC3EJUBz6zvga3dE+knFcwYvVSH3s+FHRU0Oh0cv3BEVpkWtNEvOtG/QYfI6GgVet49Dk/YDfPDdjQA0yrmQqmHcb0L9vcj9+DPN6Oishuill2Uh0IhDMdc4KSh0f7TNrSeN8GoFwS5CguXMIHLjQcAvpPd6JH22A2g4J2ob3PAGxbfAT9637Fh5AW9FEYlDF/bCNd77XBJap7/bRsajmuw6YnoMd48nB3N0u/JkTV2jEVGfeg90oimn7mlLwwsQzy1CdbthdBOGAOQzI6xAEu0U0fQfMQOlzR5Xb3KBHPpi8iPWxFttkM27Ih4KE/MHBS3RLZDeXz2Q2k4d+KA0vr2k1kaJLBjPK59/MhZxvRLIBem0jKUrAnPGebhaa9H3WGnNHRaDcN6M0q+kQ+NaIFHsmP8ej76ftwIj0IB37AappctET/YPRyH9sP2QQCKB/0IKApg/m4ZCsKaKE5/qfQmbCuPaKaAtwtvvNaIfoUOOcMcdC+ZoXrdiYfGbScnCmMZyrYa2K8w7NlONGJ/CxP5wk0eNKKswoLCh6MEnteOHQfGUF39zKTtGGeXMA4jzAUeHcO8+Uooxm1iTQ5hqMDYPCWUWdpNTIUiEQ/liZmD4pbIdiiPz34oDedOHFBa336mLQ0CPPixeVAmFSzCOklMGymZNpKOJELQPcyTxG7S3UPUX8Llic+LfqfUZnLCKLhJfg8BjvvTpIVxdi6+dZeCRViqiJePgvmTraKYIAiCIAiCIIhZjoLplZSCRdJG0l4yBN2T1E26e4j6K/l50e+U2kxOGFPfY6qQuSaCIAiCIAiCIAhiTkPCmCAIgiAIgiAIgpjTkDAmCIIgCIIgCIIg5jQkjAmCIAiCIAiCIIg5DQljgiAIgiAIgiAIYk5DwpggCIIgCIIgCIKY08TYMf7DHz7BX//1X0t7t58///nPuPe+e6U9Yia4PjqKe+aLFr4JQoTyxMxBcUtkO5THZz+UhnMnDiitbz+UBtPPX7F/k7VjHCOMfb5BLLx/obR3+xn64xA0mqXSHjETkHF3Ih7KEzMHxS2R7VAen/1QGs6dOKC0vv1QGkw/HPenSQtjGkpNEARBEARBEARBzGlIGBMEQRAEQRAEQRBzGhLGBEEQBEEQBEEQxJyGhDFBEARBEARBEAQxpyFhTBAEQRAEQRAEQcxpsk8Y3wzA73XDe41HQDo0gVEOvote+PmkLkKM8uBHpd/xsPtwg57U90lDgGfX3pR24pkG/wmCIAiCIAiCyAKYNuCZdki0TdATko7wDMrUEYLmmQnBkUpLJSOT55xmsspcU+BiG/bWdCOwTA3FdT98dxth2VECwwOSA5Y1fCcasbfFA/UyFQJ+HxQFldizQQeF5CIED98pG+pru+B5oRYdm3XS8RABrx37q+3wazRQ3fDDPazHrh9aYBy/Txp4H3qP1qOuwwNzXQc2PiIdlwgMOtD4fRs8Xwr577v7GVTu3gjdDJg5o2XiiXgoT8wcFLdEtkN5fPZDaTh34oDS+vaTURownVNstUk7sUTrCf/ZZtS/5RzXQ3J0iudYMexLWrDrqenKD6m1VEpkPmcypmKuKXuEccANW6kdC/ftQaF0if/EflR4C9DwkgFK4QATtBXVHDY1MLEsHBj1oO17+zC0sQFla0QXDD8cP6hCz4NmmNRO7OVNsYkp3seGu79bjY2Phq7hzzej8h0VdtSZoBWPpOBTB/bu6YHmRRPUp/eCfz4+gb2wW6vBfaMBJasE/wMss1ZhH7cJDeXSc0wjVCgS8VCemDkobolsh/L47IfScO7EAaX17WfKaSBomwNj2Fa7ETqhl+/zXuzf6oShaRcKJCHsP7kfpZ4CHEuhI6ZXGKfRUpMh/jlTQHaMBXhg4bpCGKJ0tFpvxHKXjyVPCM9ZOxQvMDfhXDFfh8LnDeg63QdOOiQIUfVztagpzUfuvdKhaH7fhzZdEfIlUSygXFWIont60OeVDqQioEbh6zUoeSoXOXdJx6K56IL9HjMKRVEsoIDuORMM7zP/I4EkCIIgCIIgCGLOwsP1gR0Lny+IiEWFFoVvliE/qndYvUwHzfte+KR9Ae5iL+wN+7G/wQ7nYIIx1LwPzo5m1O+uR3OHEz6ms6LhLznRdbQR+19vhO2EC/6Y4dJptJTATQ7uEzY0vr4fjUcdcKfUOAmec4bIHmGs0qNwvQFqaVeAH+iD83GNdMwP30ccVv5NtAsmanNXwnhycFw8AxroV6X5WsIEbXy6KO7xwjMoQ7ku08OQwnv/J0ykrwiHWWJBLlbm9WLwmrRPEARBEARBEMTcxduNVk8RTF+NEhYLmI55WBWlUwLw/saNkQ268VGt/lN12PHTfuSsKUThE2oMMoHbeUk6KfC5E/XfqYf7Hj3WblgL3Vgv9n7HBrckfvmzjSjf7QCvXYtN7PxDV1pRcdAZ1cmYRksFvLD/lwrYuVwY/7EQBrUPrTv3w/GpdD6eRM85Q2TvqtTXetHQ4EPJs+FhAxy4C0ao7xd3IogxcBlDcntjl+ai4HQPnIPSPiNwsRedZ6Qdhv+sHfb2qO2ER+jQlgXHuWFcEiveRRnOxPjlz4RA+uGK9pttjotyfScIgiAIgiAIYnbDiz26SXtRORead1eh6uVSNPgLUPuCPiSWA250H+JhfrUMBav00OuN2LhjLRZ+JF4l4j3VCu55K8qeNrDzehjX70LlP7hgPx3qRlTqTaip24WNeUxsa3XI32zG2pNO9MvUUvz5Tti/bMGuDUbRf8PTJajcqoTN4WYyPp7EzzkVrZWK7BTGwtzhHzUBpVaY4if9/kX6G0MOFIkyVSIWGLFppwr2yu2oO2yHrWEvvt0CrC6WzjNyluQi98tR2zI15knnZHEz8bJwOWIgc6CO9lvY7s/Id4IgCIIgCIIgZitCL6rXnLwXVZmLtRs2YdPWbdD7m1Hf7gmJzj/64VHpkfug6CrEfB0MX5N+w4+BX49Bc5cfbrd7fLt6PQcunz/kx3w1NPeNiVaA3GccsL/bg36MYUzWitEBDHgcWH5vAJ4o/weYqOY+9kf1Okskec4pa60kZJ8wHvXCXluHy4W1sD4V3fOqgjrPicufS7thxgIYwULkJJuNngD1kxYcemsXilblYuWzFvy4Zh10LDVy1aFEUy4VvsBEbTFDGlKjUhvhvBKfLQIIjAAL7xUCqYQm2m+2aRfJ9Z0gCIIgCIIgiNlLqBd1cao5twoVtIJOWJUPc4UFuR029ApDlUc4+BbkxC3CpYjqIOTBXZqHoSsDGPh9ZPPfY0CJRsHkL5POp+tRWloBWy87xyuRm7cS+tDFMuCFIIiWgaL9HxjVoOTxeJGf/DmnorVSkWXC2I/eg9VwPmyF5Wvxw5HV0Oi0cHliV8jiP+mH+zktNNJ+Wq65YO9wg1uggU5ICC1LiIAHfScLoZVvWSopwgR57dl+xIRyeAD9F6bHf4IgCIIgCIIgZikpeov5iw7Yz0Yvs8UQeniXMe0yzH4vWgr9hYG4xbT88Hmkn1Bh6WNeLNQXwrTeFLs9rWOC2gvnuwMorD4I61bhmBH6pSpRMMtDhcUaFQJa40T/49aKStsrPgNkkTDm4W6pQ+eSStRsjrdLHEKbV4SFx9vhuCTlBmkesvlpfdLlyydwXw7GTtSh6aS0XNdNDq5jNriLn4E+g17npLCMUqSyo/0DH3sixk0m9g81wrdlmvwnCIIgCIIgCGIWkrq3WDlvBM63WuHwhpVvAP6TNtiGzdD/LdtVrcTa55xo7YjMyfWfbEXr+OJbKhj+3oSeI8fhCTsQtMibpag7JYxoVWHhEg4cF/Hfd7IbPdKeHLRPmqE4akPv+KLCPDzHKrD93XF1zpDRKz4DZI8d46TGoI2wHt6F/EWhPf5CG+oO2uAShhOo9DCVW1CSF9+7HII7tR9briSwvXXNieYDjbCLa4uroP+6BZbSuK8caeHQ+/oW+NclMFQ97Ebbm/WwnRfEt+B/GSxbjVAnMu80RciGHREP5YmZg+KWyHYoj89+KA3nThxQWt9+Mk4Drx07DoyhPIU9X/63dtT/uBlOaZVn9SoTyraXwBA24TTqRdeBfWj8SAHN/BGoCiphulkBx7gdYyZ2Tx1B4yE7/As0CFwKIHd9Gcq2hrROwNuFN15rRL9Ch5xhDrqXzFC97sRDUXorTDItFQ5jv0IDxaURKJ7aBOv/pxDa+ZIDGc+ZjKnYMc4eYZwhAZ4HlMqpjUcf5RGYx/yYAcEqwvzn/50Syhn8UkKFIhEP5YmZg+KWyHYoj89+KA3nThxQWt9+ZjINBK0zxnRKUh0h6Ayw82ExOoEAeH4M8+Yn1jqilkpyTi5pwzgJpiKMs3NVahkopiqKBaaYGdLC/J9JUUwQBEEQBEEQRPYhaJ2UOkLQGUlFsYACSkEvJdE6opaaog5KG8ZbzJwVxgRBEARBEARBEAQhQMKYIAiCIAiCIAiCmNOQMCYIgiAIgiAIgiDmNNknjG8GwA164L3GIyAdSkiAB8+ndEEQBEEQBEEQBHFHEeB88Fz0IbmUCYC/5oXb60fgpnQoCcICWDOliUS/R6WdGNKEj/fB2WGHvd0JX6Lzoo5Lo/UmQVYJ48CgA/XlpahqsKHpRztQWtUGT4LE4Nxt2Fu6GZvfOgPB4BJBEARBEARBEMQdzagPjgOlKN3dCNuReux4vhT1pwXzrlEMu2GrKsWOHzWhtWkvSrdWoe1iEgn5uZNpp5nRRIGP21C1mfl9PNo+MTvu7cL+l0pRcSBZ+Hzo2lMFx6gaucsWI2fCAl8cnG+VY/Pmepz5XDo0TWSRMPai68c25HyrAQdralBTdxCVXzmHfYdd4wasBWPR7pYKVPyPeTCVbpSOEQRBEARBEARB3Nl4P6hHt9qKhreY1vlBLQ41mcG/3giHZLNY0Dquo/XwP83O1TE3NQdx6Ls6fFjTCvcEbczcvtsMPGaU9qcTpst+cg7qr+ml/TAeHK/uxtKXJb0WDt/BLnZFGB78xeVY+zUj9Ku0iDdmxZ9tRTP0mIlQZ48wvuiC/R4zClcppQMK6J4zwfB+D/rGP4EEkKO34MBOE/Tqu6VjBEEQBEEQBEEQdzABNz58bznM63UIqx08kIeyN03InSftf+pE15VNMH9NLR1giujR9bBaV0M9Jh2QCFxoReP1EmwrzJWOxMK5HbA17Mf+Bhsc7sz6k/0f2OD8u3KYDTnSEYmAGgarFev1408AxdJc5Ho98Am9v58yPdfeg35cxbn37bCf8ER1cDJG3Wg9NIKSLUVIHOqpkTXC2P9JH7gVGkSyAWNBLlbm9WLwmrQPFbSPaSKZiSAIgiAIgiAI4k5ncACuFblM4PrhOiHMv7XDcZ6D4mE9tItCTnif4IbpIc6DXnGObhd6Lwag0eugjhZAox60HvbD/KJxQo+s0JHoba9Cxc845D5RiMI1i+FrrcD+E3FDtpNxrRfN72uxrViLCSaKFUyL6WO1GP+RG65VBuiEZ1CqkftlDQtTDtRaJpiXqRHW/EK4PO81wf8NM4zS8043WSOMOc4N45IYWcxgyXEXcPkzmklMEARBEARBEMQsZWwM3vkD6NpXD+d1JiAfVKC/vQLVh93jvaqBUQ66YSfqdtvhv1cDzSIezjd2YO8Jn+RCQBCYDfA+V4L8B6RD0Qy70Hk8F5aKjTDq9dCvKkDJzhIoW7oTDMeOx4/ew01Qb90E3XzpUEK86NpdhSprKSpOalBZURDq3FyggV6fi8VMGD+kY/d+WDUurgO/bUXDx0UoieoNj+CHqz30sWAqZNXiW8KK1InIUUz4XkEQBEEQBEEQBDEr4L8YAk70I2fLHliKjdDnFcKyuxL6C03oliboctxVeE4PYfV/2YWNTxlgeGojdv1wGxQH7HAOh9wEPj6Opl+vhfnZRAKTnfd64FihQuB3brjd0vYJxzz3wP9H9ufUfhQXF0dtbQgvr8WdtsG2wIJNj6XTXmroN2zCpi0lKFT2oO6Qk0nbFAS8ON7sxtotkoCeQA7UX85FLtumQtYIY5XaCOeV+J7hAAIjwMJ7afA0QRAEQRAEQRCzE+W9C9n/q6F/JEp0ztdhdZ4XnsGQBlKpFgMrmJvonuAH9DA+6cCguECXsChWD/QvPgO1aKaJbSM3xM7FEcn8ET/CBPh1P3y/H8DA+BaAZqtBHHat+qoFx44di9rWQSd4PexC69vApuLlzJOQ3yPX2XEmxiaag1JCI/RG640o3GHFJm4/ui4k7472/o8G9DxuxjNqKcz8CFioQ+agxMvC/sUv9pUZUxDGASlgsVvyR5pZ1Mt00J7tj1rRjDE8gP4LhdAulfYJgph+RieWA4ls1gWGQzb3uET27CR7dLFbVGmS8Hxom1DmjPrhdXvhT2WTb5SD76IHvuEkbuTaQ79VyLS7ntJeIHseoeKcYC9QZtyG7BzGnU9gWzBlOouEbBcmDEsYOfEvpmGydM6sfhKeLV1YPIMpwiIRiqPEruTGS0qbkywsfq87abykTyO58SIjLNNBqnwtnEsaV7GIz53UmxRpS8w6AtfccA9KiS2zXLxlyKl74khrizbNO387Ed+7ZPWNjLJMVh2bJI0TlXXilqzMYPcTzicMj5ywpGszMNKX8dPA/WoYMYJATDB4DPmZWJ0fEssqdS5UI4G4Z+EwdEWLecJk3c9D4WzbvRmbBVNKwlbdBpypx3bJ/JFK/RBUN3NhXG+CKW4zPMj8UCihVEZvklD/lIlurjdk/knye/tbTuDdvez38VCvsrC41gdxC2oxua1eBviHY49GYPHvYfF/rCoS5s170QYn6l/ejPp/mb4ps38VZEi/4fMNYuH9wtcIGfzxf6LuWwfwK2k3xFex4ydWPHm/tDtFhv44BI1Grqr1w1Fdgb68GpQ/q4Hyph+9ByrQqalGzQbtxMnfF9tQfFyNlp35CSadzx2GOA4LVbcrBnj43H7k6LRQpRtxQdwyMs0TnmPFqDgq7YR5oRYdm8Xvhww/nAeq0PixGhrmLXfJB/Xz1dj19ch7KQzL2VLLCs9onrSOv58Jz4sYYT28C/niIgwBeFjhu88RgEatQMDvg2KNBZZSQ9SwmwB8Jxqxt8XDCmEVc+MGt2IXanYYx90EvHbsr7bDr9FAdcMP97Aeu35ogTHRPJwMmcz7Jthdr6+zwbUiEh+JEO0FvmKDJybuGddYxfG9Rni+JCxmwSoXnxqm6l0waUOxLy9uPWgrroBNPB7BXNeBjY9IOzLSWbSt+Hodem9ooL6bheUzHcri4lawR9/4ffYcQnhZ/PvufgaVuzdGzVWKT0OWzgWV2LNBF7nP573Yv7WOVZnRRD+PBO9D79F61HV44p4lhP9sM+pZpR5Ypobiepq88LkTda/sR++EdIqPFz80GyrxatSiJIJNxzdea4VvPI1UKKraw8Iz/kQIsDprb013JCwwYM8/lcEwHhYZaSQjXuSEJRWZ5PFQ3gvA8vYeFAiNrSjEc1dMsXk5IRx6X9+CuusWHKqOH2IXOudfNzFtieTc3nZBKni43i5HPSxoeMmAgJBHzhhnpB2XWRzIqXviEGzR/mQvbGK5wMTvBQ76nTWwPBlVW8W98767jbDsKIl656fOZNM6WX0jqyxLW8aHSF73JS7rROLrP5EAvO9WYQerM+LL+fRh8cN1qB71Z8NpO7HNIKeMT0Wmec19uBS2uyyofMEA1V3s7qcbse9tBba9XQK9GO44PcTeG297HXa4jQnKSIkJmkjyI78WVmk+L//bNlQfBLYdYPEzwa5wciaU5cMuNL7cCuWOSmxaFZo/zLO0rq4aQFFMm8MOdXydHUNyNxz3J6hU90l7GSII4zCXL/uCIzwvb+trCX5jZ0fQm+jcNG1CeDLii75g655twaKiIraZg5U//TB49c/SuXg8rcGi13qCQ9LuXOWPQ7czBvqDrUX7gj2fSbvEHUFmeWIo+OEbRcGmX9+Q9idy1VEtvmtXpf3g9f5gi8USbB+Q9hkDbex9/cW4C1mM/KohaI56h2+wMsm8pzN4OfzO//lqsPs1c7DBNSIdYAy0B62vtgb7xw9dDfa8VhSsdkj3vtEXbDFbg60fRa4ZcTUFLa+2B6OCO2kyi9uRYN8/W4PbXmsP9vW2pCmvBoLtr1qDtW9UBove6ZeOCbA42FMU3PfLSNze+KglaLGkfp74uA0OfRisLWoK9iVPZhnpPBI8d9AcrO66LO2za3prg+aYuBWewxxsGk+zG8H+d6xB88Fz7GoJIQ3NTcFz4QPsPq3smoZfRdIs+LvWoPl73ZGwJOJKd7D6m5XBpt5zwc6aomCrRzoe5rOe4D5WPnX7pX3G1V/uCxZFh2Uc4dm2sfhn5+PSSYgXc3PUNSMsj1mswc5PpH2hHDRbgi19EV8npJGYL5mbjyIJIIblxx9G/JWRRunjRUZY0pBJHh/qZc8g1NcJ3i/xXExeTsaQ+A4L/liPT/BFPDchbYmU3N52gXzEPJKyXJw8mcSBrLonjoHj1qCV5e9xF36hvKkOdl+R9sV3vjrYGdUMvurYFzT/JFH5M3kml9bJ6hs55YeMMp79kl/3hRH8tbB3PUEBKNb7tcHa78WXBenDEspjrMwc1xKhNkN0fZO+jE9Nxmlw/XKw56eVQbOodYqC5sqmYI8v7rm/6A+2vxbWQ0ViXPZ/IZ1LRCJNFPbDXB4s/ya7z3+uDXYOpKpgEpOoLL/h6wk2VZrHwzfRbzn6ILmboSFO+pU5kx5KHfjfPP5037+X9TXklrFAj43Vh9Dx7jEce68FNaVGqJN91XhkIzpm4CtjtpPKphl/yYmuo43Y/3ojbCdc8IeHk/AeONpd8A2zv4frUdXhlY5F2Sk7K3MJeOIOIwCeUyEnPIwmAdznLhjz9JGvlMJ8mDWR+TCCHyMjHFQp/JiIF91t/Shalzf+DvNYCNNzBmjC7/xdaujXLIfrUjhvBeA+bcfyF9dBN77sgBp52w6M957i931o0xUh/9HIugTKVYUouqcHfTHzNG4F8u2uJ7UXCA7ceSOMX4l8I1Y8uhqGsL3AhEyMW2G4PKfKQU6KJEqbzuy84/21MD2tCe0z1E+th2nMDtfH0gEZ9ug9Z+1QvFAIQ9gJu0/h8wZ0ne5jTxsiwI+w8CpT108BNQpfr0HJU7nISVRPKLQofLMsZsVOYcqO5n0votf2FEhuCzKAwHw9zMblEdMUSj2LFw8GrkhDxtLZdBQY5jDIPYHVj0aeSL2CpeuJwUhYZKRR2niRE5bp5skSlOTa0fCul8VWcpLWLxLGrSXIfa8BbR+n8oWYXoRVYB3wXPPB2c7S5pCLvYOhlWFd4lxGCakNIJbE4d+j0jUsPe2nvLHDKm9ycJ+wo/lAFeoPd6H348hZP3v/77T2Qvq6Jw45tmjZIy9cx8q5qEGTar0Ry12+UDzeRiZtn1ZARhnPPJJd94Xhz3bD/qX1KJgwssUPR4sTq79lxur46lFGWBTaQhzYlh+lJdTQ6DTo8oZLXhll/HQzX4P80hq0HH8Px469h5aaEuQvjXvuBTqYdjI99B7TQ+924BCLS90C6VwiEmmisB9v16L2v7L7vGVFYbitlAGqp3ZN6MVXLM1HSU1LSK+x8E30W4eNHal6iwXkuMmcSQvj/z18DVg0hmunf4Gf/+zn+MXp3+FPd8o8nvlKZNTGJmQg2TRr9WHxmkIUPvEQrkbZNOPPNqJ8twO8di02bViLh660ouKgM9RQvc4qSla5NR/uRkDHzj/Oms7z4uyULYkvsYjZARNeF1iFwDPRIy6T72ANotjKQMMqlv4z7khlzrtx7qwBhocjkpZjxYn6L/4om3vjNWRCElWCKn0hTGsiAlDwd8DtZA2L8LFBDJxfzvLaGPznHeKS/nbWwObu0UKvjaoOWAUYX3wo7okW8rcKmXbXU9kLhAba5/rh/E2kKcW7z0XsBSYgYQODCTO3TomRqHjzx9X56dI5MDgA55O50MQEUovlazgMfBqK2/T26P3wfcRh5d/EuIAydyWMJwfH780Ps1+sfvKf6hLD23XKAy6+flqmhyGmFRCHYDIiykyEWAb+xo2RDToW6ihS2oJUQPOkicVldCp60X9WC03YoGQ6m44CizTQPfIhzv02Ivr8LG/3R4dFRhqljRc5YZl2FmLtViuWdzTg+MXEojZl/RJm0VqUvLIcnT85Ds9MzvEjouDgPdyD1kNHMLDIgML8XJZ3hGPN8Eqr34qIbQBvVHvAAdsRlp7LjCh8Ohf+n+9A9c/CXx69sO/cAps3B/ribSjSA+d+UD3+wYPzNqPZe6vL4tSkr3vikGGLlnmKwvWxQ7H5gT44H48rH281U7FPy0hfxgvIrPvGSfAxV8J/shmdD2/Duocn1o5ywqJcKqRJ1LWjXvT9egQbHw2XvDLK+JniLkVkbm8yhLnAKU0myUDQVDMlqgS/pxq+aWbSwpj70yAecP0r/mXsPmgX5+Da2R+jovaXrOlJZCWCTbPDatGOWcEqYdW3fJi/Y4GeD329VOpNqKnbhY15rKGm1SF/sxlrT7KG23j9FYDheQsK89i1S1lhIRagUXbKhGPE7IMbwdUHWSV/xgfFMg1r4vazRk01mt2RFrlyTQmqv3IOe1+qQNXuKmyvtANbLFFzCjkM+dQ48ysnAotYY2GBP4HNvWhYJXg0cSUYjf9UAxp9JXhmTThvBTDmVWKgax/qzwSg/rIaCo8dFXua4Q434pbmouB0D5xRBVngYi86z0g7dxzp7AUqYdhaDb1rL0qtVaiq2o7KdsC8I5m5g8Rxy31xFepPXHBeYo2AZQuB+HhjpEtnUZQtU09Ms7uAfn+ooEhvj174EGOEOn4dC7Emu4whqbzhOB/UZ8/BGVAh98Ec+M/UYcc+x4SeXllwLjQLthZfLkWDvwC1L+hjxHJKW5ATYO6PNcCuM+OZGHUtkMSmo4gWpiozxppLsb0q5KbOY0D1xkhY5KSR/HhJFZYZYL4eL35Xjw9/mljUpq9fQigeexGVj3+IpuMeFtPErcEN9bOvwvyUIe5DUipGsPwfpLbEqgKUfdMM/y/7WK4TWIpnvn0I1S8VwKDVQruqEOYXFOi8MHtalxPrnjhk2KKdABOkDQ0+lDxryEAwTjdTtE/LSF/GZw5/phPNiXqLBRHP2q3bno9afyKKTMLCnW0O1WsvNcD/bC3M+mQ5PVUZT8wGJi2M/7box/g/3tyBLV/7Kv7j3/09trxSjf+X4iA6fpX0tSZmMaJNs+eMWBk9FGORHoVfl75ozldDc9+YuHqi+4wD9neFYdJjGBvvjchBzh32VYiYBlQGWN4+hD3lJuSvMiB/vQV7WAO3r6lbauSwSst9BA3Hx1CwtRyWV8pQVqyG+0ATese/DrNG/1uHcLCCNZTy9DA+XTLB5l40YiW4JNGQqQjCoiV1h4Bt/2SK9KjxIxiCA/33mLHn5UIYBRMBL+9hDek+NJ2QQrvAiE07VbBXbkfdYTtsDXvx7RZgdXHo9J0Gl9ZeIA/3O6yS/ksBSrZbYC0vQ9ESN+oP9473rkaTLG5Vayw49PYelK3Ph2FVPkzx8cZIn86MJKOKYhbfu5lY0sTYo/+L9DeGHISdaL9+EIfesqLkacHOI3v2nTXYpqiH/cwk6idlLtYKtha3boPe34z69ojoSmcLMh7/qXrsc61G5dZEjVt1CpuOPjjeasQAa2yVlVth2V6C1ZyNxXckLHLSSH68pArLzKB4dBPKDefQ8F4CUZu2fgmjgO75cqx2NaA1qnedmFkWphq/n5C49sD9aiz3jknproByqRrzhNWa3S5xFFHXWR+4JOXCnUbCuicOObZoYxj1oO1HTUCpFabbKLbS1zdh0pQfcsp42XjRfWwA5gkfyjk4j9igenmTtCBVEmSGRSmOVtmEklI9/Ifr0ZZkdEvqMp6YDUxaGE/kAfwHw1fxy8v/S9onsgnRptl8BcLTX+Lxn65HaWkFbL0DGOCVyM1bialZEiNmK7FzWFml1dQH43d3wZSnhVqlgf7pMli38Kjrck9sAId5QAdjXtjmXjTJKsEI4qrSb1xGUZ01thdPmQPRAuDj0V+PWUPa8AS8H7OGl3RE/SQTGG/tQtGqXKx81oIf16yDjmX8XHWq/unbgBx7gd5uNF0wonKnCUatGqqlehS8ZIV5uC6BvcD0cRuBxdvjhqh4S5/OqkVLgUv+OIEVQICFebG0Imd6e/QqqPOcuBw/33UsgBGWujlJWyJq6NYY4bg0iT5jcXSL0LOVD3OFBbkdNvTKtAUZjf9sI+p+/hAq905cfTVEcpuO/Nku1C8oQWVpAfRLWRxojdi40wr9++GwJCI+jRKRLF4ysy85PbDwrtuGJ369D0fi7pVR/TJfh3XffALu147ATUOqZx+CCKzagu0HunDu96y0WLIchsdYGTcLSFr3xCHHFu04o17Ya+twubAW1qfkfYCbEabJPm36Mj4zkn3M5c+2ovHmJhSuEIIrhHdENNV0Y4T9lsqFTMKiWKQV7eManjJj1/ZcdB6Z+HE5fRlPzAYmKYx5/O7kz/GvcRqY5/z4m3uSSadbBGuUTM3+ZSJCNtmmbHczEYIN2BSVd1obd7cI1ZJcaC8MxA2VF+zCCQHzwvnuAAqrD8K61QST0BvBGm9jIUdENpPIHt3wEGuIq6C8R9gRhi8vxsK4KeTqJVrgGhe6Lrw4m3gmjGCXT7K5F0Xa3uJrvaivdmL5q5YEDRM1E71glXnsy8QPXQUWSAsSXWPP0+EGt0ADnVCxa1VQBDzoO3kH2kOXYy9QGLKnXhj35VoNzcOsEo+zF5gqboUFbxwX49x/wRoU4XiTk87CMPUzfRiIGQUwiIELWuhYeSGQ3h69sPCJFi5PbLcK/0k/3M9pEVrWi4fnhB2uuJGXPHcV2nuS5JsE8BcdsJ+NE4xCz+Uylj+EZ5BhCzKM2Iv01giK/ok1mOLbfjJsOgZYnYVFcemoUOMhnRQWRvo0khEvk7IvOY0IovZbReh/sxk9463OzOsXxSPrUF7cj7rDPfAnq7OJGUIF1WPSzzAJR3gkhnf3wPZAGQ5Ul8G8vhD5q3RQK5hSudNJWffEIcMWbQg/eg9Ww/mwFRbJZM5tY5rs06Yv4zMh+cdcn7cL3CmhLA6HdzvqzwBt1ez3cTG0MsKSuMxUqDXQXOBiPjimLONnBNb+ZpojoS6RbQM+pG2mxd50FjFJYazEv7/+L2h475cYlN4A/vIv8fMOFf7R8LehA7cBwR5ZfXkpqhpsaPrRDpRWtcXNVxLsX9aj9KUqNB5pQt13mNt308xFEuxuVpVix4+aYGuoQml5PZzRQwMZ6e+bCB6+U42o2BB5SWMQbNwdKEXp7kbYjtRjx/OlqD8d/33qFqI1okhlR/vJcBhYXL7/BjYfcrEnUWHhElZIcOHikJ072Y0eaS81Ixi5Be0tYoZYwCq8o01oPy9VETc5uI6zimQ9a7yKlUNo8afOX7gii/wMe+H4hQMG1uARKzOlEgFnPVo/8EkVKns3PmiHXVUEY8ywsTQ9msK7+qNOPFRVk8Tmqgp5z5rQc6QVrnCNds0J2zEXTHn6kOi4LwdjJ+rQFM7nwvMcs8Fd/Iz0PHcQwiqSHR0xW0uFMWTHsYNVzoKbB7Uo9HSiO5w+DN7rQOcH0YufCaSO25y7/LD9tD0Sb5wL7e9FxZucdF5gwNoNrOF0POyGNTqEuVjLNmFtOJ3D5Uw4Lwj26A81wrclEv/avCIsPN4OxyWp4JDm3pmfDodFCeV1J+rbHPBJTvhLDrQfX4iiNfLHISrnjcD5Visc3nABFYD/pA22YTP0QjW3KB+74uK/o84csr8dtVKmWD+k6kVigQ6/Q+G6iHcfh63dCOOjodRQLdVB90Fn5JmZS+58Nzo9LJ2lKjd9GsmIFxlhmWkUD29E+fMDaG4JW1ueTP2igHZDOUwDzbDdsesDZCtMCLGy5UOn9J4L5cA7NvSHTqZF6E1VcRyGxssRN7odbmnnDiVt3eOHu93GyhLprVqUh8L1PWLdEy4v/adtaD1vgnG8ouHhbqlD55JK1GxOPEf2liKnvpFTfsgo4+WS6mOubnNsWDs6WmB9MmTXfXyF5LRhUULBh8rM8cXkAswNy88jL+jHh8qnLeOnG9ZuqX+pFBVMc4i6ZOte2MN5i8H9S31iXRGFYG96v+DHgSa0Nu1lflRNGB4+OW0z+/krwWaT9Bs+3yAW3i8M8ZADj3979wAaWv8Vok5c/FWYXy7Hf5rGTyVDfxyCRiP3E5IXdms1uG80oERcel2YAF+FfdwmNJRLY/29dlRUc9jUUBIy9SEM2fnePgxtbEBZeJGEUR6BeexluEvY4eFqKEfXshrseS7UF+E/VYeKn+eiui48f0TGfYWvN+xXZFE3Pxw/qELPg2aY1E7s5aMMX0t4f1aBhuvbUM2Oi36wxt/+bT0wvL0natGiqZORYXFW+Le9WQ+bV+i3YcJBa4bllY3QM3EUMureiH6FDjnDHHQvmaF63YmHBMPbYGHf6oQxgRFuYYhc1esO+J/bg2Ph+CJuK5ka/BcKz8bXWKV/SWiRq6D/+jaUvZgPTXgo0agPvUca0fQzd+gLq0qD/HUWlEebqgjnrfMhQap+sgTW8ljzAvwZVtifWhln6D+C51gxKo5KO9EIQmX8GtaoPnUEjYfsEK2NqfQwlZbhxac0kYYHq3SaDzTCHnLAnscCS2ns6qCTJdO4HedivPH9xEwwpM8IDPbiSEOT9DzsiZblw7SdiYYok1Tp4laMtxON2N/CRFWyeJOTzsIHv0P7YWMNEcGN+skyVL5cCG30ix+TF4T4L4Nla6zpPf5CG+oO2kImYYSwlFtQkhedQqxReawO9UclEzEPGlHybUvMM0fg0Pv6FvjXdbBGrXRIgv+tHfU/boZTGq6sXmVC2XZWfyRr/ExIp5DfdafFnViEBqWUTonSaNMrlhjzFYnCYi59McpMh4w0khEvcsKSikzyuJhfzxgT5DtWR1aXol4XiqOU9cuiUBw781qw66m4+37qwN6X6rGcNYbj05ZIjvw0ZG2o4gogPn6vuVgZWh/KQw8WYNe3V6J3px8mQUB9nqA9IB6TzrO0dx2qR/3P/FAzP/13P4NtTwygbjhUronlPEL5Inn+mTqZ5OO0dU+ACefSKrg3HERtsWSuLq68VOlN2FYe9T4LZYnVFvodgxHWBG2pyTLpOokht76ZUH7IKOPHSVr3sbb3jgMY216b5GNEPEnK+bRh4eFpr0fd4fA8aTUM68tQtjXcJpBXxqciszQIlY2u/EPYJY0iCPzWhoqf5GDHgZAuSZQusbD3dksDblj3wSx9jYj3Q5a2uYPhuD9BpbpP2ssQ0ZqxxOXLvuAIz2e2DXNB/zUu8bkpbkJ4ZONpDZq/1x28Ku2KfPFh8EBRbfBDyWJ1/zvmYOUvYlwER5wHgkVvfBgyaj1yLtggGJpuk0yRfyYYXG8K9sXYsx4ItlvMwdbfSbtp7yu4L4rcQ+RysM8V2ktk+Dpk2D3+vjeCQ7/rCw6kNHadOZMy7n59JDhyXfodx42RkeCNcUPoxGxkcgb/ZaT9n28ER0bSGIcX8lbm9uMnhRhe6XdCWFimOy9PNm6nhRTvrXxkpKGcdL4hIywy8kLaNJQTFhkI97kl+VJGGqUPyzSl0STzy0zm8bRlDDEt3NZyKoxQRtySly4xtywOpqmMmiwz9pxyyg8ZZfwtI21YhHRKU99MkszSoD/YWrQv2BOjBfqDLVHHwrrihu/DYPvBfcF9B1uC3X1R97gxFBzouxwckXZFRN0S5a8MTXUnMzTESb8yZ+qLb8mxo3ULmBb7l0o9CiutqHw29L1keuxuavHMt6zYtdEQ9bVLA/2qFF+H5Ni4u52ksDumUIZ724m5Rtq0l1NW3EIb5GJ4pd8JYWHJqrw8LfYCZaThdNlWlJEX0qbhNNVPwn1uSb6UkUbpwzJNaTQt+WV6SVvGENmDUEbckpfuNnOHtKGnHTnlh4wy/paRNixCOqWpb24JoWlLzt+E+q8FePe5ibbmL3Wi8egg1E8UonDNYgy07EDdKemaabM3nZ1M46rUt5fpsX+pgCYvf3z45vTY3WR6+9F8GMeHu8lgMjbuCIIgCIIgCILIUpQwbK2G3rUXpdYqVFVtR2U7YN4RZ2v+o4VYu2MjjMIiooKt8FfN4A91wx0zjfjW2pueLWSNMBaRY48sjf3LCYQXgIgjY7ubGZCxjTuCIAiCIAiCILIYHu53GmD/SwFKtltgLS9D0RI36g/HmY/K0yM3usf+wVzoVS4MxKywrZ6CvWlhfYFiFEdt+09lh2DOGmE8E/Yvp8fuZuZkZOOOIAiCIAiCIIjsxtuNpgtGVO40wahVQ7VUj4KXrDAP18Xaml+QE7dAlhIL1V5hQGoUU7E3rcO6Y8dwLGqzfFXuAmJ3NlkjjKfF/iXvQuOWYlR0SLYrp8Xupg9d1mJseVswayQT2TbuCIIgCIIgCILIeoSpluo4m/aCvnkYsbbmPb7YTr2AHwNn8rFUsKgwTfamxfUuorcskSfZM5R6OuxfKjUwrtuIZ1ZI4+qnxe6mGsv/YSNMa2InuqdElo07giAIgiAIgiDmBA9qUejpRPf5SG8u73Wg8wMDDA9H9dheakXrybA0FkxO2dDz3FqsFJwwGXEr7U3PNqZgx3jmycyOMWNa7F/GMU12N5OR1N5YOht308RUbNgR2QnliZmD4pbIdiiPz34oDedOHFBa334yTYNEtqJN28vH7dGHdEUBau+yY5+DQw7TE4EVTLvsYNpFmnc87fam7zCmYsc4u4RxmFEe/L9L3a0f4Hkgk6XXA8zPvzA/Uy0/L+O+GXMzAH5UCOr0CuIwVCgS8VCemDkobolsh/L47IfScO7EAaX17WfSaSBoDqTRJem0ixw/ZkLbzDBTEcbZtSp1GBm20dLav4xnmuxuZky22rgjCIIgCIIgCCJz5NiKTqdd5PgxE9rmDiY7hTFBEARBEARBEARByISEMUEQBEEQBEEQBDGnIWFMEARBEARBEARBzGmyRxgLE8z5GMO/EYSJ49IpYdEtPtk2GnIzDrvO73XDe41HQDKbRBAEQRAEQRAEcfsJMA0zUf8EeD+8bi/88dpmHHbdoAeeQW6ixhE0VdLrYglwPni8/nGdlZr4sAr7cVqMbbK8CsP74Oyww97uhG8atFrWrEotLk9+xoiWnfmIX9vNc6wY9iUt2PWUH23FFbBJxyfwQq1kNskP16F61P/Mhxy9BqovfHAPa2B62YKSNSlMO81CaEVCIh7KEzMHxS2R7VAen/1QGs6dOKC0vv1MOQ0+78X+rX6YOjZCNPw66kXXgX1o9amhYd5yl3xQFVdizwZdZNHha07Uf68Rni8xjQMOvs802PTdV8fNNSU1JRsNu4+9thp2v4bdJwD/BQ76nTWwPJlCJ8WHVdyvg1M8GcYI6+FdyF8k7abEhy5rFVx/VwaTdjE0q7TseQLguP9Nq1LLQ4eNHR3oELcWWJ9k0V/RIu2zTcwAASak61A/vBY1x1pwsKYGNW+14NgP1mLorTq0fZzRdwyCIAiCIAiCIIgZx3O8Gt1LLWh4i+mXH9Tg4NuV0J1uQJdXcgA/HAcbkfOthpDGqTmIhpeXovugg8lMuQTgbquG8+FK6T61OHS0DDnv1sE+fh8ZcH70P2bBoXFtJmxyRbEAD/7icqz9mhF6URQzvF3imclCc4zjueRA0/vLYd1eAE3IVraIclkByss1sL3vYslAEARBEARBEARxC+H9cJ1oRv3uejSf8ID/i3RcJAD1KiusxXqMS5j5GuQ+7BWHTIsEAlDqzTDqIiJHqV8Nw8UB+IalAxKBQSfsDfuxv8EGh1u6XsSLvneXo+jvdZH7LDCg8DkFen4TpYxThpX5z4+AU6Uxn8u54WiX/OjohTccxk9dsLf3oB9Xce59O+yC/+yw56w9dH6SkDCOQ5hT7HnWCH0Cu17KPAs6dhgjmYAgCIIgCIIgCGKmGfWgbU8Fujgd1m5YCz16UH/kHEak02ASU/WwHpoF0q7AcB/cZw0wPCwN11ZoYFxfgChdzHRuP1xaDRZHX3epE41HB6F+ohCFaxZjoGUH6k75pZMS8SpSkQOvxwdRQqcNK9PNw8y/RWPwn+piIteOrlMecNHzhL12VGyxYWCBHkVbi5gf51D9/TZ4hcG7SjVyvywMBc+BWpuL3GVqzIMfvo+iBXzmkDCOg/M7YdRk1zxigiAIgiAIgiBmL/7TrehcYcWuDUbo9XoYni5DyQoebul8NN6OKlTtrkDpzl5oqqwoeFA6EY8gYA/asfyFZ6CVDol8tBBrd2yEkd1Hv6oAZa+awR/qhlucUapB7tNO9JyNGnzN/OntiswWlhNWjvNBffYcnAEVch/Mgf9MHXbsixrSvfQZWN6uRtnTBmi1WhiKzTDf0wnXJXZugYb5m4vFTBg/pGNhZMJfwSQ5d8EYunaSkDBOxE2aR0wQBEEQBEEQxJ1AAH6fC8YVuTFDj9V6Jjyl39GoH9+ETRvMKHlOiZ43muC8Jp2IwY/eg/twzlCJkjVx42Hz9MiNHj37YC70KhcGBoUdJYzf2AXV8Spsr22G/Wgj9lptgKFQdCo3rNqvH8Sht6woeZodzytAyc4abFPUw35GmrSqUELzwDxwgx64z/eiq70LzkscEDckezqZA8I4gMB16acM1Evz4fzEz65KABPMSU1CEQRBEARBEARBTDs8RpgmVCjmSfsSdymQI/2MRrlUL/bUGostsD7PYX+XO07b+OF6uw6dSypRvTlqxeowC3Lipo4qsVDtxdiYtPuAEZaGBuz6TwbkfuUZWN6swTod82WZGqoMwxpBDd0aIxyXQn3GgYttqNq6HfUd5zBwhZ1dYYAhxULZYHdW58WucZ0pWSOMVQ/mQvXRZfgm6NZBDFxQIVctbyl0lW41jO1dOJPgy4r/xH6Uv+dJLJoJgiAIgiAIgiCmHRUWa1TouyR22Y4TuDIQZe6Iid12Bzxxi2ip1BrgGhe1eLBkgWekCFYmihOuneTxMd+iCPgxcCYfSx8Qdth9ftYFN6eE5hFBgGuhUjA/3T0o1LJ7yQorD88JO1yxTsBzV6G9R5DpPNy/tEFdfgB7ys0wFefD8IgaipSdnWpodDEDwjMme3qMH86HWdsG2393wh9WrgEOrpYGNM8zsciUjqVjUT5KKuah6UeN6PVKWegmD++pRtQdVWLbP+gnflUhCIIgCIIgCIKYIbSrTFC8147ecOcd78Hxd3uYDA2TwzSrDU3HXeDCWmjYjeNH7DDm6SV3Afg+qEfdlSLUvpLPpGQSLrWi9WRYGjMR225Dz3NrsVL0RIWc692oa+mFX1osizvfCpu7CM88FpLZ6cOqhPK6E/VtDvgkucVfcqD9+EIUrRHErRI5KhU4bih0ksFf6Eb3BWknCdq8IunX5PirIEP6DZ9vEAvvXyjt3X6G/jgEjWaptCeDUR96jzSi6Wfu0IpoLPo1T22CdXshtBM+h3DofX0LnHkt2PVUfG8yyzSnjqCZZSTXp6EjapbA5tIXkb80u2QxGXcn4qE8MXNQ3BLZDuXx2Q+l4dyJA0rr20+maeA/24z6t+zwL9AgENCh7Nsr0bvTD1PHRoijjOO1kEqD/A1WWIq1oY69z3uxf2tdVM9tBHNdBzY+whTSqf3YcqUAtXfZsc/BIYf5GVhRhsodTE+F5x3f9MN5uB6N0n1UehMsO0pgEHuUQ6QNq9ArLPRcH3WFeqcfNKLk2xaYHpVE2zUXmg/Uw/6Zmrn3Q1GwDUZvHfh1oXACHrQV26E+HGv7mOP+BJXqPmkvM7JLGIcR5gKPjmHefCUUd0nHJkmA5zE2TwlllnYTU6FIxEN5YuaguCWyHcrjsx9Kw7kTB5TWt5/JpYGw5hHTOcoUNoBFLQQopypgAjz4vzAdlMCMrYhwnzFF8vPTENZMtdhUhHF2Lr51F0sgIQGmKIoFFMyfbBXFBEEQBEEQBEHMJiSdI+0lRNRC0yBgFClEsYBwn1TnpyGst1KLkbkmgiAIgiAIgiAIYk5DwpggCIIgCIIgCIKY05AwJgiCIAiCIAiCIOY0JIwJgiAIgiAIgiCIOQ0JY4IgCIIgCIIgCGJOQ8KYIAiCIAiCIAiCmNPE2DH+wx8+wV//9V9Le7efP//5z7j3vnulPWImuD46invmp1xnnZhjUJ6YOShuiWyH8vjsh9Jw7sQBpfXth9Jg+vkr9m+ydoxjhLHPN4iF9y+U9m4/Q38cgkazVNojZgIy7k7EQ3li5qC4JbIdyuOzH0rDuRMHlNa3H0qD6Yfj/jRpYUxDqQmCIAiCIAiCIIg5DQljgiAIgiAIgiAIYk5DwpggCIIgCIIgCIKY05AwJgiCIAiCIAiCIOY0JIwJgiAIgiAIgiCIOU32CeObAfi9bniv8QhIhyYwysF30Qs/n9RFiFEe/Kj0Ox52H27Qk/o+aQjw7Nqb0k480+A/QRAEQRAEQRDZRAA80wieQS65jhBh7gStIe1NQNRDHviGkyuNwLAPnos+cMn0ECPAhdykk1WTgz3DNS/cXn+aZ50esspcU+BiG/bWdCOwTA3FdT98dxth2VECwwOSAxa5vhON2NvigXqZCgG/D4qCSuzZoINCchGCh++UDfW1XfC8UIuOzTrpeIiA14791Xb4NRqobvjhHtZj1w8tMI7fJw28D71H61HX4YG5rgMbH5GOSwQGHWj8vg2eL4X89939DCp3b4RuBsyc0TLxRDyUJ2YOilsi26E8PvuhNJw7cUBpffvJOA2uOVH/vcaQRgATtj41TNW7YNLGKhlwbrS9VQfb2eWwHt6F/EXScRE/XIfqUX82AI1awfSQG9yKXajZYYRaciG4cR6oQuPHamhY8LhLfmg2VOLVYm1EM4364PjJXthENwH4L3DQ76yB5cmIL1Ni2A3b63XovaGB+m7hWVUoqtrDdFPcs8YxFXNNEIRxmMuXfcERnr9jNiE8srnRF2wxVwc7oy656tgXNP/kXHBE2g8OtAet5qbgufCB6/3B1lfNwYZfjbtgXA12f39bsPKnPcFzP98XLHqnXzouId7HGmz9KHLNiKspaHm1PTgg7afkSnew+puVwabec8HOmqJgq0c6Ps5AsJ2FqckV9v9GsP8da9B8MOo5ppE/Dg1JvwgiBOWJmYPilsh2KI/PfigN504cUFrffjJLA6ZR9hQF9/3yqrTPVMJHLUGLJVaDjPS1BK3f3Bds7+sJthTtC/Z8Jp2QGOpl+ua17uDVP0sHmL89rxXF6KGrjuqguTlKe4ww/WOxBjs/kfYZA8etQSvTSeNu/D3BfUXVwe4r0v6UGAmeO7gtWBv/rOaWYN8N6UAShoY46VfmZM9Qah5YuK4QhqgOZrXeiOUuH/zSvuesHYoXmBuldGC+DoXPG9B1ug+cdEjoVVY/V4ua0nzk3isdiub3fWjTFSH/0bAngHJVIYru6UGfVzqQioAaha/XoOSpXOTcJR2L5qIL9nvMKFwV9l8B3XMmGN5n/kcCSRAEQRAEQRDEnIEDd94I41ciPbKKR1fD4PXA97l0gBG4ZyUs/3UXTHo17paORaPQFuLAtnyox3WIGhqdBl1en7QfQGC+HmbjcoyrHaUeq9d4MHCFCS6BgBsfvrcc5vW6iJsH8lD2pgm586R9Bn/Jia6jjdj/eiNsJ1zwxw3J5twO2Br2Y3+DDQ53lND5lF13ZRPMX4t+1vWwWldDPSYdmAGyRxir9Chcb4gaAsASY6APzsc10jE/fB9xWPk3sd37ytyVMJ4cHBfPgAb6VWmGNLCMFN+Jr7jHK471T8syPQwpvPd/wkT6inCYJRbkYmVeLwavSfsEQRAEQRAEQcwhNNA+1w/nbyKqhXefg2uVAbqoodKqh/XQRPrvJqBcqod2UZSSGfWi79cj2PioVjqggOZJEwoeifbEi/6zWmjU0rHBAbhW5DKR6ofrhB32djsc5zko2L21Ulj4s40o3+0Ar12LTRvW4qErrag46JQ6IwPwtlehotWHxWsKUfjEQ7jaWoH9J0LPxvsE/5ke4jzo7RD870LvxQA0eh3CQZgJsndV6mu9aGjwoeRZg/QlgwN3wQj1/eJOBDEGLmNIbm/s0lwUnO6Bc1DaZwQu9qLzjLTD8J8NZZDx7YRH6NCWBce5YVwSK95FGc7E+OXPhECyDBjtN9scF+X6ThAEQRAEQRDE7EMJw9Zq6F17UWqtQlXVdlS2A+YdBbEdajLhzjajancVtr/UAP+ztTDrk83dDcBzrAF2nRnPhLXz2Bi88wfQta8ezutq5D6oQH97BaoPu8c1j1JvQk3dLmzM00Gr1SF/sxlrTzrRL8iZYRc6D6tRsrMEBav00OvzYf6OBXo+NNI3MMpBN+xE3W47/PdqoFnEw/nGDuw9Ee7VnhmyUxiPetD2oyawXANTOAHD/EX6G0MOFKnncUdYYMSmnSrYK7ej7rAdtoa9+HYLsLpYOs/IWZKL3C9HbcvUiBpVkJ6biZd1yxEDmQN1tN/Cdn9GvhMEQRAEQRAEMavg4X6HCdS/FKBkuwXW8jIULXGj/nBv1MhX+SjFntxNKCnVw3+4Hm0XE+sP/6l67HOtRuXWcGcjC8kXQ8CJfuRs2QNLsRH6vEJYdldCf6EJ3eGppfPV0Nw3JloLcp9xwP5uD/oxhrGbTPh6PXA8Z8TKBZJbgUV6FH49NPqX467Cc3oIq/8LE9ZPGWB4aiN2/XAbFAfscA4LjpnWKy5GcdS2/5TcXs7kZJ8wHvXCXluHy4W1sD4V/f1EBXWeE5ejxuCLjAUwgoXIyaBbXv2kBYfe2oWiVblY+awFP65ZBx3Tprnq0BhpYYiCXh+1PayaMPQ6GSq1Ec4r8QkbQGAEWHivEEglNNF+sy1mOARBEARBEARBENmFtxtNF4yo3GmCUauGiumNgpesMA/XoetC5raSFIu0oo4wPGXGru256DwyUWD7zzai7ucPoXJvrHUc5b2CFaPV0EevED1fh9V5kaml/tP1KC2tgK13AAO8Erl5K6EXzzBhPcKE9XxF0o5DlWoxsIL5H23x5wE9jE86MPipsKPDumPHcCxqs3w1g9W9k5BlwtiP3oPVcD5shSVqsnYIYWK5Fi5P7ApZ/Cf9cD+nhUbaT8s1F+wdbnALNNAJwlTLRG/Ag76ThdDKtyyVFPUyHbRn+xETyuEB9F+YHv8JgiAIgiAIgphlCMOX1Qsji12JMH3zMFNAw3KnVfLwnLDDFTUlVECh1kBzgYtajFiYKtqGurdGUPRPTBTHdyDer4YRIwjE6HEeQ0xZq5jgFeYkO98dQGH1QVi3mmB62gj9UhXC62apluRCe2EAscEQ7C6HPFSpc6EaCbAj0XAYuqLFPElNK5RKKKO3aegnzCJhzMPdUofOJZWo2RxvlziENq8IC4+3w3FJyjzSPGTz0/q4TJaC+3IwdqIOTSelbyo3ObiO2eAufgb6DHqdk6I1okhlR/sHvtAY/ZtM7B9qhG/LNPlPEARBEARBEMTs4kEtCj2d6D4fka+814HODwwwPCy3t1QJBe9EfZsDXnFIMiPAtMY7Noy8oEd4Bmpg0IH6Ny6jqM6K/Ohe2zCL8lC4vge2Yy5wN0OH/KdtaD1vglEULCosXMKENhcW7AH4TnajR9ob1zthPSWcf/8NbD7kCumfR/JhvssGW1gPsf+97TY0q4pgjJ8mO438lWCzSfoNn28QC+8XusbvDIb+OASNRmY36cU2FFtt0k40xhjD1vyFNtQdtMEldMOr9DCVW1CSl3jKOndqP7ZcMaGDCe0YrjnRfKARdnFZcRX0X7fAUhq7InZ6OPS+vgX+dR3Y+Ih0KMywG21v1sN2Xsgsgv9lsGw1Ri2rPn2QcXciHsoTMwfFLZHtUB6f/VAazp04oLS+/WSaBoHBXhxpaJI0CFMJy/Jh2l4OU5QZ2QjCPFw71FE6KAQPT3s96g47paHTahjWl6Fsa1jLhDRK3WlxJ5YXaiO6aNSH3iONaPqZW+xpVulN2Fb+IvKXhronA94uvPFaI/oVOuQMc9C9ZIbqdSceCocnrHe8QghYSLRmWF7ZCH143vGwB/aGOjSflkL5ZAms5SboouclJ4Dj/gSV6j5pLzOyRxhnSIDnAaVS9tzfhIzyCMxjfsyAYBVh/vP/bnqGBiSDCkUiHsoTMwfFLZHtUB6f/VAazp04oLS+/Uw6DQSNAKYRoub9Zo4wdHkM86aqh24yf0YFWZXYF1FzzU+hl9I9S4Cd/4v8Z52KMM7OVallIIxLn7LeTJXI0wHzfyZFMUEQBEEQBEEQswxBI0xJFAsoxLm5U5Yadwn+JPdF1Fyp9FK6Z1FMx7PKY84KY4IgCIIgCIIgCIIQIGFMEARBEARBEARBzGlIGBMEQRAEQRAEQRBzmuwTxjcD4AY98F7j42xfxSFM5JZsZREEQRAEQRAEQcwuIrZ/pxth0azJ+p3sWs7tgL3dji5pVe0wAd4P70UfuFHpwG0iq4SxaHOrvBRVDTY0/WgHSqva4EkQwZy7DXtLN2PzW2diDFkTBEEQBEEQBEHMCj4/g/rNx+GRdqeNz51MU01SKyW5lj/fiB0tA8hZpkHul8LmpXi4j1ah9Dt1aDrSiKqXSlEvmWe6HWSRMPai68c25HyrAQdralBTdxCVXzmHfYclQ9EiLPJbKlDxP+bBVLpROkYQBEEQBEEQBEEIesn1bjPwmFHaz4Tk1wZ4DpxhLQpWGaB7MLSKNX/WhrqPjahpqEXND2pwsM6MwNt1sHvF07ec7BHGF12w32NG4arwFwgFdM+ZYHi/B33jnysCyNFbcGCnCXr13dIxgiAIgiAIgiCIOxzeD9eJZtTvrkfzCQ/4v0jHw9zk4D5hR/OBKtQf7kLvx5HuQRHODUe7dH1HL7zD0vEoAhda0Xi9BNsKc6Uj8kl8LQ8PC1On6yrg6RGHUrs+FY5zcJ3swtp1BdCEzTk9kI/16wKwn49SxjLCPF1kjTD2f9IHboUGamlfZEEuVub1YvCatA8VtI9pEJbOBEEQBEEQBEEQdzyjHrTtqUAXp8PaDWuhRw/qj5zDiHRaGD1r37kFNm8O9MXbUKQHzv2gGm0fS3N9vXZUbLFhYIEeRVuL2PXnUP39NnijpwKze7Qe9sP8opGppgxJeu08qJflIledAyzSIPfLuVALYizgw8BpI3KXxtpA1uoM4Ly+0DBsOWGeRrJGGHOcG8YlMbKYwSL6LuDyZzSTmCAIgiAIgiCI2Yn/dCs6V1ixa4MRer0ehqfLULKCh1s6DyzFM98+hOqXCmDQaqFdVQjzCwp0XhiUTj8Dy9vVKHvaAC07byg2w3xPJ1yXQqeFkbWe9xrgfa4E+Q9Ih6LhPXC028Ue3/AW6vkVSHWtAqqH9ViuEYRxrhh2zQJ2eJiDH0wkLwq5Gueuu4GP/CFhnDbM00tWLb4lrEidiBxF7JcIgiAIgiAIgiCI2UEAfp8LxhW5QrffOGo9E8nSb0GAKpeqMY/zweN2obfDjq6zPnBhfaRQQvPAPNF6j/t8L7rau+C8xOSnNBw78PFxNP16LczPxnc0SsxTi7290ZvY88tIe21Sbkh/41DNC/1NGWYP2oqLURy17T81tc7QrBHGKrURzivxkRFAYARYeC8NniYIgiAIgiAIYjbCY4TJHIVCEoxh7lIgR/opDrWu2oLtB7pw7vd+YMlyGB5bLp1kquhiG6q2bkd9xzkMXGGieoUBBp10UljE+Cc90L/4DNSiqSW2jTDRykT1CPstSmuFClq9XuzxDW9iz6+caxOxSI2lGIR/fMpriMB1Jt6WLBSHY6cOsw7rjh3DsajN8tWMB4DHMHVhPPonDH78Owz+XzM02Fsm6mU6aM/2s6SJYngA/RcKoV0q7RMEMf2MSoVg9BZlJi1kyy7BNsGUWgD8NS/cXj8CN6VD8QR4+L0e+LgU5c0oB99FL/wJbe8J9v4mhiXGpWjjPH67veVbKEzpwyDGdUIbgOy5Bz3wDHIT4zbh84a26DsmSsdE6RQY9sGT0hZhKJ0ThiWMHHv0KdM5hKywJIuXeKR4Sng3MV+6WXinkkYhhPOp4iV0n1Tx4ofXnTpeQnHH3qPhFHEn9DiwuJvRrJ8qXwvnUsRTNGKcJvUmRXwSU4bidyJifkz14rD3OL4sDW8xcZmmbr1diPZmhTImPixynktmfSMip1xNVpbJjWMBOfWNQKryKoyQZjOWRios1qjQd0kaFi0RuDIAp/Sbd/fA9kAZDlSXwby+EPmrdFArwjOQebh/aYO6/AD2lJthKs6H4RE1FNel05+Hyvy23ZuxebO0VbcBZ+qxfXM9znwuuUvEpK/VIPdpJ/oGYhcIG/T2QavTsCdOE2aGQqmEMnqb4iDhvwoypN/w+Qax8P6F0l46Ahg8eQj7j/4ODzx0HwLX/g1/Wm7Fnv/8VSQalj4Zhv44BI1Grqr1w1Fdgb68GpQ/q4Hyph+9ByrQqalGzQZtzLADkYttKD6uRsvO/Mwnl2cRQxyHharbFQM8fG4/cnRaqGi0+x1DpnnCc6wYFUelnTAv1KJjs/BJTxjmUgFb6Ggs425YaeLtwhuvtcL3JaEgZBWdT4Wiqj3Y+EgkY/jPNqLuBy7gMVYoska7794iVO7eCN18yQErk3wnGrG3xQP1MhUCfh8UBZXYs0EXef8/78X+rXXjlUgII6yHdyFfmuPCndqPLbWxLvCkdVrKism8b4Ld9fo6G1wrUoch8HEbql6xwRMVryLXnKj/XiM843Grhql6F0zaUKwkfF6R6HhJnI7mug6WRtIOK4OdB6rQ+LEarO4Gd8kH9fPV2PX1qPJ32A3b63XovaGB+m4Wls90KPuhBcaoSkOwR9/4ffYcQnhv+OG7+5nM01lOWOLj5TMNNn33VRRK8RILB+ebO7D/5PKYvCLAX7Bh35u9CCxLli8jJE0jAd6H3qP1qOvwxMVrCOGr+d6a7tB9rgvxYoRlRwkM43EXgOfdvdjnCECjVoTiZY0FllJD1KKU8XHnBrdiF2p2GCNuRn1w/GQvbGLcMSF+gYN+Zw0sT8obHpdJHg/lvQAsb+9BwYPSQQnx3BXTxHiaAIfe17eg7roFh6oLYhfglM75102MTyI58tMwVC6wTJt18TvpttHnTtS9sh+9qcprof1pTVgrxrz7qevW6SGj5xz1ouvAPrSyOiRcrqqKo8peGc8lr76RU66mKctkxnH6+iZE+nqYtWdP2VBf25W4fE9BRmkgLERVPYCiOmtoHi/P3sF9+9DpZvHTwcLNnnvLO0rU7C4MrfIs1Lnfr0KbIRQmz7EtaF1Qgz3PaUTvhHiu3t2G1cneYSEeJ6uVElybqFwPuG0obQEsVWYYmEP+t22ofu0yTG9aYWT5IeMwMzjuT1Cp7pP2MkQQxmEuX/YFR3he3vZv7wR3WFqC/3otfOwPwV/84B+DlZ1/iHU3hU0IT0Z80Rds3bMtWFRUxDZzsPKnHwav/lk6F4+nNVj0Wk9wSNqdq/xx6HbGQH+wtWhfsOczaZe4I8gsTwwFP3yjKNj06xvSvhwGgu2vWoKtnvA1LB+YLcGWvhFpPxi88VFL0GJpZy4lrnQHq821wR6/tB+8EbzctS9oPnguOH7VQHvQam4KngsfuM78fdUcbPhVxN/g71qD5u91B69Ku4kYaGNlxy9SuZg8mcXtSLDvn63Bba+1B/t6W9KUV0KcWoO1b1QGi97pl44JXA127ykK7vtl5HkmxG0CRn7VEDRH32/ow2BtUVOwL0UyX3VUi2EcvxOL/xaLJdg+fqOR4LmD5mB112Vpn13TWxs0vxodFuE5zMEmVzjNbgT737FmnM7pwyLES/R9WOj6WLy82hmMhC6CEB/b3qgN7osvr744F2z4Zmy+7D9iCZr/uY/9iidZGjGE/P3NymBT77lgZ00Rezek42Fu9AVbzNXBzqgq8aqD5f+fROLlBgu/eQ8Lf7jO+zN7xtdYvEQ9oxh3r7YG+8cPXQ32vFYUrHZE8sfAcWvQysI37sTfw567Oth9RdpPQyZ5fKh3X6i+jskDIcRz8fGUkCHxGQR/rMcn+CKemxCfRErkp6FQh2dn/E6ubSSUcdvYO87ybqbtS+HdtLB3c7zgmEzdmjmZPGf/O+ag5UhfpGyYUK4mYMJzTWRCfSOnXJVRlk1gQlhk1DfsV/p6mJW139/GNEdP8NzP5ZZbETLNa1d/1RSsNBcFt/3n8qD5mweCH34klNHsuUJng+d+Whk0F21j8bMtaK5sDfawttJ4mPzngk2V5mDRN1k5/03W1mnrCXamKiOnopUSXJu4XGftOceBYDl7JrE++Oa+YOfvIimQcZgZQ0Oc9CtzJimMueC//PQbwYNnuJjjQ5f/Lfgv//a/Yo5NZctYGIe5PhIcmdmyJGvI9IUc6usOthzcF9x3sCXY3Rd77cgnHwY7jzQE973WEGxxnAtevR4+0R/sfu9c8PIX7G/zgWDlz1kpKh5rCFYXWYK1/9webP9VisKMuKVklidYhfA9c7D1d9KuDCZUgjeGggN9l6MqIsYXHwYPRImQq79khemRuMKUiYWmooZxgSRU2vGCdsR5IFj0xofj97rx66aY/YncCPY1FwVr/2cmcSCfzOKWxcuvpXhJUzld/UV10No2wIRmfKWT6OMTa8yk/CAV/+GCwYRbpbl1gniJpv8dJsB7Y0PYfyTq2GdC5R0vrtm9LFH5hz3nhA8XYl6oDX4oeSMnndOG5cbl4IfvdUc1qgSEeGGNjC+k3TDXWT5jjbQPP5sYl4IAn/AR5YvLwb6PrsbmZ0byNGJ80hc8JwYtiZAb6gt2sjI05k6CYP1mRFAO9XVOKEeF92bbe2EXLG//M2sExjW0b3w2EOwbCMeLIMDj0+hGcOh3fcGBpPkllkzyuNhIYg3O9oNmMW6ibxvfgEpav0hxtu+99mCD2cryUowvJIwngfw0nCiMRz7qDrb/oi84JCVD8nRjDXjhHfxiJNjvaAoe+N6BYNPPPwxejntxxOuFdsOPm4Kdzth64uqv4tsOgl/twXPhjzh/Hgr297J88Vpl8EBzZ/BDX2zeT0WmbSMBoX7ZJpRDGYuJ0EfD2DIr87p1Msh/zlA5cDmmfBwJfvjfJpa1ERI9VzwT65v05aqMsmwCCcIio74RypD09TALmyt0VP4HvQiTyWtCHIyMjMSUmTHcYDoohRC6wa6983SS8EzTE+apCONJzjH+X/D+Wgftg2O49utf4uc/+zl+fvJf8af5f4v/+LeT7LqeTuZPfYw5EU8A3vYqVLT6sHhNIQqfeAhXWyuw/4RfPMufbUT5bgd47Vps2rAWD11pRcVBJ8Tl0K774TrchebD3Qjo2PnH1dLKdsIQxhyotbnIXTK+dAAxq+DAXVgOJe+SlvB3wPVpnDH5GLzobutH0bq8yLAccTGHWPvi/EduuFYZoIsasiqYXotBocA8dMErTrfxw/cRh5V/EzuQUpm7EsaTg+xsCH6Y/Vo0Bv+pLtHMQNcpD7iY+UY8uGuA+i9+cTVHe3sXei9ObYXDySPT7vq1XjS/r8W24gRTRqCB9rl+OH8TjgH2hO5zE+M2Cv5sN+xfWo+CqGHsgkkFt06JkfOOkImGEy7445JZoy1E/xn3eFyzG+HcWQMMD4dSOjA4AOeTudDEBFKL5Ws4DHwaiuP09ujlpXO6sEChgXF9AdgjRfD2w6XVYLG4kEgYwfxEE/zfMItDumLh4fvYJYaFuyislMnipaMXnpsa6B9Vx6ZbyjRiLNOLQ8iSotKjcH30kGh294E+OB+PxJVKXwjTmhgXGHA7YVgaPjaIgfPLWVnL8n9UOnL3aKHXSjdnaeRakQv1GCuzTwj53w7HeQ6Kh/XQJskvU2ch1m61YnlHA45fTDx/L2X9EmbRWpS8shydPzkOzx0wD3MuIg6BbOaw/Em9OD0qdbpx8B7uQeehevRAL9pk1Y06ULWnbTz9uDP12PHf3FDo2fVf00Pxm3qUvxlJd87bjGZvdC4IsLzdDO+w8JuH6+0daPLkwPiCBSY9D8f369Ebt8jPtDEV26/ebrR6imCKWTQo07p1pgmZ2wkttCQx3Ad3dLkaT8LnimVifSOnXJVRlsWTICzp6xsBOfUwC9uq5M84MyjE+bQJ6xMBhTDfNunZ0Lzc5KdvE8Iz3f4wT1IYj+HPf/j38P6iFg2/CkCd+wAUF3+Oqh+24N/+L8kJkV0Mu9B5WI2SnSUoWCWsRJcP83cs0PM+sfGp1JtQU7cLG/N00Gp1yN9sxtqTTvSP11kBGJ63oDCPXbuUFTGiGMrFYiaMH9JJx4jZBzeCqw+yxvQZHxTLNKyJ2w/7zmo0uxNX4PyZTjTHi65xvOjaXYUqaykqTmpQWRGZLygurve+E64ob/2nOuGQfocaEUao75d2w4gl3GUMSfmQ43xQnz0HZ0CF3Adz4D9Thx37HPCFTjM4DPnUOPMrJwKLmEBY4IfzjR3YeyLi4s6CCfjDTVBv3YREc1rZmwnD1mroXXtRamVxW7Udle2AeUf8XMwwXnQfjftwweC+uAr1Jy44LymgWbYQ8NhRsacZbrEBGkK5pgTVXzmHvS9VoIql4/ZKO7DFMj53VPwosUw9sdF4F9Dvl5rKae3Ry0vndGGZgLCS50E7lr/wDJPqEQK/bUXDx0Uo+Vqi2AqwZ9JhyFmHquN+5Aj5n3eibsdeOGLWRkmXRpOACe2GBh9KnjUkbbD5TzWg0VeCZ9aEXQQw5lVioGsf6s+wevvLaiji03FsDN75A+jaVw/ndTV7RxTob69A9WE3a67OIPP1ePG7enz408SiNn39EkLx2IuofPxDNB33sKclbiUhUXwD5v+ycfyDU/p0Y/lqRYlon1RY3da4YResKzrRelpoVXjgaBhA4fYyqc1hQMFLVpiHG9HplpO6PnjfX87KsgLWvlBDs2ojrK+bkRdfdkwLaWy/poSHs6MZC58vgC66Wsywbr2VeDtYXbK7AqU7e6GpsiYpV5M8VwyJ6hs55aqMsiyGxGFJX98Qc5HJCWN+BEP4JS7O/39iV9k/4O/+41fxD2WVqHjsN/jnX/5BckRkEwEvq6SeM2Jl9NfCRXoUfl3qxZjPKp77xsQVBN1nHLC/28OK8TGMjffG5SBnuhqFxJ2DygDL24ewp9yE/FUG5K+3YA9r4PY1dceuEC/CKsFjAzDHia4Iaug3bMKmLSUoVPag7pAz0uOnLUR58QDqv7MXjUftaK7djr2/fggFedL5MJItvlhyhM5lEe3XD+LQW1aUPG2EPq8AJTtrsE1RD/uZcGNDC9Nbh3CwooT5zRpqT5dg1w+3QXHADmfCCvf2wp22wbbAgk2PJWt58HC/0wD7X9izbrfAWl6GoiVu1B/ujcRtFOKHiyUTP1yo1lhw6O09KFufD8OqfJhe3sMESB+aTkRSmXcfQcPxMRRsLYfllTKUFavhPtAU20MTvxqoRMziezcTN3pj7NGnSWdZYRmHCdeD+3DOUImScRHJCHhxvNmNtVuSfUTgMHTFAye3Gnt2bgzl/827ULNVgfr3nONCMn0aZYgg4n/UBJRaYYpW8VEIC3XVHQK2/ZMpIvTFetuB/nvM2PNyIYx6Iwrj0pH/Ygg40Y+cLXtgKRbekUJYdldCf6EJ3RNf6GlF8egmlBvOoeG9BKI2bf0SRgHd8+VY7WpA629JGt8qhn7NRPHOATzzT2boo9sIadNNheXa6LeLpd/ja+H62Af+Ux/68ARWxuRxNXIfV8H1h9hVeRMTGi3TdKAeXWdClgyUKiag4kceTQOTt9/KEHoyveaJvaoZ1a23FvXjrJ7eYEbJc0r0vNEEZ6JyNdlzRZG4vpFRrsooy2JIFRY59Q0xp5icMFbmQFi7etVj/0H4tiKhwH/4v38VnwwM4k/SESJ74EdYg2m+MHQ1Mf7T9SgtrYCtdwADvBK5eSujDI4TcwnFo6thEEwqxS3Pn0x0RVBCI9rFY5XcDis2cfvRdSFcabEG04YaHNpnhvEruTB+oxYHd+Rj8fVw76EK6jwnLsebBBgLYISVVjlJBySooVtjhONSih7hB3Qw5jkw+Km0f6cw7ELr28Cm4uUsckNmKEYEEwaBkYhJCdYgaLpgROVOE4ysAapaqpd6Xeqi4jZMug8X0QgNWAO8rAEb+q7Orm3qg/G7u2DK00Kt0kD/dBmsW3jUdblFoaNatBS45I8T5AEEWJgXSytyprdHLyed04clgh+ut+vQuaQS1ZujV7VmvvyPBvQ8bsYz6lDc8qwxdoMdj5gGUmHhEmC5QR8jnNVfMcJ4YjA0CkFOGmXCqBf22jpcLqyF9anEjfCA1479b1yOrFoaRqq3Vz8e/ZwsHQ1PjKej8l7RBfTR7+h8HVbnhcxrzSwsLOu24Ylf78ORuLyZUf3Cwrvum0/A/doRuGlI9S3B+fEN6L/Wj+5fxn7USJ9uGqjiZlEp7mEHhnn2inDw6eKmJDCUCxbDe13Ou6OEobwBtZtWAp5uNO4uxZaqyDDt6WOS9ltFQj2Zi1P2qkZIVrfeapSsHhF7+IstsD7PYf+EclXOcyWrb2SUqzLKsgjJw5K+viHmIpMcSv0AHjCCVfBxr8IQa/L835RJxdMtQY49Mhn2L2MJTI/dzUSksnk2WT9nANWSXGgvDCDOeprUuPPC+e4ACqsPwrrVBJPQG7dUhbGQIyKb+dQF+wee8d4xkeEhVjGpoLxH2hdJIboS+cFcqZexhhVrIAkEPu6F/ZQXWKQVK2SdMPT+UzecwzpoxLmPamh0Wrg8sV+L+U/64X5Oy5pf4h48J+xwxXU28NxVaO+RakzeA0e7K2potQCPIb8W825rwZaAT1mDjOtFfXnEbuD2t5zAu3vZ7+PwCG6EobHqhXGNSxZXD0fiNkyqDxf+s3Y4Lsa5/4I1KBaE5zgJQ9sWY2FcI1e9RAtc40JpuzQXBWf6MBDT8z6IgQtalp6hXJHeHr2cdJYRFpEAPMfqUD9SBCsTxbFxxOoID2uAHquK2GTcvBdtcKL+5c2o/xehMSXkUdWEelDI/1e180LxIieNZCP0bFfD+bAVloRDuxnX2L2qnVj+qiXBkE411E8mqrevRtLxfjWMGEEgxomQ/9nTzp+YL6YdQdR+qwj9bzajZ/wLSub1i+KRdSgv7kfd4R74k9XZxLRRtNEM8/ZKrHbtQ/2pcMLJSTc3fP7Y/CjM+1RpmWBm76vxTD98McVOgJ13Il+aN69SxX8eYX7FpLcSan0+CrdaUPPWIViW2dDwQYIexakwFduvqXoyZdettwo/XO0OeOJGTqnUrNSNKVcZk+4tFpBRrsopy8KkCEv6+uYOhOmCTD+qih9zE+oM5hfTGOm0TVrb+VnGJIXxfVjz9H/C/3znPfxruHv4s3/BO/+/f0Xx3/3HCV/4bhWCPbL68lJUNdjQ9KMdKJ3wdVCwe1aP0peq0HikCXXfYW7fTTMXSbABVlWKHT9qgq2hCqXl9ROGjaS/byIEm2eNqNjACtHjE5tHwlf/vVsjfj7/0sT73lK0RhSp7Gg/Ga70WFy+/wY2H3KxJxG+8HHguHDRyM6d7EaPtJeaEYzElKjErGIBqy6PNqH9vPTV9SYH13EmPtezRlBUQZCyt5i5C/sRfhd593HY2o0wPhqqzBTsj6e2Acd/K2UW3gfHO61Qblg7PlRUm1eEhcfb4bgkuZHmYZqf1ktlkhLK60zYtDnGG1v8JQfajy9E0RrJF6USAWc9Wj/wSRU9e08/aIddVQRjzJC+O4BHNqKjoyNma6kwhuxcCvYMBTcPalHo6UR3OH0YvNeBzg/iF0xJ3Vucc5cftp+2wxX2hnOh/T0XTHnhuA0NW+z8hSuymNmwF45fOGBYpQv5ucCAtRtYY+942A3PhGkD7Ms2Ye14IkrlTDj+BXv0hxrh2/LMeH5Kn84ywiKUUR/Uo+5KEWpfyWfNrHhUyN8ZG7cdHbUwi7Y2O7DrqZAvunwzFEdtkbDwXthbmrHwOWMoX8pJI1nwcLeEerZr4nq2xxHqqh914qGqGkTb/46gQt6zJvQcaY2k4zUnbMei0nFRHgrX94jHwnHnP21D63kTjNEv9AyieHgjyp8fQHNL2NbpZOoXBbQbymEaaIbtjHSImFmkjxr+QzZpyoK8dLMfOQ5P2Al7l21HAzCtYm+PUg/jeidaOyLikP8tqxdOFmKtPvT+qR5k7/MZZyg/3+Th/aAVtnBzSrBZv6UuMn2C1U0ccxcenTJtLMrHrrh3vKPOHLJ93xG2y+uHu52VE97o1maaXlWZdeutI4cFiLVHhfI7/BiszDl+xA4jKz8isTqV3uIQactVOWWZSJqwyKhv7jh+fxyb3zoT1yueHNF2vvCxJl5nCHb8XypFBdMYorbZuhf2mPzJrr3Irt26HXWHW0M6xNoI1+3UIbeIvxKWppZ+w+cbxML7hQEKcghg8PQxNP33n+PfBHF8339E8f+7FJufXJq40p4EQ38cgkYj97MNe3Gs1eC+0YCSVUKOFnoDqrCP24SGcmmBEtEwNodNDSUwCAeEuVrf24ehjQ0oC88tG+URmKeU5qHwcDWUo2tZxLC0/1QdKn6ei+q68NwtGfcN8Myn6NXU/HD8oAo9D5phUjuxl481do0Aa+CU2nD3d6ux8dFQuPjzzah8R4Ud4/edHjIyLM4KwbY362HzCt/rmEDWmmF5ZaM4pyjg7cIbrzWiX6FDzjAH3UtmqF534iHBYDtYBbXVCWOU8fYwwlCrqtcd8D+3B8fC8UXcVjLKEwzRQP5rQiUmFNUq6L++DWUv5kMzPqecvSM7DmBse22SBrvgRy+ONDTB7g4V96pl+dj0igWF2oh7/uMu1Nc2wikOaVbD+FIlXo1b5Ze/0Ia6gza4BDcqPUzlFpTkRcseJjCEXsKjLiEHM+FoRMm3LTBJ75lIOJ+fD30EUj9ZAmu5CbrouXOTJNO4HUemkf2ExvMTxK1pOxMNUc/Mn6nH5lMrU/jPGrUnGrG/xQGfmMwsbkvL8OJTmkj8j/rQe6QRTT9zhyptlQb56ywoXx/VG8vcOA7th401RAQ36ifLUPlyIbTRL35M/Av5qQyWrUaoo+YGpk3ndGERGs1b6xCWXtGY6zpYPpV2YmD1RbEd6rhyjP+tHfU/bo7ky61WWKKfOY5EaRSBQ+/rW+BfFxcGIf2tNmknGkGoh8LjOVaMiqPS4WiEBvp4urJ0PHUEjYfsELODjHRU6U3YVv4i8pcmfnfjySSPi3Fxxpgg37E6sroU9bpaMZ5S1i+LQnHmzGsZ/2AxzqcO7H2pHsuTpimRCPlpKLwTFUBU/IbaSA+hcu9GaP2p0i107Y1XdoF7pxEehQK+YTVML7N3Oby6+nhe9EPxoB8BRQHM3y1DwXhe9MN1qB71Yl5Vo2CnFSs/rBh/f/xnm1H/Vg84jZo1q/xQf90CS2ns6u7JmHRZLRBfXottuiq4NxxEbXGoLSm0R3ccGEN57cakAjJ93Tp1MnrOROXqBlbeRdfDMp4rfX0jp1yVUZbJCIuc+mYcGfVw6vI9MRmlgcy2QAhBnzRgYIkCvUvMUWEKla+u/EPYJY0+CvzWhoqf5LD4kjSGmGebgO/WwvxoKPL8J/ej1J2PYzuMSeu3OwWO+xNUqklaSRKNNknIt2Mcuw1duxYcSnB8qltGdoynw/7lyLlgQ1FR0Nwm2X2cFrubgvuiONupaWyefdQSLKrpifVTtGmXxpD6JJiU/TTBTvS4LcJYBDtjN/4s7RCzksnZ1JumtE+Rt8KI95F+JyOtmz+ntpcnMgP20Ccbt9OCjLhNj4x4kxO3go3FdGGREf/Tks7TxGwr+2Yq7mYyj8+2OJ6tTHcaJk63WBvIKfNjGpusqRHyceb55raW1XHMZL6f1HPeYeVqyrwjlxmo7+WSURpItpSvftEf7E5i3ztMctv5E23yh+z4Rx0T9U8rOxqFYDs//tgdym2wYxyLYFsq2ceYW8W02L9U6lFYaUXls6E+2emxu6nFM9+yYtdGQ9TXHRk2z+4SBoPForjnViyAIgPBTnSSL5ZiXpiBVR+JO59pSfsUeSuMnPImrZu7UtvLE8k2e+gy4jY9MuJNTtwKNhbThUVG/E9LOk8Ts63su5PiTi6zLY6JEHLSLWV+TGOTNTVCPp7d+eaOy/d3WLmaMu/IZTbV9yPnYGvoAUT73jrwJ6pQfSxuWui1VLbzQ9ONnL8JjYoT4N3n4FplgC48GmqRBrpHPsS5qNX9/W4n+jfopnXU6p3ItAjjO4HpsX+pgCYvf3zI5PTY3WR6+9F8GGUOQxMRFqk53QNn1CJBgYu96KS5UgRBEARBzHqYuHpMD2XWtEIJ4hZxgcfKLWH73kZsrLBi+fut6BWHnQuks52vhGFrNfSuvSi1VqGqajsq2wHzjmjThFqYqswYay7F9irmxlqKOo8B1Rv1CYR2dpFdRdLN2InjYTKxfzmBJCu1ZWx3MxMWGLFppwr2SmHSux22hr34dguwulg6TxAEQRAEMWvRovAHNSh8WNolCEIeWj1yH5R+C8zPhT7PhQFpVdH0tvN5uN9pgP0vBSjZboG1vAxFS9yoP9wbGj0r4oPjrUYM6MwoK7fCsr0EqzkbGo6He6aFNQKKURy17T91B4xonQayRhhPj/3LWKbH7ubkUD9pwaG3dqFoVS5WPmvBj2vWQTcPyFWnn25PEARBEARBEESWMcEEoxI5C5ggHmWSVY7tfG83mi4YUbnTBKNWDdVSPQpessI8XIcuyYY8f7YL9QtKUFlaIJpZU2uN2LjTCv37NqlnWod1x47hWNRmSWGeazaRNcJ4Wuxf8i40bilGRYdkxXRa7G760GUtxpa3BbNGMrnmgr3DDW6BBjq9HnqtCoqAB30n72DbagRBEARBEARBzBxnBhBr/tsPn0eF3AeZLpFjO39sDN4J4ppppIeZT8MhpRIY5YBFcW4UajykY9pE0kTC3G5h/v74NslBsnca2TOUejrsXyo1MK7biGdWSKPsp8XuphrL/2EjTGs0cZkwBfflYOxEHZrCNoMF+3XHbHAX38G21QiCIAiCIAiCmDlUPWhtj9j39p+0wXbdBIMwLUGO7fwHtSj0dKI7bCObwXsd6PzAwPyQRsMu1UH3QWdELyEA7nw3Oj3Mj7+VDmUpU7BjPPNkZseYMR32L+OZJrubyUhq8+yaE80HGiXbo4Kf8u3vZcKUbPURWQnliZmD4pbIdiiPz34oDedOHFBa334ySgPJjnHtE32oe9sDxXwfRr5kgmVHCQwPSG7iSKQzAoO9ONLQJGkMpjKW5cO0vRymRyPiJtaWNNM/q0wwl8q3aX87mYod4+wSxmFGefD/LnW3foDngUyWeA8wP//C/ExlYkTGfTOG+RmYN3NL9VOhSMRDeWLmoLglsh3K47MfSsO5EweU1refSafBzQD4UUHKTEF0CLoFqbWNoJfGmA6ZTUOlpyKMs3Oh/OmwfxnPNNndzBjm52y2v0cQBEEQBEEQxDQyHfakBd2SRtuIc4lnkSieKtkpjAmCIAiCIAiCIAhCJiSMCYIgCIIgCIIgiDkNCWOCIAiCIAiCIAhiTpM9wlhYHCtsvDoeYXK5dEqYRC4YvE64jYbcjMOu83vd8F7jERDNNREEQRAEQRAEQdwGbnJwn7DD3t4FaVHpiUTpnggB8Ne88AxyyTUN01J+rwc+LrGeSqShEvo1ysF3kfkznESXJSG5RpvoT2DYB89FH7h47XYzs3vGkzWrUovLkZ8xomVnPuLXdvMcK4Z9SQt2PeVHW3EFbNLxCQh2vsTlzP1wHapH/c98yNFroPrCB/ewBqaXLShZM90Gk24vtCIhEQ/liZmD4pbIdiiPz34oDedOHFBa334ySwMerrfL0QozNq3SQPMVHdQJFsaK6B7J32E3bK/XofeGBuq7mWj9TIeyH1pgjDLx5D/biLofuIDH1FBwPvjuLULl7o3QjS/O5Umoocx1Hdj4iLTDxLfvRCP2tnigXqZCwO8Gt2IXanYYZZib5dD7+hbUnZZ2o3nSGqXv/HAeqELjx2po2AHukg/q56ux6+va0KLKF9vAPfAMmWuSJ4yjz4QSwJkXfzzA3Fdh35VnUPOtAmgkk178JQcadnfjod012Phw9izPRoUiEQ/liZmD4pbIdiiPz34oDedOHFBa334yS4OQdvGvixajE4nVPUxMN5Sja1kN9jynEc/7T9Wh4ue5qK4zQSsc+NSBvTv7sLbOinxRLDOB+/4bqLpUgIZyA0QpxDlRt8WDZ94rgT6ZDPLaUXFwDNv2MkEtXuRn4S1Fz6pD2PP0ZDoWQ2F3rDgwrtX8J/ai9PxaHGJ6T/Rx1APbzgbk7DgAk/gwLKhkrmkaYQK46f3lsG6PiGIB5bIClJdrYHvfxZKJIAiCIAiCIAjiFsB74GjvxLkrQP8vhaHULiY7Q3AXe2Fv2I/9DXY4B+OGEn/uguP9tTA9HRLFAuqn1sM0Zofr49C+3+OC69kiSRQLKKB5uhBrmebpD4ueUR6cKgc5SfsGA3CftmP5i+skUSygRt42QbBGXcS52XM0o353PZo7euEdlo4nwtuNVk8RTF+NfDjg2PMY8/SRHuj5OqxeExoiPh2QMI5DmFPsedYIfQK7Xso8Czp2GENfTgiCIAiCIAiCIGaaeWrkfjkX6gWAalku+61GDjss9P7u+Gk/ctYUovAJNQaPNqLzUugSgcDgAJxP5kITI2i1WL6Gw8CnUWLyLulvGIUC89AF76C0P8zBzRTvyHkHE+VMmJ9gwjymp3AQA+eXI3fJGPxRbrh7tNBrJWEr9ChvsWFggR5FW4ugxzlUf78N3oTTgnm4PrBj4fMF0EWFXaMtRP8Z9/hHAfBunDtrgOFhub3uqSFhHAfnd8Koya55xARBEARBEARBzFIUKmj1y/EQU8OLc/XQ6zVQBtzoPsTD/GoZClYJx4zYuGMtFn4kXcPgh5mEXKaeMM1UEML9/pAwVi/TQfu+E64ooes/1QmH9FuA++Iq1J+44LykgGbZQsDDRO6eZrjHe3wDGPMqMdC1D/VnAlAz4a6Id7P0GVjerkbZ0wZotVoYis0w39MJV5SQH8fbDVtcb7GAck0Jqr9yDntfqkDV7ipsr7QDWywoeFByMEVIGCdiiiuaEQRBEARBEARBzBh/9MOj0iM3WhTO18HwNel3mCSrUKvCPbHaQpQXD6D+O3vReNSO5trt2Pvrh1CQJ51nqNZYcOjtPShbnw/DqnyYXt6Dysf70HTCG3LAj2CISen+e8zY83IhjEykF8a7USiheWAeuEEP3Od70dXexYQ2E+d/CZ2OwMPZ0YzFcb3FArz7CBqOj6Fgazksr5ShrFgN94Em9F6THEyROSCMAwhcl37KQL00H85P/OyqBDDBnNQkFEEQBEEQBEEQxK1ghINvQU7cFE+FMAp6HNWipcAlf2TosUhIGy0eX/RLAd2GGhzaZ4bxK7kwfqMWB3fkY/F1I9T3S04mwK553ADvxz6I/c7KHAjLN69+XBdaHVqEuTE8Me4mcLENVVu3o77jHAauMM21wgCDYAwoHmFusdc8obeYnUB3Ux+M390FU54WapUG+qfLYN3Co67LnVi7ZUjWCGPVg7lQfXQZvgmxMoiBCyrkquWNPVfpVsPY3oUzCb48+E/sR/l7nmmJeIIgCIIgCIIgiEnBRK/+wgB8MXN9/fB5pJ8CS3NRcKYPAzGLXAnaSAvd0pA2CnzcC/spL/NPC71ez44zqf2pG85hHTSLRCfwn7XDcTF2+WH+CyZ3FyglIayG+kmm1a/HqiR+6Krkhof7lzaoyw9gTzkTvcX5MDyihmJC52Xy3uLQcO3FWChMro5CvUQLXOOmZXHk7OkxfjgfZm0bbP/dCX84TQIcXC0NaJ5nYpEvHUvHonyUVMxD048a0euVovgmD++pRtQdVWLbP+ijvoQQBEEQBEEQBEHcYlQrsfY5J1o7POOi0H+yFa3Rc3YXGLB2gwv24y5w4pBqHp5jDbAv24S1knkjBdPHntoGHP+t5Avvg+OdVig3rA2Zc2Lk3OWH7aftcIWmJQOcC+3vuWDK00s91irkPWtCz5HWiJtrTtiOhd0okaNSgeOGpJPsNhe60X1B2gmTtLdYQAPtc/3o/EX4WRjDXjh+4YBhlW7iPOpJkDV2jEVGfeg90oimn7lD3fosijRPbYJ1eyG0E5aSTmbHWCAA36kjaD5ih+vT0BH1KhPMpS8if2l2yWKyYUfEQ3li5qC4JbIdyuOzH0rDuRMHlNa3n8zSIIEd41Evug7sQ+NHCmjmj0BVUAnTzQo4xu0YC26Y0D20H7YPQkOa1U+WofLlWG3Ef9yF+tpGOEXdo4bxpUq8WqyN6gxk2uhEI/a3OOATPFHpYSotw4tPaWLdMP3UeMgOdyI311xoPlAP+2dq6OCHomAbjN468OPPw8N5YDN6H0+kzSTitZ5Kg/x1FpSv140PKZ+KHePsEsZhhLnAo2OYN18JRfzy4xkS4HmMzVNCmaXdxFQoEvFQnpg5KG6JbIfy+OyH0nDuxAGl9e1n2tJglGeykumVBOZmxwkwN39J7UbQPVCGh0cnQlhvSXCSWhil8mdatJWo9RKHYyrCODsX37pLwSJq6qJYQMH8yVZRTBAEQRAEQRDELGd+GlEsoEjvRtA9qWWPoLHSC6NU/kyLthK13vQLNDLXRBAEQRAEQRAEQcxpSBgTBEEQBEEQBEEQcxoSxgRBEARBEARBEMSchoQxQRAEQRAEQRAEMachYUwQBEEQBEEQBEHMaUgYEwRBEARBEARBEHOaGDvGf/jDJ/jrv/5rae/28+c//xn33nevtEfMBNdHR3HP/HTruxNzCcoTMwfFLZHtUB6f/VAazp04oLS+/VAaTD9/xf5N1o5xjDD2+Qax8P6F0t7tZ+iPQ9Bolkp7xExAxt2JeChPzBwUt0S2Q3l89kNpOHfigNL69kNpMP1w3J8mLYxpKDVBEARBEARBEAQxpyFhTBAEQRAEQRAEQcxpSBgTBEEQBEEQBEEQcxoSxgRBEARBEARBEMSchoQxQRAEQRAEQRAEMafJPmF8MwC/1w3vNR4B6dAERjn4Lnrh55O6CDHKgx+VfsfD7sMNelLfJw0Bnl17U9qJZxr8JwiCIAiCIAgimwiAZxrBM8gl1hG8D84OO+ztTvik84Lm4OO26GtFTSL9Toqgi+L8iNdJ6e4Tj+g+idYKcD54LvqQTq5NJ1llrilwsQ17a7oRWKaG4rofvruNsOwogeEByQFLct+JRuxt8UC9TIWA3wdFQSX2bNBBIbkIwcN3yob62i54XqhFx2addDxEwGvH/mo7/BoNVDf8cA/rseuHFhjH75MGlmF7j9ajrsMDc10HNj4iHZcIDDrQ+H0bPF8K+e+7+xlU7t4I3QyYOaNl4ol4KE/MHBS3RLZDeXz2Q2k4d+KA0vr2k3EaXHOi/nuNIY0ADr7PNNj03VdRqA0rGR+6rFVw/V0ZTNrF0KzSMncetBVXwCa5CBPRIMJ5O9SHdyF/kXgqIZ5jxag4Ku2EidFJ6e4TS+DjNlS9wvROvNYa9cHxk72wfayGRhWA/wIH/c4aWJ5USw5SMxVzTdkjjANu2ErtWLhvDwqlS/wn9qPCW4CGlwxQCgeYoK2o5rCpgYll4cAoS8Dv7cPQxgaUrRFdMPxw/KAKPQ+aYVI7sZc3xSaWeB8b7v5uNTY+GrqGP9+MyndU2FFnglY8koJPHdi7pweaF01Qn94L/vn4zOKF3VoN7hsNKFkl+B9gGbEK+7hNaCiXnmMaoUKRiIfyxMxBcUtkO5THZz+UhnMnDiitbz+ZpQHTKNUV8BWHNQLTIG4bKlsWwlpXCI14JIHI5Zyo2+LBM++VQB/bEyghRxhzcL65BZ6/fw8ljyX0RMZ9ohH0TgMGlijQu8Qco7W8P6tAw/VtqGbHxKe81ov923pgeHsPCh4UnaSE7BgL8MDCdYUwROlotd6I5S4fy0YhPGftULzA3ITV5XwdCp83oOt0H0vuMAGon6tFTWk+cu+VDkXz+z606YqQL4liAeWqQhTd04M+r3QgFQE1Cl+vQclTuci5SzoWzUUX7PeYUShleEAB3XMmGN5n/kcCSRAEQRAEQRDEXCEQgFJvhlEXpUH0q2G4OADfMNv5lGmI9h704yrOvW+H/YRHkEfiEGhOlYOcdGL1Lzw8J5pRv7sezR1O+MSLwwTAcyrkKFN4Ivc+DP8HNjj/rhxmQ450RCLgxofvLYd5vSSKBR7IQ9mbJuTOk/ZnkOwRxio9CtcbEN3Jzg/0wfm4Rjrmh+8jDiv/JrYbXpm7EsaTg+PiGdBAvyrNlxsmaOPTXHGPVxzrn5ZlehhSeO//hIn0FeEwSyzIxcq8Xgxek/YJgiAIgiAIgpg7KDQwri9AlC4GvP1waTVYvID9VqqR+2VhiHUO1Npc5C5TQ9SSwxzc7KKR8w4mnAXB7II/RvQKjODckXr0QI+1G9ZCN+pA1Z42eMbn/3LgLiyHknfBIfjR7oDr0zhPZN2Hca0Xze9rsa1YO0FPYXAArhW5UI/54Toh3McOx3kOiof10KYY5j1dZO+q1CzSGxp8KHk2PPxYSFAj1PeLOxHEGLiMIbm9sUtzUXC6B85BaZ8RuNiLzjPSDsN/NpSQ41v4i40MOM4N45L4MfQs2zAxfvkzIZAso0T7zTbHRbm+EwRBEARBEAQx6xGmhB60Y/kLz4Smci7QQK/PxWImjB/S6aF/WCUKT+6Lq1B/4oLzkgKaZQsBjx0Ve5rhFnqZx3GDX1GCsqcNzA89jBt2wbqiE62npa5DbgRXH2Si9YwPimUaLEQ/7Dur0eyOaBB59/Gj93AT1Fs3JV47aWwM3vkD6NpXD+d1JvQfVKC/vQLVh1n4JCczSXYKYyGj/KgJKLXCFD/p9y/S3xhyoJDR7S+ywIhNO1WwV25H3WE7bA178e0WYHWxdJ6RsyQXuV+O2sJfbORyM/HyazliIHOgjvZb2O6/BWMLCIIgCIIgCIK4A2AC8+A+nDNUomR8naTEqNZYcOjtPShbnw/DqnyYXt6Dysf70HQieg6olgnp6I45BXJXGOH62BcSpCoDLG8fwp5yE/JXGZC/3oI939Wjr6kbYV/k3Ic7bYNtgQWbksxT5r8YAk70I2fLHliKjdDnFcKyuxL6C03olrwRFgErLo7aXu+NmhI7NbJPGI96Ya+tw+XCWlifik5gFdR5Tlz+XNoNMxbACBYiJ3WeikH9JEv4t3ahaFUuVj5rwY9r1kHHtGmuOjRGWrlUL35tGd+kLzZyUKmNcF6JT94AAiPAwnuFQCqhifabbdpFcn0nCIIgCIIgCGL24ofr7Tp0LqkUF6jKXAUooHvcAC8TvRHFsRgL46b7KgVxNJzcjJPi0dUweD3wxWurceLuM+xC69vApuLlTAGHTDmNXGfHmcjhJZtMynuFRaBXQ/9I1FPN12F1XmTKqm7dMRw7FrW9nMdU3vSQZcJY+HpSDefDVli+Fj8cWQ2NTguXJ3aFLP6Tfrif00orucngmgv2Dje4BRroBGGqZaI34EHfyUJo5VuWSop6mQ7as/3jX19EhgfQf2F6/CcIgiAIgiAIYjYiWKupQ/1IEazhVZvTIEzxjJ92yX/BROYCZZSodmLgSqwE9vs8UGmFOcsMYWGvD+Kmhg4PMcGrgvKe0G7a+3zqRRfXi/ryzdi8ObRtf8sJvLuX/T4Oj+DmfjWMGBHWGYuCx5AfUM2XQjtfCaUyesv800AyskgY83C3hL6e1CT5eqLNK8LC4+1wXJISTZqHbH5aLytjidyXg7ETdWg6KY25v8nBdcwGd/Ez0GfQ65wUrRFFKjvaP5CGLtxkYv9QI3xbpsl/giAIgiAIgiBmGQH4PqhH3ZUi1L6SH7tQbwpy7vLD9tN2uMLdw5wL7e+5YMqL1j8q9LzLxGlY1zKNZDsagGmVNCd1ARO+R5vQfl7yRNA/x+1wrTeO65O093lkIzo6OmK2lgpjyBZyx0aIBpsW5aFwfQ9sx1zgbgoH2H1P29B63gTjLRBC2WPH+GIbiq3xJqUFjLBG2eXiL7Sh7qANrk/ZjkoPU7kFJXmJsxZ3aj+2XImzYyxwzYnmA42wu4WUV0H/dQsspbErYqeHQ+/rW+Bfl8Do9bAbbW/Ww3ZeEN+C/2WwbDVCnci80xQhG3ZEPJQnZg6KWyLboTw++6E0nDtxQGl9+8koDT7vxf6tdXBKu9GY68J6IpFNYiaoTzRif4sDPlG6MP1TWoYXn9JIHYnSNa/no+/HjfAoFPANq2F6mWmkNRF1Exh0oPE1GxyXwvpnG8pezIdmfBGtdPeZSEKtNepD75FGNP3MLQ7BVulN2Fb+IvKXyusZnood4+wRxhkS4HlAGT2EYBKM8gjMY37MgGAVYf7z/06JaRwhMAEqFIl4KE/MHBS3RLZDeXz2Q2k4d+KA0vr2c2vTICBM7U079DidRhLPz0+lf+TdJy03mT+jmfszFWGcnatSy0AxVVEskDJTTAPCGPopB5IgCIIgCIIgiLmNQpbITKeRxPMp9Y+8+6TlrmnyJwPmrDAmCIIgCIIgCIIgCAESxgRBEARBEARBEMSchoQxQRAEQRAEQRAEMafJPmF8MwBu0APvteQGqUUCgmHplC4IgiAIgiAIgiBuP8JiVDK1S2DYB89FH7hR6YBcBH2U6TVxBDh2b68f0y6zRO2WeJuuW2XVqtTiMuLft8HzJQ1UN/zw3f0MKndvhG58GfEQnLsN9XU2uFZY0bIzH3N5PT5akZCIh/LEzEFxS2Q7lMdnP5SGcycOKK1vPxmlgWCa9rg6jXbxw3mgCo0fq6FhjrhLPqifr8aur2tlLTqc1FStHEa9sNdWw+7XsHsH4L/AQb+zBpYnMzNomwwxbLWJjFXFmualValFvOj6sQ0532rAwZoa1NQdROVXzmHfYRd4yQXYL3dLBSr+xzyYSjdKxwiCIAiCIAiCIGY3fsGO8KgZtW8xLfSDGhx8uxLaXx5Al1dyMGME4G6rhvPhSjSI967FoaNlyHm3DvZpurfqqV3o6OiI2Y7tLoTqSSP04zabp0b2COOLLtjvMaNwlVI6oIDuORMM7/egT7AOLRJAjt6CAztN0Kvvlo4RBEEQBEEQBEHc+QSGPXAcrkfVgWZ0nfFFdQAC3OcuGPP0GO+jna/D6jVeeAbHxRBwk4P7hA2Nr+9H41EH3FGnwgQGnbA37Mf+BhsciRxMwIu+d5ej6O91CCsxLDCg8DkFen4TpYzT3Zv3wdnRjPrd9WjucMIX/XAT8KK7rR9F6/KmbfRv1ghj/yd94FZoIhlBYEEuVub1YvCatM+iTfuYJpJgBEEQBEEQBEEQs4GRc7A19AD6tdj0NR34E1WoPuYZn2Or0Rai/4wbfmkfvBvnzhpgeFiSjgEv7P+lAq2fLIbhHwth1FxF6879cHwaOi1yqZOJ1kGonyhE4ZrFGGjZgbpT4z6mJl5ZKnLg9fgg6l/p3nYuF0Z2b4PaF3vvz52o/0493PfosXbDWujGerH3Oza4k8x55s92w/6l9Sh4ZPpsHWeNMOY4N4xL4sews4i6C7j8mZwvHQRBEARBEARBEHcoF3is3FKGglV66PVGbKywYvn7reiVxKVyTQmqv3IOe1+qQNXuKmyvtANbLCh4MHSeP9+J5gdKUFlaAIOe+fGUGdaX9Ri5EiV8P1qItTs2wiicX1WAslfN4A91w51yhSsNcp92ouesT9pnjHrQ2xWZEyzc2/5lC3ZtMLKw62F4moVjqxI2h1sU9t5TreCet6LsaYN43rh+Fyr/wQX76USi3Ivuo/G9xX642tnzToEsmmPMuJk4xXIU0/clgSAIgiAIgiAI4paj1SNXErki83Ohz3NhQBpzzLuPoOH4GAq2lsPyShnKitVwH2hCrzh6NoABjwOFeStjRs+q9IUwrYrqXMxj94heuPhBdg8Vu8dgaAGs4uLiqK0NHtGREsZv7ILqOBPjtc2wH23EXqsNMBSKZ8P3Xn5vAB63G25pG+CYnx/7wTFRO/DrMWju8o+fE7ar13Pg8vnHe8TD8GeYwF8S31ucA/WXc6XfkyNrhLFKbYTzSnzPcACBEWDhvTR4miAIgiAIgiCIWYx6YdyUUCVyFjBxOSr2uaK7qQ/G7+6CKU8LtUoD/dNlsG7hUdcl9MryGGFSSaGYF7o0GQtyJtxjodqLsTGmt75qwbFjx6K2dRhfv/oBIywNDdj1nwzI/cozsLxZg3U6JlyXqaGS7h3w+zDw+4HINqpByeNCny8P7tI8DF2JOsc2/z0GlGgUYLeOgj3nsQGYJ8wtVkKj10u/J8ekhXEggQ0pcZui7avJol6mg/ZsP4uqKIYH0H+hEFr5Fp8IgsiUUXnlQHqbeqzIHvSIC0QEbkqHopFxn0TlUiK/0tvYSxOWW41Mu+vi8yeM3xTPI9MuoOy4lZPO10ILgSSNWzn26Ec5+C564U8RL7JtKYq2IRM/zzhSPMV7dUvzHAun3+tOEy9+eN1p4oWX3CRLIznxPx2kytfCuaR5KBYxDZJ6kyZdiSkxXXGfyq14Tvp9RyOjTBonYbmb6LpQeelmZcedlo/FtE/yjorlHasHJjySzPpGQCyn5NjhFdoGKdwkDUsYWeWqjLQV3XjgG07hZjo4w8RizC388HlUyH1QkIgBjHkXY2FO6EwY9RItcI1j0lOFxbla9HkHpTMS8eWtxxeZoywQ8GPgTD6WPsB+K5RQKqO3cI+tH66fdcHNMXH6iDDMWwuVQugd7kGhVsPOs3trVAhojTCtN8VtBgjSeeljXiwUeq/jzz8dtaAXI3Fv8fQwSTvGv0P7/6MS70h7MWzah3c3/AdpZ2pkZsfYD0d1BfryalD+rAbKm370HqhAp6YaNRsS2O6SZQss+7m9Nux4+Nx+5OiEl0c6RNx2Ms0TnmPFqDgq7YR5oTbKBp4Mm3rXnKj/XmPIBjlY5fKZBpu++yorTCMZI/19PGgrroBN2gtjruvAxkekHTk29uLD4lPDVL0LpqiwTJbJvG9y7a4HPm5D1Ss2eGLihJHmeeTZBZQRt3LSedgN2+t16L2hgfpuIZ11KPuhBUahspVIb48+AN+JRuxt8UC9jFWyfh8UBZXYs0EXuU9GthQD8L5bhR3Mv9jniYaD880d2H9yeYytxFuZ5wKsztpb043AMjUU14V4McKyowSG8bhjDZB392KfIwCNWhGKlzUWWEqFBocEC0vXgX1oZf6H00hVHBt3Aa8d+6vt8GtC8e8e1mNXXBqlIpM8Hsp7AVje3jM+/y2MfFuaHHpf34K66xYcqi6IXYBTOudflyxdiUTIT8PpivvQe9S5vgaHturj2mvCOTvUMe/dzJNZWS2jTIojYbn7ZFwZH19e+lQoqtrD4jOZr5kzmTpJIGl9M+qD4yd7YRPrgYnlnbz6hgmst+uw1wXoWVmWqJwKwdqQp2yor+2aGA6BNGERiC9X3TBgzz+VxZSr6dM23o0b3IpdqNlhjHsnEpNRGgjapaYT+ucqUcmeVxCL/pN1qOjKRXWdCVoWJ66GcrQqLah8wQDVXczBsBeOQ9Vw6mux52kWok8d2LuzD2vrrMgXnpPFU9eB7Rh46hgsecpQGh0aQMFWFldfE56AZ+2vauzjNqGh3BDXkxwNq4OOVWDflfWo3ZEPNbs3d96Gfe/cjfJ9GyFWZ/H3lvyuv2sbDrI4DVxoRumRHFTuZXW+cCNRy1XhnKEW1qfCccTq1B0HMLa9Num7MBU7xhCEcZjLl33BEZ6f5PZvwf+vZXuw5QKX4NzkNiE8GfFFX7B1z7ZgUVER28zByp9+GLz6Z+lcPJ7WYNFrPcEhaXeu8seh2xkD/cHWon3Bns+kXeKOILM8MRT88I2iYNOvb0j7E7nqqBbftavSfvB6f7DFYgm2D0j77Ez3HnOwyTUi7QeDI30tQcurncHL0r6c+wSHPgzWFjUF+5I6uRHs+2dz0PpOf3D8Tl+cCzZZrHFhKQru++V4aIM3PmJhsbQHx51MgczidoSF1xrc9lp7sK+3JU15NRBsf9UarH2jMljEni/C5J5n5FcNQXP0/dLGrZx0HgmeO2gOVndFUvVqb23Q/Gp0WITniM4LN4L971iD5oPnImk20B60mpuC58IH2H1a2TUNv4pckz6doxD8e7U2WPu9omCrRzoWhxAf296oDe6LL69uVZ670RdsMVcHO6OqxKuOfUHzTyLxcoO9M+Y97J0J13l/Zv6+xuIl6r3qf8cctBzpi4QlPo3E+1iDrR9FrhlxNbF3UX7+zySPD/XuC9XXCfwXz8Xk5WQMBXteE+r8oqD1+ARfxHPJ0pVIjPw0nK64F9oCoXZb5D0Oc3vaCRmV1WnLpIkMtLE26i8i7/xEhPJyW7A2vlwwt6QshzMlszopTLL6hp05bo0t7/w9rNysDnZfkfYTEF/fCHWJ+Q1Wl4TLsuuXg51CWRYTn6x8+/421s7vCZ77eeKyIm1YxPLOEmz5KBKhV3/J/Prxh5Fr5KStWIe0BvvHD10V8361I1X6RsgoDSTt0v8/DwS3mcuD5d8sCporWfj80nkBFl89P60MmsV3im3MXe17UfHAGPl1a7BauPab25i7bcHqdyL1QqjsPRfsb2N+fJPdw1zE2iGdwYHrkoNUsHrnw6h7TwgbY+Sj9uA+4d7/uTy4jb3z5T+K9vtG8HJvU7BSuCc7L4at+VykXcEYcR5Iq9+GhjjpV+ZM2xxj3vV/ouNL/wl///D0fcnKmAV6bKw+hI53j+HYey2oKTWKXywS8shGdMzx3uLJwLkdsCWxa8ZfcqLraCP2v94I2wlXZJge74Gj3QVf2O5ah1c61oN+XMW59+2wn5W5DDxxhxEAz6mQMz6UZiJpbeoFAlDqzTCKnwdDKPWrYbg4wPKMdEDGfYThVJwqBzlJncixsceBO2+E8SuR77yKR1lYvB74PpcO3DLk2133f2CD8+/KYTbEjZ+a1PMksAuYNm5lpDM773h/LUxPC0OqQqifWg/TmB2uj6UDMuzRe87aoXihEIawE3afwucN6Drdx55WQKYtRRE/HC1OrP6WGavjoy7MqButh0ZQsqUIE5b0uFV5jgcWrmPPHDWASq03YrkrMtyNx0KYnjNAE67z7lJDv2Y5XJfCLgJQr7LCWqyPhGW+BrkPR6XR7/vQpitC/qPjLqBcVYiie1j8x0fddPFkCUpy7Wh418tCmJyk9YuEcWsJct9rQNvHMzyMkZiAvLjn4TvTFWk/nJ+4mM7GUhMG3mqA85aXtVMjfZkUTwAjIxxUqeqzT1l+v7IJZrHHLoTi0fWwWldDHTvZ8paTtL4JuPHhe8thXh9V3j2Qh7I3TchNOqU1vr7xs/h0oeAfQj2OIqycKnh2LbrO9wtFoQQrz56rZe38fOTeKx2KRk5YhjkMck9g9aORdFCvYGXxiUGE11VOn7YBuE/bsfzFdaEeThE18rYdmJZRZhOQtIvuSQsOHf4xav/re2ipiR45xGDxlV9ag5bj7+HYsffQ0XIQ1uh4YCgf24g9b3fg0H89gEPHD2HP5ki9oHpqFzo2G6DbwPx4qxa1grudhdBGL8aVDFbvGMP3frdjYtgYykdN2CX4+XotDjCtdrAi2m8FNE+VoKblPRxg58WwbY0a9cRQ5llmVL9NkzD+A/7P9y7iH4v/DpPsuJ5e5iuRqrwhJkMA3vYqVLT6sHhNIQqfeAhXWyuw/0So0cWfbUT5bgd47Vps2rAWD11pRcVBZ6jguO6H63AXmg93I6Bj5x9nWXyeGrlfFoYN5kCtzUXukmStUuLOhjXqLyyHkmeip90Oe7sDrk9jrbGntamn0MC4viCqUmF4++HSarB4gbQv4z5CJedmnoycd7DzzI3QeI5zIhJf6kXb2IMG2uf64fxN5EMN7z4H1ypWSdzCYXwhZNpdv9aL5v9/e+8D3dR17/l+7+SikGUvUhEakTwU7pXLRIRXkQyCjhVWTLvipIPtKSILm65ErIVxU8zkybeJfCl2M5jba0hqp1O0MthNsXnXIi+YvFj02uY2mCk2Q0RjxBSrTS2aSC3IL0E09Un9fB5ELtHbWzqy/lh/jv+B//w+WSd4n7N1zv539t7fs//8TmqwoyjJkpEJxCepXUAZaZspnwMDHjjW50AdF0gNVq4T4PkknPqZ7dH74ftAwOq/i/OBrJzVMJwZiD6bkzafw/jPNKNjxQ5sSvlBNwD3O03wf9sEQ7L0ul1lTqlDQWgNVhTR0wfHY9G0Cu0qui7OBzwuBxPTkXMKKFfooB59pxhDfXDFvosc1hlNTA3FPTHiecpZjA3bLVjZ3oATl5MLq7TtS4QlG1D64kp0/PQE3JnWJBJTS8a0D0/vrD4tIucbJSj5Bus/vFUJ67n4MnW31gjLsyIaW3ri3+UZzTjqpFFECKw+U33hR087b8860XM5Pi1EnwdOXhcK7hg/Aah1WqgyNgrTSLr2htXxzlU5TLizPt9pHmY7ui4KULB6RzOe9oZxd8KgVmizqJPeUcHK603dmjTSSE5Ylqihffg9XPhdtN7xszqzf4uWtUwhl4y8HYDn4krWhx2BP6YdEO7RQKeZLukmcZciZn1vEjJdZyiysqBINYDI4euJ5QjiRPizM/yOPzt18HjYM4RtmpgSYSy+/2+w3enRYmJ6GXKi44gKpbtLJdtpeTB9zwydGB6xyNIZUVu/B8W5rELRaJG31YQNZ1gFM1rXB6B/xoyCXPbbZaxWV7BOvy4HS5kwfkgrnSNmH8Iwrj3AGqDzPiiWq1kXtx/23TVodkXVQSabemO46cbxQ3asfPYpqXFiyHiO8JdrUP3RCccVBdTLFwNuOyr3NsM1Ouqc2cYeCy3022ugc+5DmaUa1dW7UNUGmCoS18/NFFjH6kgTVNtLEF2DG8t445PMLqCctM2cz+IQqylCO1MmwBq+fn+4oshsj55/IDFAdV/4yiihluwqBkO3kZPPDN7BY3XajmdSrwMM/K4VDR8WojRm1CaWO1bmWNgbGnwofTr1ei//2QY0+krx1LqxPrzt7DkvV6Jsdw/U1Zbou7gsB/nnuuGI2ZclcLkHHeclx3SxUIfnvq/Dez9LLqwyty9hFI8+h6rH3kPTCTdrcYjbSfq0z4LumVrUVRbD8LAGmofzUPLcBvT09sd/3GCont6JHSNNsJ2dLdJYTp2UiIBBnwrn33cgsISJt0V+OF6rwL7T0XoicFOAdsiB+pft8N+rhnqJOMbP7SdDezMyAu9CDzr3W+G4oULOAwr0t1Wi5ogrZqQ3lmTtjQpqrQYdDmfMb9hzf9El/S0TWWHRwFhtwkhzGXZVszrRUoZ6tx41xZF17nLylm92lQVP535Yzweg+ooKiiTtIzF7mAJh/Af8j//7D/j2TBktJqaFgNeNro0GrI4dbViiQ8G3pFGMhawy+9JIaGc/1/ku2N/m06RHMDK6i2I2sify1YmY2Sj1ML9xGHvLjchbo0feZjP2sg5uX9Mp1uSFSW9TLxHWAB7ajwv6KpTGduhlPEe5zozDb+zFzs150K/Jg/GFvayj1oem0xEfmWzscUS43mqA/Yt8lO4yw1K+E4UPumA9MjNHMIRzNtgWmVHyaCppN774pNrpMXPaysznFLuqxm2+dyu5pImzR/+F9G8c2Qh7kZPPAhxHbVC+UAJdqnop4MWJZhc2bEstUO9ImeMfjn7UBKaiYRz9chQP31Cm/jCw4x/5ZixjUT1WgpItJpRuzEL3a01wRPJokQElu5WwV+1C/RE7bA378A8twNoi6fo0onikBOX6C2h4J4mwyti+RFBA+0w51job0BozCkTcDtKnveJ+NZS3+G7oLjhO29Ha0x8SL2NRIW/7DuBwc4o2YoaStk5KhAmy1w/jUGUp8nN1MDxZij3/vAOKg3Y4JDElCNfgPjeItf91D4qf0EP/RPEYP7ebTO2N+JdB4HQ/srfthbnIAF1uAcwvV0F3qQmnok3FKKnaG83GchR+ZEVFTSNsbc2of2Ef+tT5MEjX5SAvLD50vd4Ij9aEneUWmHeVYq1gY+1YQh2ULm/FYQyiC/33mLD3hQIYdAYUJGkfidnDpIVxaLT4ARotnuuIw6ySWahAqmUi/nNWlJVVwtbjgUfMQk7uakzOkhgxW4lfH+nNYFMvlvBOlB0PVqFma+pRvAhj1mGOgXXUHtPD+2HM9Nm0NvYY3lNoumRA1W4jDBp2bpkO+c9bYBqqR+elGdbRHnKi9Q2gpGgle0HD5i6Gb7DzgWH2txTWccWH5VVSu4DJSEzbzPmsXLIMuOJPEHsBBFiYl0o7cma2R6+EKteBq4l5PhLAMBYjO/ItJUM+i72taLxVgoJVPOl42g2HTKF8Phw1WeH9twZ0P2bCU6pw2nI/n7Pz6czTTHuZC+1wXY+rBXyHzuRyPbSr9GtXUTi66+dYstgzdDrWIS9iQvwZAQdi3kUVX7v2+h4UrsnB6qfN+EntJmhZxZ+jylwqJgdLu0078Piv9+NoQrzH1b4s1GLTdx6H65WjcNGU6ttLyrTnO9aXoWy3Dd0feSBm5eDxx9L0EO7Pg6lsAZoOdSX/ODSjkFknZeJ+LQy5XRj4JOxUKpcCq9ZCF/sO38/e2fVRP7cVGe1N1r3cqg0Lc6zQZWVibW6ypRhp2hv2m+Law6jbZsDqrxhQsv8QzOuXYni9KvUsmgTkhEXs7YR1USmqyvKhW8byUWNA8W4LdCdt6AmlsYy8zcpmf7EnPRbbZ2F1mf7x+HaAmDVMUhjPwNFiOfYXx2NrLkTYjhx/mVLakZuA3cfM9j4l2L1DNt5SPfs2oHwwB5pLHsRbPuPh4rH1wvG2BwU1h2DZzu2NGUKVzB3eH4K4HXzihP1dd8zUJMbQIGsMlMi6hzsy2dSLwLf5r4d1uBAWyQRBHBmfw7pevXZ0XY7zAfEvrFlalCU1WEx4p7Wxx+DTr8YYz1dBvYL9eij+3necT7zoFHpgLd+KrVvDx67XHcDb+9jfJ+DmfsYRn3R2ATOnrYx85tN0z/fBEzfaMQDPJQ20rL7gZLZHH55m53THf4kX/9gP10YNwrmYOZ993k4IZ63YJaXb1q27YD0PHK9hf5/gKcfaCLcbvmPVo2m7des+HIcD1he2wvqrcHfn9pY5PpuiBo4VFsmERhKus/JQ48DKl8xJRDELS1sX3AmjTUoVC0ckj66z96zdBWGRGlomnPkaOUXAjb4zkfSfZriw+m4h+n/cjO5RRTT+9kXx8CaUF/Wj/kg3/Hew3ZyPJE17rwOt3gLUvG5B6WZjaJR02aL0PQTVEzuwc5EN9W39oQ9SMxc5dVICkQ1JJWcYEYN+DRZIow9KVQ6Uw4GE/qSAwY+jfm4rctqb+1QwMMkYiAs0jxeLz8L4diV1exOA94wdPSw5lRpeZ2pD+yL4P3BgWMv3pZGJjLDw6epYklD3KlR4SMvqwFA9KSdvmVhfDwzfiM8pcfBaTDswhUh6INkxnRphPDbJZzuTEsYzbbSY27+0lpehusGGph9VoKz6eMJ6JW5rzIqy56vReLQJ9d9jft/OsBaJ25GrLkPFj5pga6hGWbk1Ou1MIvNzE5G+nlY1wna0EdXPl+FAe6odOcObXvFK6MRH0qk7gcaAQqUdbWcivRWWlidfw9bDfB2IEosfFCAIkU4cu3bmFLolV3qGMRzfryRmE7zBerMJbRfDQgG3BDhP2OHczDqvodYmvLFQxy+cECKVKrep94su6NdopUaOlZd3raj/uBB1L+axZiYJGZ8DZN/lh+1nbXBKXiA40faOE0bWCQt7USL7xinU841dpLAIF1thcxXiqUelmzygQYG7A6ciz2GI3i50vJuwQdFMgO9O2d4ed7RUGsK2nduLEbLoKDs+6UeLM6etjHxepMeGLUx4nYj44fYLG2BfXoINkfm+kXrmXR+7yuA2DA83wrftqdF81uQWYvGJNnRdkSoOab2t6Un5+azdGp9u7e0tsLDODbc/HLaFqUTe7kQ/dTCFbG22Y49kT/H2lTkRrpbwbIraVLMpeFv1ow48VF2bwrZjNnuJWBvF0z/S2LDfnDhqD+0mHnrSl7IxcroeTZF6nr9nx2xwFUXTf7pRrChG+TMeNLdE1mFPpH1RQLOlHEZPM2zTvT6aSCBJ2i9ajKUCE3WRLLzpQ88vM/UQlDCUmZFzohnHpTMzlcx1kh+uNhu6vNKLl5WFgMOK1kg9x/7ve7cNdmUhDJG68OE8mO6ywRbjx8vu0Rzr53Yip71ZkouCzd2wHYu2A/5zNrReNMIQV4Gka28UUN7lRv0hJral5BSvdMF2PAslj48j4jLColymhfbdjmi+sbpFuHgKHW4Wn78Pn5HT3uQ+bUT30dZoO3DdEXputB2YQj46MfphIvGYPo0g4Pzrd1iD3Eb+httskv6GzzeAxffxSQFy+AP+tfIQ/vp8LTZPkzAe/PMg1Gq5n6m9sFtqIHy7AaUhUx98BKo63iC1147KGgElDaXhrdf5Wq0f7MdgcQN2RtYz3hQRWBDZCS28k2Ln8lrs3Rj+NuQ/W4/Kf40Y0ubIeG5AZHeK7r7mP70Plb4CNGyXrousQ1Nlw+IX61CwPOQlCg/zIQ9U9/TgoefkGMofH+MyLM46Ucd/bIXNy7+RsY6TxgTzi8XQMdES8HbitVca0a/QIntIgPZ5E5SvOvAQN9iOHhzY7oAhiYF+PkWu+tUu+DfuxbFIehF3lPEa/OcfhhpfYY3+Fd4qKKH71g7sfC4P6sjaTd4JOtqIpp+7WPXKUKqRt8mM8oj5gE95+ahHwtZIIbhQiZT5jM/hHebTjTjQ0gVfyIsOxrKdeO4JdVRIMKHlOGJFoxQWpc4Ic0W8OYHAQA+ONjTBLpkjUy7Pg3EX6+jFmLCZKONN21G4Uf8TKrRkMFEQMsz/sVESd2HkxEc8b8XWs6vT3F9G2mbKZw7z03X4QKizx/2o1u9E1QsF0MQmbaSeucjFGc/nnTBvjze9J146zjpONjj5dDcelnIzSnNjPqnIyOd4BPS8ug3+TenqWNZeFNmhiqvHblOZ4/nP1yaPgQv1cHjcx4pQ+aZ0Opb1lmi+JsujLRaYY3eYZZ265oONUlh4+pthLovfETsd4ynjofJ63pCk3PnRVVMGq5Z1ullZTtu+LAnnnSO3ZfSDxSifdGHf81asjKlHiMzIz0O5aR+At/017H+jH4qHszE8pMXObytxoPchKe/5u1UJJMmnwKVmlL3sx44k/YfpZLx1ddo6KcD6eGXVcG05hLoiaQw5rp7jdWEpLOVGaGP3cRlyw95Qj+ZzafxMkgm3SYxk7U1iHcPrux3lzyFv2WgNI6O9EVl5sbLy4uA9TeABA3Z+/yUUpDB/lDQcHDlh+Z0d1p80wyFNT1etMcJUluAnU3vD24GzR9F42I5wtZmkHUjDZPIgBNcJB0ewo44JejkPHDdy2seZhSB8BqVyYnOZJyGMp59xCWPWcdh2VIm6H8ZslDLkgPVZB/QtFhhYmXMf2wabsg61T0cLdOgFPa9Hy4sGKEUnGrfug2PbQbRsYbI31GH3oOCdUuhGCxsTwhU1GHmhBcUrmDPjc7n/CjQv3xN+Bn+BznXC/eWnkP9wtDfofrMIpzTHYM6N7SHyzkE9hGctULWVTUuhnNALeVMS+kk2reHTLbi5rDuxxToxNUy0ks6Y93wK0E3+sXxyNXfmMsanGmV4Dg/LSAZzAmnK+USZdAM4GaYkPjLTNlM+84+FX2QICw/vv4t+UExGqCxwkw6Sewxy8nlKmLllLily8oiFJfqRWD7TWcapfbk9TFseyil3M4RJtYPp6qREZNRzsurLCTKz81pGvSoHGWHh+TbC6rt0j5KTt+POf8bk8iA8gNe16mD8xynRB8cvu+DsHUb2Oj3yv2GAOkZecLvw3b90wjGUDcO6fGzIjTUNKcJ/0YHOc90YXrQBTz2jg79hejTIdDEZYTwFu1LPDKbE/mWWDgVVFlQ9HR4Lnhq7mxo89V0L9hTrpS9jCqjXG+NEMRfb/b0aqBOM02W2sXmH4HaiU1TQGW2iEXOWjHkvw6aeHDKXMRnPkWFjL105n5VMSXxkpm0mP3JsI/LwZrxNhg6InHyeEmZZmZOTRywsM60up/ZlliOn3M1yMtZJicio52TVlzONKcnrKSovMsLC8y3To+Tk7bjzf7J4T6HVXQjjf4wRxZ86YP2eFa57dNiwZQO0Iz3Y9z3b6IZ4wnkrKmp7ENBuQMnXdUDvPlS0RDZg5LNea1B5UoD26yXYwC53N9hwYTh0cV4wZ4Tx1Ni/ZKI1N290msrU2N1kevuRPBhipmXEwwthA+xaE56KXT5xPbONTYIgCIIgCIIg5hsiHO3NWPxMftwUau/ZVgjPWLDzSX3Y+sDmPaj6phP20JR8L7qPeVAQsiDBNzfTo6C8CqZsAQNcOH/Sg9aTK2HhNsf5Boxr8rFz22qIl0K3nhfMGWEc4lby7avk279MgrRoP5Fx291Mgf+sFfuda1EVWW8cQoaNTYIgCIIgCIIg5h98tNhrih8thh+eX49AfZcfLpdr9Lh2IxtOnx+BTzxwYgNWxw7EKTTI25wHDdMbAb8PTiaYc2K1xwNMXD8q/R3aD6AIRTHHgbPhQcC5wpwRxlNm/zKGqbG7mRp/byPq//UhVO0rhjamEMqxsUkQBEEQBEEQxHwjPFq8NGG0mJ8XrizA4MceeD6KHv579ChVKzAyLMC3KDtmIC4ecXgQWKhAokUwhWQWE9Bi07FjOBZzmOOE+exnzgjjKbF/yTff2laEynbJutyU2N30odNShG1vcLNGUQKXj6P+9WEU/iMTxQklNLONTYIgCIIgCIIg5h1JR4s5Six71IvFugIYNxvjjye1yHpQA8Ol/gRdwzSJKILPfVWqHoLykocpnRgCfnhizN6F1mPHHpknx84q5s5U6qmwf5mlhmFTMZ5aJa0ZnhK7myqs/GYxjOuiO76F7B6/dhWF9RbkJTEfktnGJkEQBEEQBEEQ84tUo8UcJfTf4HaVo3agQ7rkx2Wo51Oes/iaY6ZrTrpHB+vEi82orDoVFsMr9DAuYJomYsue6562VnTPrUHhtMwdc02cqbB/mcgU2d2MErYHVn9OcsbCDaUnFb7TZ0NsOk1rELMTKhPTB6UtMdehMj77oTycP2lAeX3nGXceeO2oODiC8pR2i6N2lf2L1AhcCSBn807s3C7Zox/VNQEoHvAjoMiH6fs7kR/ZJPi6E80HrbD/KRvqmwFon7dg9XuVZMd4JjBuYRxhKuxfJjJFdjdnGlQpEolQmZg+KG2JuQ6V8dkP5eH8SQPK6zvP9OUBtwM9ggWpTO9xXTOyIKUpKzm2nWcqZMc4kamwf5nIFNndJAiCIAiCIAiCmD64/eYUopjDdU0a0SLHtvNcZG4KY4IgCIIgCIIgCIKQCQljgiAIgiAIgiAIYl5DwpggCIIgCIIgCIKY18wdYcwXkYvcClcS+KZY0iW+mFxMddwM+xmF/c7vdcF7XUQgZK6JIAiCIAiCIAjiThGAOOCGe0DIrE9C+ihsp3gMN/3wurzwJ9FPKfVSolZiBAQf3Jd9o1orDtEHR7sd9jYHfLFhTfNsOQiuLnZPOzpd3GbQ1DFndqUWzh7AtvMGtOzOQ+Lebu5jRbA/2II9T/hxvKgSNun8GEbNJfnhPGyF9ec+ZOvUUP7FB9eQGsYXzChdl8a00yyEdiQkEqEyMX1Q2hJzHSrjsx/Kw/mTBpTXd55x58F1B6w/aIT7y0yfQGDaTQVjzR4YNcl2yhLg+HEFDpxZCcuRPchbIp1mMtn99j7s7wpArVIg4PdBsc4Mc5lk0gnu1Hop1rQsN/30032wfaiCWhmA/5IA3e5amNdHtJIPnZZqOL+2k4VvKdRrNCzMic92Afq9sDwfeXZmxIuNKH8LMH1bD/WDOmgfiI17AILw/5G5JnnCOPZK2DawIzfxPMuwY9XY//FTqP1uPtSSvWLxShcaXj6Fh16uRfGKubNNG1WKRCJUJqYPSltirkNlfPZDeTh/0oDy+s4zvjzwo6umDM68w9jz9bCMDPzOhsqfZqPioBGa0JkoYm8jKs4NI+fMCAwxwjjgsqGsbTFqXy6Amu9afYvdt74SnicbsHONJHzG4IXdchAj36lD8cNhHeT9eSUabuxADRPKoV9d78GBHd3Qv7EX+Q/wE1xg26FKfHYTUPWqCdqQtR8/02Nl6HviGMy5qZ4dT0jzfWyMCvRYvHYIyq+TuaYpgwngppMrYdkVFcWcrOX5KC9Xw3bSCVE6RxAEQRAEQRAEMf0IEC4aYPhqdGxV8cha6L1u+D6VTkS46ULr4WGUbitEjnQqgojFMG7Uh0Ux5y4VdOtWwnnFL50Yi9h7CvYvb0a+JIqZwsV776yEabMkijn352Lnj43IWcD+/sQJe1s3+nENF07aYT/tDukn8bMBCLlrJVHMUUG7zoCuKz7JHYZPlbY1HMCBBhu6RqdLi3CftqPDeY1p7u7QVGrnJ9KlEEzgtzikvycGCeME+Jpi99MG6JLYLM7KNaO9whAtAARBEARBEARBENOOGpqN/XD8JipgRdcFONfooR2dJs0JwP1OE/zfNsEQdz6MUlcAY9zSUBEelwP6ZakmM3tx6ng/CjflRmflDnjgXJUD1YgfTiZWuUjtuihAsUIHDX9mlgo5X+HTvbOh0uQgZ7kKXC8rl2mhPX8B7sha5Vt+uHr7UfxIZLw7AG9bNSp/LiDn8QIUrFsKX2slDpzmcV4A1XJ2L1U2sETN7s+eHyPK/Gea0bFih+SaGCSMExD8DhjUcme5EwRBEARBEARBTDdZ0G+vgc65D2WWalRX70JVG2CqyI9bnxv4XSsaPixEqTTdOhP+sw1o9JXiqXXJh/7E8x1ojh0t5oyMwLvQg879VjhuMBH8gAL9bZWoOeIKz6xdpIZOl4OlTBg/pNVBt0KJ0K81RlRtG0HT87tQ/TITwOX16F9TgxKddO8hJzpO5MBcWQyDjv1uTT5Kd5ciq+UUXAEFlEx4r1RzYZzD7q+DelH4Z3wad/MRFXY8k2R69TggYZyMWxPbIY0gCIIgCIIgCGLqEeF6qwH2L5hY3GWGpXwnCh90wXqkB6NjyAEvTjS7sGFbvFhOReDycdQfBnb849g1ymG8OHXMA1PsaDFD/MsgcLof2dv2wlxkgC63AOaXq6C71IRTXslTMga6YP2pByu37cTOF80o374WQksDTlwOa6+A142uVUoEfu+CyyUdfxQAwQ3/n0NekiDAcdQG5QslSWf8jod5IIwDCNyQ/pSBalkeHH/0s18lgQnmlCahCIIgCIIgCIIgpgPvKTRdMqBqtxEGjQrKZTrkP2+BaagenZfC+sT7bw3ofsyEp1QRE0vD+JydD5lfSpAwAa8dB167isJ6C/Lul04mEBotfjBhtJiRdS/frHktdLHnF2qxNtcbMiOVHBHOdiuU26tQ+qQOaqUKmtxi7LHo0HE0LO7FYSa4b/jh+8gDz+gRgHq7fszmyhHE3lY03ipBwSr2N4vnZJgzwlj5QA6UH1yFb4xuHYDnkhI5Knk7vim1a2Fo68T569KJGPynD6D8HXdy0UwQBEEQBEEQBDEd8OnLqsUJex2poF7BNMoQF4QCfG43fMeqsXXrVunYh+NwwPrCVlh/FSNYr/fAWuPAypfMKUVxqtHiEPepYMAwAnGiSMQgU7fKhfEiOkoA4hC7fm98DBRLH8LKSwILPbumegjKWzkwbDbCmHDoQztdj8Xn7YRw1opdUpwnw9wZMV6RB5PmOGz/pwP+SCYFBDhbGtC8gCXmw9K5TCzJQ2nlAjT9qBE9Xumrwy0R3rONqH8zCzu+qQvPkScIgiAIgiAIgrgdPKBBgbsDpy5GBa7o7ULHu3roV3DpqkTe7na0t8cedTAxCWs50h41Tzvkgu1HHXiounbU9FIyUo0Wh1iSi4LN3bAdc0K4FT7lP2dD60UjDLpU2xQrodZq0fWLLvgiA7tcq/2iA/1btOGp3FzP3WWD7UzMBmO/O47KF47DLT0nEe3W+DhPhjljxzjETR96jjai6eeu0FeHUAY8UQLLrgJoxuRRKjvGnAB8Z4+i+Wh0G3DVGiNMZc8hb9ncksVkw45IhMrE9EFpS8x1qIzPfigP508aUF7fecabB4GBHhxtaIJdMmGkXJ4H465yGB9JJUbH2hJ2HytC5Zvhv+NYb0HL7jxpdNgLe8VBjOyK2i0eQ4LuUuqM2FEeq5XGPpuPKrvbrKg/4pDWRaug32xC6bfzoI6sDx5yw95Qj+YPFOycD8OKPJS8aEaBJnzftHaMGYLw2YTtGM8tYRyBrwW+OYIFC7OgiNjomiB8Tv7IgixkzS09PApVikQiVCamD0pbYq5DZXz2Q3k4f9KA8vrOM+E8uCkyicn0ySQ3m5oSQroLyBqXWOL7NjGtlsW0mnRmDDyOtxaM876TE8Zzc/OtuxQsEScvijkKdp+5KooJgiAIgiAIgphlLJwhopgT0l3jFUuSVpNcSeFxvM0ijMw1EQRBEARBEARBEPMaEsYEQRAEQRAEQRDEvIaEMUEQBEEQBEEQBDGvIWFMEARBEARBEARBzGtIGBMEQRAEQRAEQRDzGhLGBEEQBEEQBEEQxLwmzo7xH/7wR/zt3/6t5Lrz/PWvf8W9X7pXchHTwY2bN3HPwpmy3zsxE6AyMX1Q2hJzHSrjsx/Kw/mTBpTXdx7Kg6nnb9h/E7VjHCeMfb4BLL5vseS68wz+eRBq9TLJRUwHZNydSITKxPRBaUvMdaiMz34oD+dPGlBe33koD6YeQfhswsKYplITBEEQBEEQBEEQ8xoSxgRBEARBEARBEMS8hoQxQRAEQRAEQRAEMa8hYUwQBEEQBEEQBEHMa0gYEwRBEARBEARBEPOauSeMbwXg97rgvS4iIJ0aw00Bvste+MWUPsLcFCHelP5OhD1HGHCnf04GAiL77S3JkcgU3J8gCIIgCIIgiLlKAGISPRMQ/fC6mNZJpWP476574R4QUmuRgMg0lRs+IY0SCfnhuiuZHx42pqUSjvHrGnYfponShnWKmFPmmgKXj2Nf7SkElquguOGH724DzBWl0N8veWAJ6zvdiH0tbqiWKxHw+6DIr8LeLVooJB9hRPjO2mCt64T72Tq0b9VK58MEvHYcqLHDr1ZD+bkfriEd9vyzGYbR52RA9KHnTSvq290w1bej+GHpvERgoAuN/2SD+8vh+/vufgpVLxdDOw1mzmibeCIRKhPTB6UtMdehMj77oTycP2lAeX3nmXQefNqDA9v9MLYzncDdN73oPLgfrT4V1Oy2whUflEUJWmfIBdur9ej5XA3V3QJ8f9JiZ4KO8fc2ov6HTuBRpqkEH3z3Fo7RIuIlG/b/uCesu5L5CYWtHg7JGcYAy5E9yFsiOTNx3QHrDxrDmggsrCxexpo9MGrilVsskzHXBC6MI1y96gsOi+KMOXh4ZPN5X7DFVBPsiPnJta79QdNPLwSHJXfQ0xa0mJqCFyInbvQHW18yBRveH/XBuBY89U87glU/6w5e+Nf9wcK3+qXzEqHnWIKtH0R/M+xsCppfagt6JHdaPj4VrPlOVbCp50Kwo7Yw2OqWzo/iCbaxMDU5I/f/PNj/liVoOhQTjynkz4OD0l8EEYbKxPRBaUvMdaiMz34oD+dPGlBe33kmnQd/6g7uL2wNRtRK/1umoPloX1QzMK3TYjYH20ZFynDwwiFTsKbzquRmyqenLmiK1TFcq5jqgt1+yc20yNVOpqlitchfLgQbvhPvp/+oOWj6lz72l8TvW4OmH5xiymqiME22tzC4/5fRO3z+QUvQbE6vuQYHBemv8TN3plKLwOJNBdDHDDCrdAasdPrgl9zuXjsUzzI/WdKJhVoUPKNH57k+CNIpPqqs2liH2rI85NwrnYrloz4c1xYi75HITYCsNQUovKcbfV7pRDoCKhS8WovSJ3KQfZd0LpbLTtjvMaFgTeT+Cmg3GqE/ye4fDSRBEARBEARBEPMJ0Q/n6WZYX7ai+bQb4hfS+RBMw6yxwFKkw6hKWahGzorwlOkQnzrRdXIDjE+qw26G6onNMI7Y4fww7Pa7nXA+zbTO6AiyAuonC7DhpBP9TG9x/L2d8D1jivOjLWLP1qswIp0JiMMQlFkJs3ITuCXAddqGxlcPoPHNLrjitI4A4aIBhq+qJDd7yiNroefTuz+VTkwxc0cYK3Uo2KxHNOlY2fH0wfGYWjrnh+8DAav/LtYHE7U5q2E4MzAqngE1dGsyTGlggjYxkxX3xBS6dCzXQZ/m9v4/MpG+KhJmiUU5WJ3bg4HrkpsgCIIgCIIgiPnDTTeO761Ep6DFhi0boEM3rEcvYFi6zNWJcoUO6kWSkzPUB1evHvoVYfERGPDAsT4H6jgho8HKdQI8n8TomMTBO4UCC9AJ7wB3iPB96AxpKuFyDzrb7LC398B9i2moR1SjolwcYupqyQj8ZzthZ346z7ohxK4RDnhh/6+VsAs5MPynAuhVPrTuPoCuT6TrTJNpNvbD8ZuoShNdF+Bco4dW7lTscTJ3d6W+3oOGBh9Kn9ZLGSRAuGSA6r6QI0ooBa5iUO5o7LIc5J/rhiNUMMIEWKHoOC85GP5eVkB4IYkc/IuOdC0TguCC4cF48R6S4ayAXv0TD6Qfzth7s6Prsty7EwRBEARBEAQx2/Cfa0XHKgv2bDFAp9NB/+ROlK4S4ZKux+Jtr0b1y5Uo290DdbUF+Q+Ez4fE6nIVxozRMZ3R7w+LIdVyLTQnHXDGyAv/2Q50SX/zkWlxSItBRz2qT/iRvVyNxaID9RX70BWjjwTBB1XvBTgCSuQ8kA3/+XpU7O+CT7ouXuyA/SvmmPiUomp7FmxdLvYEThb022ugc+5DmYXFp3oXqtoAU0X+6ABiMs01GeamMOZfVH7UBJaKMGqkcxHiphxEyOYfQuSxyICS3UrYq3ah/ogdtoZ9+IcWYG2RdJ2R/WAOcr4Sc7ACuEC6Jotbyfdryw4FMhuq2Hvz475x3Z0gCIIgCIIgiFlDAH6fE4ZVOXGzVvmyUZ30dyyqx0pQssWE0o1Z6H6tCY7YWacpdnZWRm6sKUB5kQfW7+1D45t2NNftwr5fP4T8XOk6BAx+7IZDWIu9u4uRt0aPvK17ULtdAes7jtHBQM23DuHw6xaUPsnCmJuP0t212KGwwn6e+wjA4+7CynsDcLtccEmHh2lz4UO/tMSVif63GmD/gv12lxmW8p0ofNAF65Ge0Zm+yTTXZJh7wvimF/a6elwtqIPlidjEUUKV68DVxDnpIwEMYzGyo0uGM6Jab2YZvQeFa3Kw+mkzflK7CVqmTXNU4e8vWct0oS8fo8cKZfr59TEoVQY4Pk4cvg4gMAwsvpcHMgvq2HuzQ7NE7t0JgiAIgiAIgphdiBhm8kChSBgMu0uBbOnPWCJaxFDEBOUzAg50hkdhlUuWAVf8MUtIOUxn3ACWju6OrYB2Sy0O7zfB8NUcGL5dh0MVeVh6IzLzVonFDwIr9bq4pZ+qrxpgOD0wOiI8FhW06wzousJ9hOPDLQR5PvJEj5tqlD4mhcN7Ck2XDKjabYRBo4KSxSn/eQtMQ/XovCSNKSfRXJNhjgljP3oO1cCxwgLz1xO/GKig1mrgdMfvkCX+sR+ujRpEl6Bn4LoT9nYXhEVqaHkGaJjoDbjRd6YAGvmWpVISmr7Q24+4UA550H9pau5PEARBEARBEMRsQomlaiX6rsTMVWYEPvbEmEPiyy274B6SnBJKFVM514XwSC5fEnq+D544PwPwXNJAuywsKgMf9sB+limRJZqQ2NQuywI+ccExpIU6tLZXGTJ7O3wjYYbr0CCuaRZIg4Ei3KftcMYHF6JwDZp7uI9wfAIaA4ybjQmHtGfUyAi8qsXRjcRCMD23gsV0aHqWkc4hYSzC1VKPjgerULs10S5xGE1uIRafaEPXFSkxpXXIpidjdm/LxJeyMXK6Hk1npG8ttwQ4j9ngKnoKunGMOqeEFZBCpR1t7/rCBfgWE/uHG+HbNkX3JwiCIAiCIAhiVqFZY4TinTb0RKZFi26ceLubScwI2Uwx2tB0wgkholmHXDhx1A5Dri7sb5EeG7Y4Yed+QlOqmYA91gD78hJskJafKphHd10DTvxO0kuiD11vtSJrywZEVqhq80xQvGmLairRC3tLMxZvNEh+spB1wwHr8S74Il6udKHtxGIUrgv70KwP32M0PqGwVGLX29I64Qc0KHB34NTF6Exa0duFjnejm4lNNX/DbTZJf8PnG8Di+xZLrjvP4J8HoVbLHCa9fBxFFpvkiCXekLR46TjqD9ng5DueKXUwlptRmpt8Prpw9gC2fWxEOxPacVx3oPlgI+yhPcWV0H3LDHNZ/I7YmRHQ8+o2+De1o/hh6VQEVoiP/9gK20Uuvvn9d8K83QBVMvNOk4SMuxOJUJmYPihtibkOlfHZD+Xh/EkDyus7z3jzwN/bDOvrdvgXqREIaLHzH1ajZ7cfxvZihNTKTR96jjai6eeu8DpdpRp5WywwF2mig4bMT9fhA7C96wv5Ua3fiaoXCqCJGYATP+yEta4RjtAO0SoYnq/CS7H3YIi/s8P6k+aon+3sOZu1MYONIlzH6mF90xmeuv2AAaX/YIYxxuRt5B79CjUUV4aheKIElv+DhWVh+HpgoAdHG5okzcWiszwPxl3lcfdIRBA+g1L5Jck1PuaOMB4nAVEEsjLY1srETRGBBewe0yBYQ7D7i/8uC1mTCmR6qFIkEqEyMX1Q2hJzHSrjsx/Kw/mTBpTXd56J5UEAojiCBel0zC3m5yaXOmlERIDpjC+YzpBEaDLk6KWQn4Vp9JCMsPB7jDBNldIL10R8FDpNWCNMRhjPzV2pZaCYrCjmpCsEUwG7/3SKYoIgCIIgCIIgZhMKJjIz6Ji7uJ8MIkKRWWjK0UshP+n0kIyw8Huk9cI1kQxRPFnmrTAmCIIgCIIgCIIgCA4JY4IgCIIgCIIgCGJeQ8KYIAiCIAiCIAiCmNfMPWF8KwBhwA3vdTFkyDolfMG5mNYHQRAEQRAEQRDEjINvWBUImVxKBd+kK40euinAd9kLfyY9xDe+uin9PQF4ONP+nm/OlTEu8YTiLv09lcwpYRwY6IK1vAzVDTY0/agCZdXH4U6SEYLrOPaVbcXW18+HtzInCIIgCIIgCIKY6Yg+9LxRiWe2bsWJj6RziQguHP9hGbZuteL8p9K5UQLwnbai7PlqNB5tQv33mHZ6251EaIrwnW1E5RammU5ItoXHSeDD46hm4Uz9+wC8bdUsnGniMgY3TiSN1+SZQ8LYi86f2JD93QYcqq1Fbf0hVH31AvYfcbJsjSDC1VKJyn9bAGNZsXSOIAiCIAiCIAhihvNJF/Z9rxEebQl25krnEhBdNlTu7sSCb+1AUrXj7YS1JRs7Gw6h9oe1qLNWYfX7+9HcG1VMgB9dP6xA4+9XouR5g3RuvDBt9tMLUH1dJ7mTwMLS8L4KeY9K7jvM3BHGl52w32NCwZqIwWcFtBuN0J/sRt/osHAA2TozDu42Qqe6WzpHEARBEARBEAQxwwmoUPBqLUqfyEF2ChNJgXtWw/zf9sCoUyGZ2nH32qF4tgD6iGRaqEXBM3p0nuuLmUkbgGpjHWrL8pBzr3RqnPjftcHxtXKY9NnSmUSY+G5xYO13TVibxIt4xYHONxtx4NVcw7/uAAASqklEQVRG2E474U+cBfyFCPfpZlhftqK53QFfrK6fIHNGGPv/yDJzlRoqyR1iUQ5W5/Zg4LrkhhKaR9WIlAOCIAiCIAiCIIhZwXId9Erp7xQoV+igTil2/PB9IGD138UpJmTlrIbhzAC7GkEN3ZoMD0rH9R40n9RgR5EmpR1k/5lmdKzYgU0rxvoQextR/nIXRM0GlGzZgIc+bkXlIUeMcB/GhaNWdEOHDey69mYXqvcmX0I7HuaMMBYEFwwPxmcyHzXGXcDVP9FKYoIgCIIgCIIg5jMChEsGqO6TnBFCivAqBmVKJvFyF+xt9pjDGSOq/eg50gTV9hJoF0qnEuHC+YgKO57RJhXOWTojauv3oDhXC41Gi7ytJmw440D/aPhcEFeVYueTeuh0Ohi27IFlVQdaz0VDMRHm0Bpjxq3k+5NlK1J9qyAIgiAIgiAIgphHfCH9G0c25EqmBfflIOcrsYeK/TqMcM4G2yIzSh5NdTMBjqM2KF8ogS6VcF6ogvpLI/B7XXCdZyL87W70YwQjoztXa6BbETsgqkDOKgOcH/ok98SYM8JYqTLA8XHiZ44AAsPA4ntp8jRBEARBEARBEPMZJVS5DlxN3NF5JIBhLEa2TMmkWMKEqU4Xc0hLVYecaH0DKClaCXAzTewYvsHOM0EWMZMr9rai8VYJClZxL9zPcMhU0+fDUbNO/nNWlJVVwtbjgUfMQk7uasRv4bUUixPWJWfxwA9NbqHxpIVx4P8dwO8/HMBnk5zTPVlUy7XQ9PbDK7lDDHnQf6kAmmWSmyCIqYfbt5Mqv9EjWX0Qspfnhm8oheU5OTbImR/+9TCdn4Doh/eyD0KaOikw5IM7nR+59tBvFzLtrqe2FRiAyOLjHhDG2gkM3Tv5EfvE0L0TryexOZgxbXlYrnuThyWCnPSXY38xU5mTwuLy+jPYT0xuCzJZmoSPsc/LXC5lhEVG+c8cZyksLpZ2iWFh908en+R5PWnSlWt+LWVaxRPKh5S3maawEyGmKu3T+Q1dk/6e8cisq8Ow922S9fKdIGX9MUqaeHFk9hkm3ZYnTcMkqcf8+b2szhRSp6yssAgsLKz+lp39dwwV1FoNnO44xQTxj/1wbdRALbknzCdedAo9sJZvDZlg4seu1x3A2/vY3yfAjTb5vJ0QzlqxS7q+desuWM8Dx2siZp28cLztQUHNIVi2G2F80gDdMiVGQg+I4IDn4/jE9vvcUGomF4O/CTKkv+HzDWDxfYslVyau4/3/XoPDnvux7EuAcHUA92+qhqXw71Mush4vg38ehFotV9X60VVTib7cWpQ/rUbWLT96DlaiQ12D2i1JFn5fPo6iEyq07M7DJJaWz3oGBQGLlXcqBUT4XH5ksxdUSbPdZwzjLRPuY0WofFNyRHi2Du1btZKD28trxL4WN1TLlQj4XRBW7UFthWF0s7yA144DNXb41WooP/fDNaTDnn82w3C/5IERYO/svtpTCCxXQXGD+YEee/9xJ/SjfvxwvlGPfU5Ap1JAuOKDsqgKe7fErl/xw3GwGo0fsoaBRZH7UT1Tgz3fitYRcsIyUSbyvnG769Z6G5yrLGnrq5CtwBdtcMelPeO6A9YfNML9ZRYfMNHkU8FYswdGTTjGwtkD2FbHGq0xGGA5sgd5S/jfbhwvqoQtdD6Kqb4dxQ9LDhlpiyEXbK/Wo+dzNVR3s7D8SYudifk80IXGf2Lx4OFl6e+7+ylUvVwcs04psTz5oMhPzGc5Za4Tr73SCt9ouihRWL2XxSd6lxDcFuTr9bD1roxJD46Anle3of6c5IxlfWxeiXC9uR/1PQGoQ+XSD+3ztTCvj04BkxOWxPLvu9sAc0VpfPk/bIW1N/ycZHHGTdZhObgfrawMRPIo7h3h7aIlMZfDxOd1asZTxsNlLwDzG3uR/4B0UiJ07WNjfFlOipQPN8w4XJMfvwGndM2/SV7YiTDy83Cq0j5cv3RsrsXh7bqY95jDr9mhinv3pp/prKtDJNbLf1Kj5PsvoWBc9fLkGVc8M9UfnAztDSdzn2Fq2vKkaRhXN7O79Dai/ofsQY+yepUJW9+9hQntjYywsHSx19XA7lezsATgvyRAtzu+jk/HRMpaGDnvWIr3h5t82t0Hww/Lkb88K7Tet97SgYderkVxko2w5NfHycn8+8S4cHcFPE82oDRkbYi16e9aUf36CHaE4sLjtR8dOpZfVSy/uBcpDjk1ddig/AxKJROnE4EL4whXr/qCw6Io6/B2VAf/0w9/EfRGzv3518Gf7doV/L9+G+9vMgcPz7j4S1+wde+OYGFhITtMwaqfvRe89lfpWiLu1mDhK93BQck5X/nz4J1Mgf5ga+H+YPefJCcxIxhfmRgMvvdaYbDp159L7iR42oKWl1qD/cOSO3gt2P1KYbCm61rY+XlfsMVkCbZ+MOohOOxsCppfagt6JHfYjznY8kH0Odd+uT9Y+JP3gpFfXeuqCZpe646+8zeuBjteMQUb3o/el/vh7730ZOanP9hiNgfbIg+SE5ZJML60HQ72/YsluOOVtmBfT0uG+soTbHvJEqx7rSpY+Fa/dI5zLXhqb2Fw/y9HYxz8/IOWoNmcPj7D7zcETbHPG3wvWFfYFOxLk80Z05bF58IhU7Cm86rkZr/pqQua4tKWx8MUbHJG0v/zYP9blqDp0IXRfA6VJ1NT8ELkBHtOK/tNbD5nLHO87uHlqS/6m2TpMtzXErR8Z3+wra872CKrrgrHcX9PNKdCabm3I3g1Ui793cE6Vsai6SIjLKFyWRPsiGkSr3XtD5p+Gk2XwR72PrxyKqbNC8c5Nl363zIFzUf7omk5Jo+SwNPSzNIyTd7HMp4yHgozb6+TvF+ha3FlORWDoXjy+1hOjLlL6FqrW3ISspCfh1OV9rwvEO63xb3HIe5MP2H66moOr5dj67lwXWN+idUTkjsZY+rlKWA88cxcf8hpbwYz9hmmpC1neI4zHfCLaFjG8PGpYI2pLtjtl9ysvbnayerVmPYmc1g+Z3lvClpYXTUaur9cCDaZY+v49IyvrMUi5x1L/f4M/7o1WPOd8PtbaKoKNjlSp5X8+jg5mX8/Ni6fezqC+1n4TP/FEiw37Qge/J+x7bAUrw/eCx78jilY/l+Y9uNxeD8ch8FBIfTvRJjwVOrPPv1f+Nq6r2L0Y/XCf481+j/g9//PZ9KJO8AiHYprDqP97WM49k4LassMUKWw8YWHi9E+z0eLJ4Lg6oKt4QAONNjQ5Ypf053S3pjoRlebE74h9u8RK6rbvdI5vpD+Gi6ctMPeO7ld5Ig7RQCioER21tgvjGECcJ2zY+Vzm8Jf9EKokLvjYPQL8kd9OK4tRN4jox6QtaYAhfd0oy8y02dIwIDwONY+En2OapUBhtMDCG+z4Ie714n8b+ZF3/mFauQ/vQGdF/sRWXEifOqEIVcXHdlYqMXadeFpvSHkhOW2Id/uempbgQKEiyydvhr9cq14ZC30fNpY4vqiUbw4dbwfhZtyo/XjTRGCMhvZqbKZkTFt2fWukxtgfDI6zUn1xGYYR+xwfiidkGGPPrP9RRllLqCC3mLBZl00nxXLcpCTkC6ZbEGOwXsKre5CGP9jJOUEOM90YsOmfKgj5fL+PGzeFID9olSg5ISFFeDFm1icYyZQqXQGrHT6WMkPo9AU4OCOmPLP4qzWqtHpjWxEEoBqjQWWIl3UZCF7R3JWxOTRGEQ437Vj8TP50KbJ+0mxvhSlOXY0vO1lIUxNJnuWhu2lyHmnAcc/nPHzGOcc8tJehO98Z7T/cNE/Jr+Ly4zwvN4AR8q6aaYiv64OEQggS2eCIVpBMTerly97WD9JOjGGJPXybUVO/SGnvcnUZ5iitpw9Z3hYgDLlc9iT3E44n2bt/aiQUUD9ZAE2nHSiP/QgOWHxou/tlSj8hjaaLov0KNioQPdvprvToETe7kwzMrQobk8+wyDr0WLsfaMd7xw7hndaalGaG823RJRP7JnwaDEn8+/HxoW3aXtY+A6/WoOfHDkM8/o8mEbjIsXrEQPMb7TgJ68eDMdhXeo4yGXCwvh/+/tv4nLvbzBqIlj8LS46/wP+w1cmOHQ9lSzMQpp3gZgQAXjbqlHZ6sPSdQUoePwhXGutxIHT4W5ZWntjN/xwHulE85FTCGjZ9cdYwV2gQs5X+FSbbKg0rBP4YCrj38TMhm/7vxJZIhM9oe36u+D8JNJ0cQbgubiS5e8I/Belrf1Zp1a4RwOdJqZ5Z41O4iuruCemkVuihvbh93Dhd9GulN/lQP8WLTSSm3P3qCgIo1AsAE56JfEMqFlF23/eNSomILpwoVcP/YpxhOW2IdPuelpbgWpoNvbD8ZvohyfRdQHONXpoU0zFE3tPwf7lzciPnVI8JMDFOnHDMXnoj81mRqa0DQx44FifA3VcIDVYuU6A55Nw2ma2Ry/H/qKMMqdgaRvZKERC/MA1Jl3S24JMJImIDPjgOWdAzrL4nNFo9RCYYA3FWk5YlDoUbNbHpYvo6YPjsWhaZS3TQbMk5jk3WYft18MofiTyhijC8VkkOTlDfXAllv9Yxgj96WAxNmy3YGV7A05cTi6sMtuzZCzZgNIXV6LjpycmbceSGCcZ0569Gw3lqD4tIucbJSj5Bus/vFUJ67n4OvVurRGWZ0U0tvRE65FZgcy6OoJCDcNmVk/E/sDbD6dGjaWx72cMSevl24qc+kNOe5OpzxBm8m25CIG1Gaov/Ohp58/pRM/lJG14wnP4lswL0AnvgORmZApLiEQ1pciG1y3V8TMcRVZWkr7DzCEUvsR8SmAq4zDxzbcWKnC/93386v0/4PpnA/ht76/wWyFz4InZSeDSUVT4jThYW4r8NXz3uTyYag9jz5PhblnWup1oOWxBniqAYb8Pg3exDtuZHrhGvxIqsOFZMwpy2W+XsdYg1BnMwVImjB/SSueIWUj4q13Bo3rkbzbCyBp7ndCGigp7eCM8cRB+rwMdv/RBuSafXeebKOggnKhARZv0NfUREw4/3ofKbbtQf8QOW8M+7KpmHaM44bYA2feKcDtYmWICld+z53w/VKN2BVTIe7EOaNmGsppG2NqaUf/CLlg/4CuyYmD1lsrjgOO8F37BB9d5B1yx9ZassMwchHP1KHsnC+aDJqSyFahYqIKnl8XZ64cw4ILjVy4Ii5I3IeJ5K7aeWYmDibNp+AybqgLoUuUhJ0PaikOsC7NMFX9fDrt+TQh3H0L26FWJPlhYmZ/Bv/DOk2R/MdFLqCUbxDD3IqfMjcL3OXDB5XKgu9fDqqWJ1kMiHAe3omvVQex5IiZwQ6ysYhlUieXnrruBjwcTOk0yw3LTjeOWbWgYKUF7uX5MZzzwqZfdgwnr3vfg+liNu5MMYImsHHA/jh4nPAuVyErWbnvtqDg4gh11xdM3WhxhoQ6lLbXQ/boaFW+6kSiPM7cvYRSPlqLln3Vw/aACtpiPaMT0kz7ts6Avb8HhF/Ow9PNhXPMNMmWjQs97rC6SfERQPb0XLc8Btm0H0DM68jKXYcLtx9tQ2bsSdQeNcR96I6Ssl+8Q6eqPzO1Nhj7DVLXlLKX4CKTpCS3yivhzCpCndOFAkRUOaVRe9fWXUHeXDdue34fGN+1ortuFXQddQG74urywaGFqykNf1TbsqmuG/c1G7HuhGj3+mZBTxESYoDD+A/7Hv/wGX3vJgv/8tb/H/V9ahv/962WoeFbEwV/8dkyjRsx+xGHWkLGKaIHkTiTzturEfCFu6lRWNvh2fmsfi900QwGt/nF4P4x+TVWtN+Pw63tQuCYHq5824ye1m6BlhS1HUkBibyesi0pRVcYa0WVKqDQGFO+2QHfShp5PQl5Y+WQNbu1h1G0zYPVXDCjZfwjm9UsxvF4ljap5caqpD4bv74ExV8PElRq6J3fCsk1EfadrtN7KFJYZgwyTCHzEr4kJyardRhg0TJQu0yH/eQtMQ/XovJRYU7P0OeaBSdZUPZaHj+lj8jBz2iqXLAOu+BNGggIIsDAvlTYeyWx2T4aZCZllLkwW1CEzEwYUVFhQIhxIki4y4COrXtPYkdUlKiaLB+BP6OAHbrAIPbg4IZ1lhCW0yUs9rhbUwfJE/Kh5hIgJDf0TJuzZlYOOo2NH3/joMvdjKDLD8oyAAzHlPwwT+u3NWDqdU6jHwPJo0w48/uv9OJoQ73G1L6we2PSdx+F65ShcNHJ8e0mZ9nyjpDKU7bah+yMPxKwcPP5Ymh7C/XkwlS1A06GuMWV3bhHe2KnjwSrUbI2tr2IZT718e0hZf4yrvYkyZrr1FLXlY7hfC0NuFwYifQZe52ypxeH9Jhi+mgPDt+twqCIPS28YoLpP8pIxLIz7DTA3NGDPf9Yj56tPwfzjWmziFefyJB+CiRkO8P8DxFwKPEGw2YoAAAAASUVORK5CYII=;strokeWidth=4;" vertex="1" parent="YDyKrme9RF64aUGpRZzH-30">
          <mxGeometry x="0.029999999999972715" y="50" width="249.95" height="170" as="geometry" />
        </mxCell>
        <mxCell id="YDyKrme9RF64aUGpRZzH-32" style="edgeStyle=orthogonalEdgeStyle;rounded=0;orthogonalLoop=1;jettySize=auto;html=1;entryX=0.5;entryY=0;entryDx=0;entryDy=0;shape=flexArrow;" edge="1" parent="WIyWlLk6GJQsqaUBKTNV-1" source="WIyWlLk6GJQsqaUBKTNV-3" target="YDyKrme9RF64aUGpRZzH-5">
          <mxGeometry relative="1" as="geometry" />
        </mxCell>
        <mxCell id="WIyWlLk6GJQsqaUBKTNV-3" value="PRODUCT EXTRACTOR" style="rounded=1;whiteSpace=wrap;html=1;fontSize=12;glass=0;strokeWidth=1;shadow=0;fillColor=#dae8fc;strokeColor=#6c8ebf;fontStyle=1" parent="WIyWlLk6GJQsqaUBKTNV-1" vertex="1">
          <mxGeometry x="260" y="495" width="120" height="60" as="geometry" />
        </mxCell>
        <mxCell id="YDyKrme9RF64aUGpRZzH-34" style="edgeStyle=orthogonalEdgeStyle;rounded=0;orthogonalLoop=1;jettySize=auto;html=1;entryX=0.5;entryY=0;entryDx=0;entryDy=0;shape=flexArrow;" edge="1" parent="WIyWlLk6GJQsqaUBKTNV-1" source="YDyKrme9RF64aUGpRZzH-24" target="WIyWlLk6GJQsqaUBKTNV-3">
          <mxGeometry relative="1" as="geometry" />
        </mxCell>
        <mxCell id="YDyKrme9RF64aUGpRZzH-38" value="" style="edgeStyle=orthogonalEdgeStyle;rounded=0;orthogonalLoop=1;jettySize=auto;html=1;" edge="1" parent="WIyWlLk6GJQsqaUBKTNV-1" source="YDyKrme9RF64aUGpRZzH-36" target="YDyKrme9RF64aUGpRZzH-37">
          <mxGeometry relative="1" as="geometry" />
        </mxCell>
        <mxCell id="YDyKrme9RF64aUGpRZzH-36" value="NEW USER" style="ellipse;whiteSpace=wrap;html=1;" vertex="1" parent="WIyWlLk6GJQsqaUBKTNV-1">
          <mxGeometry x="1170" y="370" width="120" height="80" as="geometry" />
        </mxCell>
        <mxCell id="YDyKrme9RF64aUGpRZzH-41" value="" style="edgeStyle=orthogonalEdgeStyle;rounded=0;orthogonalLoop=1;jettySize=auto;html=1;" edge="1" parent="WIyWlLk6GJQsqaUBKTNV-1" source="YDyKrme9RF64aUGpRZzH-37" target="YDyKrme9RF64aUGpRZzH-40">
          <mxGeometry relative="1" as="geometry" />
        </mxCell>
        <mxCell id="YDyKrme9RF64aUGpRZzH-37" value="RANDOM ALGORITHM" style="whiteSpace=wrap;html=1;" vertex="1" parent="WIyWlLk6GJQsqaUBKTNV-1">
          <mxGeometry x="1170" y="520" width="120" height="60" as="geometry" />
        </mxCell>
        <mxCell id="YDyKrme9RF64aUGpRZzH-39" value="Interactions = 0&amp;nbsp;" style="text;html=1;strokeColor=none;fillColor=none;align=center;verticalAlign=middle;whiteSpace=wrap;rounded=0;" vertex="1" parent="WIyWlLk6GJQsqaUBKTNV-1">
          <mxGeometry x="1241" y="465" width="100" height="30" as="geometry" />
        </mxCell>
        <mxCell id="YDyKrme9RF64aUGpRZzH-44" value="" style="edgeStyle=orthogonalEdgeStyle;rounded=0;orthogonalLoop=1;jettySize=auto;html=1;" edge="1" parent="WIyWlLk6GJQsqaUBKTNV-1" source="YDyKrme9RF64aUGpRZzH-40" target="YDyKrme9RF64aUGpRZzH-43">
          <mxGeometry relative="1" as="geometry" />
        </mxCell>
        <mxCell id="YDyKrme9RF64aUGpRZzH-40" value="80% RANDOM + 20% RECOMMENDER" style="whiteSpace=wrap;html=1;" vertex="1" parent="WIyWlLk6GJQsqaUBKTNV-1">
          <mxGeometry x="1167.5" y="660" width="125" height="60" as="geometry" />
        </mxCell>
        <mxCell id="YDyKrme9RF64aUGpRZzH-42" value="0 &amp;lt; Interactions &amp;lt; 100&amp;nbsp;" style="text;html=1;strokeColor=none;fillColor=none;align=center;verticalAlign=middle;whiteSpace=wrap;rounded=0;" vertex="1" parent="WIyWlLk6GJQsqaUBKTNV-1">
          <mxGeometry x="1241" y="600" width="129" height="30" as="geometry" />
        </mxCell>
        <mxCell id="YDyKrme9RF64aUGpRZzH-43" value="20% RANDOM + 80% RECOMMENDER" style="whiteSpace=wrap;html=1;" vertex="1" parent="WIyWlLk6GJQsqaUBKTNV-1">
          <mxGeometry x="1165" y="800" width="130" height="60" as="geometry" />
        </mxCell>
        <mxCell id="YDyKrme9RF64aUGpRZzH-45" value="Interactions &amp;gt;= 100&amp;nbsp;" style="text;html=1;strokeColor=none;fillColor=none;align=center;verticalAlign=middle;whiteSpace=wrap;rounded=0;" vertex="1" parent="WIyWlLk6GJQsqaUBKTNV-1">
          <mxGeometry x="1241" y="750" width="120" height="30" as="geometry" />
        </mxCell>
        <mxCell id="YDyKrme9RF64aUGpRZzH-46" value="" style="endArrow=none;dashed=1;html=1;rounded=0;" edge="1" parent="WIyWlLk6GJQsqaUBKTNV-1">
          <mxGeometry width="50" height="50" relative="1" as="geometry">
            <mxPoint x="1060" y="745" as="sourcePoint" />
            <mxPoint x="1440" y="745" as="targetPoint" />
          </mxGeometry>
        </mxCell>
        <mxCell id="YDyKrme9RF64aUGpRZzH-47" value="threshold = 100&amp;nbsp;" style="text;html=1;strokeColor=none;fillColor=none;align=center;verticalAlign=middle;whiteSpace=wrap;rounded=0;" vertex="1" parent="WIyWlLk6GJQsqaUBKTNV-1">
          <mxGeometry x="1440" y="730" width="120" height="30" as="geometry" />
        </mxCell>
        <mxCell id="YDyKrme9RF64aUGpRZzH-50" value="&lt;h1&gt;&lt;font style=&quot;font-size: 22px;&quot;&gt;Recommendation System&lt;/font&gt;&lt;/h1&gt;" style="text;html=1;strokeColor=none;fillColor=none;spacing=5;spacingTop=-20;whiteSpace=wrap;overflow=hidden;rounded=0;" vertex="1" parent="WIyWlLk6GJQsqaUBKTNV-1">
          <mxGeometry x="225" y="825" width="305" height="40" as="geometry" />
        </mxCell>
        <mxCell id="YDyKrme9RF64aUGpRZzH-51" value="interactions &amp;gt;= threshold" style="text;html=1;strokeColor=#666666;fillColor=#f5f5f5;align=center;verticalAlign=middle;whiteSpace=wrap;rounded=0;fontStyle=1;fontColor=#333333;" vertex="1" parent="WIyWlLk6GJQsqaUBKTNV-1">
          <mxGeometry x="335" y="390" width="157.5" height="30" as="geometry" />
        </mxCell>
      </root>
    </mxGraphModel>
  </diagram>
</mxfile>
